<svg width="170" height="170" viewBox="0 0 170 170" fill="none" xmlns="http://www.w3.org/2000/svg">
<circle cx="85" cy="85" r="85" fill="white"/>
<path d="M80.5203 140C108.422 140 131.041 117.381 131.041 89.4797C131.041 61.5781 108.422 38.9594 80.5203 38.9594C52.6187 38.9594 30 61.5781 30 89.4797C30 117.381 52.6187 140 80.5203 140Z" fill="#F8F8F8"/>
<path d="M138.934 71.8709C138.247 68.4992 137.215 65.1894 135.878 62.0206C134.565 58.9138 132.935 55.9142 131.041 53.1119C129.169 50.3378 127.015 47.7272 124.641 45.3591C122.267 42.9853 119.662 40.837 116.888 38.9595C114.086 37.0649 111.086 35.4411 107.98 34.1217C104.811 32.7797 101.495 31.7535 98.1292 31.0657C94.6728 30.3609 91.1206 30 87.5684 30C84.0162 30 80.464 30.3609 77.0077 31.0657C73.6359 31.7535 70.3261 32.7854 67.1573 34.1217C64.0506 35.4354 61.0509 37.0649 58.2486 38.9595C55.4745 40.8314 52.8639 42.9853 50.4958 45.3591C48.122 47.7328 45.9738 50.3378 44.0962 53.1119C42.2017 55.9142 40.5778 58.9138 39.2584 62.0206C37.9165 65.1894 36.8903 68.5048 36.2024 71.8709C35.4976 75.3273 35.1367 78.8795 35.1367 82.4317C35.1367 85.9839 35.4976 89.5361 36.2024 92.9925C36.8903 96.3642 37.9221 99.674 39.2584 102.843C40.5722 105.95 42.2017 108.949 44.0962 111.752C45.9681 114.526 48.122 117.136 50.4958 119.504C52.8696 121.878 55.4745 124.026 58.2486 125.904C61.0509 127.798 64.0506 129.422 67.1573 130.742C70.3261 132.084 73.6415 133.11 77.0077 133.798C80.464 134.503 84.0162 134.863 87.5684 134.863C91.1206 134.863 94.6728 134.503 98.1292 133.798C101.501 133.11 104.811 132.078 107.98 130.742C111.086 129.428 114.086 127.798 116.888 125.904C119.662 124.032 122.273 121.878 124.641 119.504C127.015 117.131 129.163 114.526 131.041 111.752C132.935 108.949 134.559 105.95 135.878 102.843C137.22 99.674 138.247 96.3586 138.934 92.9925C139.639 89.5361 140 85.9839 140 82.4317C140 78.8795 139.639 75.3273 138.934 71.8709ZM133.493 82.4317C133.493 107.793 112.93 128.357 87.5684 128.357C62.2068 128.357 41.6435 107.793 41.6435 82.4317C41.6435 57.0701 62.2012 36.5067 87.5684 36.5067C112.936 36.5067 133.493 57.0701 133.493 82.4317Z" fill="#FFBC57"/>
<path d="M78.2371 103.852C78.2202 103.852 78.1976 103.852 78.1807 103.852C77.1714 103.835 76.2298 103.35 75.6265 102.538L65.3026 88.6395C64.2313 87.1961 64.5301 85.1606 65.9735 84.0893C67.417 83.018 69.4524 83.3168 70.5237 84.7603L78.3273 95.2646L104.681 62.2404C105.803 60.8364 107.85 60.6053 109.254 61.7273C110.658 62.8494 110.889 64.8961 109.767 66.3001L80.78 102.628C80.1598 103.401 79.2238 103.852 78.2371 103.852Z" fill="#2B2929"/>
</svg>
