<svg width="12" height="8" viewBox="0 0 12 8" fill="none" xmlns="http://www.w3.org/2000/svg">
<path d="M6.70956 6.82457L10.9496 2.58457C11.0433 2.49161 11.1177 2.38101 11.1685 2.25915C11.2192 2.13729 11.2454 2.00658 11.2454 1.87457C11.2454 1.74256 11.2192 1.61185 11.1685 1.48999C11.1177 1.36814 11.0433 1.25753 10.9496 1.16457C10.7622 0.978321 10.5087 0.873779 10.2446 0.873779C9.98038 0.873779 9.72693 0.978321 9.53956 1.16457L5.99956 4.70457L2.45956 1.16457C2.2722 0.97832 2.01875 0.873779 1.75456 0.873779C1.49038 0.873779 1.23693 0.97832 1.04956 1.16457C0.956882 1.25801 0.883556 1.36883 0.833792 1.49066C0.784027 1.6125 0.758802 1.74296 0.759563 1.87457C0.758802 2.00618 0.784027 2.13664 0.833792 2.25848C0.883556 2.38032 0.956881 2.49113 1.04956 2.58457L5.28956 6.82457C5.38253 6.9183 5.49313 6.99269 5.61499 7.04346C5.73685 7.09423 5.86755 7.12037 5.99956 7.12037C6.13157 7.12037 6.26228 7.09423 6.38414 7.04346C6.506 6.99269 6.6166 6.9183 6.70956 6.82457Z" fill="#FFBC57"/>
</svg>
