<svg width="11" height="11" viewBox="0 0 11 11" fill="none" xmlns="http://www.w3.org/2000/svg">
<path d="M10.9337 0.839338C10.8431 0.621169 10.6698 0.447798 10.4516 0.357195C10.3443 0.311444 10.229 0.287177 10.1123 0.285767H1.18374C0.946939 0.285767 0.719838 0.379835 0.552395 0.547279C0.384951 0.714722 0.290883 0.941823 0.290883 1.17862C0.290883 1.41542 0.384951 1.64253 0.552395 1.80997C0.719838 1.97741 0.946939 2.07148 1.18374 2.07148H7.96053L0.549811 9.47327C0.466125 9.55627 0.399702 9.65502 0.354373 9.76382C0.309043 9.87263 0.285706 9.98933 0.285706 10.1072C0.285706 10.2251 0.309043 10.3418 0.354373 10.4506C0.399702 10.5594 0.466125 10.6581 0.549811 10.7411C0.632814 10.8248 0.731565 10.8912 0.840368 10.9366C0.949171 10.9819 1.06587 11.0052 1.18374 11.0052C1.30161 11.0052 1.41831 10.9819 1.52711 10.9366C1.63591 10.8912 1.73467 10.8248 1.81767 10.7411L9.21945 3.33041V10.1072C9.21945 10.344 9.31352 10.5711 9.48097 10.7385C9.64841 10.906 9.87551 11.0001 10.1123 11.0001C10.3491 11.0001 10.5762 10.906 10.7437 10.7385C10.9111 10.5711 11.0052 10.344 11.0052 10.1072V1.17862C11.0038 1.06195 10.9795 0.946679 10.9337 0.839338V0.839338Z" fill="#FFBC57"/>
</svg>
