<svg width="26" height="23" viewBox="0 0 26 23" fill="none" xmlns="http://www.w3.org/2000/svg">
<path d="M23.5632 2.43654C22.1887 1.05845 20.3667 0.217338 18.4262 0.0651471C16.4858 -0.0870437 14.5549 0.45972 12.9824 1.60667C11.3325 0.379549 9.27905 -0.176889 7.23539 0.049415C5.19174 0.275719 3.30974 1.26795 1.96837 2.8263C0.627004 4.38466 -0.0740872 6.39337 0.00627911 8.44794C0.0866454 10.5025 0.9425 12.4503 2.40149 13.8991L10.4538 21.9645C11.1281 22.6281 12.0363 23 12.9824 23C13.9284 23 14.8366 22.6281 15.5109 21.9645L23.5632 13.8991C25.0772 12.3759 25.927 10.3155 25.927 8.16784C25.927 6.0202 25.0772 3.95979 23.5632 2.43654V2.43654ZM21.7349 12.1097L13.6826 20.1621C13.5909 20.2546 13.4819 20.3281 13.3617 20.3782C13.2415 20.4283 13.1126 20.4541 12.9824 20.4541C12.8521 20.4541 12.7232 20.4283 12.603 20.3782C12.4828 20.3281 12.3738 20.2546 12.2822 20.1621L4.22981 12.0708C3.2129 11.0313 2.64347 9.63499 2.64347 8.18081C2.64347 6.72664 3.2129 5.33027 4.22981 4.29079C5.26605 3.2677 6.66363 2.69402 8.11983 2.69402C9.57603 2.69402 10.9736 3.2677 12.0099 4.29079C12.1304 4.41232 12.2738 4.50879 12.4318 4.57462C12.5898 4.64045 12.7593 4.67434 12.9305 4.67434C13.1017 4.67434 13.2711 4.64045 13.4292 4.57462C13.5872 4.50879 13.7306 4.41232 13.8511 4.29079C14.8874 3.2677 16.285 2.69402 17.7412 2.69402C19.1974 2.69402 20.5949 3.2677 21.6312 4.29079C22.6621 5.31665 23.2502 6.70544 23.2696 8.15966C23.289 9.61387 22.7381 11.0179 21.7349 12.0708V12.1097Z" fill="#535353"/>
</svg>
