<svg width="30" height="30" viewBox="0 0 30 30" fill="none" xmlns="http://www.w3.org/2000/svg">
<path d="M15 13.5C14.6022 13.5 14.2206 13.658 13.9393 13.9393C13.658 14.2206 13.5 14.6022 13.5 15V21C13.5 21.3978 13.658 21.7794 13.9393 22.0607C14.2206 22.342 14.6022 22.5 15 22.5C15.3978 22.5 15.7794 22.342 16.0607 22.0607C16.342 21.7794 16.5 21.3978 16.5 21V15C16.5 14.6022 16.342 14.2206 16.0607 13.9393C15.7794 13.658 15.3978 13.5 15 13.5ZM15.57 7.62C15.2048 7.46997 14.7952 7.46997 14.43 7.62C14.2459 7.69139 14.0777 7.79844 13.935 7.935C13.8025 8.0808 13.696 8.24822 13.62 8.43C13.536 8.60802 13.4949 8.80323 13.5 9C13.4989 9.19741 13.5367 9.3931 13.6113 9.57586C13.686 9.75861 13.796 9.92484 13.935 10.065C14.0808 10.1975 14.2482 10.304 14.43 10.38C14.6573 10.4734 14.904 10.5095 15.1484 10.4852C15.3929 10.4609 15.6277 10.3769 15.8321 10.2406C16.0365 10.1043 16.2043 9.91992 16.3208 9.7036C16.4372 9.48729 16.4988 9.24567 16.5 9C16.4945 8.60285 16.3391 8.22245 16.065 7.935C15.9223 7.79844 15.7541 7.69139 15.57 7.62ZM15 0C12.0333 0 9.13319 0.879734 6.66645 2.52796C4.19971 4.17618 2.27713 6.51885 1.14181 9.25974C0.00649926 12.0006 -0.290551 15.0166 0.288227 17.9263C0.867006 20.8361 2.29562 23.5088 4.3934 25.6066C6.49119 27.7044 9.16394 29.133 12.0736 29.7118C14.9834 30.2905 17.9994 29.9935 20.7403 28.8582C23.4811 27.7229 25.8238 25.8003 27.472 23.3335C29.1203 20.8668 30 17.9667 30 15C30 13.0302 29.612 11.0796 28.8582 9.25974C28.1044 7.43986 26.9995 5.78628 25.6066 4.3934C24.2137 3.00052 22.5601 1.89563 20.7403 1.14181C18.9204 0.387986 16.9698 0 15 0ZM15 27C12.6266 27 10.3066 26.2962 8.33316 24.9776C6.35977 23.659 4.8217 21.7849 3.91345 19.5922C3.0052 17.3995 2.76756 14.9867 3.23058 12.6589C3.69361 10.3311 4.83649 8.19295 6.51472 6.51472C8.19295 4.83649 10.3311 3.6936 12.6589 3.23058C14.9867 2.76755 17.3995 3.00519 19.5922 3.91344C21.7849 4.8217 23.6591 6.35977 24.9776 8.33315C26.2962 10.3065 27 12.6266 27 15C27 18.1826 25.7357 21.2348 23.4853 23.4853C21.2348 25.7357 18.1826 27 15 27Z" fill="white"/>
</svg>
