<svg width="24" height="24" viewBox="0 0 24 24" fill="none" xmlns="http://www.w3.org/2000/svg">
<g clip-path="url(#clip0_338_14860)">
<path d="M20.4893 3.51086C15.808 -1.16996 8.19196 -1.16996 3.51062 3.51086C-1.17021 8.19169 -1.17021 15.808 3.51062 20.4891C5.85127 22.8295 8.92565 23.9998 12 23.9998C15.0743 23.9998 18.1487 22.8295 20.4893 20.4891C25.1702 15.8082 25.1702 8.19197 20.4893 3.51086ZM7.72837 5.64737C8.17143 5.20379 8.76186 4.95929 9.38947 4.95929C10.0171 4.95929 10.6075 5.20379 11.0511 5.64784C11.4947 6.09142 11.7389 6.68134 11.7389 7.30871C11.7389 7.93631 11.4947 8.52623 11.0506 8.97004C10.607 9.41385 10.0171 9.65812 9.38947 9.65812C8.76186 9.65812 8.17194 9.4139 7.72837 8.97004C7.28428 8.52619 7.04006 7.93631 7.04006 7.30871C7.04006 6.6811 7.28428 6.09123 7.72837 5.64737ZM8.12352 16.9838C7.97057 17.1368 7.77018 17.2133 7.56984 17.2133C7.3695 17.2133 7.16906 17.1368 7.01615 16.9838C6.71015 16.6782 6.71015 16.1821 7.01611 15.8764L15.8764 7.01611C16.1823 6.71021 16.6779 6.71021 16.9838 7.01611C17.2898 7.32174 17.2898 7.81786 16.9838 8.12353L8.12352 16.9838ZM16.7936 17.8381C16.3506 18.2817 15.7601 18.5262 15.1325 18.5262C14.5049 18.5262 13.9145 18.2817 13.4709 17.8376C13.0273 17.3943 12.7831 16.8044 12.7831 16.1768C12.7831 15.5491 13.0273 14.9592 13.4714 14.5154C13.9145 14.0719 14.5049 13.8274 15.1325 13.8274C15.7601 13.8274 16.3506 14.0719 16.7941 14.5159C17.2377 14.9595 17.4819 15.5494 17.4819 16.1768C17.4819 16.8043 17.2377 17.3942 16.7936 17.8381Z" fill="#FFBC57"/>
</g>
<defs>
<clipPath id="clip0_338_14860">
<rect width="24" height="24" fill="white"/>
</clipPath>
</defs>
</svg>
