<svg width="30" height="30" viewBox="0 0 30 30" fill="none" xmlns="http://www.w3.org/2000/svg">
<g clip-path="url(#clip0_338_14923)">
<path d="M15 30C23.2843 30 30 23.2843 30 15C30 6.71573 23.2843 0 15 0C6.71573 0 0 6.71573 0 15C0 23.2843 6.71573 30 15 30Z" fill="#75B73B"/>
<path d="M14.5803 6.35425C10.0083 6.57175 6.40036 10.3794 6.41413 14.9565C6.41835 16.3505 6.75491 17.6664 7.3487 18.8292L6.43716 23.2539C6.38788 23.4933 6.60374 23.7029 6.84152 23.6465L11.1772 22.6194C12.2911 23.1743 13.5422 23.4947 14.8663 23.5149C19.5394 23.5863 23.4357 19.8759 23.5816 15.2046C23.7375 10.1973 19.6049 6.1149 14.5803 6.35425ZM19.7537 19.6837C18.484 20.9534 16.7957 21.6527 15 21.6527C13.9486 21.6527 12.9418 21.4167 12.0078 20.9515L11.4042 20.6507L8.74581 21.2804L9.30532 18.5643L9.00796 17.9817C8.52304 17.0321 8.27718 16.0054 8.27718 14.9299C8.27718 13.1341 8.9765 11.4459 10.2462 10.1761C11.5045 8.91767 13.2203 8.20716 15.0001 8.20716C16.7957 8.20716 18.484 8.90648 19.7536 10.1761C21.0233 11.4458 21.7226 13.1341 21.7226 14.9297C21.7227 16.7095 21.0121 18.4253 19.7537 19.6837Z" fill="white"/>
<path d="M19.1669 16.7919L17.5037 16.3144C17.2852 16.2518 17.0497 16.3138 16.8904 16.4761L16.4836 16.8904C16.3122 17.0652 16.052 17.1213 15.825 17.0295C15.0383 16.7111 13.3833 15.2396 12.9609 14.5037C12.8388 14.2914 12.859 14.0261 13.0088 13.8321L13.3637 13.3728C13.5028 13.1929 13.5321 12.9511 13.4402 12.7431L12.7405 11.1606C12.573 10.7816 12.0886 10.6712 11.7722 10.9389C11.308 11.3315 10.7573 11.928 10.6905 12.5889C10.5724 13.7542 11.0722 15.2229 12.9617 16.9867C15.1447 19.0244 16.893 19.2934 18.0314 19.0177C18.677 18.8615 19.193 18.2346 19.5184 17.7213C19.7406 17.3711 19.565 16.9063 19.1669 16.7919Z" fill="white"/>
</g>
<defs>
<clipPath id="clip0_338_14923">
<rect width="30" height="30" fill="white"/>
</clipPath>
</defs>
</svg>
