<svg width="23" height="23" viewBox="0 0 23 23" fill="none" xmlns="http://www.w3.org/2000/svg">
<path d="M2.98148 22.4524L22.4524 2.98148C23.1825 2.25132 23.1825 1.27778 22.4524 0.547619C21.7222 -0.18254 20.7487 -0.182538 20.0185 0.54762L0.547619 20.0185C-0.18254 20.7487 -0.18254 21.7222 0.547619 22.4524C1.27778 23.1825 2.25132 23.1825 2.98148 22.4524Z" fill="#535353"/>
<path d="M0.547667 2.98148L20.0186 22.4524C20.7487 23.1825 21.7223 23.1825 22.4524 22.4524C23.1826 21.7222 23.1826 20.7487 22.4524 20.0185L2.98153 0.547619C2.25137 -0.18254 1.27783 -0.18254 0.547667 0.547619C-0.182492 1.27778 -0.182492 2.25132 0.547667 2.98148Z" fill="#535353"/>
</svg>
