<svg width="40" height="40" viewBox="0 0 40 40" fill="none" xmlns="http://www.w3.org/2000/svg">
<path d="M10.511 16.6691C11.2896 16.6691 11.9709 15.9878 11.9709 15.2092C11.9709 14.4307 11.2896 13.7494 10.511 13.7494C9.73241 13.7494 9.05115 14.4307 9.05115 15.2092C9.05115 15.9878 9.73241 16.6691 10.511 16.6691Z" fill="#2B2929"/>
<path d="M10.511 25.3309C11.2896 25.3309 11.9709 24.6496 11.9709 23.871C11.9709 23.0925 11.2896 22.4112 10.511 22.4112C9.73241 22.4112 9.05115 23.0925 9.05115 23.871C9.05115 24.6496 9.73241 25.3309 10.511 25.3309Z" fill="#2B2929"/>
<path d="M29.3917 16.6691C30.1703 16.6691 30.8516 15.9878 30.8516 15.2092C30.8516 14.4307 30.1703 13.7494 29.3917 13.7494C28.6132 13.7494 27.9319 14.4307 27.9319 15.2092C27.9319 15.9878 28.6132 16.6691 29.3917 16.6691Z" fill="#2B2929"/>
<path d="M39.9027 2.07056C39.9027 1.48662 39.4161 1 38.8321 1H1.07056C0.486618 1 0 1.48662 0 2.07056V10.7324V10.8297V28.3479C0 28.9319 0.486618 29.4185 1.07056 29.4185H7.0073L5.45012 38.4696C5.45012 38.7616 5.45012 39.0535 5.64477 39.2482C5.83942 39.4428 6.03406 39.6375 6.32603 39.6375H6.52068C7.0073 39.6375 7.49392 39.2482 7.59124 38.7616L9.14842 29.3212H30.8516L32.4088 38.7616C32.5061 39.2482 32.8954 39.6375 33.4793 39.6375H33.674C34.2579 39.5401 34.6472 38.9562 34.5499 38.4696L32.9927 29.4185H38.9294C39.5134 29.4185 40 28.9319 40 28.3479V10.927V10.8297L39.9027 2.07056ZM37.8589 20.6594V27.2774H21.0219V20.6594H37.8589ZM37.8589 11.9002V18.5182H21.0219V11.9002H37.8589ZM37.8589 3.0438V9.6618H21.0219V3.0438H37.8589ZM18.8808 20.6594V27.2774H2.0438V20.6594H18.8808ZM18.8808 11.9002V18.5182H2.0438V11.9002H18.8808ZM18.8808 3.0438V9.6618H2.0438V3.0438H18.8808Z" fill="#2B2929"/>
<path d="M10.511 7.81265C11.2896 7.81265 11.9709 7.13139 11.9709 6.3528C11.9709 5.57421 11.2896 4.89294 10.511 4.89294C9.73241 4.89294 9.05115 5.57421 9.05115 6.3528C9.05115 7.13139 9.73241 7.81265 10.511 7.81265Z" fill="#2B2929"/>
<path d="M29.3917 7.81265C30.1703 7.81265 30.8516 7.13138 30.8516 6.3528C30.8516 5.57421 30.1703 4.99026 29.3917 4.99026C28.6132 4.99026 27.9319 5.67153 27.9319 6.45012C27.9319 7.22871 28.6132 7.81265 29.3917 7.81265Z" fill="#2B2929"/>
<path d="M29.3917 25.3309C30.1703 25.3309 30.8516 24.6496 30.8516 23.871C30.8516 23.0925 30.1703 22.4112 29.3917 22.4112C28.6132 22.4112 27.9319 23.0925 27.9319 23.871C27.9319 24.6496 28.6132 25.3309 29.3917 25.3309Z" fill="#2B2929"/>
</svg>
