<svg width="40" height="40" viewBox="0 0 40 40" fill="none" xmlns="http://www.w3.org/2000/svg">
<path d="M14.6098 26.0488H7.39028C6.31711 26.0488 5.53662 26.9268 5.53662 27.9024V32.0975C5.53662 33.1707 6.41467 33.9512 7.39028 33.9512H14.6098C15.683 33.9512 16.4635 33.0732 16.4635 32.0975V27.9024C16.561 26.8293 15.683 26.0488 14.6098 26.0488ZM14.7074 32.0975H7.39028V27.9024H14.7074V32.0975Z" fill="#2B2929"/>
<path d="M35.878 20.878H29.9268L30.3171 20.4878C30.6098 20.0975 30.6098 19.5122 30.2195 19.1219C29.8293 18.8293 29.2439 18.8293 28.8537 19.2195L27.878 20.2927V16.5854C27.878 16.0975 27.4878 15.6097 26.9024 15.6097C26.4146 15.6097 25.9268 16 25.9268 16.5854V20.2927L24.9512 19.2195C24.7561 19.0244 24.561 18.9268 24.2683 18.9268C23.9756 18.9268 23.7805 19.0244 23.5854 19.1219C23.1951 19.5122 23.1951 20.0975 23.4878 20.4878L23.7805 20.878H3.97561C3.4878 20.878 3 21.2683 3 21.8536V39.0244C3 39.5122 3.39024 40 3.97561 40H35.9756C36.4634 40 36.9512 39.6097 36.9512 39.0244V21.7561C36.8537 21.2683 36.4634 20.878 35.878 20.878ZM26.122 22.7317V38.1463H19.0976V22.7317H26.122ZM27.9756 38.1463V22.7317H35V38.1463H27.9756ZM4.85366 38.1463V22.7317H17.1463V38.1463H4.85366Z" fill="#2B2929"/>
<path d="M35.878 0H18.1219C17.6341 0 17.1463 0.390244 17.1463 0.97561V5.85366C16.9512 5.65854 16.7561 5.56098 16.4634 5.56098H13.9268V0.97561C13.9268 0.487805 13.5366 0 12.9512 0H9.04875C8.56095 0 8.07314 0.390244 8.07314 0.97561V5.56098H5.53655C5.14631 5.56098 4.75607 5.85366 4.65851 6.14634L3.09753 10.7317C2.99997 10.9268 2.99997 11.3171 3.19509 11.5122C3.39021 11.8049 3.6829 11.9024 3.97558 11.9024H35.9756C36.4634 11.9024 36.9512 11.5122 36.9512 10.9268V0.97561C36.8536 0.390244 36.4634 0 35.878 0ZM19 10.0488V1.85366H26.0244V10.0488H19ZM27.9756 10.0488V1.85366H35V10.0488H27.9756ZM10.0244 6.43902V1.85366H12.0731V6.43902C12.0731 6.92683 12.4634 7.41463 13.0488 7.41463H15.878L16.8536 10.0488H5.24387L6.21948 7.41463H9.04875C9.53655 7.41463 10.0244 7.02439 10.0244 6.43902Z" fill="#2B2929"/>
<path d="M15.3902 23.2195C14.7073 23.2195 14.1219 23.8048 14.1219 24.4878C14.1219 25.1707 14.7073 25.7561 15.3902 25.7561C16.0732 25.7561 16.6585 25.1707 16.6585 24.4878C16.561 23.8048 16.0732 23.2195 15.3902 23.2195Z" fill="#2B2929"/>
<path d="M24.4634 25.6585C25.1463 25.6585 25.7317 25.0732 25.7317 24.3902C25.7317 23.7073 25.1463 23.1219 24.4634 23.1219C23.7804 23.1219 23.1951 23.7073 23.1951 24.3902C23.1951 25.1707 23.7804 25.6585 24.4634 25.6585Z" fill="#2B2929"/>
<path d="M29.6341 23.2195C28.9512 23.2195 28.3658 23.8048 28.3658 24.4878C28.3658 25.1707 28.9512 25.7561 29.6341 25.7561C30.3171 25.7561 30.9024 25.1707 30.9024 24.4878C30.8049 23.8048 30.3171 23.2195 29.6341 23.2195Z" fill="#2B2929"/>
<path d="M24.4634 6.92682C23.7804 6.92682 23.1951 7.51218 23.1951 8.19511C23.1951 8.87804 23.7804 9.4634 24.4634 9.4634C25.1463 9.4634 25.7317 8.87804 25.7317 8.19511C25.6341 7.51218 25.1463 6.92682 24.4634 6.92682Z" fill="#2B2929"/>
<path d="M29.6341 6.92682C28.9512 6.92682 28.3658 7.51218 28.3658 8.19511C28.3658 8.87804 28.9512 9.4634 29.6341 9.4634C30.3171 9.4634 30.9024 8.87804 30.9024 8.19511C30.8049 7.51218 30.3171 6.92682 29.6341 6.92682Z" fill="#2B2929"/>
<path d="M12.4635 25.6585C13.1464 25.6585 13.7318 25.0732 13.7318 24.3902C13.7318 23.7073 13.1464 23.1219 12.4635 23.1219C11.7806 23.1219 11.1952 23.7073 11.1952 24.3902C11.1952 25.1707 11.7806 25.6585 12.4635 25.6585Z" fill="#2B2929"/>
<path d="M9.5366 25.6585C10.2195 25.6585 10.8049 25.0732 10.8049 24.3902C10.8049 23.7073 10.2195 23.1219 9.5366 23.1219C8.85368 23.1219 8.26831 23.7073 8.26831 24.3902C8.36587 25.1707 8.85368 25.6585 9.5366 25.6585Z" fill="#2B2929"/>
<path d="M6.70726 25.6585C7.39018 25.6585 7.97555 25.0732 7.97555 24.3902C7.97555 23.7073 7.39018 23.1219 6.70726 23.1219C6.02433 23.1219 5.43896 23.7073 5.43896 24.3902C5.43896 25.1707 6.02433 25.6585 6.70726 25.6585Z" fill="#2B2929"/>
</svg>
