<svg width="40" height="40" viewBox="0 0 40 40" fill="none" xmlns="http://www.w3.org/2000/svg">
<path d="M30.3659 0H8.70732C6.65854 0 5 1.65854 5 3.70732V36.3902C5 38.3415 6.65854 40 8.70732 40H30.3659C32.4146 40 34.0732 38.3415 34.0732 36.2927V3.70732C34.0732 1.65854 32.4146 0 30.3659 0ZM32.122 3.70732V36.3902C32.122 37.3659 31.3415 38.1463 30.3659 38.1463H8.70732C7.73171 38.1463 6.95122 37.3659 6.95122 36.3902V3.70732C6.95122 2.73171 7.73171 1.95122 8.70732 1.95122H30.3659C31.3415 1.95122 32.122 2.73171 32.122 3.70732Z" fill="#2B2929"/>
<path d="M29.195 32.7805L31.1463 29.8537C31.2438 29.6585 31.3414 29.3658 31.2438 29.0732C31.1463 28.7805 31.0487 28.5854 30.8536 28.4878C30.3658 28.1951 29.7804 28.2927 29.4877 28.7805L28.0243 31.0244L24.9024 26.3415L28.0243 21.6585L29.4877 23.9024C29.7804 24.2927 30.3658 24.4878 30.8536 24.1951C31.3414 23.9024 31.4389 23.3171 31.1463 22.8293L29.195 19.9024L31.1463 16.9756C31.3414 16.7805 31.3414 16.5854 31.3414 16.2927C31.2438 16 31.1463 15.8049 30.9511 15.7073C30.4633 15.4146 29.878 15.5122 29.5853 16L28.1219 18.2439L24.9999 13.561L28.1219 8.87804L29.5853 11.1219C29.878 11.5122 30.4633 11.7073 30.9511 11.4146C31.1463 11.3171 31.3414 11.0244 31.3414 10.8293C31.4389 10.5366 31.3414 10.3415 31.2438 10.0488L29.2926 7.12194L31.2438 4.19512C31.5365 3.70731 31.4389 3.12194 30.9511 2.82926C30.756 2.7317 30.4633 2.63414 30.1706 2.7317C29.878 2.82926 29.6828 2.92682 29.5853 3.12194L28.1219 5.36585L26.6585 3.12194C26.5609 2.92682 26.2682 2.7317 26.0731 2.7317C25.7804 2.7317 25.5853 2.7317 25.2926 2.82926C24.8048 3.12194 24.7072 3.70731 24.9999 4.19512L26.9511 7.12194L23.8292 11.8049L20.7072 7.12194L22.6585 4.19512C22.9511 3.70731 22.8536 3.12194 22.3658 2.82926C22.1706 2.7317 21.878 2.63414 21.5853 2.7317C21.2926 2.82926 21.0975 2.92682 20.9999 3.12194L19.5365 5.36585L18.0731 3.12194C17.7804 2.63414 17.195 2.53658 16.7072 2.82926C16.2194 3.12194 16.1219 3.70731 16.4146 4.19512L18.3658 7.12194L15.2438 11.8049L12.2194 7.2195L14.1706 4.29268C14.4633 3.80487 14.3658 3.21951 13.878 2.92682C13.6828 2.7317 13.3902 2.63414 13.0975 2.7317C12.9024 2.7317 12.7072 2.92682 12.5121 3.12194L11.0487 5.46341L9.48772 3.12194C9.19504 2.7317 8.60967 2.53658 8.12187 2.82926C7.73162 3.21951 7.5365 3.80487 7.82918 4.19512L9.7804 7.12194L7.82918 10.0488C7.5365 10.5366 7.63406 11.1219 8.12187 11.4146C8.51211 11.7073 9.19504 11.6097 9.48772 11.1219L10.9511 8.87804L14.0731 13.561L10.9511 18.2439L9.48772 16C9.19504 15.5122 8.60967 15.4146 8.12187 15.7073C7.63406 16 7.5365 16.5854 7.82918 17.0732L9.7804 20L7.82918 22.9268C7.5365 23.4146 7.63406 24 8.12187 24.2927C8.51211 24.5854 9.19504 24.4878 9.48772 24L10.9511 21.7561L14.0731 26.439L10.9511 31.1219L9.48772 28.878C9.19504 28.3902 8.60967 28.2927 8.12187 28.5854C7.92675 28.6829 7.73162 28.9756 7.73162 29.1707C7.63406 29.4634 7.73162 29.6585 7.82918 29.9512L9.7804 32.878L7.82918 35.8049C7.5365 36.2927 7.63406 36.878 8.12187 37.1707C8.51211 37.4634 9.19504 37.3658 9.48772 36.878L10.9511 34.6341L12.4146 36.878C12.7072 37.2683 13.2926 37.4634 13.7804 37.1707C14.2682 36.878 14.3658 36.2927 14.0731 35.8049L12.1219 32.878L15.2438 28.1951L18.3658 32.878L16.4146 35.8049C16.1219 36.2927 16.2194 36.878 16.7072 37.1707C17.0975 37.4634 17.7804 37.3658 18.0731 36.878L19.5365 34.6341L20.9999 36.878C21.2926 37.2683 21.878 37.4634 22.3658 37.1707C22.8536 36.878 22.9511 36.2927 22.6585 35.8049L20.7072 32.878L23.8292 28.1951L26.9511 32.878L24.9999 35.8049C24.7072 36.2927 24.8048 36.878 25.2926 37.1707C25.6828 37.4634 26.3658 37.3658 26.6585 36.878L28.1219 34.6341L29.5853 36.878C29.7804 37.1707 30.0731 37.2683 30.3658 37.2683C30.5609 37.2683 30.756 37.1707 30.9511 37.0732C31.4389 36.7805 31.5365 36.1951 31.2438 35.7073L29.195 32.7805ZM26.8536 20L23.7316 24.6829L20.6097 20L23.7316 15.3171L26.8536 20ZM22.5609 26.439L19.4389 31.1219L16.317 26.439L19.4389 21.7561L22.5609 26.439ZM16.4146 13.561L19.5365 8.87804L22.6585 13.561L19.5365 18.2439L16.4146 13.561ZM18.3658 20L15.2438 24.6829L12.1219 20L15.2438 15.3171L18.3658 20Z" fill="#2B2929"/>
</svg>
