<svg width="40" height="40" viewBox="0 0 40 40" fill="none" xmlns="http://www.w3.org/2000/svg">
<path d="M37.4818 11.6828H36.0291V8.58354C36.0291 6.54964 34.3826 5 32.4455 5H22.5666C21.5012 5 20.5327 5.48426 19.8547 6.16223C19.1768 5.48426 18.2082 5 17.1429 5H7.36077C5.32688 5 3.68039 6.64649 3.68039 8.58354V11.6828H2.2276C0.968523 11.6828 0 12.7482 0 14.0073V23.2082C0 26.0169 2.0339 28.4383 4.74576 28.9225L3.87409 33.5714C3.87409 33.862 3.87409 34.0557 4.0678 34.2494C4.2615 34.4431 4.45521 34.6368 4.64891 34.6368H4.84262C5.32688 34.6368 5.71429 34.3462 5.81114 33.862L6.68281 28.9225H33.2203L34.092 33.862C34.1889 34.3462 34.5763 34.6368 35.0605 34.6368H35.2542C35.5448 34.6368 35.7385 34.4431 35.8354 34.2494C35.9322 34.0557 36.0291 33.7651 36.0291 33.5714L35.2542 28.8257C37.9661 28.2446 40 25.9201 40 23.1114V14.0073C39.7094 12.7482 38.7409 11.6828 37.4818 11.6828ZM1.84019 14.0073C1.84019 13.8136 2.0339 13.6199 2.2276 13.6199H4.84262C5.03632 13.6199 5.23002 13.8136 5.23002 14.0073V21.5617C5.23002 22.8208 6.2954 23.8862 7.55448 23.8862H18.5956C19.0799 23.8862 19.5642 23.6925 19.9516 23.4019C20.339 23.6925 20.8232 23.8862 21.3075 23.8862H32.3487C33.6077 23.8862 34.6731 22.8208 34.6731 21.5617V14.0073C34.6731 13.8136 34.8668 13.6199 35.0605 13.6199H37.5787C37.7724 13.6199 37.9661 13.8136 37.9661 14.0073V23.2082C37.9661 25.4358 36.2228 27.1792 33.9952 27.1792H5.90799C3.68039 27.1792 1.93705 25.4358 1.93705 23.2082V14.0073H1.84019ZM7.36077 6.84019H17.2397C18.2082 6.84019 18.9831 7.61501 18.9831 8.58354V16.816C18.8862 16.816 18.6925 16.816 18.5956 16.816H7.45763C7.36077 16.816 7.16707 16.816 7.07022 16.816V14.0073C7.07022 13.0387 6.4891 12.1671 5.61743 11.8765V8.58354C5.61743 7.61501 6.39225 6.84019 7.36077 6.84019ZM22.5666 6.84019H32.4455C33.414 6.84019 34.1889 7.61501 34.1889 8.58354V11.8765C33.3172 12.1671 32.7361 13.0387 32.7361 14.0073V16.816C32.6392 16.816 32.4455 16.816 32.3487 16.816H21.2107C21.1138 16.816 20.9201 16.816 20.8232 16.816V8.58354C20.8232 7.61501 21.5981 6.84019 22.5666 6.84019ZM20.8232 19.0436C20.8232 18.8499 21.0169 18.6562 21.2107 18.6562H32.2518C32.4455 18.6562 32.6392 18.8499 32.6392 19.0436V21.5617C32.6392 21.7554 32.4455 21.9492 32.2518 21.9492H21.2107C21.0169 21.9492 20.8232 21.7554 20.8232 21.5617V19.0436ZM18.4988 18.6562C18.6925 18.6562 18.8862 18.8499 18.8862 19.0436V21.5617C18.8862 21.7554 18.6925 21.9492 18.4988 21.9492H7.45763C7.26392 21.9492 7.07022 21.7554 7.07022 21.5617V19.0436C7.07022 18.8499 7.26392 18.6562 7.45763 18.6562H18.4988Z" fill="#2B2929"/>
<path d="M10.8474 12.4576H13.6561C14.1404 12.4576 14.6247 12.0702 14.6247 11.4891C14.6247 11.0049 14.2373 10.5206 13.6561 10.5206H10.8474C10.3632 10.5206 9.87891 10.908 9.87891 11.4891C9.87891 12.0702 10.2663 12.4576 10.8474 12.4576Z" fill="#2B2929"/>
<path d="M26.0532 12.4576H28.862C29.3462 12.4576 29.8305 12.0702 29.8305 11.4891C29.8305 11.0049 29.4431 10.5206 28.862 10.5206H26.0532C25.569 10.5206 25.0847 10.908 25.0847 11.4891C25.0847 12.0702 25.569 12.4576 26.0532 12.4576Z" fill="#2B2929"/>
</svg>
