<svg width="40" height="40" viewBox="0 0 40 40" fill="none" xmlns="http://www.w3.org/2000/svg">
<path d="M31.7805 0H7.87805C7.39024 0 7 0.390244 7 0.878049V34.3415C7 34.8293 7.39024 35.2195 7.87805 35.2195H9.63415L9.04878 38.8293C9.04878 39.0244 9.04878 39.3171 9.2439 39.5122C9.43902 39.7073 9.63415 39.8049 9.82927 39.9024L9.92683 40C10.4146 40 10.8049 39.7073 10.8049 39.2195L11.4878 35.3171H28.1707L28.8537 39.2195C28.9512 39.7073 29.3415 40 29.7317 40H29.9268C30.122 40 30.4146 39.8049 30.5122 39.6098C30.6098 39.4146 30.7073 39.122 30.7073 38.9268L30.122 35.3171H31.878C32.3659 35.3171 32.7561 34.9268 32.7561 34.439V0.878049C32.6585 0.390244 32.2683 0 31.7805 0ZM18.9024 1.85366V33.561H8.85366V1.85366H18.9024ZM30.8049 1.85366V33.561H20.7561V1.85366H30.8049Z" fill="#2B2929"/>
<path d="M23.3903 21.0732C23.8781 21.0732 24.2683 20.6829 24.2683 20.1951V15.3171C24.2683 14.8293 23.8781 14.439 23.3903 14.439C22.9025 14.439 22.5122 14.8293 22.5122 15.3171V20.1951C22.5122 20.5854 22.9025 21.0732 23.3903 21.0732Z" fill="#2B2929"/>
<path d="M16.2683 21.0732C16.7561 21.0732 17.1464 20.6829 17.1464 20.1951V15.3171C17.1464 14.8293 16.7561 14.439 16.2683 14.439C15.7805 14.439 15.3903 14.8293 15.3903 15.3171V20.1951C15.3903 20.5854 15.7805 21.0732 16.2683 21.0732Z" fill="#2B2929"/>
</svg>
