<svg width="24" height="24" viewBox="0 0 24 24" fill="none" xmlns="http://www.w3.org/2000/svg">
<path d="M12.7103 14.83L16.9503 10.59C17.044 10.497 17.1184 10.3864 17.1692 10.2646C17.22 10.1427 17.2461 10.012 17.2461 9.88C17.2461 9.74799 17.22 9.61728 17.1692 9.49542C17.1184 9.37356 17.044 9.26296 16.9503 9.17C16.7629 8.98375 16.5095 8.87921 16.2453 8.87921C15.9811 8.87921 15.7277 8.98375 15.5403 9.17L12.0003 12.71L8.4603 9.17C8.27293 8.98375 8.01948 8.87921 7.75529 8.87921C7.49111 8.87921 7.23766 8.98375 7.05029 9.17C6.95761 9.26344 6.88429 9.37426 6.83452 9.49609C6.78476 9.61793 6.75953 9.74839 6.7603 9.88C6.75953 10.0116 6.78476 10.1421 6.83452 10.2639C6.88429 10.3857 6.95761 10.4966 7.05029 10.59L11.2903 14.83C11.3833 14.9237 11.4939 14.9981 11.6157 15.0489C11.7376 15.0997 11.8683 15.1258 12.0003 15.1258C12.1323 15.1258 12.263 15.0997 12.3849 15.0489C12.5067 14.9981 12.6173 14.9237 12.7103 14.83Z" fill="#535353"/>
</svg>
