<svg width="40" height="40" viewBox="0 0 40 40" fill="none" xmlns="http://www.w3.org/2000/svg">
<circle cx="20" cy="20" r="17" fill="white"/>
<path d="M27.68 11.36C28 11.68 28.16 12.16 28.16 12.64C28.16 13.12 28 13.6 27.68 13.92C27.36 14.08 26.88 14.4 26.56 14.4C26.08 14.4 25.6 14.24 25.28 13.92C24.96 13.6 24.8 13.12 24.8 12.64C24.8 12.16 24.96 11.68 25.28 11.36C25.6 11.04 26.08 10.88 26.56 10.88C26.88 10.88 27.36 11.04 27.68 11.36ZM20 13.76C16.48 13.76 13.76 16.64 13.76 20C13.76 23.36 16.64 26.24 20 26.24C23.52 26.24 26.24 23.36 26.24 20C26.24 16.64 23.52 13.76 20 13.76ZM40 20C40 31.04 31.04 40 20 40C8.96 40 0 31.04 0 20C0 8.96 8.96 0 20 0C31.04 0 40 8.96 40 20ZM31.84 16.32C31.84 14.08 31.04 12.16 29.44 10.56C27.84 8.96 25.92 8.16 23.68 8.16H16.16C13.92 8.16 12 8.96 10.4 10.56C8.8 12.16 8 14.08 8 16.32V23.84C8 26.08 8.8 28 10.4 29.6C12 31.2 13.92 32 16.16 32H23.68C25.92 32 27.84 31.2 29.44 29.6C31.04 28 31.84 26.08 31.84 23.84V16.32Z" fill="#AF24D1"/>
</svg>
