<svg width="24" height="24" viewBox="0 0 24 24" fill="none" xmlns="http://www.w3.org/2000/svg">
<path d="M20.9997 3.47517H15.877C15.3247 3.47517 14.877 3.92289 14.877 4.47517V9.59794C14.877 10.1502 15.3247 10.5979 15.877 10.5979H20.9997C21.552 10.5979 21.9997 10.1502 21.9997 9.59794V4.47517C21.9997 3.92289 21.552 3.47517 20.9997 3.47517Z" fill="white"/>
<path d="M11.3666 6.32945L7.74422 2.70711C7.35369 2.31658 6.72053 2.31658 6.33 2.70711L2.70766 6.32945C2.31713 6.71998 2.31713 7.35314 2.70766 7.74366L6.33 11.366C6.72053 11.7565 7.35369 11.7565 7.74422 11.366L11.3666 7.74366C11.7571 7.35314 11.7571 6.71998 11.3666 6.32945Z" fill="white"/>
<path d="M9.59738 14.8772H4.47461C3.92232 14.8772 3.47461 15.3249 3.47461 15.8772V21C3.47461 21.5523 3.92232 22 4.47461 22H9.59738C10.1497 22 10.5974 21.5523 10.5974 21V15.8772C10.5974 15.3249 10.1497 14.8772 9.59738 14.8772Z" fill="white"/>
<path d="M20.9997 14.8772H15.877C15.3247 14.8772 14.877 15.3249 14.877 15.8772V21C14.877 21.5523 15.3247 22 15.877 22H20.9997C21.552 22 21.9997 21.5523 21.9997 21V15.8772C21.9997 15.3249 21.552 14.8772 20.9997 14.8772Z" fill="white"/>
</svg>
