<svg width="20" height="20" viewBox="0 0 20 20" fill="none" xmlns="http://www.w3.org/2000/svg">
<path d="M17.4077 11C17.1877 11 16.9577 10.93 16.7377 10.88C16.2926 10.7805 15.8548 10.6501 15.4277 10.49C14.9638 10.3212 14.4539 10.33 13.996 10.5146C13.5382 10.6992 13.1648 11.0466 12.9477 11.49L12.7277 11.95C11.7566 11.3992 10.8594 10.7271 10.0577 9.95C9.28058 9.14837 8.60853 8.25118 8.05773 7.28L8.51773 7.07C8.9611 6.85292 9.30851 6.47953 9.49312 6.02169C9.67774 5.56385 9.6865 5.05391 9.51773 4.59C9.35892 4.15903 9.22864 3.71808 9.12773 3.27C9.07773 3.05 9.03773 2.82 9.00773 2.6C8.8863 1.89562 8.51736 1.25774 7.96735 0.801239C7.41735 0.344737 6.72243 0.0996088 6.00773 0.11H2.99773C2.57498 0.109446 2.15688 0.198248 1.77085 0.370584C1.38482 0.54292 1.03957 0.794898 0.757731 1.11C0.47005 1.43365 0.255846 1.81575 0.129834 2.23004C0.00382186 2.64432 -0.0310103 3.08098 0.0277305 3.51C0.571318 7.67214 2.47294 11.5387 5.43773 14.51C8.40908 17.4748 12.2756 19.3764 16.4377 19.92C16.5675 19.9299 16.6979 19.9299 16.8277 19.92C17.5651 19.9211 18.2771 19.6505 18.8277 19.16C19.1428 18.8782 19.3948 18.5329 19.5671 18.1469C19.7395 17.7609 19.8283 17.3428 19.8277 16.92V13.92C19.8223 13.229 19.5786 12.5611 19.1377 12.0291C18.6967 11.4971 18.0857 11.1336 17.4077 11ZM17.8977 17C17.8974 17.1395 17.8679 17.2775 17.811 17.4049C17.7542 17.5324 17.6713 17.6465 17.5677 17.74C17.4581 17.8399 17.3277 17.9141 17.1859 17.9573C17.0441 18.0006 16.8944 18.0117 16.7477 17.99C13.016 17.5026 9.54798 15.802 6.87773 13.15C4.2052 10.4775 2.48976 6.99737 1.99773 3.25C1.97601 3.10333 1.98717 2.95367 2.03041 2.81185C2.07364 2.67003 2.14788 2.5396 2.24773 2.43C2.34235 2.32515 2.45811 2.24154 2.58738 2.18466C2.71665 2.12778 2.8565 2.09892 2.99773 2.1H5.99773C6.22889 2.09435 6.45487 2.16898 6.6372 2.3112C6.81952 2.45341 6.94693 2.65442 6.99773 2.88C6.99773 3.15 7.08773 3.43 7.14773 3.7C7.26331 4.22386 7.41705 4.73857 7.60773 5.24L6.20773 5.9C5.96709 6.01046 5.78009 6.21185 5.68773 6.46C5.58771 6.70346 5.58771 6.97654 5.68773 7.22C7.12693 10.3028 9.60497 12.7808 12.6877 14.22C12.9312 14.32 13.2043 14.32 13.4477 14.22C13.6959 14.1276 13.8973 13.9406 14.0077 13.7L14.6377 12.3C15.1536 12.4881 15.6815 12.6418 16.2177 12.76C16.4777 12.82 16.7577 12.87 17.0277 12.91C17.2533 12.9608 17.4543 13.0882 17.5965 13.2705C17.7387 13.4529 17.8134 13.6788 17.8077 13.91L17.8977 17ZM11.9977 0C11.7677 0 11.5277 0 11.2977 0C11.0325 0.0225434 10.7871 0.14952 10.6155 0.352997C10.4439 0.556474 10.3602 0.819784 10.3827 1.085C10.4053 1.35022 10.5323 1.59562 10.7357 1.76721C10.9392 1.93881 11.2025 2.02254 11.4677 2H11.9977C13.589 2 15.1152 2.63214 16.2404 3.75736C17.3656 4.88258 17.9977 6.4087 17.9977 8C17.9977 8.18 17.9977 8.35 17.9977 8.53C17.9756 8.79381 18.0589 9.05565 18.2295 9.2581C18.4001 9.46055 18.644 9.5871 18.9077 9.61H18.9877C19.2381 9.61102 19.4797 9.5181 19.6648 9.34961C19.85 9.18113 19.9652 8.94932 19.9877 8.7C19.9877 8.47 19.9877 8.23 19.9877 8C19.9877 5.88 19.1462 3.84668 17.6481 2.34668C16.15 0.846674 14.1177 0.00265 11.9977 0ZM13.9977 8C13.9977 8.26522 14.1031 8.51957 14.2906 8.70711C14.4782 8.89464 14.7325 9 14.9977 9C15.2629 9 15.5173 8.89464 15.7048 8.70711C15.8924 8.51957 15.9977 8.26522 15.9977 8C15.9977 6.93913 15.5763 5.92172 14.8262 5.17157C14.076 4.42143 13.0586 4 11.9977 4C11.7325 4 11.4782 4.10536 11.2906 4.29289C11.1031 4.48043 10.9977 4.73478 10.9977 5C10.9977 5.26522 11.1031 5.51957 11.2906 5.70711C11.4782 5.89464 11.7325 6 11.9977 6C12.5282 6 13.0369 6.21071 13.4119 6.58579C13.787 6.96086 13.9977 7.46957 13.9977 8Z" fill="#B1B1B1"/>
</svg>
