<svg width="18" height="22" viewBox="0 0 18 22" fill="none" xmlns="http://www.w3.org/2000/svg">
<path d="M8.79997 0C6.46607 0 4.22777 0.927137 2.57745 2.57745C0.927137 4.22777 0 6.46607 0 8.79997C0 14.74 7.75498 21.4499 8.08497 21.7359C8.28422 21.9064 8.53778 22 8.79997 22C9.06216 22 9.31572 21.9064 9.51497 21.7359C9.89997 21.4499 17.5999 14.74 17.5999 8.79997C17.5999 6.46607 16.6728 4.22777 15.0225 2.57745C13.3722 0.927137 11.1339 0 8.79997 0ZM8.79997 19.4149C6.45698 17.2149 2.19999 12.474 2.19999 8.79997C2.19999 7.04955 2.89535 5.37082 4.13308 4.13308C5.37082 2.89535 7.04955 2.19999 8.79997 2.19999C10.5504 2.19999 12.2291 2.89535 13.4669 4.13308C14.7046 5.37082 15.4 7.04955 15.4 8.79997C15.4 12.474 11.143 17.2259 8.79997 19.4149ZM8.79997 4.39999C7.92974 4.39999 7.07904 4.65804 6.35547 5.14152C5.6319 5.62499 5.06794 6.31218 4.73491 7.11617C4.40189 7.92016 4.31476 8.80485 4.48453 9.65837C4.6543 10.5119 5.07336 11.2959 5.68871 11.9112C6.30406 12.5266 7.08806 12.9456 7.94158 13.1154C8.79509 13.2852 9.67978 13.1981 10.4838 12.865C11.2878 12.532 11.9749 11.968 12.4584 11.2445C12.9419 10.5209 13.2 9.67021 13.2 8.79997C13.2 7.63302 12.7364 6.51387 11.9112 5.68871C11.0861 4.86355 9.96692 4.39999 8.79997 4.39999ZM8.79997 11C8.36485 11 7.93951 10.8709 7.57772 10.6292C7.21593 10.3875 6.93396 10.0439 6.76744 9.64187C6.60093 9.23988 6.55736 8.79753 6.64225 8.37077C6.72714 7.94402 6.93667 7.55202 7.24434 7.24434C7.55202 6.93667 7.94402 6.72714 8.37077 6.64225C8.79753 6.55736 9.23988 6.60093 9.64187 6.76744C10.0439 6.93396 10.3875 7.21593 10.6292 7.57772C10.8709 7.93951 11 8.36485 11 8.79997C11 9.38345 10.7682 9.94302 10.3556 10.3556C9.94302 10.7682 9.38345 11 8.79997 11Z" fill="#B1B1B1"/>
</svg>
