<svg width="40" height="40" viewBox="0 0 40 40" fill="none" xmlns="http://www.w3.org/2000/svg">
<path d="M18.8154 25.4834C18.7437 25.5626 18.6769 25.6461 18.6154 25.7334C18.5523 25.8263 18.5019 25.9272 18.4654 26.0334C18.4173 26.1279 18.3836 26.229 18.3654 26.3334C18.3572 26.4443 18.3572 26.5557 18.3654 26.6667C18.3597 26.8853 18.4054 27.1022 18.4987 27.3C18.5736 27.5069 18.693 27.6947 18.8485 27.8502C19.004 28.0058 19.1919 28.1252 19.3987 28.2C19.5982 28.2882 19.8139 28.3338 20.032 28.3338C20.2502 28.3338 20.4659 28.2882 20.6654 28.2C20.8722 28.1252 21.06 28.0058 21.2156 27.8502C21.3711 27.6947 21.4905 27.5069 21.5654 27.3C21.6394 27.0974 21.6733 26.8823 21.6654 26.6667C21.6666 26.4474 21.6246 26.2299 21.5417 26.0269C21.4587 25.8238 21.3365 25.6391 21.182 25.4834C21.0271 25.3272 20.8428 25.2032 20.6397 25.1186C20.4366 25.0339 20.2187 24.9904 19.9987 24.9904C19.7787 24.9904 19.5608 25.0339 19.3577 25.1186C19.1546 25.2032 18.9703 25.3272 18.8154 25.4834ZM19.9987 3.33337C16.7024 3.33337 13.48 4.31086 10.7392 6.14221C7.99838 7.97357 5.86217 10.5765 4.60071 13.622C3.33925 16.6674 3.0092 20.0185 3.65228 23.2515C4.29537 26.4846 5.88272 29.4543 8.21359 31.7852C10.5445 34.116 13.5142 35.7034 16.7472 36.3465C19.9802 36.9896 23.3313 36.6595 26.3768 35.398C29.4222 34.1366 32.0252 32.0004 33.8565 29.2595C35.6879 26.5187 36.6654 23.2964 36.6654 20C36.6654 17.8113 36.2343 15.6441 35.3967 13.622C34.5591 11.5999 33.3315 9.76257 31.7838 8.21493C30.2362 6.66728 28.3989 5.43963 26.3768 4.60205C24.3547 3.76447 22.1874 3.33337 19.9987 3.33337ZM19.9987 33.3334C17.3616 33.3334 14.7838 32.5514 12.5911 31.0863C10.3984 29.6212 8.68948 27.5388 7.68031 25.1025C6.67114 22.6661 6.4071 19.9853 6.92157 17.3988C7.43604 14.8124 8.70591 12.4367 10.5706 10.572C12.4353 8.70725 14.8111 7.43737 17.3975 6.9229C19.9839 6.40843 22.6648 6.67248 25.1012 7.68165C27.5375 8.69082 29.6199 10.3998 31.085 12.5924C32.55 14.7851 33.332 17.363 33.332 20C33.332 23.5363 31.9273 26.9276 29.4268 29.4281C26.9263 31.9286 23.5349 33.3334 19.9987 33.3334ZM19.9987 11.6667C19.1205 11.6661 18.2576 11.8969 17.4969 12.3358C16.7362 12.7746 16.1045 13.4061 15.6654 14.1667C15.5448 14.3564 15.4638 14.5685 15.4273 14.7903C15.3908 15.0121 15.3996 15.239 15.4531 15.4574C15.5066 15.6757 15.6037 15.8809 15.7385 16.0608C15.8734 16.2406 16.0432 16.3913 16.2378 16.5038C16.4324 16.6163 16.6478 16.6882 16.8709 16.7153C17.0941 16.7424 17.3204 16.7241 17.5363 16.6615C17.7521 16.5989 17.9531 16.4932 18.1271 16.3509C18.3011 16.2086 18.4445 16.0325 18.5487 15.8334C18.6955 15.579 18.907 15.368 19.1616 15.2217C19.4162 15.0753 19.705 14.9989 19.9987 15C20.4407 15 20.8647 15.1756 21.1772 15.4882C21.4898 15.8008 21.6654 16.2247 21.6654 16.6667C21.6654 17.1087 21.4898 17.5327 21.1772 17.8452C20.8647 18.1578 20.4407 18.3334 19.9987 18.3334C19.5567 18.3334 19.1328 18.509 18.8202 18.8215C18.5076 19.1341 18.332 19.558 18.332 20V21.6667C18.332 22.1087 18.5076 22.5327 18.8202 22.8452C19.1328 23.1578 19.5567 23.3334 19.9987 23.3334C20.4407 23.3334 20.8647 23.1578 21.1772 22.8452C21.4898 22.5327 21.6654 22.1087 21.6654 21.6667V21.3667C22.7677 20.9667 23.6943 20.1921 24.2833 19.1782C24.8723 18.1642 25.0863 16.9755 24.8877 15.8199C24.6891 14.6642 24.0907 13.6151 23.197 12.8559C22.3033 12.0967 21.1713 11.6758 19.9987 11.6667Z" fill="#FFBC57"/>
</svg>
