<svg width="40" height="40" viewBox="0 0 40 40" fill="none" xmlns="http://www.w3.org/2000/svg">
<g clip-path="url(#clip0_155_9062)">
<path d="M20 40C31.0457 40 40 31.0457 40 20C40 8.9543 31.0457 0 20 0C8.9543 0 0 8.9543 0 20C0 31.0457 8.9543 40 20 40Z" fill="#6F3FAA"/>
<path d="M30.5795 14.0566L30.573 14.0302C30.0386 11.8698 27.6294 9.55166 25.4169 9.06939L25.392 9.06424C21.8134 8.38158 18.1848 8.38158 14.607 9.06424L14.5813 9.06939C12.3696 9.55166 9.96031 11.8699 9.42523 14.0302L9.4193 14.0566C8.75867 17.0735 8.75867 20.1332 9.4193 23.1502L9.42523 23.1766C9.93758 25.2447 12.1673 27.4564 14.2973 28.0646V30.4762C14.2973 31.3491 15.3609 31.7778 15.9658 31.1478L18.4091 28.6081C18.9391 28.6377 19.4694 28.6542 19.9995 28.6542C21.8008 28.6542 23.603 28.4838 25.3919 28.1426L25.4168 28.1374C27.6293 27.6552 30.0385 25.3369 30.5729 23.1767L30.5795 23.1503C31.2401 20.1332 31.2401 17.0737 30.5795 14.0566ZM28.6459 22.7128C28.2891 24.1222 26.4598 25.8744 25.0064 26.1981C23.1037 26.56 21.1858 26.7146 19.2698 26.6616C19.2317 26.6605 19.1951 26.6753 19.1686 26.7027C18.8966 26.9817 17.3846 28.5341 17.3846 28.5341L15.4871 30.4816C15.3484 30.6263 15.1046 30.5278 15.1046 30.3281V26.3331C15.1046 26.2671 15.0575 26.2111 14.9927 26.1983C14.9923 26.1981 14.992 26.1981 14.9916 26.1981C13.5381 25.8743 11.7095 24.1221 11.3521 22.7127C10.7575 19.9856 10.7575 17.2211 11.3521 14.4941C11.7095 13.0846 13.5381 11.3324 14.9916 11.0087C18.3147 10.3767 21.6841 10.3767 25.0065 11.0087C26.4606 11.3324 28.2891 13.0846 28.6459 14.4941C29.2412 17.2212 29.2412 19.9857 28.6459 22.7128Z" fill="white"/>
<path d="M23.1605 24.557C22.9371 24.4891 22.7242 24.4435 22.5263 24.3616C20.477 23.5113 18.5911 22.4145 17.0973 20.7331C16.2477 19.777 15.5828 18.6976 15.0208 17.5552C14.7542 17.0135 14.5296 16.4506 14.3006 15.8913C14.0919 15.3813 14.3994 14.8544 14.7231 14.47C15.027 14.1093 15.418 13.8334 15.8414 13.6299C16.1719 13.4711 16.4978 13.5627 16.7392 13.8427C17.2609 14.4484 17.7403 15.0849 18.1283 15.787C18.367 16.2188 18.3015 16.7466 17.8689 17.0404C17.7637 17.1118 17.668 17.1957 17.5701 17.2763C17.4841 17.347 17.4034 17.4184 17.3445 17.5141C17.2369 17.6892 17.2317 17.8959 17.3009 18.0863C17.8343 19.552 18.7333 20.6918 20.2087 21.3058C20.4448 21.404 20.6818 21.5183 20.9538 21.4866C21.4093 21.4334 21.5568 20.9338 21.876 20.6727C22.188 20.4177 22.5867 20.4143 22.9227 20.627C23.2589 20.8398 23.5847 21.0681 23.9086 21.2989C24.2266 21.5255 24.543 21.747 24.8362 22.0053C25.1183 22.2537 25.2154 22.5795 25.0566 22.9164C24.7659 23.5337 24.3429 24.047 23.7328 24.3749C23.5605 24.4672 23.3548 24.4971 23.1605 24.557C23.3548 24.4971 22.9371 24.4891 23.1605 24.557Z" fill="white"/>
<path d="M20.0045 12.9239C22.6849 12.9991 24.8866 14.7779 25.3584 17.4279C25.4388 17.8795 25.4674 18.341 25.5031 18.7994C25.5182 18.9921 25.409 19.1752 25.201 19.1778C24.9862 19.1804 24.8895 19.0006 24.8755 18.808C24.8479 18.4266 24.8288 18.0434 24.7762 17.6652C24.4988 15.6684 22.9066 14.0165 20.9191 13.662C20.6199 13.6087 20.314 13.5947 20.0109 13.5629C19.8195 13.5428 19.5687 13.5313 19.5263 13.2931C19.4907 13.0935 19.6591 12.9346 19.8492 12.9244C19.9007 12.9213 19.9527 12.9238 20.0045 12.9239C22.6851 12.9991 19.9527 12.9238 20.0045 12.9239Z" fill="white"/>
<path d="M24.0781 18.2044C24.0736 18.2379 24.0713 18.3166 24.0516 18.3906C23.9806 18.6597 23.5724 18.6934 23.4786 18.4219C23.4507 18.3413 23.4466 18.2496 23.4464 18.1629C23.4455 17.5953 23.3221 17.0281 23.0358 16.5341C22.7415 16.0263 22.2918 15.5997 21.7645 15.3413C21.4456 15.1853 21.1009 15.0881 20.7513 15.0304C20.5986 15.0051 20.4442 14.9899 20.2907 14.9685C20.1047 14.9426 20.0053 14.8241 20.0142 14.6408C20.0224 14.4691 20.148 14.3454 20.3352 14.3561C20.9502 14.391 21.5445 14.5241 22.0914 14.8136C23.2034 15.4026 23.8388 16.3321 24.0242 17.5735C24.0326 17.6298 24.046 17.6854 24.0503 17.7418C24.0608 17.881 24.0674 18.0205 24.0781 18.2044C24.0736 18.2378 24.0674 18.0205 24.0781 18.2044Z" fill="white"/>
<path d="M22.4118 18.1394C22.1876 18.1435 22.0676 18.0193 22.0444 17.8138C22.0284 17.6705 22.0156 17.5252 21.9814 17.3857C21.914 17.1109 21.768 16.8564 21.5369 16.688C21.4279 16.6086 21.3042 16.5507 21.1747 16.5132C21.0103 16.4656 20.8393 16.4787 20.6753 16.4386C20.4971 16.3949 20.3986 16.2505 20.4266 16.0834C20.4521 15.9312 20.6 15.8125 20.7664 15.8246C21.8056 15.8996 22.5483 16.4368 22.6543 17.6603C22.6619 17.7466 22.6707 17.8378 22.6515 17.9205C22.6186 18.0617 22.5139 18.1325 22.4118 18.1394C22.5139 18.1325 22.1875 18.1434 22.4118 18.1394Z" fill="white"/>
<path d="M23.1615 24.5567C22.938 24.4888 23.3557 24.4969 23.1615 24.5567V24.5567Z" fill="white"/>
<path d="M20.0133 12.9241C20.011 12.9241 20.0089 12.9239 20.0066 12.9239C20.0044 12.9237 20.0072 12.9239 20.0133 12.9241Z" fill="white"/>
<path d="M20.0078 12.9238C20.0101 12.9238 20.0123 12.9241 20.0145 12.9241C20.1633 12.9294 22.5827 12.996 20.0078 12.9238Z" fill="white"/>
<path d="M24.0801 18.2047C24.0695 18.0208 24.0756 18.2381 24.0801 18.2047V18.2047Z" fill="white"/>
<path d="M22.4134 18.1396C22.417 18.1394 22.4203 18.1376 22.4237 18.1372C22.4142 18.1372 22.3997 18.1374 22.3848 18.138C22.3945 18.1382 22.4033 18.1397 22.4134 18.1396Z" fill="white"/>
<path d="M22.4125 18.1398C22.4024 18.14 22.3935 18.1385 22.3839 18.1382C22.3353 18.1395 22.2853 18.1421 22.4125 18.1398Z" fill="white"/>
<path d="M22.4223 18.1372C22.4188 18.1376 22.4155 18.1394 22.4121 18.1396C22.4384 18.1378 22.4361 18.1372 22.4223 18.1372Z" fill="white"/>
</g>
<defs>
<clipPath id="clip0_155_9062">
<rect width="40" height="40" fill="white"/>
</clipPath>
</defs>
</svg>
