<svg width="40" height="40" viewBox="0 0 40 40" fill="none" xmlns="http://www.w3.org/2000/svg">
<g clip-path="url(#clip0_155_9051)">
<path d="M20 40C31.0457 40 40 31.0457 40 20C40 8.9543 31.0457 0 20 0C8.9543 0 0 8.9543 0 20C0 31.0457 8.9543 40 20 40Z" fill="#75B73B"/>
<path d="M19.441 8.47234C13.345 8.76234 8.53443 13.8392 8.55279 19.9419C8.55841 21.8007 9.00716 23.5552 9.79888 25.1056L8.58349 31.0052C8.51779 31.3244 8.8056 31.6038 9.12263 31.5287L14.9035 30.1591C16.3887 30.8991 18.0569 31.3262 19.8224 31.3532C26.0531 31.4484 31.2483 26.5012 31.4427 20.2728C31.6507 13.5964 26.1405 8.1532 19.441 8.47234ZM26.3389 26.2449C24.646 27.9378 22.3949 28.8702 20.0006 28.8702C18.5987 28.8702 17.2564 28.5556 16.0111 27.9354L15.2062 27.5343L11.6617 28.3739L12.4077 24.7523L12.0112 23.9755C11.3647 22.7094 11.0368 21.3405 11.0368 19.9065C11.0368 17.5121 11.9693 15.2612 13.6622 13.5682C15.34 11.8902 17.6277 10.9429 20.0008 10.9429C22.3948 10.9429 24.6459 11.8753 26.3388 13.5682C28.0317 15.2611 28.9641 17.5122 28.9641 19.9062C28.9643 22.2794 28.0168 24.567 26.3389 26.2449Z" fill="white"/>
<path d="M25.556 22.3892L23.3385 21.7525C23.0472 21.669 22.7331 21.7518 22.5207 21.9682L21.9784 22.5205C21.7498 22.7536 21.4029 22.8284 21.1003 22.706C20.0513 22.2815 17.8446 20.3194 17.2814 19.3383C17.1186 19.0552 17.1456 18.7015 17.3453 18.4429L17.8185 17.8304C18.004 17.5906 18.0431 17.2682 17.9205 16.9908L16.9876 14.8808C16.7642 14.3755 16.1184 14.2283 15.6964 14.5852C15.0776 15.1087 14.3433 15.904 14.2542 16.7852C14.0967 18.3389 14.7631 20.2972 17.2824 22.6489C20.1931 25.3659 22.5242 25.7246 24.042 25.357C24.9029 25.1486 25.5909 24.3129 26.0248 23.6284C26.321 23.1615 26.0869 22.5418 25.556 22.3892Z" fill="white"/>
</g>
<defs>
<clipPath id="clip0_155_9051">
<rect width="40" height="40" fill="white"/>
</clipPath>
</defs>
</svg>
