<svg width="12" height="20" viewBox="0 0 12 20" fill="none" xmlns="http://www.w3.org/2000/svg">
<path d="M11.0293 8.89704L2.55996 0.44262C2.42085 0.302369 2.25535 0.191049 2.07301 0.115081C1.89066 0.0391125 1.69508 0 1.49754 0C1.30001 0 1.10442 0.0391125 0.922078 0.115081C0.739734 0.191049 0.574235 0.302369 0.435129 0.44262C0.156431 0.722981 0 1.10224 0 1.49755C0 1.89287 0.156431 2.27212 0.435129 2.55248L7.84209 10.0343L0.435129 17.4412C0.156431 17.7216 0 18.1008 0 18.4962C0 18.8915 0.156431 19.2707 0.435129 19.5511C0.573714 19.6925 0.738979 19.805 0.921348 19.882C1.10372 19.9591 1.29956 19.9992 1.49754 20C1.69552 19.9992 1.89137 19.9591 2.07374 19.882C2.25611 19.805 2.42137 19.6925 2.55996 19.5511L11.0293 11.0967C11.1812 10.9566 11.3024 10.7865 11.3853 10.5972C11.4683 10.4079 11.5111 10.2035 11.5111 9.99686C11.5111 9.79021 11.4683 9.5858 11.3853 9.39651C11.3024 9.20722 11.1812 9.03716 11.0293 8.89704Z" fill="#FFBC57"/>
</svg>
