<svg width="10" height="8" viewBox="0 0 10 8" fill="none" xmlns="http://www.w3.org/2000/svg">
<path fill-rule="evenodd" clip-rule="evenodd" d="M0.589651 4.47706C0.645613 4.60582 0.726098 4.72244 0.8266 4.82042L3.00844 7.00225L3.00935 7.00318C3.10856 7.10296 3.2265 7.18218 3.35639 7.2363C3.48669 7.29058 3.62645 7.31853 3.7676 7.31853C3.90875 7.31853 4.0485 7.29058 4.1788 7.2363C4.30873 7.18217 4.42669 7.10292 4.52592 7.00309L4.52675 7.00225L9.1643 2.36471C9.26885 2.26613 9.35249 2.14745 9.41017 2.01576C9.46941 1.8805 9.5 1.73444 9.5 1.58677C9.5 1.43911 9.46941 1.29304 9.41017 1.15779C9.35241 1.02591 9.26863 0.907102 9.16389 0.808444C9.06614 0.711911 8.95067 0.635094 8.82379 0.582232C8.69349 0.527948 8.55374 0.5 8.41258 0.5C8.27143 0.5 8.13168 0.527948 8.00138 0.582232C7.87137 0.636395 7.75269 0.716378 7.65342 0.816279L3.76792 4.70699L2.34006 3.27444L2.33326 3.26788C2.23109 3.16918 2.11048 3.09158 1.97832 3.03949C1.84616 2.98741 1.70504 2.96187 1.56301 2.96433C1.42097 2.96678 1.28082 2.99719 1.15054 3.05382C1.02026 3.11044 0.902405 3.19217 0.803711 3.29434C0.705017 3.39651 0.627413 3.51712 0.57533 3.64928C0.523247 3.78144 0.497705 3.92256 0.500162 4.06459C0.502619 4.20663 0.533028 4.34678 0.589651 4.47706Z" fill="white"/>
</svg>
