<svg width="36" height="36" viewBox="0 0 36 36" fill="none" xmlns="http://www.w3.org/2000/svg">
<path d="M23.939 12.3295L15.437 20.8611L12.1117 17.5132C11.7732 17.1743 11.3141 16.9839 10.8355 16.9839C10.3568 16.9839 9.89773 17.1743 9.55926 17.5132C9.22079 17.8522 9.03064 18.3118 9.03064 18.7912C9.03064 19.0285 9.07733 19.2635 9.16803 19.4828C9.25873 19.7021 9.39167 19.9013 9.55926 20.0691L14.1608 24.6769C14.3279 24.8456 14.5267 24.9795 14.7457 25.0709C14.9648 25.1623 15.1997 25.2093 15.437 25.2093C15.6743 25.2093 15.9092 25.1623 16.1282 25.0709C16.3473 24.9795 16.5461 24.8456 16.7132 24.6769L26.4914 14.8853C26.659 14.7175 26.7919 14.5183 26.8826 14.299C26.9733 14.0797 27.02 13.8447 27.02 13.6074C27.02 13.3701 26.9733 13.135 26.8826 12.9158C26.7919 12.6965 26.659 12.4973 26.4914 12.3295C26.3238 12.1616 26.1248 12.0285 25.9059 11.9377C25.6869 11.8469 25.4522 11.8001 25.2152 11.8001C24.9782 11.8001 24.7435 11.8469 24.5245 11.9377C24.3056 12.0285 24.1066 12.1616 23.939 12.3295ZM18.0253 0C15.6649 0 13.3275 0.465563 11.1467 1.37011C8.96594 2.27465 6.98442 3.60046 5.31532 5.27184C1.94442 8.64735 0.0506641 13.2255 0.0506641 17.9992C0.0349503 22.1555 1.47209 26.1862 4.11294 29.3927L0.518005 32.9925C0.268593 33.2457 0.099638 33.5671 0.0324593 33.9162C-0.0347195 34.2654 0.00288834 34.6267 0.140537 34.9545C0.289831 35.2783 0.531853 35.5504 0.835882 35.7363C1.13991 35.9222 1.49223 36.0134 1.84813 35.9984H18.0253C22.7925 35.9984 27.3644 34.1021 30.7353 30.7266C34.1062 27.3511 36 22.7729 36 17.9992C36 13.2255 34.1062 8.64735 30.7353 5.27184C27.3644 1.89634 22.7925 0 18.0253 0ZM18.0253 32.3986H6.18003L7.85167 30.7246C8.18645 30.3874 8.37436 29.9312 8.37436 29.4557C8.37436 28.9802 8.18645 28.524 7.85167 28.1868C5.49804 25.8325 4.03237 22.734 3.70436 19.419C3.37635 16.104 4.2063 12.7776 6.05281 10.0067C7.89932 7.23575 10.6482 5.19162 13.831 4.22256C17.0138 3.25351 20.4337 3.4195 23.508 4.69224C26.5823 5.96498 29.1208 8.26573 30.6911 11.2025C32.2613 14.1393 32.7661 17.5304 32.1195 20.7981C31.4729 24.0658 29.7148 27.0079 27.1448 29.1231C24.5749 31.2384 21.352 32.3959 18.0253 32.3986Z" fill="white"/>
</svg>
