<svg width="26" height="23" viewBox="0 0 26 23" fill="none" xmlns="http://www.w3.org/2000/svg">
<path d="M23.5632 2.43654C22.1887 1.05845 20.3666 0.217338 18.4262 0.0651471C16.4858 -0.0870437 14.5549 0.45972 12.9823 1.60667C11.3325 0.379549 9.27901 -0.176889 7.23536 0.049415C5.19171 0.275719 3.30971 1.26795 1.96834 2.8263C0.626974 4.38466 -0.0741177 6.39337 0.0062486 8.44794C0.0866149 10.5025 0.942469 12.4503 2.40146 13.8991L10.4538 21.9645C11.1281 22.6281 12.0363 23 12.9823 23C13.9284 23 14.8365 22.6281 15.5108 21.9645L23.5632 13.8991C25.0772 12.3759 25.9269 10.3155 25.9269 8.16784C25.9269 6.0202 25.0772 3.95979 23.5632 2.43654ZM21.7349 12.1097L13.6825 20.1621C13.5909 20.2546 13.4818 20.3281 13.3617 20.3782C13.2415 20.4283 13.1125 20.4541 12.9823 20.4541C12.8521 20.4541 12.7232 20.4283 12.603 20.3782C12.4828 20.3281 12.3738 20.2546 12.2821 20.1621L4.22977 12.0708C3.21287 11.0313 2.64344 9.63499 2.64344 8.18081C2.64344 6.72664 3.21287 5.33027 4.22977 4.29079C5.26602 3.2677 6.6636 2.69402 8.1198 2.69402C9.576 2.69402 10.9736 3.2677 12.0098 4.29079C12.1304 4.41232 12.2738 4.50879 12.4318 4.57462C12.5898 4.64045 12.7593 4.67434 12.9305 4.67434C13.1016 4.67434 13.2711 4.64045 13.4291 4.57462C13.5871 4.50879 13.7306 4.41232 13.8511 4.29079C14.8873 3.2677 16.2849 2.69402 17.7411 2.69402C19.1973 2.69402 20.5949 3.2677 21.6311 4.29079C22.662 5.31665 23.2502 6.70544 23.2695 8.15966C23.2889 9.61387 22.738 11.0178 21.7349 12.0708V12.1097Z" fill="#B1B1B1"/>
</svg>
