<svg width="24" height="24" viewBox="0 0 24 24" fill="none" xmlns="http://www.w3.org/2000/svg">
<g id="poisk" clip-path="url(#clip0_338_14892)">
<path id="Vector" d="M22.677 22.061L18.4131 17.8283C20.0682 15.763 20.8697 13.1416 20.6529 10.5031C20.436 7.86457 19.2172 5.40946 17.2471 3.64261C15.277 1.87576 12.7053 0.931461 10.0609 1.00388C7.41644 1.07629 4.90022 2.15992 3.02962 4.03195C1.15901 5.90398 0.0762052 8.42211 0.00384379 11.0686C-0.0685177 13.715 0.875067 16.2886 2.64058 18.2602C4.40609 20.2318 6.85932 21.4515 9.49585 21.6686C12.1324 21.8856 14.7518 21.0835 16.8155 19.4271L21.045 23.6598C21.1518 23.7676 21.279 23.8531 21.419 23.9115C21.5591 23.9699 21.7093 24 21.861 24C22.0127 24 22.163 23.9699 22.303 23.9115C22.4431 23.8531 22.5702 23.7676 22.677 23.6598C22.8842 23.4453 23 23.1587 23 22.8604C23 22.5621 22.8842 22.2755 22.677 22.061V22.061ZM10.3678 19.4271C8.77665 19.4271 7.22119 18.9549 5.89816 18.0702C4.57513 17.1855 3.54395 15.928 2.93503 14.4569C2.32611 12.9857 2.16678 11.3668 2.47721 9.80501C2.78764 8.24321 3.55387 6.8086 4.67901 5.6826C5.80416 4.5566 7.23768 3.78979 8.7983 3.47912C10.3589 3.16846 11.9765 3.3279 13.4466 3.93729C14.9167 4.54668 16.1732 5.57864 17.0572 6.90267C17.9412 8.2267 18.4131 9.78335 18.4131 11.3757C18.4131 13.5111 17.5654 15.559 16.0567 17.0689C14.5479 18.5788 12.5016 19.4271 10.3678 19.4271V19.4271Z" fill="#535353"/>
</g>
<defs>
<clipPath id="clip0_338_14892">
<rect width="24" height="24" fill="white"/>
</clipPath>
</defs>
</svg>
