<svg width="30" height="26" viewBox="0 0 30 26" fill="none" xmlns="http://www.w3.org/2000/svg">
<path d="M0 13.6364V20.4545C0 20.8162 0.143668 21.1631 0.3994 21.4188C0.655131 21.6745 1.00198 21.8182 1.36364 21.8182H2.72727C2.72727 22.9032 3.15828 23.9437 3.92547 24.7109C4.69267 25.4781 5.73321 25.9091 6.81818 25.9091C7.90316 25.9091 8.9437 25.4781 9.71089 24.7109C10.4781 23.9437 10.9091 22.9032 10.9091 21.8182H19.0909C19.0909 22.9032 19.5219 23.9437 20.2891 24.7109C21.0563 25.4781 22.0968 25.9091 23.1818 25.9091C24.2668 25.9091 25.3073 25.4781 26.0745 24.7109C26.8417 23.9437 27.2727 22.9032 27.2727 21.8182H28.6364C28.998 21.8182 29.3449 21.6745 29.6006 21.4188C29.8563 21.1631 30 20.8162 30 20.4545V4.09091C30 3.00593 29.569 1.96539 28.8018 1.1982C28.0346 0.431005 26.9941 0 25.9091 0H13.6364C12.5514 0 11.5108 0.431005 10.7437 1.1982C9.97646 1.96539 9.54545 3.00593 9.54545 4.09091V6.81818H6.81818C6.18309 6.81818 5.55672 6.96605 4.98867 7.25007C4.42063 7.53409 3.92651 7.94647 3.54545 8.45455L0.272727 12.8182C0.232843 12.8775 0.200761 12.9416 0.177273 13.0091L0.0954546 13.1591C0.0352719 13.3112 0.0029387 13.4728 0 13.6364ZM21.8182 21.8182C21.8182 21.5485 21.8982 21.2848 22.048 21.0606C22.1978 20.8363 22.4108 20.6616 22.66 20.5583C22.9092 20.4551 23.1833 20.4281 23.4479 20.4807C23.7124 20.5334 23.9553 20.6632 24.1461 20.8539C24.3368 21.0447 24.4666 21.2876 24.5193 21.5521C24.5719 21.8167 24.5449 22.0909 24.4417 22.34C24.3384 22.5892 24.1637 22.8022 23.9394 22.952C23.7152 23.1018 23.4515 23.1818 23.1818 23.1818C22.8202 23.1818 22.4733 23.0382 22.2176 22.7824C21.9618 22.5267 21.8182 22.1798 21.8182 21.8182ZM12.2727 4.09091C12.2727 3.72925 12.4164 3.3824 12.6721 3.12667C12.9279 2.87094 13.2747 2.72727 13.6364 2.72727H25.9091C26.2708 2.72727 26.6176 2.87094 26.8733 3.12667C27.1291 3.3824 27.2727 3.72925 27.2727 4.09091V19.0909H26.2091C25.8257 18.6691 25.3583 18.332 24.837 18.1014C24.3157 17.8707 23.7519 17.7516 23.1818 17.7516C22.6118 17.7516 22.048 17.8707 21.5267 18.1014C21.0053 18.332 20.538 18.6691 20.1545 19.0909H12.2727V4.09091ZM9.54545 12.2727H4.09091L5.72727 10.0909C5.85429 9.92155 6.019 9.78409 6.20834 9.68942C6.39769 9.59474 6.60648 9.54545 6.81818 9.54545H9.54545V12.2727ZM5.45455 21.8182C5.45455 21.5485 5.53452 21.2848 5.68436 21.0606C5.8342 20.8363 6.04717 20.6616 6.29634 20.5583C6.54551 20.4551 6.81969 20.4281 7.08421 20.4807C7.34873 20.5334 7.59171 20.6632 7.78242 20.8539C7.97313 21.0447 8.103 21.2876 8.15562 21.5521C8.20823 21.8167 8.18123 22.0909 8.07802 22.34C7.97481 22.5892 7.80003 22.8022 7.57578 22.952C7.35153 23.1018 7.08788 23.1818 6.81818 23.1818C6.45652 23.1818 6.10968 23.0382 5.85395 22.7824C5.59821 22.5267 5.45455 22.1798 5.45455 21.8182ZM2.72727 15H9.54545V18.7909C8.74068 18.0717 7.68427 17.6996 6.6064 17.7558C5.52852 17.812 4.51653 18.2919 3.79091 19.0909H2.72727V15Z" fill="white"/>
</svg>
