<svg width="30" height="30" viewBox="0 0 30 30" fill="none" xmlns="http://www.w3.org/2000/svg">
<g id="viber" clip-path="url(#clip0_338_14934)">
<path id="Vector" d="M15 30C23.2843 30 30 23.2843 30 15C30 6.71573 23.2843 0 15 0C6.71573 0 0 6.71573 0 15C0 23.2843 6.71573 30 15 30Z" fill="#6F3FAA"/>
<g id="Group">
<path id="Vector_2" d="M22.9352 10.5423L22.9303 10.5225C22.5295 8.90222 20.7226 7.16362 19.0632 6.80192L19.0445 6.79806C16.3606 6.28606 13.6392 6.28606 10.9558 6.79806L10.9365 6.80192C9.27776 7.16362 7.47078 8.90233 7.06948 10.5225L7.06502 10.5423C6.56955 12.805 6.56955 15.0998 7.06502 17.3625L7.06948 17.3823C7.45373 18.9334 9.12606 20.5922 10.7235 21.0483V22.857C10.7235 23.5117 11.5213 23.8332 11.9749 23.3608L13.8074 21.4559C14.2049 21.4781 14.6026 21.4906 15.0001 21.4906C16.3511 21.4906 17.7028 21.3628 19.0445 21.1068L19.0631 21.103C20.7225 20.7413 22.5294 19.0025 22.9302 17.3824L22.9351 17.3626C23.4306 15.0998 23.4306 12.8051 22.9352 10.5423ZM21.4849 17.0344C21.2173 18.0915 19.8454 19.4057 18.7554 19.6485C17.3283 19.9199 15.8899 20.0359 14.4529 19.9961C14.4243 19.9952 14.3969 20.0064 14.377 20.0269C14.173 20.2362 13.039 21.4004 13.039 21.4004L11.6159 22.8611C11.5118 22.9696 11.329 22.8957 11.329 22.746V19.7497C11.329 19.7002 11.2937 19.6582 11.245 19.6486C11.2447 19.6485 11.2445 19.6485 11.2442 19.6484C10.1541 19.4056 8.7827 18.0915 8.51463 17.0344C8.06867 14.9891 8.06867 12.9157 8.51463 10.8704C8.7827 9.81335 10.1541 8.49921 11.2442 8.2564C13.7366 7.78237 16.2636 7.78237 18.7554 8.2564C19.846 8.49921 21.2174 9.81335 21.485 10.8704C21.9314 12.9158 21.9314 14.9892 21.4849 17.0344Z" fill="white"/>
<path id="Vector_3" d="M17.3714 18.4176C17.2038 18.3667 17.0441 18.3325 16.8957 18.2711C15.3587 17.6334 13.9443 16.8107 12.8239 15.5497C12.1868 14.8327 11.6881 14.0231 11.2666 13.1663C11.0666 12.76 10.8982 12.3379 10.7264 11.9183C10.5699 11.5358 10.8005 11.1407 11.0433 10.8524C11.2712 10.5819 11.5645 10.3749 11.882 10.2223C12.1299 10.1032 12.3743 10.1719 12.5554 10.3819C12.9467 10.8362 13.3062 11.3136 13.5972 11.8401C13.7762 12.1639 13.7271 12.5598 13.4027 12.7802C13.3238 12.8337 13.252 12.8967 13.1785 12.9571C13.1141 13.0102 13.0535 13.0637 13.0093 13.1355C12.9286 13.2668 12.9248 13.4218 12.9767 13.5646C13.3767 14.6638 14.0509 15.5187 15.1575 15.9792C15.3345 16.0529 15.5123 16.1386 15.7163 16.1149C16.0579 16.075 16.1686 15.7002 16.408 15.5044C16.642 15.3131 16.941 15.3106 17.193 15.4701C17.4452 15.6297 17.6895 15.8009 17.9324 15.9741C18.1709 16.144 18.4083 16.3101 18.6282 16.5039C18.8397 16.6901 18.9125 16.9345 18.7934 17.1872C18.5754 17.6501 18.2581 18.0352 17.8006 18.281C17.6714 18.3503 17.517 18.3727 17.3714 18.4176C17.517 18.3727 17.2038 18.3667 17.3714 18.4176Z" fill="white"/>
<path id="Vector_4" d="M15.0042 9.69293C17.0145 9.7493 18.6657 11.0834 19.0196 13.0709C19.0799 13.4096 19.1013 13.7558 19.1281 14.0995C19.1395 14.2441 19.0575 14.3814 18.9016 14.3834C18.7404 14.3853 18.6679 14.2504 18.6574 14.106C18.6367 13.8199 18.6224 13.5325 18.5829 13.2489C18.3749 11.7513 17.1807 10.5124 15.6901 10.2465C15.4657 10.2065 15.2363 10.196 15.009 10.1722C14.8654 10.1571 14.6773 10.1484 14.6455 9.96985C14.6188 9.82014 14.7452 9.70096 14.8877 9.69329C14.9263 9.691 14.9653 9.69282 15.0042 9.69293C14.9653 9.69282 17.0146 9.7493 15.0042 9.69293Z" fill="white"/>
<path id="Vector_5" d="M18.0594 13.6533C18.0561 13.6784 18.0544 13.7374 18.0396 13.793C17.9863 13.9948 17.6802 14.02 17.6098 13.8164C17.5889 13.756 17.5858 13.6872 17.5857 13.6222C17.585 13.1964 17.4924 12.7711 17.2777 12.4006C17.057 12.0198 16.7197 11.6998 16.3243 11.506C16.0851 11.3889 15.8265 11.3161 15.5644 11.2728C15.4498 11.2538 15.334 11.2424 15.2189 11.2263C15.0794 11.2069 15.0048 11.1181 15.0115 10.9806C15.0177 10.8518 15.1118 10.7591 15.2522 10.7671C15.7135 10.7932 16.1592 10.8931 16.5694 11.1102C17.4034 11.5519 17.8799 12.2491 18.019 13.1801C18.0253 13.2223 18.0354 13.2641 18.0386 13.3064C18.0464 13.4108 18.0514 13.5154 18.0594 13.6533C18.0514 13.5154 18.0561 13.6783 18.0594 13.6533Z" fill="white"/>
<path id="Vector_6" d="M16.809 13.6047C16.6408 13.6077 16.5508 13.5146 16.5334 13.3605C16.5214 13.253 16.5118 13.144 16.4861 13.0394C16.4356 12.8333 16.3261 12.6424 16.1528 12.5161C16.071 12.4565 15.9783 12.4131 15.8812 12.385C15.7578 12.3493 15.6296 12.3592 15.5066 12.329C15.373 12.2963 15.299 12.188 15.3201 12.0627C15.3392 11.9485 15.4501 11.8595 15.5749 11.8686C16.3543 11.9248 16.9114 12.3278 16.9909 13.2453C16.9966 13.3101 17.0031 13.3785 16.9888 13.4405C16.964 13.5464 16.8855 13.5995 16.809 13.6047C16.8855 13.5995 16.6408 13.6077 16.809 13.6047Z" fill="white"/>
</g>
<path id="Vector_7" d="M17.3713 18.4176C17.517 18.3727 17.2037 18.3666 17.3713 18.4176V18.4176Z" fill="white"/>
<g id="Group_2">
<path id="Vector_8" d="M15.0094 9.69309C15.0077 9.69309 15.006 9.69292 15.0043 9.69292C15.0027 9.6928 15.0048 9.69292 15.0094 9.69309Z" fill="white"/>
<path id="Vector_9" d="M15.0045 9.69287C15.0062 9.69287 15.0078 9.69305 15.0095 9.69305C15.1211 9.69703 16.9356 9.74701 15.0045 9.69287Z" fill="white"/>
</g>
<g id="Group_3">
<path id="Vector_10" d="M18.0593 13.6535C18.0514 13.5156 18.056 13.6785 18.0593 13.6535V13.6535Z" fill="white"/>
<path id="Vector_11" d="M16.809 13.6048C16.8116 13.6047 16.8141 13.6033 16.8167 13.603C16.8096 13.603 16.7987 13.6032 16.7875 13.6036C16.7947 13.6038 16.8014 13.6049 16.809 13.6048Z" fill="white"/>
<path id="Vector_12" d="M16.8089 13.6047C16.8013 13.6049 16.7947 13.6038 16.7874 13.6035C16.751 13.6045 16.7135 13.6064 16.8089 13.6047Z" fill="white"/>
<path id="Vector_13" d="M16.8166 13.603C16.8139 13.6033 16.8114 13.6047 16.8089 13.6048C16.8286 13.6035 16.8269 13.603 16.8166 13.603Z" fill="white"/>
</g>
</g>
<defs>
<clipPath id="clip0_338_14934">
<rect width="30" height="30" fill="white"/>
</clipPath>
</defs>
</svg>
