<svg width="30" height="27" viewBox="0 0 30 27" fill="none" xmlns="http://www.w3.org/2000/svg">
<path d="M25.5 6H24V4.5C24 3.30653 23.5259 2.16193 22.682 1.31802C21.8381 0.474106 20.6935 0 19.5 0H4.5C3.30653 0 2.16193 0.474106 1.31802 1.31802C0.474106 2.16193 0 3.30653 0 4.5V22.5C0 23.6935 0.474106 24.8381 1.31802 25.682C2.16193 26.5259 3.30653 27 4.5 27H25.5C26.6935 27 27.8381 26.5259 28.682 25.682C29.5259 24.8381 30 23.6935 30 22.5V10.5C30 9.30653 29.5259 8.16193 28.682 7.31802C27.8381 6.47411 26.6935 6 25.5 6ZM4.5 3H19.5C19.8978 3 20.2794 3.15804 20.5607 3.43934C20.842 3.72064 21 4.10218 21 4.5V6H4.5C4.10218 6 3.72064 5.84196 3.43934 5.56066C3.15804 5.27936 3 4.89782 3 4.5C3 4.10218 3.15804 3.72064 3.43934 3.43934C3.72064 3.15804 4.10218 3 4.5 3ZM27 18H25.5C25.1022 18 24.7206 17.842 24.4393 17.5607C24.158 17.2794 24 16.8978 24 16.5C24 16.1022 24.158 15.7206 24.4393 15.4393C24.7206 15.158 25.1022 15 25.5 15H27V18ZM27 12H25.5C24.3065 12 23.1619 12.4741 22.318 13.318C21.4741 14.1619 21 15.3065 21 16.5C21 17.6935 21.4741 18.8381 22.318 19.682C23.1619 20.5259 24.3065 21 25.5 21H27V22.5C27 22.8978 26.842 23.2794 26.5607 23.5607C26.2794 23.842 25.8978 24 25.5 24H4.5C4.10218 24 3.72064 23.842 3.43934 23.5607C3.15804 23.2794 3 22.8978 3 22.5V8.745C3.4819 8.91453 3.98915 9.00076 4.5 9H25.5C25.8978 9 26.2794 9.15804 26.5607 9.43934C26.842 9.72064 27 10.1022 27 10.5V12Z" fill="white"/>
</svg>
