<svg aria-hidden="true" style="position: absolute; width: 0; height: 0; overflow: hidden;" version="1.1" xmlns="http://www.w3.org/2000/svg" xmlns:xlink="http://www.w3.org/1999/xlink">
<defs>
<symbol id="icon-awaiting" viewBox="0 0 32 32">
<title>awaiting</title>
<path d="M1.871 16c0-7.803 6.326-14.129 14.129-14.129s14.129 6.326 14.129 14.129c0 7.803-6.326 14.129-14.129 14.129s-14.129-6.326-14.129-14.129zM16 3.898c-6.684 0-12.102 5.418-12.102 12.102s5.418 12.102 12.102 12.102c6.684 0 12.102-5.418 12.102-12.102s-5.418-12.102-12.102-12.102zM21.021 10.979c0.416 0.417 0.416 1.092 0 1.508l-3.512 3.512 3.512 3.512c0.416 0.417 0.416 1.092 0 1.509s-1.092 0.417-1.509 0l-3.512-3.512-3.512 3.512c-0.417 0.417-1.092 0.417-1.508 0s-0.417-1.092 0-1.509l3.512-3.512-3.512-3.512c-0.417-0.417-0.417-1.092 0-1.508s1.092-0.417 1.508 0l3.512 3.512 3.512-3.512c0.417-0.417 1.092-0.417 1.509 0z"></path>
</symbol>
<symbol id="icon-info" viewBox="0 0 32 32">
<title>info</title>
<path d="M16 9.333c0.736 0 1.333 0.597 1.333 1.333v6.667c0 0.736-0.597 1.333-1.333 1.333s-1.333-0.597-1.333-1.333v-6.667c0-0.736 0.597-1.333 1.333-1.333z"></path>
<path d="M16 22.667c0.736 0 1.333-0.597 1.333-1.333s-0.597-1.333-1.333-1.333c-0.736 0-1.333 0.597-1.333 1.333s0.597 1.333 1.333 1.333z"></path>
<path d="M16 2.667c-7.364 0-13.333 5.97-13.333 13.333s5.97 13.333 13.333 13.333c7.364 0 13.333-5.97 13.333-13.333s-5.97-13.333-13.333-13.333zM5.333 16c0-5.891 4.776-10.667 10.667-10.667s10.667 4.776 10.667 10.667c0 5.891-4.776 10.667-10.667 10.667s-10.667-4.776-10.667-10.667z"></path>
</symbol>
<symbol id="icon-arrow" viewBox="0 0 32 32">
<title>arrow</title>
<path d="M31.787 1.653c-0.271-0.652-0.789-1.169-1.44-1.44-0.321-0.137-0.665-0.209-1.013-0.213h-26.667c-0.707 0-1.386 0.281-1.886 0.781s-0.781 1.178-0.781 1.886c0 0.707 0.281 1.386 0.781 1.886s1.178 0.781 1.886 0.781h20.24l-22.133 22.107c-0.25 0.248-0.448 0.543-0.584 0.868s-0.205 0.674-0.205 1.026 0.070 0.701 0.205 1.026c0.135 0.325 0.334 0.62 0.584 0.868 0.248 0.25 0.543 0.448 0.868 0.584s0.673 0.205 1.026 0.205c0.352 0 0.701-0.070 1.026-0.205s0.62-0.334 0.868-0.584l22.107-22.133v20.24c0 0.707 0.281 1.386 0.781 1.886s1.178 0.781 1.886 0.781c0.707 0 1.386-0.281 1.886-0.781s0.781-1.178 0.781-1.886v-26.667c-0.004-0.348-0.077-0.693-0.213-1.013z"></path>
</symbol>
<symbol id="icon-available" viewBox="0 0 32 32">
<title>available</title>
<path d="M20.352 10.864l-6.864 6.88-2.64-2.64c-0.143-0.168-0.32-0.304-0.518-0.4s-0.415-0.15-0.635-0.159c-0.22-0.008-0.44 0.029-0.645 0.109s-0.392 0.202-0.548 0.358c-0.156 0.156-0.278 0.342-0.358 0.548s-0.118 0.425-0.109 0.645c0.008 0.22 0.062 0.436 0.159 0.635s0.232 0.375 0.4 0.518l3.76 3.776c0.149 0.148 0.327 0.266 0.522 0.345s0.404 0.12 0.614 0.119c0.42-0.002 0.822-0.168 1.12-0.464l8-8c0.15-0.149 0.269-0.326 0.35-0.521s0.123-0.404 0.123-0.615c0-0.211-0.042-0.42-0.123-0.615s-0.2-0.372-0.35-0.521c-0.3-0.298-0.705-0.465-1.128-0.465s-0.828 0.167-1.128 0.465zM16 0c-3.165 0-6.258 0.938-8.889 2.696s-4.682 4.257-5.893 7.181c-1.211 2.924-1.528 6.141-0.91 9.244s2.141 5.955 4.379 8.192c2.238 2.238 5.089 3.761 8.192 4.379s6.321 0.3 9.244-0.911c2.924-1.211 5.423-3.262 7.181-5.893s2.696-5.725 2.696-8.889c0-2.101-0.414-4.182-1.218-6.123s-1.983-3.705-3.468-5.191c-1.486-1.486-3.25-2.664-5.191-3.468s-4.022-1.218-6.123-1.218v0zM16 28.8c-2.532 0-5.006-0.751-7.111-2.157s-3.746-3.406-4.714-5.744-1.222-4.913-0.728-7.396c0.494-2.483 1.713-4.764 3.503-6.554s4.071-3.009 6.554-3.503c2.483-0.494 5.057-0.24 7.396 0.728s4.338 2.609 5.744 4.714c1.406 2.105 2.157 4.58 2.157 7.111 0 3.395-1.348 6.651-3.749 9.051s-5.656 3.749-9.051 3.749v0z"></path>
</symbol>
<symbol id="icon-cart" viewBox="0 0 32 32">
<title>cart</title>
<path d="M19.196 25.621c0.426 0 0.834-0.168 1.136-0.467s0.47-0.705 0.47-1.128v-3.189c0-0.423-0.169-0.829-0.47-1.128s-0.71-0.467-1.136-0.467-0.834 0.168-1.136 0.467c-0.301 0.299-0.47 0.705-0.47 1.128v3.189c0 0.423 0.169 0.829 0.47 1.128s0.71 0.467 1.136 0.467zM12.773 25.621c0.426 0 0.834-0.168 1.135-0.467s0.47-0.705 0.47-1.128v-3.189c0-0.423-0.169-0.829-0.47-1.128s-0.71-0.467-1.135-0.467-0.834 0.168-1.135 0.467c-0.301 0.299-0.47 0.705-0.47 1.128v3.189c0 0.423 0.169 0.829 0.47 1.128s0.71 0.467 1.135 0.467zM27.225 6.484h-2.216l-2.778-5.502c-0.085-0.202-0.211-0.385-0.37-0.537s-0.348-0.27-0.556-0.346c-0.207-0.076-0.428-0.109-0.648-0.096s-0.436 0.070-0.633 0.169c-0.197 0.099-0.371 0.237-0.512 0.406s-0.245 0.365-0.306 0.576c-0.061 0.211-0.078 0.432-0.049 0.649s0.102 0.427 0.216 0.615l2.039 4.067h-10.855l2.039-4.067c0.156-0.372 0.164-0.788 0.024-1.166s-0.42-0.689-0.782-0.87c-0.362-0.182-0.779-0.221-1.169-0.109s-0.722 0.365-0.931 0.71l-2.778 5.502h-2.216c-1.135 0.017-2.227 0.432-3.085 1.171s-1.424 1.755-1.601 2.868c-0.177 1.114 0.048 2.253 0.635 3.218s1.498 1.693 2.573 2.056l1.188 11.897c0.12 1.184 0.68 2.282 1.571 3.078s2.048 1.234 3.247 1.228h13.456c1.198 0.006 2.356-0.432 3.247-1.228s1.451-1.893 1.571-3.078l1.188-11.897c1.077-0.364 1.99-1.095 2.576-2.063s0.809-2.111 0.628-3.227c-0.181-1.116-0.753-2.132-1.616-2.868s-1.96-1.146-3.098-1.156zM24.318 27.375c-0.040 0.395-0.227 0.761-0.524 1.026s-0.683 0.411-1.082 0.409h-13.456c-0.399 0.002-0.785-0.144-1.082-0.409s-0.484-0.631-0.524-1.026l-1.14-11.323h18.948l-1.14 11.323zM27.225 12.863h-22.481c-0.426 0-0.834-0.168-1.135-0.467s-0.47-0.705-0.47-1.128c0-0.423 0.169-0.829 0.47-1.128s0.71-0.467 1.135-0.467h22.481c0.426 0 0.834 0.168 1.135 0.467s0.47 0.705 0.47 1.128-0.169 0.829-0.47 1.128c-0.301 0.299-0.709 0.467-1.135 0.467z"></path>
</symbol>
<symbol id="icon-catalog" viewBox="0 0 32 32">
<title>catalog</title>
<path d="M30.4 2.36h-8.196c-0.884 0-1.6 0.716-1.6 1.6v8.196c0 0.884 0.716 1.6 1.6 1.6h8.196c0.884 0 1.6-0.716 1.6-1.6v-8.196c0-0.884-0.716-1.6-1.6-1.6z"></path>
<path d="M14.986 6.927l-5.796-5.796c-0.625-0.625-1.638-0.625-2.263 0l-5.796 5.796c-0.625 0.625-0.625 1.638 0 2.263l5.796 5.796c0.625 0.625 1.638 0.625 2.263 0l5.796-5.796c0.625-0.625 0.625-1.638 0-2.263z"></path>
<path d="M12.157 20.604h-8.196c-0.884 0-1.6 0.716-1.6 1.6v8.196c0 0.884 0.716 1.6 1.6 1.6h8.196c0.884 0 1.6-0.716 1.6-1.6v-8.196c0-0.884-0.716-1.6-1.6-1.6z"></path>
<path d="M30.4 20.604h-8.196c-0.884 0-1.6 0.716-1.6 1.6v8.196c0 0.884 0.716 1.6 1.6 1.6h8.196c0.884 0 1.6-0.716 1.6-1.6v-8.196c0-0.884-0.716-1.6-1.6-1.6z"></path>
</symbol>
<symbol id="icon-credit" viewBox="0 0 32 32">
<title>credit</title>
<path d="M16 0c-8.8 0-16 7.2-16 16s7.2 16 16 16c8.8 0 16-7.2 16-16s-7.2-16-16-16zM16 3.2c6.4 0 11.84 4.8 12.64 11.2h-12.64v-11.2zM22.4 27.040l-5.44-9.44h11.84c-0.64 4-2.88 7.52-6.4 9.44z"></path>
</symbol>
<symbol id="icon-expand" viewBox="0 0 48 32">
<title>expand</title>
<path d="M26.839 27.32l16.96-16.96c0.375-0.372 0.672-0.814 0.876-1.302s0.308-1.010 0.308-1.538c0-0.528-0.104-1.051-0.308-1.538s-0.501-0.93-0.876-1.302c-0.75-0.745-1.763-1.163-2.82-1.163s-2.071 0.418-2.82 1.163l-14.16 14.16-14.16-14.16c-0.749-0.745-1.763-1.163-2.82-1.163s-2.071 0.418-2.82 1.163c-0.371 0.374-0.664 0.817-0.863 1.304s-0.3 1.009-0.297 1.536c-0.003 0.526 0.098 1.048 0.297 1.536s0.492 0.931 0.863 1.304l16.96 16.96c0.372 0.375 0.814 0.672 1.302 0.876s1.010 0.308 1.538 0.308c0.528 0 1.051-0.105 1.538-0.308s0.93-0.501 1.302-0.876z"></path>
</symbol>
<symbol id="icon-heart" viewBox="0 0 36 32">
<title>heart</title>
<path d="M32.784 3.39c-1.913-1.917-4.447-3.088-7.147-3.299s-5.386 0.549-7.574 2.145c-2.295-1.707-5.152-2.481-7.996-2.167s-5.462 1.695-7.328 3.864c-1.866 2.168-2.842 4.963-2.73 7.821s1.303 5.569 3.332 7.584l11.203 11.221c0.938 0.923 2.202 1.441 3.518 1.441s2.58-0.517 3.518-1.441l11.203-11.221c2.106-2.119 3.289-4.986 3.289-7.974s-1.182-5.855-3.289-7.974zM30.24 16.848l-11.203 11.203c-0.127 0.129-0.279 0.231-0.446 0.301s-0.347 0.106-0.528 0.106c-0.181 0-0.36-0.036-0.528-0.106s-0.319-0.172-0.446-0.301l-11.203-11.257c-1.415-1.446-2.207-3.389-2.207-5.412s0.792-3.966 2.207-5.412c1.442-1.423 3.386-2.222 5.412-2.222s3.97 0.798 5.412 2.222c0.168 0.169 0.367 0.303 0.587 0.395s0.456 0.139 0.694 0.139c0.238 0 0.474-0.047 0.694-0.139s0.419-0.226 0.587-0.395c1.442-1.423 3.386-2.222 5.412-2.222s3.971 0.798 5.412 2.222c1.434 1.427 2.253 3.36 2.279 5.383s-0.739 3.977-2.135 5.442v0.054z"></path>
</symbol>
<symbol id="icon-phone" viewBox="0 0 33 32">
<title>phone</title>
<path d="M27.954 17.664c-0.353 0-0.723-0.112-1.076-0.193-0.715-0.16-1.418-0.369-2.104-0.626-0.745-0.271-1.564-0.257-2.299 0.040s-1.335 0.854-1.683 1.566l-0.353 0.739c-1.559-0.884-3-1.964-4.288-3.212-1.248-1.287-2.327-2.728-3.212-4.288l0.739-0.337c0.712-0.349 1.27-0.948 1.566-1.683s0.311-1.554 0.040-2.299c-0.255-0.692-0.464-1.4-0.626-2.12-0.080-0.353-0.145-0.723-0.193-1.076-0.195-1.131-0.787-2.155-1.671-2.889s-1.999-1.127-3.147-1.11h-4.834c-0.679-0.001-1.35 0.142-1.97 0.418s-1.174 0.681-1.627 1.187c-0.462 0.52-0.806 1.133-1.008 1.799s-0.258 1.366-0.164 2.055c0.873 6.684 3.927 12.893 8.688 17.664 4.771 4.761 10.98 7.815 17.664 8.687 0.208 0.016 0.418 0.016 0.626 0 1.184 0.002 2.327-0.433 3.212-1.22 0.506-0.453 0.911-1.007 1.187-1.627s0.419-1.291 0.418-1.97v-4.818c-0.009-1.11-0.4-2.182-1.108-3.037s-1.689-1.438-2.778-1.652zM28.741 27.299c-0 0.224-0.048 0.445-0.139 0.65s-0.224 0.388-0.391 0.538c-0.176 0.16-0.386 0.279-0.613 0.349s-0.468 0.087-0.704 0.052c-5.992-0.783-11.561-3.513-15.849-7.772-4.292-4.292-7.046-9.88-7.836-15.898-0.035-0.236-0.017-0.476 0.052-0.704s0.189-0.437 0.349-0.613c0.152-0.168 0.338-0.303 0.545-0.394s0.432-0.138 0.659-0.136h4.817c0.371-0.009 0.734 0.111 1.027 0.339s0.497 0.551 0.579 0.913c0 0.434 0.145 0.883 0.241 1.317 0.186 0.841 0.432 1.668 0.739 2.473l-2.248 1.060c-0.386 0.177-0.687 0.501-0.835 0.899-0.161 0.391-0.161 0.829 0 1.22 2.311 4.95 6.29 8.93 11.241 11.241 0.391 0.161 0.829 0.161 1.22 0 0.398-0.148 0.722-0.449 0.899-0.835l1.012-2.248c0.828 0.302 1.676 0.549 2.537 0.739 0.418 0.096 0.867 0.177 1.301 0.241 0.362 0.082 0.685 0.286 0.913 0.579s0.348 0.656 0.339 1.027l0.144 4.962zM19.266 0c-0.369 0-0.755 0-1.124 0-0.426 0.036-0.82 0.24-1.096 0.567s-0.41 0.75-0.374 1.175c0.036 0.426 0.24 0.82 0.567 1.095s0.75 0.41 1.175 0.374h0.851c2.555 0 5.006 1.015 6.813 2.822s2.822 4.258 2.822 6.813c0 0.289 0 0.562 0 0.851-0.036 0.424 0.098 0.844 0.372 1.169s0.666 0.528 1.089 0.565h0.128c0.402 0.002 0.79-0.147 1.087-0.418s0.482-0.643 0.519-1.043c0-0.369 0-0.755 0-1.124 0-3.404-1.351-6.67-3.757-9.078s-5.669-3.764-9.074-3.768zM22.478 12.847c0 0.426 0.169 0.834 0.47 1.135s0.71 0.47 1.135 0.47 0.834-0.169 1.135-0.47c0.301-0.301 0.47-0.71 0.47-1.135 0-1.704-0.677-3.337-1.881-4.542s-2.838-1.881-4.542-1.881c-0.426 0-0.834 0.169-1.135 0.47s-0.47 0.71-0.47 1.135 0.169 0.834 0.47 1.136c0.301 0.301 0.71 0.47 1.135 0.47 0.852 0 1.669 0.338 2.271 0.941s0.941 1.419 0.941 2.271z"></path>
</symbol>
<symbol id="icon-sale" viewBox="0 0 32 32">
<title>sale</title>
<path d="M27.319 4.681c-6.242-6.241-16.396-6.241-22.638 0s-6.241 16.396 0 22.638c3.121 3.121 7.22 4.681 11.319 4.681s8.198-1.561 11.319-4.681c6.241-6.241 6.241-16.396 0-22.638zM10.305 7.53c0.591-0.591 1.378-0.917 2.215-0.917s1.624 0.326 2.216 0.918c0.591 0.591 0.917 1.378 0.917 2.214s-0.326 1.623-0.918 2.215c-0.591 0.592-1.378 0.917-2.215 0.917s-1.623-0.326-2.215-0.917c-0.592-0.592-0.918-1.378-0.918-2.215s0.326-1.623 0.918-2.215zM10.831 22.645c-0.204 0.204-0.471 0.306-0.738 0.306s-0.534-0.102-0.738-0.306c-0.408-0.407-0.408-1.069-0-1.477l11.814-11.814c0.408-0.408 1.069-0.408 1.477 0s0.408 1.069 0 1.477l-11.814 11.814zM22.391 23.784c-0.591 0.591-1.378 0.917-2.215 0.917s-1.624-0.326-2.215-0.918c-0.591-0.591-0.917-1.378-0.917-2.215s0.326-1.623 0.918-2.215c0.591-0.591 1.378-0.917 2.215-0.917s1.624 0.326 2.215 0.918c0.591 0.591 0.917 1.378 0.917 2.214s-0.326 1.623-0.918 2.215z"></path>
</symbol>
<symbol id="icon-star" viewBox="0 0 34 32">
<title>star</title>
<path d="M32 12.226c0.16-0.8-0.48-1.76-1.28-1.76l-9.12-1.28-4.16-8.32c-0.16-0.32-0.32-0.48-0.64-0.64-0.8-0.48-1.76-0.16-2.24 0.64l-4 8.32-9.12 1.28c-0.48 0-0.8 0.16-0.96 0.48-0.64 0.64-0.64 1.6 0 2.24l6.56 6.4-1.6 9.12c0 0.32 0 0.64 0.16 0.96 0.48 0.8 1.44 1.12 2.24 0.64l8.16-4.32 8.16 4.32c0.16 0.16 0.48 0.16 0.8 0.16 0.16 0 0.16 0 0.32 0 0.8-0.16 1.44-0.96 1.28-1.92l-1.6-9.12 6.56-6.4c0.32-0.16 0.48-0.48 0.48-0.8z"></path>
</symbol>
<symbol id="icon-viber" viewBox="0 0 32 32">
<title>viber</title>
<path d="M30.107 8.075l-0.009-0.035c-0.713-2.881-3.925-5.971-6.875-6.614l-0.033-0.007c-4.772-0.91-9.61-0.91-14.38 0l-0.034 0.007c-2.949 0.643-6.161 3.734-6.875 6.614l-0.008 0.035c-0.881 4.023-0.881 8.102 0 12.125l0.008 0.035c0.683 2.758 3.656 5.706 6.496 6.517v3.215c0 1.164 1.418 1.735 2.225 0.896l3.258-3.386c0.707 0.039 1.414 0.062 2.12 0.062 2.402 0 4.805-0.227 7.19-0.682l0.033-0.007c2.95-0.643 6.162-3.734 6.875-6.614l0.009-0.035c0.881-4.023 0.881-8.102 0-12.125zM27.529 19.617c-0.476 1.879-2.915 4.216-4.853 4.647-2.537 0.483-5.094 0.689-7.649 0.618-0.051-0.001-0.1 0.018-0.135 0.055-0.363 0.372-2.379 2.442-2.379 2.442l-2.53 2.597c-0.185 0.193-0.51 0.061-0.51-0.205v-5.327c0-0.088-0.063-0.163-0.149-0.18-0.001-0-0.001-0-0.001-0-1.938-0.432-4.376-2.768-4.853-4.647-0.793-3.636-0.793-7.322 0-10.958 0.477-1.879 2.915-4.216 4.853-4.647 4.431-0.843 8.923-0.843 13.353 0 1.939 0.432 4.377 2.768 4.852 4.647 0.794 3.636 0.794 7.322 0 10.958z"></path>
<path d="M20.216 22.076c-0.298-0.090-0.582-0.151-0.846-0.26-2.732-1.134-5.247-2.596-7.239-4.838-1.133-1.275-2.019-2.714-2.769-4.237-0.355-0.722-0.655-1.473-0.96-2.219-0.278-0.68 0.132-1.383 0.563-1.895 0.405-0.481 0.926-0.849 1.491-1.12 0.441-0.212 0.875-0.090 1.197 0.284 0.696 0.808 1.335 1.656 1.852 2.592 0.318 0.576 0.231 1.28-0.346 1.671-0.14 0.095-0.268 0.207-0.398 0.315-0.115 0.094-0.222 0.189-0.301 0.317-0.143 0.233-0.15 0.509-0.058 0.763 0.711 1.954 1.91 3.474 3.877 4.293 0.315 0.131 0.631 0.283 0.994 0.241 0.607-0.071 0.804-0.737 1.23-1.085 0.416-0.34 0.948-0.345 1.396-0.061s0.883 0.588 1.314 0.896c0.424 0.302 0.846 0.597 1.237 0.942 0.376 0.331 0.505 0.765 0.294 1.215-0.388 0.823-0.952 1.508-1.765 1.945-0.23 0.123-0.504 0.163-0.763 0.243 0.259-0.080-0.298-0.090 0 0z"></path>
<path d="M16.007 6.565c3.574 0.1 6.509 2.472 7.139 6.005 0.107 0.602 0.145 1.217 0.193 1.829 0.020 0.257-0.125 0.501-0.403 0.505-0.287 0.003-0.415-0.236-0.434-0.493-0.037-0.509-0.062-1.019-0.132-1.524-0.37-2.662-2.493-4.865-5.143-5.338-0.399-0.071-0.807-0.090-1.211-0.132-0.255-0.027-0.59-0.042-0.646-0.36-0.047-0.266 0.177-0.478 0.431-0.492 0.069-0.004 0.138-0.001 0.207-0.001 3.574 0.1-0.069-0 0 0z"></path>
<path d="M21.439 13.606c-0.006 0.045-0.009 0.15-0.035 0.248-0.095 0.359-0.639 0.404-0.764 0.042-0.037-0.107-0.043-0.23-0.043-0.345-0.001-0.757-0.166-1.513-0.548-2.172-0.392-0.677-0.992-1.246-1.695-1.59-0.425-0.208-0.885-0.338-1.351-0.415-0.204-0.034-0.41-0.054-0.614-0.083-0.248-0.034-0.381-0.193-0.369-0.437 0.011-0.229 0.178-0.394 0.428-0.38 0.82 0.046 1.612 0.224 2.342 0.61 1.483 0.785 2.33 2.025 2.577 3.68 0.011 0.075 0.029 0.149 0.035 0.224 0.014 0.186 0.023 0.372 0.037 0.617-0.006 0.044-0.014-0.245 0 0z"></path>
<path d="M19.216 13.52c-0.299 0.005-0.459-0.16-0.49-0.434-0.021-0.191-0.038-0.385-0.084-0.571-0.090-0.366-0.284-0.706-0.593-0.93-0.145-0.106-0.31-0.183-0.483-0.233-0.219-0.063-0.447-0.046-0.666-0.1-0.238-0.058-0.369-0.251-0.332-0.474 0.034-0.203 0.231-0.361 0.453-0.345 1.386 0.1 2.376 0.816 2.517 2.448 0.010 0.115 0.022 0.237-0.004 0.347-0.044 0.188-0.183 0.283-0.319 0.292 0.136-0.009-0.299 0.005 0 0z"></path>
</symbol>
<symbol id="icon-whatsapp" viewBox="0 0 32 32">
<title>whatsapp</title>
<path d="M15.254 0.63c-8.128 0.387-14.542 7.156-14.518 15.293 0.007 2.478 0.606 4.818 1.661 6.885l-1.621 7.866c-0.088 0.426 0.296 0.798 0.719 0.698l7.708-1.826c1.98 0.987 4.205 1.556 6.559 1.592 8.308 0.127 15.234-6.469 15.494-14.774 0.277-8.902-7.069-16.16-16.002-15.734zM24.451 24.327c-2.257 2.257-5.259 3.5-8.451 3.5-1.869 0-3.659-0.419-5.319-1.246l-1.073-0.535-4.726 1.119 0.995-4.829-0.529-1.036c-0.862-1.688-1.299-3.513-1.299-5.425 0-3.192 1.243-6.194 3.5-8.451 2.237-2.237 5.287-3.5 8.451-3.5 3.192 0 6.193 1.243 8.451 3.5s3.5 5.259 3.5 8.451c0 3.164-1.263 6.214-3.5 8.452z"></path>
<path d="M23.408 19.186l-2.957-0.849c-0.388-0.111-0.807-0.001-1.090 0.288l-0.723 0.736c-0.305 0.311-0.767 0.41-1.171 0.247-1.399-0.566-4.341-3.182-5.092-4.49-0.217-0.377-0.181-0.849 0.085-1.194l0.631-0.817c0.247-0.32 0.299-0.75 0.136-1.12l-1.244-2.813c-0.298-0.674-1.159-0.87-1.722-0.394-0.825 0.698-1.804 1.758-1.923 2.933-0.21 2.072 0.679 4.683 4.038 7.818 3.881 3.623 6.989 4.101 9.013 3.611 1.148-0.278 2.065-1.392 2.644-2.305 0.395-0.623 0.083-1.449-0.625-1.652z"></path>
</symbol>
<symbol id="icon-x" viewBox="0 0 32 32">
<title>x</title>
<path d="M4.148 31.238l27.090-27.090c1.016-1.016 1.016-2.37 0-3.386s-2.37-1.016-3.386 0l-27.090 27.090c-1.016 1.016-1.016 2.37 0 3.386s2.37 1.016 3.386 0z"></path>
<path d="M0.762 4.148l27.090 27.090c1.016 1.016 2.37 1.016 3.386 0s1.016-2.37 0-3.386l-27.090-27.090c-1.016-1.016-2.37-1.016-3.386 0s-1.016 2.37 0 3.386z"></path>
</symbol>
<symbol id="icon-zoom" viewBox="0 0 32 32">
<title>zoom</title>
<path d="M31.551 29.302l-5.933-5.889c2.303-2.873 3.418-6.521 3.116-10.192s-1.997-7.087-4.738-9.545-6.319-3.772-9.998-3.671c-3.679 0.101-7.18 1.608-9.783 4.213s-4.109 6.108-4.21 9.79c-0.101 3.682 1.212 7.263 3.668 10.006s5.87 4.44 9.538 4.742c3.668 0.302 7.313-0.814 10.184-3.119l5.885 5.889c0.149 0.15 0.326 0.269 0.52 0.35s0.404 0.123 0.615 0.123c0.211 0 0.42-0.042 0.615-0.123s0.372-0.2 0.52-0.35c0.288-0.298 0.449-0.697 0.449-1.112s-0.161-0.814-0.449-1.112zM14.425 25.638c-2.214 0-4.378-0.657-6.219-1.888s-3.275-2.98-4.123-5.027c-0.847-2.047-1.069-4.299-0.637-6.472s1.498-4.169 3.063-5.736c1.565-1.567 3.56-2.633 5.731-3.066s4.422-0.21 6.467 0.637c2.045 0.848 3.794 2.284 5.023 4.126s1.886 4.008 1.886 6.223c0 2.971-1.179 5.82-3.278 7.921s-4.946 3.281-7.915 3.281z"></path>
</symbol>
</defs>
</svg>
