<svg width="89" height="30" viewBox="0 0 89 30" fill="none" xmlns="http://www.w3.org/2000/svg">
<g id="mastercard" clip-path="url(#clip0_248_10931)">
<path id="Vector" d="M32.4119 24.4196C32.4119 24.7466 32.4119 25.0737 32.3055 25.4007C32.0923 25.8368 31.7727 26.2729 31.3466 26.3818C30.8139 26.4909 30.3878 26.4909 29.8552 26.3818C29.642 26.2729 29.4289 26.1638 29.2159 26.0548C29.0028 25.8368 28.8962 25.6188 28.7898 25.4007C28.6833 25.0737 28.6833 24.7466 28.6833 24.4196V20.0591H26.9788V24.5287C26.9788 25.0737 27.0852 25.6188 27.2983 26.1638C27.5114 26.5999 27.7244 26.927 28.0441 27.254C28.3636 27.581 28.7898 27.799 29.2159 27.908C30.0681 28.126 31.027 28.126 31.8792 27.908C32.3055 27.799 32.7316 27.581 33.0511 27.254C33.3708 26.927 33.6903 26.5999 33.7969 26.1638C34.01 25.6188 34.1164 25.0737 34.1164 24.5287V20.0591H32.4119V24.4196ZM40.1889 19.8412C39.7628 19.8412 39.3367 19.9501 38.9105 20.0591C38.4844 20.2771 38.1648 20.4952 37.9517 20.9312V20.0591H36.2472V27.799H37.9517V23.5476C37.9517 23.2205 37.9517 23.0024 38.0583 22.6754C38.1648 22.4574 38.2713 22.2395 38.3778 22.0213C38.5909 21.8034 38.6975 21.6943 38.9105 21.5852C39.1236 21.4763 39.4431 21.4763 39.6562 21.4763C39.8694 21.4763 40.0823 21.4763 40.2955 21.5852C40.5086 21.5852 40.7216 21.6943 40.9347 21.8034L41.3608 20.1682C41.1477 20.0591 40.9347 20.0591 40.7216 19.9501C40.615 19.8412 40.402 19.8412 40.1889 19.8412ZM43.7045 23.2205C43.7045 23.0024 43.8111 22.6754 43.9177 22.4574C44.0242 22.2395 44.1306 22.0213 44.3438 21.8034C44.5569 21.5854 44.7698 21.4763 44.983 21.3673C45.1961 21.2582 45.5156 21.2582 45.7287 21.2582C46.2614 21.2582 46.6875 21.3673 47.007 21.8034C47.3267 22.2395 47.5398 22.6754 47.6463 23.2205H43.7045ZM48.392 20.9312C48.0725 20.6041 47.6463 20.2771 47.2202 20.0591C46.7941 19.8412 46.2614 19.7321 45.7287 19.7321C45.1961 19.7321 44.6633 19.8412 44.2372 20.0591C43.8111 20.2771 43.385 20.4952 43.0653 20.9312C42.7458 21.2582 42.4261 21.6943 42.3195 22.2395C42.1066 22.7845 42 23.3295 42 23.8746C42 24.4196 42.1066 24.9646 42.3195 25.5098C42.6392 26.4909 43.385 27.254 44.3438 27.581C44.8764 27.799 45.4091 27.908 45.9417 27.908C46.4744 27.908 47.1136 27.799 47.6463 27.6899C48.1789 27.472 48.7117 27.254 49.1378 26.8179L48.2855 25.6188C47.9659 25.8368 47.6463 26.0548 47.2202 26.2729C46.9006 26.3818 46.4744 26.4909 46.0483 26.4909C45.8352 26.4909 45.5156 26.4909 45.3025 26.3818C45.0895 26.2729 44.8764 26.1638 44.6633 26.0548C44.4503 25.8368 44.2372 25.6188 44.1306 25.4007C44.0242 25.0737 43.9177 24.8557 43.8111 24.5287H49.5639V23.8746C49.5639 23.3295 49.4573 22.7845 49.2444 22.2395C49.0312 21.8034 48.7117 21.3673 48.392 20.9312ZM7.69609 22.1304C7.37641 21.9124 6.95031 21.6943 6.52422 21.5852C6.09797 21.4763 5.67187 21.3673 5.24578 21.2582L4.5 21.1493C4.18047 21.1493 3.86078 21.0402 3.54125 20.9312C3.32813 20.8223 3.00859 20.8223 2.79545 20.6041C2.58239 20.4952 2.47586 20.3862 2.36931 20.1682C2.26278 19.9501 2.15625 19.7321 2.15625 19.5141C2.15625 19.296 2.26278 18.969 2.36931 18.8601C2.47586 18.642 2.68892 18.424 2.90198 18.3149C3.115 18.206 3.43469 17.9879 3.64766 17.9879C3.96734 17.879 4.28688 17.879 4.71313 17.879C5.24578 17.879 5.77844 17.9879 6.31109 18.097C6.84375 18.3149 7.37641 18.533 7.8025 18.8601L8.65484 17.4429C8.12219 17.1159 7.48297 16.7888 6.84375 16.5707C6.09797 16.3527 5.35234 16.2437 4.60656 16.2437C4.07391 16.2437 3.43469 16.3527 2.90198 16.4618C2.36931 16.5707 1.94319 16.7888 1.51705 17.1159C1.09091 17.4429 0.771313 17.7699 0.558235 18.206C0.345172 18.642 0.23864 19.1871 0.23864 19.7321C0.23864 20.1682 0.345172 20.7132 0.558235 21.0402C0.664766 21.4763 0.877844 21.8034 1.19744 22.0213C1.51705 22.2395 1.83664 22.4574 2.26278 22.5665C2.68892 22.7845 3.115 22.8935 3.54125 22.8935L4.39344 23.0024C5.03266 23.1115 5.67187 23.2205 6.31109 23.5476C6.73719 23.7655 6.95031 24.0926 6.95031 24.5287C6.95031 24.7466 6.84375 25.0737 6.73719 25.2916C6.63062 25.5098 6.41766 25.7277 6.20453 25.8368C5.99141 25.9459 5.67187 26.0548 5.35234 26.1638C5.03266 26.2729 4.71312 26.2729 4.28687 26.2729C3.96734 26.2729 3.64766 26.2729 3.32812 26.1638C2.68892 26.0548 2.04972 25.8368 1.51705 25.5098C1.30398 25.4007 0.984375 25.1827 0.877844 24.9646L-0.1875 26.4909C0.132109 26.7088 0.451703 26.927 0.771312 27.1449C1.09091 27.3629 1.51705 27.472 1.83664 27.581C2.26278 27.6899 2.68892 27.799 3.115 27.908C3.54125 28.017 3.86078 28.017 4.28687 28.017C4.81953 28.017 5.45875 27.908 5.99141 27.799C6.52422 27.6899 6.95031 27.472 7.37641 27.1449C7.8025 26.8179 8.12219 26.4909 8.33516 26.0548C8.54828 25.6188 8.65484 25.0737 8.65484 24.5287C8.65484 24.0926 8.54828 23.6565 8.33516 23.2205C8.22875 22.6754 8.01562 22.4574 7.69609 22.1304ZM11.7444 23.2205C11.7444 23.0024 11.8508 22.6754 11.9573 22.4574C12.0639 22.2395 12.1705 22.0213 12.3836 21.8034C12.5966 21.5854 12.8097 21.4763 13.0227 21.3673C13.2358 21.2582 13.5555 21.2582 13.7684 21.2582C14.3011 21.2582 14.7273 21.4763 15.0469 21.8034C15.3664 22.2395 15.5795 22.6754 15.6861 23.2205H11.7444ZM16.4319 20.9312C16.1122 20.6041 15.6861 20.2771 15.26 20.0591C14.8338 19.8412 14.3011 19.7321 13.7684 19.7321C13.2358 19.7321 12.7031 19.8412 12.277 20.0591C11.8508 20.2771 11.4247 20.4952 11.1052 20.9312C10.7855 21.2582 10.4659 21.6943 10.3594 22.2395C10.1462 22.7845 10.0398 23.3295 10.0398 23.8746C10.0398 24.4196 10.1462 24.9646 10.3594 25.5098C10.6789 26.4909 11.4247 27.254 12.3836 27.581C12.9162 27.799 13.4489 27.908 13.9816 27.908C14.5142 27.908 15.1534 27.799 15.6861 27.6899C16.2188 27.472 16.7514 27.254 17.1775 26.8179L16.3253 25.6188C16.0056 25.8368 15.6861 26.0548 15.26 26.2729C14.9403 26.3818 14.5142 26.4909 14.0881 26.4909C13.875 26.4909 13.5555 26.4909 13.3423 26.3818C13.1292 26.2729 12.9163 26.1638 12.7031 26.0548C12.49 25.8368 12.277 25.6188 12.1705 25.4007C12.0639 25.0737 11.9573 24.8557 11.8508 24.5287H17.4972V23.8746C17.4972 23.3295 17.3906 22.7845 17.1775 22.2395C16.9645 21.8034 16.7514 21.3673 16.4319 20.9312ZM23.6761 26.1638C23.0369 26.4909 22.3977 26.4909 21.7586 26.2729C21.4389 26.1638 21.2258 25.9459 21.0128 25.7277C20.7997 25.5098 20.6931 25.1827 20.5867 24.9646C20.3736 24.3105 20.3736 23.5476 20.5867 22.8935C20.6931 22.5665 20.9062 22.3484 21.0128 22.1304C21.2258 21.9124 21.4389 21.6943 21.7586 21.5852C22.0781 21.4763 22.2913 21.3673 22.6108 21.3673C22.9305 21.3673 23.25 21.4763 23.5695 21.5852C23.8892 21.6943 24.2087 21.9124 24.4219 22.2395L25.4872 21.0402C25.1677 20.6041 24.7414 20.2771 24.3153 20.1682C23.7827 19.9501 23.25 19.8412 22.7173 19.8412C22.1847 19.8412 21.5455 19.9501 21.0128 20.1682C20.0539 20.6041 19.3083 21.3673 18.9886 22.3484C18.5625 23.4385 18.5625 24.5287 18.9886 25.6188C19.3083 26.5999 20.1605 27.3629 21.1194 27.799C21.652 28.017 22.1847 28.126 22.8239 28.126C23.3566 28.126 23.8892 28.017 24.4219 27.799C24.9545 27.581 25.3806 27.254 25.7003 26.8179L24.635 25.6188C24.2087 25.8368 23.9958 26.0548 23.6761 26.1638ZM77.902 24.8557C77.7955 25.1827 77.5823 25.4007 77.4758 25.6188C77.2628 25.8368 77.0497 26.0548 76.7302 26.1638C76.0909 26.3818 75.4517 26.3818 74.8125 26.1638C74.2798 25.9459 73.8538 25.4007 73.6406 24.8557C73.4275 24.2016 73.4275 23.5476 73.6406 22.8935C73.8538 22.3484 74.2798 21.8034 74.8125 21.5852C75.132 21.4763 75.4517 21.3673 75.7713 21.3673C76.0909 21.3673 76.4105 21.4763 76.7302 21.5852C77.0497 21.6943 77.2628 21.9124 77.4758 22.1304C77.6889 22.3484 77.7955 22.6754 77.902 22.8935C78.115 23.5476 78.115 24.3105 77.902 24.8557ZM78.0086 20.9312C77.4758 20.1682 76.517 19.7321 75.5583 19.8412C73.9602 19.8412 72.5753 20.8223 72.0427 22.2395C71.6164 23.3295 71.6164 24.4196 72.0427 25.5098C72.2556 25.9459 72.4688 26.4909 72.8948 26.8179C73.6406 27.581 74.5994 28.017 75.5583 28.017C76.0909 28.017 76.517 27.908 76.9431 27.6899C77.3694 27.472 77.6889 27.254 77.902 26.8179V27.799H79.7131V16.1348H78.0086V20.9312ZM83.1222 23.2205C83.1222 23.0024 83.2287 22.6754 83.3352 22.4574C83.4417 22.2395 83.5483 22.0213 83.7614 21.8034C83.9744 21.5854 84.1875 21.4763 84.4006 21.3673C84.6136 21.2582 84.9333 21.2582 85.1463 21.2582C85.6789 21.2582 86.1052 21.3673 86.4247 21.6943C86.7444 22.1304 86.9573 22.5665 87.0639 23.1115H83.1222V23.2205ZM87.8097 20.9312C87.49 20.6041 87.0639 20.2771 86.6378 20.0591C86.2117 19.8412 85.6789 19.7321 85.1463 19.7321C84.6136 19.7321 84.1875 19.8412 83.6548 20.0591C83.2288 20.2771 82.8025 20.4952 82.483 20.9312C82.1633 21.2582 81.8438 21.6943 81.7372 22.2395C81.5242 22.7845 81.4177 23.3295 81.4177 23.8746C81.4177 24.4196 81.5242 24.9646 81.7372 25.5098C81.9503 25.9459 82.1633 26.3818 82.5895 26.8179C82.9091 27.1449 83.3352 27.472 83.7614 27.6899C84.2941 27.908 84.8267 28.017 85.3594 28.017C85.892 28.017 86.5312 27.908 87.0639 27.799C87.5966 27.581 88.1292 27.3629 88.5555 26.927L87.7031 25.7277C87.3836 25.9459 87.0639 26.1638 86.6378 26.3818C86.3181 26.4909 85.892 26.5999 85.4659 26.5999C85.2528 26.5999 84.9333 26.5999 84.7202 26.4909C84.507 26.3818 84.2941 26.2729 84.0809 26.1638C83.868 25.9459 83.6548 25.7277 83.5483 25.5098C83.4417 25.1827 83.3352 24.9646 83.2287 24.6376H88.875V23.9835C88.875 23.4385 88.7684 22.8935 88.5555 22.3484C88.4489 21.6943 88.1292 21.2582 87.8097 20.9312ZM68.6336 24.8557C68.4205 25.4007 67.8878 25.9459 67.3552 26.1638C66.7159 26.3818 66.0767 26.3818 65.4375 26.1638C64.9048 25.9459 64.3722 25.5098 64.1591 24.8557C63.9461 24.2016 63.9461 23.4385 64.1591 22.7845C64.2656 22.4574 64.4788 22.2395 64.6917 22.0213C64.9048 21.8034 65.118 21.5854 65.4375 21.4763C65.757 21.3673 66.0767 21.2582 66.3963 21.2582C66.7159 21.2582 67.0355 21.3673 67.3552 21.4763C67.6747 21.5854 67.8878 21.8034 68.1008 22.0213C68.3139 22.2395 68.527 22.5665 68.6336 22.7845C68.9531 23.5476 68.9531 24.2016 68.6336 24.8557ZM69.3792 20.9312C68.9531 20.6041 68.527 20.2771 68.1008 20.0591C67.5681 19.8412 67.0355 19.7321 66.5028 19.7321C65.9702 19.7321 65.3309 19.8412 64.7983 20.0591C64.2656 20.2771 63.8395 20.4952 63.5198 20.9312C63.2003 21.2582 62.8806 21.6943 62.6677 22.2395C62.2414 23.3295 62.2414 24.4196 62.6677 25.5098C62.8806 25.9459 63.2003 26.3818 63.5198 26.8179C63.9461 27.1449 64.3722 27.472 64.7983 27.6899C65.8636 28.126 67.0355 28.126 68.1008 27.6899C68.6336 27.472 69.0597 27.254 69.3792 26.8179C69.6989 26.4909 70.0184 26.0548 70.2316 25.5098C70.6577 24.4196 70.6577 23.3295 70.2316 22.2395C70.0184 21.8034 69.8055 21.3673 69.3792 20.9312ZM53.7188 19.078C54.0383 18.751 54.4645 18.424 54.9972 18.206C55.5298 17.9879 56.0625 17.879 56.5952 17.879C57.2344 17.879 57.8736 17.9879 58.4062 18.3149C58.9389 18.642 59.365 18.969 59.6847 19.5141L61.1761 18.533C60.9631 18.206 60.6434 17.879 60.3239 17.552C60.0042 17.2248 59.6847 17.0068 59.2586 16.7888C58.8323 16.5707 58.4062 16.4618 57.9802 16.3527C57.5539 16.2437 57.0213 16.2437 56.4886 16.2437C55.6364 16.2437 54.8906 16.3527 54.1448 16.6798C52.76 17.2248 51.5881 18.3149 51.0555 19.8412C50.5227 21.3673 50.5227 23.0024 51.0555 24.5287C51.5881 25.9459 52.76 27.0359 54.1448 27.6899C55.3167 28.126 56.7017 28.2351 57.8736 28.017C58.2997 27.908 58.7258 27.799 59.152 27.581C59.5781 27.3629 59.8977 27.1449 60.2173 26.8179C60.5369 26.4909 60.8566 26.1638 61.0695 25.8368L59.5781 24.7466C58.8323 25.8368 57.6605 26.3818 56.4886 26.3818C55.9559 26.3818 55.4233 26.2729 54.8906 26.0548C54.4645 25.8368 54.0383 25.6188 53.6122 25.1827C53.2927 24.8557 52.973 24.3105 52.76 23.8746C52.3337 22.7845 52.3337 21.5852 52.76 20.4952C53.0795 19.9501 53.3992 19.5141 53.7188 19.078Z" fill="#B1B1B1"/>
<path id="Vector_2" fill-rule="evenodd" clip-rule="evenodd" d="M47.2197 4.68741C46.9 4.36037 46.4739 4.03334 46.0478 3.81533C45.6215 3.5973 45.0889 3.48828 44.5562 3.48828C44.0236 3.48828 43.4909 3.5973 42.9582 3.81533C42.4256 4.03334 41.9993 4.36037 41.6798 4.68741C41.3603 5.1235 41.0406 5.55944 40.8275 5.99553C40.6145 6.54069 40.5079 7.08569 40.5079 7.73975C40.5079 8.28475 40.6145 8.93881 40.8275 9.48397C41.0406 10.029 41.2537 10.4651 41.6798 10.7921C41.9993 11.1191 42.5322 11.4462 42.9582 11.6641C43.4909 11.8822 44.0236 11.9912 44.6628 11.9912C45.1954 11.9912 45.8347 11.8822 46.3673 11.7732C46.9 11.5552 47.4326 11.3371 47.8587 10.9012L47.0065 9.70194C46.8467 9.811 46.6603 9.91991 46.4739 10.029C46.2875 10.138 46.1009 10.2471 45.9412 10.356C45.515 10.4651 45.0889 10.5741 44.7693 10.5741C44.4497 10.5741 44.2367 10.5741 43.917 10.4651C43.854 10.4166 43.7887 10.3683 43.7225 10.3193C43.3404 10.0366 42.9267 9.73037 42.7451 9.26584C42.5321 9.04787 42.4256 8.72084 42.4256 8.39381H48.285V7.73975C48.285 7.19475 48.1784 6.54069 47.9653 5.99553C47.8587 5.55944 47.6457 5.01444 47.2197 4.68741ZM42.4256 7.08569C42.4256 6.75866 42.5322 6.54069 42.6386 6.32256C42.7451 6.10459 42.8517 5.88647 43.0648 5.6685C43.2778 5.45053 43.4909 5.34147 43.704 5.23241C43.917 5.1235 44.2367 5.1235 44.5562 5.1235C45.0889 5.1235 45.515 5.34147 45.9412 5.6685C46.2607 6.10459 46.5804 6.54069 46.5804 7.08569H42.4256Z" fill="#B1B1B1"/>
<path id="Vector_3" d="M38.2708 10.1381C38.0577 10.2472 37.7381 10.2472 37.4185 10.2472C37.2055 10.2472 37.0989 10.2472 36.8858 10.1381C36.8325 10.0836 36.7527 10.0564 36.6728 10.029C36.5928 10.0018 36.513 9.97449 36.4597 9.91996C36.4064 9.86559 36.3532 9.78371 36.2999 9.702C36.2466 9.62028 36.1933 9.53856 36.14 9.48403C36.0336 9.2659 36.0336 9.04793 36.0336 8.82997V5.34153H39.2296V3.70637H36.14V1.30811H34.4355V3.70637H32.8375V5.34153H34.4355V8.82997C34.3291 9.702 34.6486 10.5742 35.1813 11.2282C35.7139 11.7732 36.4597 11.9912 37.3119 11.9912C37.7381 11.9912 38.2708 11.8823 38.6969 11.7732C39.123 11.6642 39.4427 11.4462 39.7622 11.2282L39.0166 9.81106C38.8035 9.91996 38.5903 10.029 38.2708 10.1381Z" fill="#B1B1B1"/>
<path id="Vector_4" d="M58.5122 5.88647C58.7253 5.6685 58.9385 5.45053 59.258 5.34147C59.5775 5.23241 59.8972 5.1235 60.2167 5.1235C60.5364 5.1235 60.9625 5.23241 61.2822 5.34147C61.6017 5.45053 61.9213 5.6685 62.1344 5.99553L63.1997 4.79647C62.8802 4.36038 62.4541 4.03334 61.9213 3.81533C61.3886 3.5973 60.856 3.48828 60.2167 3.48828C59.6841 3.48828 59.0449 3.5973 58.5122 3.81533C57.5535 4.25137 56.7011 5.01444 56.3816 5.99553C55.9555 7.08569 55.9555 8.28475 56.3816 9.37491C56.8077 10.356 57.5535 11.2282 58.5122 11.5552C59.0449 11.7732 59.6841 11.8822 60.2167 11.8822C60.7494 11.8822 61.3886 11.7732 61.9213 11.5552C62.4541 11.3371 62.8802 11.0101 63.1997 10.5741L62.1344 9.37491C61.9213 9.59287 61.6017 9.811 61.2822 10.029C60.9625 10.138 60.5364 10.2471 60.2167 10.2471C59.8972 10.2471 59.5775 10.138 59.258 10.029C58.9385 9.91991 58.7253 9.70194 58.5122 9.48397C58.2992 9.26584 58.0861 8.93881 57.9795 8.72084C57.7666 8.06678 57.7666 7.30366 57.9795 6.64959C58.0367 6.56194 58.0861 6.48225 58.1321 6.40819C58.2574 6.20569 58.3563 6.04616 58.5122 5.88647Z" fill="#B1B1B1"/>
<path id="Vector_5" d="M10.3588 0L6.94969 8.39391L3.64719 0H0.770752V11.7733H2.68836V2.18024L6.0975 10.5742H8.12156L11.5306 2.07122V11.7733H13.4483V0H10.3588Z" fill="#B1B1B1"/>
<path id="Vector_6" fill-rule="evenodd" clip-rule="evenodd" d="M21.3319 4.68741C21.0122 4.36037 20.6927 4.03334 20.2666 3.81533C19.8403 3.5973 19.3077 3.48828 18.775 3.48828C17.177 3.48828 15.6855 4.46939 15.1528 5.99553C14.7267 7.08569 14.7267 8.28475 15.1528 9.37491C15.3659 9.91991 15.5791 10.356 16.0052 10.683C16.7509 11.4462 17.8163 11.8822 18.775 11.8822C19.3077 11.8822 19.7338 11.7732 20.2666 11.5552C20.6927 11.3371 21.0122 11.0101 21.3319 10.683V11.6641H23.0364V3.70631H21.3319V4.68741ZM21.3319 8.72084C21.1188 9.37491 20.5861 9.811 20.0534 10.138C19.4142 10.356 18.6684 10.356 18.0292 10.138C17.7097 10.029 17.4966 9.811 17.2836 9.59287C17.0705 9.37491 16.9639 9.04787 16.8574 8.72084C16.6444 8.06678 16.6444 7.41272 16.8574 6.75866C17.0705 6.10459 17.4966 5.6685 18.0292 5.34147C18.3489 5.23241 18.6684 5.1235 18.9881 5.1235C19.9469 5.1235 20.9056 5.6685 21.2253 6.64959C21.5449 7.41272 21.5449 8.06678 21.3319 8.72084Z" fill="#B1B1B1"/>
<path id="Vector_7" d="M31.2396 7.74019C30.6004 7.3041 29.9611 7.08613 29.2154 6.97707C29.1422 6.96769 29.0429 6.95972 28.9266 6.95019C28.2444 6.89457 26.9782 6.79144 26.9782 6.10504C26.9782 4.59352 30.1882 5.24723 30.9199 5.99598L31.7722 4.36082C29.9614 2.97112 25.1671 2.93669 25.1671 6.10504C25.1671 6.7591 25.3802 7.3041 25.8063 7.63113C26.3389 8.06723 27.0847 8.39426 27.8305 8.39426L28.6827 8.50332C29.0024 8.50332 29.4285 8.61223 29.748 8.83035C29.9611 8.93926 30.0677 9.15738 30.0677 9.37535C30.0677 9.70238 29.8546 9.92035 29.6416 10.1385C28.5913 10.6758 26.5643 10.3689 25.6997 9.48441L24.9541 10.9016C25.0494 10.9666 25.1354 11.0316 25.2174 11.0938C25.4104 11.24 25.5821 11.37 25.8063 11.4466C26.3389 11.6646 26.9782 11.8827 27.6174 11.8827H28.3632C28.8958 11.8827 29.4285 11.7736 29.8546 11.6646C30.1707 11.5838 30.4282 11.443 30.7138 11.2866C30.8135 11.2322 30.9164 11.1758 31.0264 11.1196C31.3461 10.9016 31.5591 10.6835 31.7722 10.3564C31.9854 10.0294 31.9854 9.70238 31.9854 9.26629C31.9854 8.72129 31.6657 8.06722 31.2396 7.74019Z" fill="#B1B1B1"/>
<path id="Vector_8" d="M52.0136 4.5783V3.70621H50.3091V11.7731H52.0136V7.30355C52.0136 6.97652 52.0136 6.64949 52.1202 6.43152C52.7349 5.17355 54.043 4.96245 55.2097 5.55933L55.6358 3.81522C54.5358 3.25244 52.623 3.33119 52.0136 4.5783Z" fill="#B1B1B1"/>
<path id="Vector_9" fill-rule="evenodd" clip-rule="evenodd" d="M70.6572 4.68741C70.3375 4.36037 70.018 4.03334 69.5917 3.81533C69.1656 3.5973 68.633 3.48828 68.1003 3.48828C66.5024 3.48828 65.0108 4.46939 64.4781 5.99553C64.052 7.08569 64.052 8.28475 64.4781 9.37491C64.6913 9.91991 65.0108 10.356 65.3305 10.683C66.0761 11.4462 67.1414 11.8822 68.1003 11.8822C68.633 11.8822 69.0591 11.7732 69.5917 11.5552C70.018 11.3371 70.3375 11.0101 70.6572 10.683V11.6641H72.3617V3.70631H70.6572V4.68741ZM70.6572 8.72084C70.4441 9.37491 70.018 9.811 69.3788 10.029C68.7395 10.2471 67.9938 10.2471 67.3545 10.029C67.035 9.91991 66.8219 9.70194 66.6088 9.48397C66.3958 9.26584 66.2892 8.93881 66.1827 8.61178C65.9695 7.95772 65.9695 7.30366 66.1827 6.64959C66.3958 5.99553 66.8219 5.55944 67.3545 5.23241C67.6742 5.1235 67.9938 5.01444 68.3134 5.01444C69.2722 5.01444 70.2309 5.55944 70.5506 6.54069C70.8702 7.41272 70.8702 8.06678 70.6572 8.72084Z" fill="#B1B1B1"/>
<path id="Vector_10" d="M78.4337 3.46094C78.0074 3.46094 77.4748 3.56995 77.0487 3.67895C76.6226 3.89698 76.3029 4.115 76.0899 4.55106V3.67895H74.3853V11.7459H76.0899V7.27638C76.0899 6.94934 76.0899 6.62231 76.1963 6.40419C76.3029 6.18622 76.4095 5.96825 76.6226 5.75013C76.8356 5.53216 77.0487 5.42309 77.2618 5.31419C77.4748 5.20512 77.7945 5.20512 78.0074 5.20512C78.2206 5.20512 78.4337 5.20512 78.6467 5.31419C78.8598 5.31419 79.0728 5.42309 79.2859 5.53216L79.712 3.78797C79.6056 3.73347 79.499 3.70622 79.3924 3.67895C79.2859 3.6517 79.1793 3.62445 79.0728 3.56995C78.8598 3.46094 78.6467 3.46094 78.4337 3.46094Z" fill="#B1B1B1"/>
<path id="Vector_11" fill-rule="evenodd" clip-rule="evenodd" d="M84.6127 3.70641C85.5716 3.59739 86.5303 4.03344 87.063 4.79656V0H88.7675V11.6642H86.9564V10.6831C86.7434 11.1192 86.4238 11.3372 85.9977 11.5553C85.5716 11.7733 85.1453 11.8823 84.6127 11.8823C83.6539 11.8823 82.695 11.4462 81.9494 10.6831C81.5828 10.4019 81.3741 9.95953 81.1872 9.56375C81.1567 9.49938 81.1269 9.43609 81.097 9.375C80.6709 8.28484 80.6709 7.19484 81.097 6.10469C81.6297 4.6875 83.0147 3.70641 84.6127 3.70641ZM86.6827 9.23484C86.7808 9.08859 86.8895 8.92625 86.9564 8.72094C87.1695 8.17594 87.1695 7.41281 86.9564 6.75875C86.9313 6.70719 86.9061 6.64969 86.8795 6.58891C86.7936 6.39234 86.6931 6.16219 86.5303 5.99563C86.3172 5.77766 86.1042 5.55953 85.7845 5.45063C85.465 5.34156 85.1453 5.2325 84.8258 5.2325C84.5061 5.2325 84.1866 5.34156 83.8669 5.45063C83.3342 5.66859 82.9081 6.21375 82.695 6.75875C82.482 7.41281 82.482 8.06687 82.695 8.72094C82.9081 9.26594 83.3342 9.81109 83.8669 10.0291C84.5061 10.2472 85.1453 10.2472 85.7845 10.0291C86.1042 9.92 86.3172 9.70203 86.5303 9.48406C86.57 9.40281 86.6244 9.32172 86.6827 9.23484Z" fill="#B1B1B1"/>
</g>
<defs>
<clipPath id="clip0_248_10931">
<rect width="89" height="30" fill="white"/>
</clipPath>
</defs>
</svg>
