<svg width="70" height="30" viewBox="0 0 70 30" fill="none" xmlns="http://www.w3.org/2000/svg">
<g id="visa" clip-path="url(#clip0_248_10943)">
<path id="Vector" d="M27.9168 15.0148L24.3968 23.8336L24.0535 22.0062C23.1949 19.7817 21.3062 17.4776 19.074 16.6037L22.3365 27.965H26.1138L31.7801 15.0148H27.9168ZM30.9216 27.965L33.1537 15.0148H36.7594L34.5274 27.965H30.9216ZM52.3844 23.357C52.6421 22.6418 53.844 19.7023 53.844 19.7023C53.844 19.7023 54.1015 18.9871 54.3591 18.4311L54.6166 19.5434L55.4751 23.2775H52.3844V23.357ZM56.7629 15.0148H54.0157C53.1571 15.0148 52.4704 15.2531 52.1269 16.127L46.8041 27.965H50.5816C50.5816 27.965 51.1826 26.3761 51.3543 25.9787C51.7835 25.9787 55.4751 25.9787 55.9902 25.9787C56.0762 26.4554 56.4194 27.8856 56.4194 27.8856H59.7677C59.6819 27.965 56.7629 15.0148 56.7629 15.0148ZM47.5768 15.3326C46.8899 15.0942 45.774 14.7764 44.3144 14.7764C40.7944 14.7764 38.219 16.5243 38.219 19.0667C38.219 20.894 40.0218 22.0062 41.3955 22.5625C42.7691 23.1981 43.2841 23.5953 43.2841 24.1514C43.2841 25.0254 42.1682 25.4226 41.1379 25.4226C39.6785 25.4226 38.9059 25.2637 37.7898 24.7076L37.2746 24.5487L36.7594 27.4089C37.618 27.8061 39.1633 28.0445 40.7944 28.1239C44.5719 28.1239 47.0616 26.3761 47.0616 23.6746C47.0616 22.1651 46.1173 21.0529 44.0569 20.179C42.7691 19.5434 41.9965 19.1461 42.0823 18.59C42.0823 18.0339 42.7691 17.4776 44.1427 17.4776C45.0871 17.4776 46.0315 17.6365 46.8041 17.9543L47.1476 18.1132C47.0616 18.1132 47.5768 15.3326 47.5768 15.3326Z" fill="#B1B1B1"/>
<path id="Vector_2" d="M21.1337 15.0146H15.2959V15.2529C19.8461 16.3653 22.765 18.987 24.0528 22.0856L22.765 16.1268C22.5075 15.2529 21.9064 15.0146 21.1337 15.0146Z" fill="#B1B1B1"/>
<path id="Vector_3" d="M4.47937 11.9173H2.16141L-0.5 0.794484L2.07555 0.39725L3.87844 9.05719L8.51438 0.476688H10.9183L4.47937 11.9173ZM66.2927 12.1558C65.4341 13.6653 64.6614 14.0625 63.4595 14.0625C63.2019 14.0625 63.0302 14.0625 62.8584 13.9831V12.7912C63.0302 12.8708 63.2878 12.8708 63.6312 12.8708C64.0605 12.8708 64.4897 12.6323 64.7472 12.2352L64.9189 11.838L63.5453 5.95875L65.2623 5.72031L66.035 10.0106L68.1813 5.87922H69.8125L66.2927 12.1558ZM59.9395 7.07094C59.4244 7.07094 58.9094 7.38875 58.3942 7.86547L57.8791 10.5667C58.2225 10.6462 58.3942 10.7256 58.9094 10.7256C59.9395 10.7256 60.6264 10.1695 60.8839 8.81891C61.0556 7.62719 60.6264 7.07094 59.9395 7.07094ZM58.7377 11.9173C57.8791 11.9173 57.0206 11.7584 56.162 11.5202L57.5358 3.09859L59.1669 2.86016L58.5659 6.51484C59.0811 6.11766 59.682 5.72031 60.5405 5.72031C61.9142 5.72031 62.8584 6.67375 62.5152 8.66C62.0858 10.8845 60.6264 11.9173 58.7377 11.9173ZM51.0969 5.72031C50.5817 5.48203 50.2383 5.4025 49.4656 5.4025C48.3495 5.4025 47.4052 6.27641 47.1477 7.94484C46.8902 9.45437 47.4911 10.1695 48.4355 10.1695C49.2081 10.1695 49.8948 9.77219 50.5817 9.05719L51.0969 5.72031ZM50.41 11.838V10.7256C49.7233 11.3612 48.7789 11.9969 47.5769 11.9969C45.7741 11.9969 44.5722 10.8052 45.0014 8.10375C45.5164 5.16422 47.4911 3.81359 49.4656 3.81359C50.2383 3.81359 50.9252 3.9725 51.3544 4.13141L51.9553 0.317797L54.1875 0L52.213 11.838H50.41ZM40.9664 5.08469C40.1078 5.08469 39.3352 5.72031 38.9917 6.99156H42.34C42.34 5.79984 41.9108 5.08469 40.9664 5.08469ZM44.1428 8.26266H38.6483C38.4767 9.77219 39.2494 10.4873 40.537 10.4873C41.6531 10.4873 42.5975 10.09 43.6278 9.53391V11.0434C42.5975 11.5995 41.3956 11.9969 40.022 11.9969C37.6181 11.9969 36.0728 10.7256 36.502 7.86547C36.9312 5.32313 38.82 3.73406 41.0522 3.73406C43.6278 3.73406 44.4862 5.56141 44.057 7.78594C44.2287 7.94484 44.1428 8.18328 44.1428 8.26266ZM35.1284 2.62188C34.4416 2.62188 33.9266 2.14516 34.0123 1.50953C34.0983 0.873937 34.785 0.39725 35.4719 0.39725C36.1586 0.39725 36.6737 0.873937 36.502 1.50953C36.4162 2.14516 35.8153 2.62188 35.1284 2.62188ZM32.467 11.838L33.7548 3.89297H35.9011L34.6133 11.838H32.467ZM32.467 1.74781C31.7802 1.74781 31.2652 2.06563 31.1792 2.78078L31.0075 3.9725H32.6387V5.56141H30.75L29.7198 11.838H27.6594L28.6895 5.56141H27.4877L27.7452 3.9725H28.9472L29.2047 2.62188C29.4622 0.873938 30.8358 0.238344 32.5528 0.238344C32.8962 0.238344 33.2397 0.238344 33.4114 0.317797V1.90672C33.068 1.74781 32.8105 1.74781 32.467 1.74781ZM25.7706 2.62188C25.0837 2.62188 24.5688 2.14516 24.6545 1.50953C24.7403 0.873937 25.4272 0.39725 26.1141 0.39725C26.8008 0.39725 27.3159 0.873937 27.1442 1.50953C27.1442 2.14516 26.4573 2.62188 25.7706 2.62188ZM23.195 11.838L24.4828 3.89297H26.6291L25.3414 11.838H23.195ZM19.9327 7.30938L19.16 11.838H17.0137L18.3016 3.89297H20.1044V5.48203C20.7913 4.52859 21.8214 3.81359 23.1092 3.73406V5.72031C21.9073 5.79984 20.7053 6.43531 19.9327 7.30938ZM13.1505 5.08469C12.2919 5.08469 11.5192 5.72031 11.1758 6.99156H14.5241C14.6098 5.79984 14.1806 5.08469 13.1505 5.08469ZM16.4128 8.26266H10.9183C10.7466 9.77219 11.5192 10.4873 12.807 10.4873C13.9231 10.4873 14.8675 10.09 15.8977 9.53391V11.0434C14.8675 11.5995 13.7514 11.9969 12.2919 11.9969C9.88812 11.9969 8.34266 10.7256 8.77203 7.86547C9.20125 5.32313 11.09 3.73406 13.3222 3.73406C15.8977 3.73406 16.7562 5.56141 16.3269 7.78594C16.4128 7.94484 16.4128 8.18328 16.4128 8.26266Z" fill="#B1B1B1"/>
</g>
<defs>
<clipPath id="clip0_248_10943">
<rect width="70" height="30" fill="white"/>
</clipPath>
</defs>
</svg>
