<svg aria-hidden="true" style="position: absolute; width: 0; height: 0; overflow: hidden;" version="1.1" xmlns="http://www.w3.org/2000/svg" xmlns:xlink="http://www.w3.org/1999/xlink">
<defs>
<symbol id="icon-facebook" viewBox="0 0 32 32">
<title>facebook</title>
<path d="M32 2.127v27.74c0 1.173-0.953 2.127-2.127 2.127h-9.507l-0.067-11.953h4.727v-5.167h-4.76l-0.020-3.033c0-0.853 0.687-1.54 1.54-1.54h3.233v-5.567h-6.467c-2.14 0-3.873 1.733-3.873 3.867l0.033 6.273h-4.573v5.167h4.6l0.060 11.96h-12.667c-1.18 0-2.133-0.953-2.133-2.127v-27.747c0-1.173 0.953-2.127 2.127-2.127h27.74c1.18 0 2.133 0.953 2.133 2.127z"></path>
</symbol>
<symbol id="icon-linkedin" viewBox="0 0 32 32">
<title>linkedin</title>
<path d="M29.879 0h-27.752c-1.174 0-2.127 0.954-2.127 2.127v27.746c0 1.174 0.954 2.127 2.127 2.127h27.746c1.174 0 2.127-0.954 2.127-2.127v-27.746c0.007-1.174-0.947-2.127-2.121-2.127zM10.389 27.379h-5.001v-14.143h4.994v14.143h0.007zM7.888 9.442c-1.38 0-2.501-1.12-2.501-2.501s1.12-2.501 2.501-2.501c1.38 0 2.501 1.12 2.501 2.501s-1.12 2.501-2.501 2.501zM27.692 27.559h-4.994v-5.868c0-1.013-0.82-1.827-1.827-1.827s-1.827 0.82-1.827 1.827v5.688h-4.994v-14.143h4.994v2.807c0.527-0.247 1.067-0.453 1.627-0.6 1.034-0.28 2.107-0.347 3.161-0.187 0.707 0.107 1.454 0.287 2.074 0.647 1.107 0.647 1.787 1.94 1.787 3.214 0-0.007 0 8.442 0 8.442z"></path>
</symbol>
<symbol id="icon-mail" viewBox="0 0 32 32">
<title>mail</title>
<path d="M0 6.746v-0.827c0-0.535 0.211-1.048 0.586-1.426s0.884-0.591 1.414-0.591h28c0.53 0 1.039 0.212 1.414 0.591s0.586 0.891 0.586 1.426v0.827l-16 10.081-16-10.081zM16.53 18.871c-0.159 0.1-0.343 0.153-0.53 0.153s-0.371-0.053-0.53-0.153l-15.47-9.748v16.958c0 0.535 0.211 1.048 0.586 1.426s0.884 0.591 1.414 0.591h28c0.53 0 1.039-0.212 1.414-0.591s0.586-0.891 0.586-1.426v-16.958l-15.47 9.748z"></path>
</symbol>
<symbol id="icon-phone" viewBox="0 0 32 32">
<title>phone</title>
<path d="M27.022 17.481c-0.326 0-0.667-0.104-0.993-0.178-0.66-0.145-1.309-0.339-1.941-0.578-0.687-0.25-1.443-0.237-2.121 0.036s-1.231 0.788-1.553 1.445l-0.326 0.667c-1.443-0.803-2.769-1.8-3.941-2.963-1.163-1.172-2.16-2.498-2.963-3.941l0.622-0.415c0.657-0.322 1.172-0.875 1.445-1.553s0.286-1.434 0.036-2.121c-0.235-0.633-0.428-1.282-0.578-1.941-0.074-0.326-0.133-0.667-0.178-1.007-0.18-1.044-0.726-1.989-1.541-2.665s-1.844-1.039-2.903-1.024h-4.444c-0.638-0.006-1.271 0.126-1.854 0.386s-1.103 0.643-1.525 1.123c-0.422 0.479-0.735 1.044-0.919 1.655s-0.234 1.255-0.147 1.888c0.789 6.206 3.624 11.973 8.056 16.389s10.209 7.23 16.418 7.996h0.563c1.092 0.002 2.147-0.399 2.963-1.126 0.469-0.419 0.843-0.933 1.099-1.508s0.386-1.197 0.383-1.826v-4.444c-0.018-1.029-0.393-2.020-1.060-2.804s-1.586-1.311-2.599-1.493zM27.763 26.37c-0 0.21-0.045 0.418-0.132 0.61s-0.213 0.363-0.372 0.501c-0.166 0.143-0.359 0.25-0.568 0.313s-0.43 0.083-0.647 0.057c-5.548-0.711-10.702-3.25-14.648-7.214s-6.46-9.13-7.145-14.682c-0.024-0.217-0.003-0.437 0.061-0.645s0.169-0.403 0.31-0.569c0.139-0.158 0.31-0.285 0.501-0.372s0.399-0.132 0.61-0.132h4.444c0.345-0.008 0.681 0.105 0.951 0.319s0.458 0.515 0.53 0.852c0.059 0.405 0.133 0.805 0.222 1.2 0.171 0.781 0.399 1.548 0.681 2.296l-2.074 0.963c-0.177 0.081-0.337 0.197-0.469 0.34s-0.236 0.311-0.303 0.494c-0.067 0.183-0.098 0.378-0.090 0.573s0.054 0.386 0.136 0.563c2.132 4.567 5.803 8.238 10.37 10.37 0.361 0.148 0.765 0.148 1.126 0 0.185-0.066 0.355-0.168 0.5-0.3s0.262-0.292 0.345-0.47l0.919-2.074c0.766 0.274 1.548 0.502 2.341 0.682 0.395 0.089 0.795 0.163 1.2 0.222 0.337 0.072 0.638 0.26 0.852 0.53s0.326 0.607 0.319 0.951l0.030 4.622z"></path>
</symbol>
<symbol id="icon-pin" viewBox="0 0 32 32">
<title>pin</title>
<path d="M16 1.546c-3.142 0.003-6.155 1.223-8.377 3.39s-3.472 5.107-3.475 8.172c0 4.705 3.501 8.611 7.209 12.747 1.173 1.309 2.388 2.664 3.47 4.034 0.138 0.175 0.316 0.317 0.52 0.415s0.427 0.148 0.654 0.148c0.227 0 0.45-0.051 0.654-0.148s0.381-0.239 0.52-0.415c1.081-1.37 2.296-2.725 3.47-4.034 3.708-4.135 7.209-8.042 7.209-12.747-0.004-3.066-1.253-6.005-3.475-8.172s-5.234-3.387-8.377-3.39zM16 17.445c-0.879 0-1.738-0.254-2.469-0.731s-1.301-1.154-1.637-1.946c-0.336-0.792-0.424-1.664-0.253-2.505s0.595-1.614 1.216-2.22c0.622-0.606 1.413-1.019 2.276-1.187s1.756-0.081 2.568 0.247c0.812 0.328 1.506 0.884 1.995 1.597s0.749 1.551 0.749 2.409c0 1.15-0.468 2.253-1.302 3.066s-1.964 1.27-3.143 1.27z"></path>
</symbol>
<symbol id="icon-play" viewBox="0 0 32 32">
<title>play</title>
<path d="M16 0c-8.84 0-16 7.16-16 16s7.16 16 16 16c8.84 0 16-7.16 16-16s-7.16-16-16-16zM12.8 23.2v-14.4l9.6 7.2-9.6 7.2z"></path>
</symbol>
<symbol id="icon-youtube" viewBox="0 0 32 32">
<title>youtube</title>
<path d="M27.744 5.513c-3.625-0.237-9.287-0.45-11.744-0.45s-8.119 0.213-11.744 0.45c-1.831 0.125-3.256 1.644-3.256 3.481v14.013c0 1.837 1.425 3.356 3.256 3.481 3.625 0.237 9.287 0.45 11.744 0.45s8.119-0.212 11.744-0.45c1.831-0.119 3.256-1.644 3.256-3.481v-14.012c0-1.838-1.425-3.356-3.256-3.481zM13.256 20.7v-9.4l8.137 4.7-8.137 4.7z"></path>
</symbol>
</defs>
</svg>
