<svg width="250" height="50" viewBox="0 0 250 50" fill="none" xmlns="http://www.w3.org/2000/svg">
<path d="M98.5259 36.5281H94.8928V34.6587H104.038V36.5281H100.405V45.7507H98.4006V36.5281H98.5259ZM113.059 45.7507H106.419V34.6587H112.808V36.5281H108.298V39.27H112.307V41.1394H108.298V44.0059H112.933V45.7507H113.059ZM122.705 34.6587H124.96L121.202 40.0178L125.086 45.6261H122.83L119.949 41.5133L117.068 45.6261H114.812L118.696 40.0178L114.938 34.6587H117.193L119.949 38.6468L122.705 34.6587ZM136.486 45.7507H134.482V41.0148H129.47V45.7507H127.466V34.6587H129.47V39.1454H134.607V34.6587H136.486V45.7507ZM139.368 40.267C139.368 38.6468 139.869 37.2759 140.996 36.1543C142.124 35.0326 143.502 34.5341 145.131 34.5341C146.759 34.5341 148.137 35.0326 149.265 36.1543C150.392 37.2759 150.894 38.6468 150.894 40.267C150.894 41.8872 150.392 43.2581 149.265 44.3798C148.137 45.5014 146.759 46 145.131 46C143.502 46 142.124 45.5014 140.996 44.3798C139.869 43.2581 139.368 41.8872 139.368 40.267ZM141.372 40.267C141.372 41.3887 141.748 42.2611 142.374 43.0089C143.001 43.7566 144.003 44.1305 145.005 44.1305C146.133 44.1305 147.01 43.7566 147.761 43.0089C148.388 42.2611 148.764 41.3887 148.764 40.267C148.764 39.1454 148.388 38.1483 147.636 37.5252C146.885 36.7774 146.008 36.4035 145.005 36.4035C143.878 36.4035 143.001 36.7774 142.374 37.5252C141.748 38.1483 141.372 39.1454 141.372 40.267ZM161.918 45.7507H160.039V36.5281H156.782L156.531 38.6468C156.406 39.8931 156.281 41.0148 156.03 41.8872C155.779 42.7596 155.654 43.5074 155.404 44.0059C155.153 44.5044 154.903 45.0029 154.527 45.2522C154.151 45.5014 153.9 45.7507 153.524 45.7507C153.149 45.8753 152.773 45.8753 152.272 45.7507V43.8813C152.522 43.8813 152.647 43.8813 152.898 43.8813C153.023 43.8813 153.274 43.632 153.399 43.3827C153.65 43.1335 153.775 42.7596 153.9 42.2611C154.276 41.1394 154.527 39.3946 154.777 36.902L154.903 34.6587H161.918V45.7507ZM164.8 40.267C164.8 38.6468 165.301 37.2759 166.428 36.1543C167.556 35.0326 168.934 34.5341 170.563 34.5341C172.191 34.5341 173.569 35.0326 174.697 36.1543C175.825 37.2759 176.326 38.6468 176.326 40.267C176.326 41.8872 175.825 43.2581 174.697 44.3798C173.569 45.5014 172.191 46 170.563 46C168.934 46 167.556 45.5014 166.428 44.3798C165.301 43.2581 164.8 41.8872 164.8 40.267ZM166.93 40.267C166.93 41.3887 167.305 42.2611 167.932 43.0089C168.558 43.7566 169.56 44.1305 170.563 44.1305C171.69 44.1305 172.567 43.7566 173.319 43.0089C173.945 42.2611 174.321 41.3887 174.321 40.267C174.321 39.1454 173.945 38.1483 173.194 37.5252C172.442 36.7774 171.565 36.4035 170.563 36.4035C169.435 36.4035 168.558 36.7774 167.932 37.5252C167.18 38.1483 166.93 39.1454 166.93 40.267ZM181.212 45.7507H179.207V34.6587H185.471V36.5281H181.212V45.7507ZM190.107 45.7507H188.102V34.6587H190.107V45.7507ZM192.988 32.7893C192.988 32.54 193.113 32.2908 193.239 32.0415C193.489 31.9169 193.74 31.7922 193.99 31.7922C194.241 31.7922 194.491 31.9169 194.742 32.0415C194.993 32.1661 194.993 32.4154 194.993 32.7893C194.993 33.1632 194.867 33.4124 194.742 33.537C194.617 33.6617 194.366 33.7863 193.99 33.7863C193.74 33.7863 193.489 33.6617 193.239 33.537C193.113 33.2878 192.988 33.0385 192.988 32.7893ZM196.245 45.7507H194.241V34.6587H196.245V45.7507ZM195.619 32.7893C195.619 32.54 195.744 32.2908 195.87 32.0415C196.12 31.9169 196.371 31.7922 196.621 31.7922C196.872 31.7922 197.122 31.9169 197.373 32.0415C197.623 32.2908 197.623 32.4154 197.623 32.7893C197.623 33.1632 197.498 33.4124 197.373 33.537C197.248 33.7863 196.997 33.7863 196.621 33.7863C196.245 33.7863 195.995 33.6617 195.87 33.537C195.744 33.2878 195.619 33.0385 195.619 32.7893ZM211.906 43.2581L212.657 44.7537C212.281 45.1275 211.78 45.3768 211.154 45.6261C210.527 45.8753 209.776 46 209.149 46C207.395 46 206.017 45.5014 205.015 44.3798C204.013 43.3827 203.386 42.0118 203.386 40.267C203.386 38.6468 203.888 37.2759 204.89 36.1543C205.892 35.0326 207.27 34.5341 209.024 34.5341C210.402 34.5341 211.53 34.908 212.407 35.6557L211.53 37.1513C210.778 36.6528 209.901 36.4035 209.024 36.4035C208.022 36.4035 207.145 36.7774 206.393 37.4005C205.767 38.1483 205.391 39.0207 205.391 40.267C205.391 41.3887 205.767 42.3857 206.393 43.1335C207.145 43.8813 208.022 44.2551 209.149 44.2551C210.277 44.1305 211.154 43.8813 211.906 43.2581ZM224.183 45.7507H222.304V41.0148H217.167V45.7507H215.163V34.6587H217.167V39.1454H222.304V34.6587H224.183V45.7507ZM235.083 34.6587H237.087L233.329 43.1335C232.953 44.0059 232.452 44.629 232.076 45.1276C231.575 45.5014 231.074 45.7507 230.322 45.7507C229.57 45.7507 229.194 45.6261 228.819 45.2522L229.445 43.632C229.695 43.7566 229.946 43.8813 230.322 43.8813C230.823 43.8813 231.199 43.632 231.449 43.1335L231.575 42.7596L226.689 34.6587H228.944L232.577 40.8902L235.083 34.6587Z" fill="#535353"/>
<path d="M92.6447 15.715L103.419 28.8011H96.5285L87.884 17.9583V28.8011H82.4969V4.24914H87.884V14.2195L96.1526 4.24914H102.793L92.6447 15.715ZM202.516 9.35893H210.033V28.8011H215.42V9.35893H222.937V4.24914H202.391V9.35893H202.516ZM118.954 18.9554L126.596 28.8011H120.081L113.692 20.077H111.688V28.8011H106.3V4.24914H106.927C108.054 4.24914 109.307 4.24914 110.685 4.24914C112.063 4.24914 113.191 4.24914 114.068 4.24914C121.585 4.24914 123.213 8.48653 123.213 12.1008C123.213 13.9702 122.712 15.5904 121.71 16.8367C120.833 17.7091 119.956 18.4569 118.954 18.9554ZM112.314 9.35893C112.063 9.35893 111.938 9.35893 111.688 9.35893V14.9672H113.692C114.82 14.9672 115.822 14.718 116.573 14.0948C117.2 13.5963 117.576 12.8485 117.576 11.9761C117.576 10.7299 117.2 9.2343 113.817 9.2343C113.692 9.2343 113.567 9.2343 113.316 9.2343C113.066 9.35893 112.69 9.35893 112.314 9.35893ZM193.872 4.24914L204.27 28.8011H198.507L196.127 22.8189H186.982L184.601 28.8011H179.089L189.362 4.24914H193.872ZM191.492 11.7269L188.986 17.7091H193.997L191.492 11.7269ZM249.497 16.5874C249.497 20.2017 248.244 23.3174 245.864 25.6853C243.483 28.0533 240.351 29.2996 236.718 29.2996C233.085 29.2996 229.953 28.1779 227.573 25.81C225.192 23.442 223.94 20.4509 223.94 16.7121C223.94 13.2224 225.192 10.1067 227.573 7.73876C229.953 5.3708 233.085 4.12451 236.718 4.12451C240.351 4.12451 243.483 5.24617 245.864 7.61413C248.244 9.73282 249.497 12.8485 249.497 16.5874ZM241.98 21.9465C243.358 20.4509 243.985 18.7061 243.985 16.4628C243.985 14.2195 243.358 12.4747 241.855 10.9791C240.477 9.60819 238.723 8.86042 236.718 8.86042C234.588 8.86042 232.96 9.60819 231.582 10.9791C230.204 12.35 229.577 14.2195 229.577 16.4628C229.577 18.7061 230.204 20.4509 231.582 21.8218C232.96 23.3174 234.588 23.9405 236.718 23.9405C238.973 24.0652 240.602 23.442 241.98 21.9465ZM176.082 4.24914L169.818 20.4509L163.303 4.24914H157.54L167.688 28.8011H171.697L181.594 4.24914H176.082V4.24914Z" fill="#535353"/>
<path d="M153.102 6.49432C151.595 4.99773 149.585 4.12472 147.45 4.12472C145.315 4.12472 143.306 4.99773 141.799 6.49432L141.422 6.86847L140.919 6.3696C139.412 4.87301 137.403 4 135.268 4C133.132 4 131.123 4.87301 129.616 6.3696C128.109 7.8662 127.229 9.86165 127.229 11.9818C127.229 14.102 128.109 16.0975 129.616 17.594L140.543 28.4443C140.794 28.6938 141.045 28.8185 141.422 28.8185C141.799 28.8185 142.05 28.6938 142.301 28.4443L153.228 17.594C154.735 16.0975 155.614 14.102 155.614 11.9818C155.614 9.86165 154.735 7.99091 153.102 6.49432Z" fill="#00B5FF"/>
<mask id="mask0_338_14902" style="mask-type:alpha" maskUnits="userSpaceOnUse" x="127" y="4" width="29" height="25">
<path d="M153.102 6.49432C151.595 4.99773 149.585 4.12472 147.45 4.12472C145.315 4.12472 143.306 4.99773 141.799 6.49432L141.422 6.86847L140.919 6.3696C139.412 4.87301 137.403 4 135.268 4C133.132 4 131.123 4.87301 129.616 6.3696C128.109 7.8662 127.229 9.86165 127.229 11.9818C127.229 14.102 128.109 16.0975 129.616 17.594L140.543 28.4443C140.794 28.6938 141.045 28.8185 141.422 28.8185C141.799 28.8185 142.05 28.6938 142.301 28.4443L153.228 17.594C154.735 16.0975 155.614 14.102 155.614 11.9818C155.614 9.86165 154.735 7.99091 153.102 6.49432Z" fill="#00B5FF"/>
</mask>
<g mask="url(#mask0_338_14902)">
<rect x="126.293" y="14.3228" width="30.0675" height="15.0844" fill="#FFBC00"/>
</g>
<path d="M7.23477 18.4V44.8C7.23477 45.52 6.75246 46 6.02898 46H1.2058C0.482318 46 0 45.52 0 44.8V18.4C0 17.68 0.482318 17.2 1.2058 17.2H6.02898C6.75246 17.2 7.23477 17.8 7.23477 18.4ZM72.7942 17.2H67.971C67.2476 17.2 66.7652 17.68 66.7652 18.4V44.8C66.7652 45.52 67.2476 46 67.971 46H72.7942C73.5177 46 74 45.52 74 44.8V18.4C74 17.8 73.5177 17.2 72.7942 17.2Z" fill="#FFBC57"/>
<path d="M64.3537 25.6V32.8C64.3537 33.52 63.8714 34 63.1479 34H10.8522C10.1287 34 9.64642 33.52 9.64642 32.8V25.6C9.64642 24.88 10.1287 24.4 10.8522 24.4H63.1479C63.8714 24.4 64.3537 24.88 64.3537 25.6ZM10.8522 22H25.0687C25.7921 22 26.2745 21.52 26.2745 20.8V5.2C26.2745 4.48 25.7921 4 25.0687 4H10.8522C10.1287 4 9.64642 4.48 9.64642 5.2V20.8C9.64642 21.52 10.1287 22 10.8522 22ZM29.8918 22H44.1083C44.8318 22 45.3141 21.52 45.3141 20.8V5.2C45.3141 4.48 44.8318 4 44.1083 4H29.8918C29.1684 4 28.686 4.48 28.686 5.2V20.8C28.686 21.52 29.1684 22 29.8918 22ZM63.1479 4H48.9315C48.208 4 47.7257 4.48 47.7257 5.2V20.8C47.7257 21.52 48.208 22 48.9315 22H63.1479C63.8714 22 64.3537 21.52 64.3537 20.8V5.2C64.3537 4.48 63.8714 4 63.1479 4ZM63.1479 36.4H10.8522C10.1287 36.4 9.64642 36.88 9.64642 37.6V44.8C9.64642 45.52 10.1287 46 10.8522 46H17.8339C18.5574 46 19.0397 45.52 19.0397 44.8V43.6H54.9605V44.8C54.9605 45.52 55.4428 46 56.1662 46H63.1479C63.8714 46 64.3537 45.52 64.3537 44.8V37.6C64.3537 36.88 63.8714 36.4 63.1479 36.4Z" fill="#FFBC57"/>
</svg>
