<svg width="53" height="48" viewBox="0 0 53 48" fill="none" xmlns="http://www.w3.org/2000/svg">
<path fill-rule="evenodd" clip-rule="evenodd" d="M4.125 2.5C3.19036 2.5 2.5 3.19036 2.5 4.125V25.875C2.5 26.9663 3.21222 27.5 3.75 27.5H6.24909C6.93946 27.5 7.5 28.0596 7.5 28.75C7.5 29.4404 6.94036 30 6.24999 30H3.75C1.53778 30 0 28.0337 0 25.875V4.125C0 1.80964 1.80964 0 4.125 0H39.625C41.9404 0 43.75 1.80964 43.75 4.125V15C43.75 15.6904 43.1904 16.25 42.5 16.25C41.8096 16.25 41.25 15.6904 41.25 15V4.125C41.25 3.19036 40.5596 2.5 39.625 2.5H4.125Z" fill="white"/>
<path fill-rule="evenodd" clip-rule="evenodd" d="M0 7.5C0 6.80964 0.559644 6.25 1.25 6.25H42.5C43.1904 6.25 43.75 6.80964 43.75 7.5V12.5C43.75 13.1904 43.1904 13.75 42.5 13.75H1.25C0.559644 13.75 0 13.1904 0 12.5V7.5ZM2.5 8.75V11.25H41.25V8.75H2.5Z" fill="white"/>
<path fill-rule="evenodd" clip-rule="evenodd" d="M12.875 20C11.9404 20 11.25 20.6904 11.25 21.625V43.375C11.25 44.3096 11.9404 45 12.875 45H48.25C49.2191 45 50 44.1507 50 43.375V21.625C50 20.6904 49.3096 20 48.375 20H12.875ZM8.75 21.625C8.75 19.3096 10.5596 17.5 12.875 17.5H48.375C50.6904 17.5 52.5 19.3096 52.5 21.625V43.375C52.5 45.5993 50.531 47.5 48.25 47.5H12.875C10.5596 47.5 8.75 45.6904 8.75 43.375V21.625Z" fill="white"/>
<path fill-rule="evenodd" clip-rule="evenodd" d="M15 40C15 39.3096 15.5596 38.75 16.25 38.75H22.5C23.1904 38.75 23.75 39.3096 23.75 40C23.75 40.6904 23.1904 41.25 22.5 41.25H16.25C15.5596 41.25 15 40.6904 15 40Z" fill="white"/>
<path fill-rule="evenodd" clip-rule="evenodd" d="M26.25 40C26.25 39.3096 26.8096 38.75 27.5 38.75H33.75C34.4404 38.75 35 39.3096 35 40C35 40.6904 34.4404 41.25 33.75 41.25H27.5C26.8096 41.25 26.25 40.6904 26.25 40Z" fill="white"/>
<path fill-rule="evenodd" clip-rule="evenodd" d="M37.5 40C37.5 39.3096 38.0596 38.75 38.75 38.75H45C45.6904 38.75 46.25 39.3096 46.25 40C46.25 40.6904 45.6904 41.25 45 41.25H38.75C38.0596 41.25 37.5 40.6904 37.5 40Z" fill="white"/>
<path fill-rule="evenodd" clip-rule="evenodd" d="M41.875 27.5C40.8395 27.5 40 28.3395 40 29.375C40 30.4105 40.8395 31.25 41.875 31.25C42.9105 31.25 43.75 30.4105 43.75 29.375C43.75 28.3395 42.9105 27.5 41.875 27.5ZM37.5 29.375C37.5 26.9588 39.4588 25 41.875 25C44.2912 25 46.25 26.9588 46.25 29.375C46.25 31.7912 44.2912 33.75 41.875 33.75C39.4588 33.75 37.5 31.7912 37.5 29.375Z" fill="white"/>
</svg>
