<svg width="45" height="53" viewBox="0 0 45 53" fill="none" xmlns="http://www.w3.org/2000/svg">
<path fill-rule="evenodd" clip-rule="evenodd" d="M33.4969 0.18351C33.8684 0.410603 34.0949 0.814619 34.0949 1.25V23.6297C34.0949 24.3201 33.5353 24.8797 32.8449 24.8797C32.1546 24.8797 31.5949 24.3201 31.5949 23.6297V3.29467L28.0173 5.12711C27.6556 5.3124 27.2263 5.31024 26.8664 5.12131L22.1816 2.6618L17.4969 5.12131C17.133 5.31231 16.6986 5.31231 16.3348 5.12131L11.65 2.6618L6.96522 5.12131C6.59729 5.31447 6.15743 5.31216 5.79155 5.11515L2.5 3.34277V43.8954L5.91342 42.018C6.28853 41.8117 6.74312 41.8117 7.11822 42.018L11.7816 44.5829L16.4451 42.018C17.05 41.6853 17.81 41.906 18.1427 42.5109C18.4754 43.1158 18.2548 43.8759 17.6499 44.2086L12.384 47.1048C12.0089 47.3111 11.5544 47.3111 11.1792 47.1048L6.51582 44.5399L1.8524 47.1048C1.46515 47.3177 0.994226 47.3104 0.6138 47.0855C0.233373 46.8605 0 46.4514 0 46.0095V1.25C0 0.810035 0.231299 0.402465 0.609017 0.176856C0.986735 -0.048753 1.45525 -0.0591759 1.84262 0.149412L6.39161 2.59886L11.069 0.143254C11.4328 -0.0477499 11.8672 -0.0477499 12.231 0.143254L16.9158 2.60276L21.6006 0.143254C21.9644 -0.0477499 22.3989 -0.0477499 22.7627 0.143254L27.4546 2.60649L32.2751 0.137447C32.6626 -0.0610334 33.1255 -0.0435834 33.4969 0.18351Z" fill="white"/>
<path fill-rule="evenodd" clip-rule="evenodd" d="M11.8477 13.0981C11.8477 12.4077 12.4073 11.8481 13.0977 11.8481H26.2622C26.9526 11.8481 27.5122 12.4077 27.5122 13.0981C27.5122 13.7884 26.9526 14.3481 26.2622 14.3481H13.0977C12.4073 14.3481 11.8477 13.7884 11.8477 13.0981Z" fill="white"/>
<path fill-rule="evenodd" clip-rule="evenodd" d="M5.26562 26.2626C5.26562 25.5723 5.82527 25.0126 6.51562 25.0126H22.3131C23.0034 25.0126 23.5631 25.5723 23.5631 26.2626C23.5631 26.953 23.0034 27.5126 22.3131 27.5126H6.51562C5.82527 27.5126 5.26562 26.953 5.26562 26.2626Z" fill="white"/>
<path fill-rule="evenodd" clip-rule="evenodd" d="M5.26562 31.5285C5.26562 30.8381 5.82527 30.2785 6.51562 30.2785H15.7308C16.4212 30.2785 16.9808 30.8381 16.9808 31.5285C16.9808 32.2189 16.4212 32.7785 15.7308 32.7785H6.51562C5.82527 32.7785 5.26562 32.2189 5.26562 31.5285Z" fill="white"/>
<path fill-rule="evenodd" clip-rule="evenodd" d="M11.8477 18.364C11.8477 17.6736 12.4073 17.114 13.0977 17.114H22.3128C23.0032 17.114 23.5628 17.6736 23.5628 18.364C23.5628 19.0543 23.0032 19.614 22.3128 19.614H13.0977C12.4073 19.614 11.8477 19.0543 11.8477 18.364Z" fill="white"/>
<path fill-rule="evenodd" clip-rule="evenodd" d="M5.26562 13.0981C5.26562 12.4077 5.82527 11.8481 6.51562 11.8481H9.14854C9.83889 11.8481 10.3985 12.4077 10.3985 13.0981C10.3985 13.7884 9.83889 14.3481 9.14854 14.3481H6.51562C5.82527 14.3481 5.26562 13.7884 5.26562 13.0981Z" fill="white"/>
<path fill-rule="evenodd" clip-rule="evenodd" d="M5.26562 18.364C5.26562 17.6736 5.82527 17.114 6.51562 17.114H9.14854C9.83889 17.114 10.3985 17.6736 10.3985 18.364C10.3985 19.0543 9.83889 19.614 9.14854 19.614H6.51562C5.82527 19.614 5.26562 19.0543 5.26562 18.364Z" fill="white"/>
<path fill-rule="evenodd" clip-rule="evenodd" d="M31.5278 28.8291C25.6746 28.8291 20.9297 33.574 20.9297 39.4272C20.9297 45.2804 25.6746 50.0253 31.5278 50.0253C37.381 50.0253 42.1259 45.2804 42.1259 39.4272C42.1259 33.574 37.381 28.8291 31.5278 28.8291ZM18.4297 39.4272C18.4297 32.1933 24.2939 26.3291 31.5278 26.3291C38.7617 26.3291 44.6259 32.1933 44.6259 39.4272C44.6259 46.6611 38.7617 52.5253 31.5278 52.5253C24.2939 52.5253 18.4297 46.6611 18.4297 39.4272Z" fill="white"/>
<path fill-rule="evenodd" clip-rule="evenodd" d="M30.213 35.4114C29.4552 35.4114 28.8301 36.0365 28.8301 36.7943C28.8301 37.552 29.4552 38.1772 30.213 38.1772H32.8459C34.9844 38.1772 36.7288 39.9217 36.7288 42.0601C36.7288 44.1986 34.9844 45.943 32.8459 45.943H27.5801C26.8897 45.943 26.3301 45.3834 26.3301 44.693C26.3301 44.0027 26.8897 43.443 27.5801 43.443H32.8459C33.6036 43.443 34.2288 42.8179 34.2288 42.0601C34.2288 41.3024 33.6036 40.6772 32.8459 40.6772H30.213C28.0745 40.6772 26.3301 38.9327 26.3301 36.7943C26.3301 34.6558 28.0745 32.9114 30.213 32.9114H35.4788C36.1692 32.9114 36.7288 33.471 36.7288 34.1614C36.7288 34.8517 36.1692 35.4114 35.4788 35.4114H30.213Z" fill="white"/>
<path fill-rule="evenodd" clip-rule="evenodd" d="M36.8594 39.4272C36.8594 38.7369 37.419 38.1772 38.1094 38.1772H40.7423C41.4326 38.1772 41.9923 38.7369 41.9923 39.4272C41.9923 40.1176 41.4326 40.6772 40.7423 40.6772H38.1094C37.419 40.6772 36.8594 40.1176 36.8594 39.4272Z" fill="white"/>
<path fill-rule="evenodd" clip-rule="evenodd" d="M21.0625 39.4272C21.0625 38.7369 21.6221 38.1772 22.3125 38.1772H24.9454C25.6358 38.1772 26.1954 38.7369 26.1954 39.4272C26.1954 40.1176 25.6358 40.6772 24.9454 40.6772H22.3125C21.6221 40.6772 21.0625 40.1176 21.0625 39.4272Z" fill="white"/>
</svg>
