<svg width="45" height="45" viewBox="0 0 45 45" fill="none" xmlns="http://www.w3.org/2000/svg">
<path fill-rule="evenodd" clip-rule="evenodd" d="M34.1246 15.6253C32.5387 16.0579 31.3746 17.5073 31.3746 19.2313V28.8398L29.2942 26.9905C28.8113 26.5613 28.4041 26.3333 27.9763 26.1983C27.5288 26.0569 26.9855 25.9938 26.1871 25.9938C22.7451 25.9938 19.6934 28.5016 19.6934 31.7C19.6934 32.3904 19.1337 32.95 18.4434 32.95C17.753 32.95 17.1934 32.3904 17.1934 31.7C17.1934 26.761 21.7541 23.4938 26.1871 23.4938C27.0949 23.4938 27.9298 23.5619 28.7291 23.8143C28.778 23.8297 28.8265 23.8458 28.8746 23.8624V19.2313C28.8746 15.7847 31.6655 12.9938 35.1121 12.9938H36.6246V31.3063C36.6246 34.2951 35.7722 37.1499 34.3346 39.45C33.9687 40.0354 33.1975 40.2134 32.6121 39.8475C32.0267 39.4816 31.8487 38.7104 32.2146 38.125C33.402 36.2252 34.1246 33.83 34.1246 31.3063V15.6253Z" fill="white"/>
<path fill-rule="evenodd" clip-rule="evenodd" d="M8.99414 23.625C9.6845 23.625 10.2441 24.1846 10.2441 24.875V33.4062C10.2441 35.0677 10.6002 36.5621 11.2728 37.7952C11.6033 38.4012 11.38 39.1605 10.774 39.4911C10.1679 39.8217 9.4086 39.5984 9.07802 38.9923C8.17562 37.3379 7.74414 35.4198 7.74414 33.4062V24.875C7.74414 24.1846 8.30378 23.625 8.99414 23.625Z" fill="white"/>
<path fill-rule="evenodd" clip-rule="evenodd" d="M7.875 38.0625H36.625V43.25C36.625 43.9404 36.0654 44.5 35.375 44.5C34.6846 44.5 34.125 43.9404 34.125 43.25V40.5625H10.375V43.25C10.375 43.9404 9.81536 44.5 9.125 44.5C8.43464 44.5 7.875 43.9404 7.875 43.25V38.0625Z" fill="white"/>
<path fill-rule="evenodd" clip-rule="evenodd" d="M0 1.25C0 0.559644 0.559644 0 1.25 0H43.25C43.9404 0 44.5 0.559644 44.5 1.25V24.875C44.5 25.5654 43.9404 26.125 43.25 26.125H35.375C34.6846 26.125 34.125 25.5654 34.125 24.875C34.125 24.1846 34.6846 23.625 35.375 23.625H42V2.5H2.5V23.625H30.125C30.8154 23.625 31.375 24.1846 31.375 24.875C31.375 25.5654 30.8154 26.125 30.125 26.125H1.25C0.559644 26.125 0 25.5654 0 24.875V1.25Z" fill="white"/>
<path fill-rule="evenodd" clip-rule="evenodd" d="M21.5937 7.75C18.2973 7.75 15.625 10.4223 15.625 13.7188C15.625 17.0152 18.2973 19.6875 21.5937 19.6875C24.8902 19.6875 27.5625 17.0152 27.5625 13.7188C27.5625 10.4223 24.8902 7.75 21.5937 7.75ZM13.125 13.7188C13.125 9.04159 16.9166 5.25 21.5937 5.25C26.2709 5.25 30.0625 9.04159 30.0625 13.7188C30.0625 18.3959 26.2709 22.1875 21.5937 22.1875C16.9166 22.1875 13.125 18.3959 13.125 13.7188Z" fill="white"/>
<path fill-rule="evenodd" clip-rule="evenodd" d="M36.1621 2.49377C36.8525 2.49377 37.4121 3.05342 37.4121 3.74377C37.4121 5.41592 38.69 6.69377 40.3621 6.69377C41.0525 6.69377 41.6121 7.25342 41.6121 7.94377C41.6121 8.63413 41.0525 9.19377 40.3621 9.19377C37.3093 9.19377 34.9121 6.79663 34.9121 3.74377C34.9121 3.05342 35.4718 2.49377 36.1621 2.49377Z" fill="white"/>
<path fill-rule="evenodd" clip-rule="evenodd" d="M2.625 17.9188C2.625 17.2284 3.18464 16.6688 3.875 16.6688C6.87718 16.6688 9.45625 19.0163 9.45625 22.1188C9.45625 22.8091 8.89661 23.3688 8.20625 23.3688C7.51589 23.3688 6.95625 22.8091 6.95625 22.1188C6.95625 20.4962 5.59782 19.1688 3.875 19.1688C3.18464 19.1688 2.625 18.6091 2.625 17.9188Z" fill="white"/>
<path fill-rule="evenodd" clip-rule="evenodd" d="M8.075 2.625C8.76536 2.625 9.325 3.18464 9.325 3.875C9.325 6.84728 6.74482 9.19375 3.875 9.19375C3.18464 9.19375 2.625 8.63411 2.625 7.94375C2.625 7.25339 3.18464 6.69375 3.875 6.69375C5.46768 6.69375 6.825 5.36522 6.825 3.875C6.825 3.18464 7.38464 2.625 8.075 2.625Z" fill="white"/>
<path fill-rule="evenodd" clip-rule="evenodd" d="M34.7812 22.1188C34.7812 19.0163 37.3603 16.6688 40.3625 16.6688C41.0529 16.6688 41.6125 17.2284 41.6125 17.9188C41.6125 18.6091 41.0529 19.1688 40.3625 19.1688C38.6397 19.1688 37.2812 20.4962 37.2812 22.1188C37.2812 22.8091 36.7216 23.3688 36.0312 23.3688C35.3409 23.3688 34.7812 22.8091 34.7812 22.1188Z" fill="white"/>
</svg>
