<svg width="50" height="50" viewBox="0 0 50 50" fill="none" xmlns="http://www.w3.org/2000/svg">
<path d="M46.269 8.04406H33.8807V4.66638C33.8807 2.6086 32.2074 0.94574 30.1497 0.94574H3.72064C1.66286 0.94574 0 2.61899 0 4.66638V45.3336C0 47.3914 1.67325 49.0542 3.72064 49.0542H30.1497C32.2074 49.0542 33.8807 47.381 33.8807 45.3336V40.2723H46.269C48.3268 40.2723 50 38.599 50 36.5516V11.7751C49.9896 9.71731 48.3164 8.04406 46.269 8.04406ZM42.6003 10.5383V37.778H40.1995V10.5383H42.6003ZM31.3864 45.3232C31.3864 45.9987 30.8356 46.5496 30.1497 46.5496H3.72064C3.0451 46.5496 2.49428 45.9987 2.49428 45.3232V4.66638C2.49428 3.99084 3.0451 3.44002 3.72064 3.44002H30.1497C30.8252 3.44002 31.3864 3.99084 31.3864 4.66638V45.3232ZM33.8807 10.5383H37.7157V37.778H33.8807V10.5383ZM47.4953 36.5413C47.4953 37.2168 46.9445 37.7676 46.2586 37.7676H45.0946V10.5383H46.2586C46.9341 10.5383 47.4953 11.0892 47.4953 11.7647V36.5413Z" fill="white"/>
<path d="M9.78959 23.2488H24.0798C25.8361 23.2488 27.26 21.825 27.26 20.0686V10.7254C27.26 8.96905 25.8361 7.54523 24.0798 7.54523H9.78959C8.0332 7.54523 6.60938 8.96905 6.60938 10.7254V20.0686C6.60938 21.825 8.0332 23.2488 9.78959 23.2488ZM9.10366 10.7254C9.10366 10.3409 9.41544 10.0395 9.78959 10.0395H24.0798C24.4643 10.0395 24.7657 10.3513 24.7657 10.7254V20.0686C24.7657 20.4531 24.4539 20.7545 24.0798 20.7545H9.78959C9.40505 20.7545 9.10366 20.4428 9.10366 20.0686V10.7254Z" fill="white"/>
<path d="M9.50898 28.4244H7.85652C7.17059 28.4244 6.60938 28.9857 6.60938 29.6716C6.60938 30.3575 7.17059 30.9187 7.85652 30.9187H9.50898C10.1949 30.9187 10.7561 30.3575 10.7561 29.6716C10.7561 28.9857 10.1949 28.4244 9.50898 28.4244Z" fill="white"/>
<path d="M17.7609 28.4244H16.1085C15.4225 28.4244 14.8613 28.9857 14.8613 29.6716C14.8613 30.3575 15.4225 30.9187 16.1085 30.9187H17.7609C18.4469 30.9187 19.0081 30.3575 19.0081 29.6716C19.0081 28.9857 18.4469 28.4244 17.7609 28.4244Z" fill="white"/>
<path d="M26.0246 28.4244H24.3721C23.6862 28.4244 23.125 28.9857 23.125 29.6716C23.125 30.3575 23.6862 30.9187 24.3721 30.9187H26.0246C26.7105 30.9187 27.2717 30.3575 27.2717 29.6716C27.2717 28.9857 26.7105 28.4244 26.0246 28.4244Z" fill="white"/>
<path d="M9.50898 34.0574H7.85652C7.17059 34.0574 6.60938 34.6186 6.60938 35.3045C6.60938 35.9904 7.17059 36.5517 7.85652 36.5517H9.50898C10.1949 36.5517 10.7561 35.9904 10.7561 35.3045C10.7561 34.6186 10.1949 34.0574 9.50898 34.0574Z" fill="white"/>
<path d="M17.7609 34.0574H16.1085C15.4225 34.0574 14.8613 34.6186 14.8613 35.3045C14.8613 35.9904 15.4225 36.5517 16.1085 36.5517H17.7609C18.4469 36.5517 19.0081 35.9904 19.0081 35.3045C19.0081 34.6186 18.4469 34.0574 17.7609 34.0574Z" fill="white"/>
<path d="M26.0246 34.0574H24.3721C23.6862 34.0574 23.125 34.6186 23.125 35.3045C23.125 35.9904 23.6862 36.5517 24.3721 36.5517H26.0246C26.7105 36.5517 27.2717 35.9904 27.2717 35.3045C27.2717 34.6186 26.7105 34.0574 26.0246 34.0574Z" fill="white"/>
<path d="M9.50898 39.6903H7.85652C7.17059 39.6903 6.60938 40.2515 6.60938 40.9374C6.60938 41.6234 7.17059 42.1846 7.85652 42.1846H9.50898C10.1949 42.1846 10.7561 41.6234 10.7561 40.9374C10.7561 40.2515 10.1949 39.6903 9.50898 39.6903Z" fill="white"/>
<path d="M17.7609 39.6903H16.1085C15.4225 39.6903 14.8613 40.2515 14.8613 40.9374C14.8613 41.6234 15.4225 42.1846 16.1085 42.1846H17.7609C18.4469 42.1846 19.0081 41.6234 19.0081 40.9374C19.0081 40.2515 18.4469 39.6903 17.7609 39.6903Z" fill="white"/>
<path d="M26.0246 39.6903H24.3721C23.6862 39.6903 23.125 40.2515 23.125 40.9374C23.125 41.6234 23.6862 42.1846 24.3721 42.1846H26.0246C26.7105 42.1846 27.2717 41.6234 27.2717 40.9374C27.2717 40.2515 26.7105 39.6903 26.0246 39.6903Z" fill="white"/>
</svg>
