<svg width="40" height="40" viewBox="0 0 40 40" fill="none" xmlns="http://www.w3.org/2000/svg">
<path d="M35.922 4H4.07805C3.49756 4 3 4.49756 3 5.07805V25.2293C3 25.8098 3.49756 26.3073 4.07805 26.3073H9.30244L7.80976 34.9317C7.72683 35.5122 8.05854 36.0927 8.63902 36.1756C9.21951 36.2585 9.8 35.8439 9.88293 35.3463L11.4585 26.3073H28.5415L30.1171 35.3463C30.2 35.8439 30.6146 36.2585 31.1951 36.2585C31.278 36.2585 31.278 36.2585 31.361 36.2585C31.9415 36.1756 32.3561 35.5951 32.1902 35.0146L30.6976 26.3902H35.922C36.5024 26.3902 37 25.8927 37 25.3122V5.07805C37 4.49756 36.5024 4 35.922 4ZM34.8439 16.1902V24.1512H5.1561V16.1902H34.8439ZM34.8439 6.1561V14.1171H5.1561V6.1561H34.8439Z" fill="#2B2929"/>
<path d="M20 11.6293C20.8244 11.6293 21.4927 10.961 21.4927 10.1366C21.4927 9.31219 20.8244 8.64389 20 8.64389C19.1756 8.64389 18.5073 9.31219 18.5073 10.1366C18.5073 10.961 19.1756 11.6293 20 11.6293Z" fill="#2B2929"/>
<path d="M20 21.6634C20.8293 21.6634 21.4927 21 21.4927 20.1708C21.4927 19.3415 20.8293 18.6781 20 18.6781C19.1707 18.6781 18.5073 19.3415 18.5073 20.1708C18.5073 21 19.1707 21.6634 20 21.6634Z" fill="#2B2929"/>
</svg>
