<svg width="40" height="40" viewBox="0 0 40 40" fill="none" xmlns="http://www.w3.org/2000/svg">
<path d="M20.3171 40C21.0715 40 21.683 39.3885 21.683 38.6342C21.683 37.8798 21.0715 37.2683 20.3171 37.2683C19.5628 37.2683 18.9513 37.8798 18.9513 38.6342C18.9513 39.3885 19.5628 40 20.3171 40Z" fill="#2B2929"/>
<path d="M29.0977 40C29.852 40 30.4635 39.3885 30.4635 38.6342C30.4635 37.8798 29.852 37.2683 29.0977 37.2683C28.3433 37.2683 27.7318 37.8798 27.7318 38.6342C27.7318 39.3885 28.3433 40 29.0977 40Z" fill="#2B2929"/>
<path d="M11.5366 40C12.291 40 12.9025 39.3885 12.9025 38.6342C12.9025 37.8798 12.291 37.2683 11.5366 37.2683C10.7823 37.2683 10.1708 37.8798 10.1708 38.6342C10.1708 39.3885 10.7823 40 11.5366 40Z" fill="#2B2929"/>
<path d="M28.8049 20.5854C29.8781 15.122 30.3659 9.65854 30.3659 4.19512C30.3659 1.85366 28.5123 0 26.2683 0H14.561C12.2196 0 10.2683 1.85366 10.2683 4.19512C10.2683 9.65854 10.8537 15.122 11.8293 20.5854C10.561 21.0732 9.68298 22.3415 9.68298 23.7073V25.3659C9.68298 26.6341 10.6586 27.6098 11.9269 27.6098H19.244V31.7073C16.122 31.9024 13.1952 32.878 10.9513 34.439C10.7562 34.6341 10.561 34.8293 10.561 35.122C10.561 35.4146 10.561 35.7073 10.7562 35.9024C11.0488 36.3902 11.7318 36.4878 12.2196 36.1951C14.1708 34.8293 16.7074 33.9512 19.3415 33.7561V35.3171C19.3415 35.9024 19.8293 36.2927 20.3171 36.2927C20.8049 36.2927 21.2927 35.8049 21.2927 35.3171V33.7561C23.9269 33.9512 26.4635 34.7317 28.4147 36.1951C28.6098 36.2927 28.8049 36.3902 29.0001 36.3902C29.2927 36.3902 29.683 36.1951 29.8781 36C30.0732 35.8049 30.0732 35.5122 30.0732 35.2195C30.0732 34.9268 29.8781 34.7317 29.683 34.5366C27.3415 32.8781 24.4147 31.9024 21.3903 31.8049V27.7073H28.7074C29.9757 27.7073 30.9513 26.7317 30.9513 25.4634V23.8049C30.9513 22.3415 30.0732 21.0732 28.8049 20.5854ZM13.1952 22.3415H27.5366C28.3171 22.3415 28.9025 22.9268 28.9025 23.7073V25.3659C28.9025 25.4634 28.8049 25.561 28.7074 25.561H12.0244C11.9269 25.561 11.8293 25.4634 11.8293 25.3659V23.7073C11.8293 22.9268 12.4147 22.3415 13.1952 22.3415ZM26.8537 20.2927H13.8781C12.9025 15.0244 12.3171 9.56098 12.3171 4.19512C12.3171 3.02439 13.2927 2.04878 14.4635 2.04878H26.1708C27.3415 2.04878 28.3171 3.02439 28.3171 4.19512C28.3171 9.56098 27.8293 14.9268 26.8537 20.2927Z" fill="#2B2929"/>
<path d="M10.7561 17.3659V14.7317C10.7561 13.8537 9.97561 13.0732 9.09756 13.0732H6.65854C5.78049 13.0732 5 13.8537 5 14.7317V17.3659C5 18.9268 6.26829 20.2927 7.92683 20.2927C9.4878 20.2927 10.7561 18.9268 10.7561 17.3659ZM8.70732 15.122V17.4634C8.70732 17.9512 8.31707 18.3415 7.82927 18.3415C7.34146 18.3415 6.95122 17.9512 6.95122 17.4634V15.122H8.70732Z" fill="#2B2929"/>
<path d="M33.9756 13.0732H31.5366C30.6585 13.0732 29.8781 13.8537 29.8781 14.7317V17.3659C29.8781 18.9268 31.1463 20.2927 32.8049 20.2927C34.3659 20.2927 35.7317 19.0244 35.7317 17.3659V14.7317C35.7317 13.7561 34.9512 13.0732 33.9756 13.0732ZM33.6829 15.122V17.4634C33.6829 17.9512 33.2927 18.3415 32.8049 18.3415C32.3171 18.3415 31.9268 17.9512 31.9268 17.4634V15.122H33.6829Z" fill="#2B2929"/>
<path d="M20.317 7.51221C19.7317 7.51221 19.3414 8.00001 19.3414 8.48782V17.6585C19.3414 18.2439 19.8292 18.6342 20.317 18.6342C20.8048 18.6342 21.2927 18.1464 21.2927 17.6585V8.58538C21.3902 8.00001 20.9024 7.51221 20.317 7.51221Z" fill="#2B2929"/>
</svg>
