<svg width="40" height="40" viewBox="0 0 40 40" fill="none" xmlns="http://www.w3.org/2000/svg">
<path d="M37.6133 0H1.91533C1.36613 0 1 0.366133 1 0.915332V34.4165C1 34.8741 1.36613 35.3318 1.91533 35.3318H3.65446L3.01373 38.9931C3.01373 39.2677 3.01373 39.4508 3.1968 39.6339C3.37986 39.8169 3.56293 40 3.746 40H3.92906C4.38673 40 4.75286 39.7254 4.84439 39.2677L5.48513 35.3318H34.135L34.7757 39.2677C34.8673 39.7254 35.2334 40 35.6911 40H35.8741C36.3318 39.9085 36.6979 39.4508 36.6064 38.9931L35.9657 35.3318H37.6133C38.0709 35.3318 38.5286 34.9657 38.5286 34.4165V0.915332C38.5286 0.366133 38.1625 0 37.6133 0ZM36.7895 1.73913V33.5011H26.6293V1.73913H36.7895ZM22.0526 23.4325V30.7551H14.73V23.4325H22.0526ZM22.0526 13.73V21.6018H14.73V13.73H22.0526ZM22.0526 4.57666V11.9908H14.73V4.57666H22.0526ZM23.7918 31.5789V3.66133C23.7918 3.20366 23.4256 2.746 22.8764 2.746H14.6384V1.73913H24.7986V33.5011H14.73V32.4943H22.968C23.4256 32.4943 23.7918 32.0366 23.7918 31.5789ZM3.83753 3.66133V31.5789C3.83753 32.0366 4.20366 32.4943 4.75286 32.4943H12.9908V33.5011H2.73913V1.73913H12.8993V2.746H4.66133C4.20366 2.83753 3.83753 3.20366 3.83753 3.66133ZM12.8993 23.4325V30.7551H5.57666V23.4325H12.8993ZM12.8993 13.73V21.6018H5.57666V13.73H12.8993ZM12.8993 4.57666V11.9908H5.57666V4.57666H12.8993Z" fill="#2B2929"/>
<path d="M11.4348 18.8558C12.0755 18.8558 12.6247 18.3066 12.6247 17.6659C12.6247 17.0252 12.0755 16.476 11.4348 16.476C10.7941 16.476 10.2449 17.0252 10.2449 17.6659C10.2449 18.3066 10.7941 18.8558 11.4348 18.8558Z" fill="#2B2929"/>
<path d="M16.1946 18.8558C16.8353 18.8558 17.3845 18.3066 17.3845 17.6659C17.3845 17.0252 16.8353 16.476 16.1946 16.476C15.5538 16.476 15.0046 17.0252 15.0046 17.6659C15.0046 18.3066 15.5538 18.8558 16.1946 18.8558Z" fill="#2B2929"/>
</svg>
