<svg width="40" height="40" viewBox="0 0 40 40" fill="none" xmlns="http://www.w3.org/2000/svg">
<path d="M39.0244 13.7073H22.8293C23.2195 13.4146 23.5122 13.0244 23.8049 12.6341C24.3902 11.6585 24.5854 10.4878 24.3902 9.31707C25.3659 8.04878 25.9512 6.4878 25.9512 4.82927C25.9512 3.26829 24.7805 2 23.4146 2C23.122 2 22.7317 2.09756 22.439 2.19512C22.2439 2.09756 22.0488 2 21.8537 2H17.561C17.1707 2 16.878 2.19512 16.6829 2.4878C16.4878 2.78049 16.4878 3.17073 16.6829 3.46341L16.878 3.85366C17.0732 4.04878 17.0732 4.34146 17.0732 4.63415C17.0732 5.60976 16.7805 6.58537 16.1951 7.46341C15.2195 9.02439 15.122 10.9756 16.0976 12.5366C16.3902 12.9268 16.6829 13.3171 17.0732 13.6098H0.97561C0.390244 13.6098 0 14.0976 0 14.5854C0 15.1707 0.487805 15.561 0.97561 15.561H4.29268V36.6341C4.29268 37.2195 4.78049 37.6098 5.26829 37.6098C5.7561 37.6098 6.2439 37.122 6.2439 36.6341V20.7317H33.6585V36.7317C33.6585 37.3171 34.1463 37.7073 34.6341 37.7073C35.122 37.7073 35.6098 37.2195 35.6098 36.7317V15.6585H39.0244C39.6098 15.6585 40 15.1707 40 14.6829C40 14.0976 39.5122 13.7073 39.0244 13.7073ZM23.9024 4.73171C23.9024 5.5122 23.7073 6.29268 23.3171 7.07317C22.9268 6.39024 22.7317 5.5122 22.7317 4.73171C22.8293 4.34146 23.122 3.95122 23.4146 3.95122C23.7073 3.95122 23.9024 4.34146 23.9024 4.73171ZM19.122 3.95122H20.878V4.82927C20.878 6.19512 21.2683 7.46341 22.0488 8.53659C22.6341 9.5122 22.6341 10.6829 22.1463 11.561C22.0488 11.6585 21.9512 11.7561 21.8537 11.8537H18.2439C18.1463 11.7561 18.0488 11.6585 17.9512 11.561C17.3659 10.5854 17.4634 9.41463 18.0488 8.53659C18.8293 7.36585 19.2195 6 19.2195 4.63415C19.122 4.43902 19.122 4.14634 19.122 3.95122ZM33.7561 15.6585V18.7805H6.2439V15.6585H33.7561Z" fill="#2B2929"/>
</svg>
