<svg width="80" height="80" viewBox="0 0 80 80" fill="none" xmlns="http://www.w3.org/2000/svg">
<path d="M38.4004 77.5C46.1324 77.5 52.4004 71.232 52.4004 63.5C52.4004 55.768 46.1324 49.5 38.4004 49.5C30.6684 49.5 24.4004 55.768 24.4004 63.5C24.4004 71.232 30.6684 77.5 38.4004 77.5Z" fill="#FFBC57"/>
<path d="M13 38.5C19.6274 38.5 25 33.1274 25 26.5C25 19.8726 19.6274 14.5 13 14.5C6.37258 14.5 1 19.8726 1 26.5C1 33.1274 6.37258 38.5 13 38.5Z" fill="#FFBC57"/>
<path d="M59.5996 49C70.6453 49 79.5996 40.0457 79.5996 29C79.5996 17.9543 70.6453 9 59.5996 9C48.5539 9 39.5996 17.9543 39.5996 29C39.5996 40.0457 48.5539 49 59.5996 49Z" fill="#FFBC57"/>
<path d="M70.8008 35.2L42.8008 25.2L14.8008 35.2L42.8008 45.2L70.8008 35.2Z" fill="white"/>
<path d="M37.8008 27L14.8008 35.2L37.8008 43.5V27Z" fill="white"/>
<path d="M65.0008 37.2999L42.8008 29.3999V45.1999L65.0008 37.2999Z" fill="white"/>
<path d="M42.8 45.9999C42.7 45.9999 42.6 45.9999 42.5 45.9999L14.5 35.9999C14.2 35.8999 14 35.5999 14 35.2999C14 34.9999 14.2 34.6999 14.5 34.5999L42.5 24.5999C42.7 24.4999 42.8 24.4999 43 24.5999L71 34.5999C71.3 34.6999 71.5 34.9999 71.5 35.2999C71.5 35.5999 71.3 35.8999 71 35.9999L43 45.9999C42.9 45.9999 42.8 45.9999 42.8 45.9999ZM17 35.1999L42.8 44.3999L68.6 35.1999L42.8 25.9999L17 35.1999Z" fill="#2B2929"/>
<path d="M38.8008 18.2L10.8008 28.2L14.8008 35.2L42.8008 25.2L38.8008 18.2Z" fill="white"/>
<path d="M42.8008 25.2L38.8008 18.2L32.5008 20.5L33.8008 22.7999C34.4008 23.8999 33.9008 25.3 32.7008 25.7L13.3008 32.6L14.8008 35.2L42.8008 25.2Z" fill="white"/>
<path d="M14.8004 36C14.5004 36 14.3004 35.9 14.1004 35.6L10.1004 28.6C10.0004 28.4 10.0004 28.2 10.1004 28C10.2004 27.8 10.3004 27.6 10.6004 27.6L38.6004 17.6C38.9004 17.5 39.3004 17.6 39.5004 17.9L43.5004 24.9C43.6004 25.1 43.6004 25.3 43.6004 25.5C43.5004 25.7 43.4004 25.9 43.1004 25.9L15.0004 36C14.9004 36 14.8004 36 14.8004 36ZM11.9004 28.7L15.1004 34.4L41.7004 24.9L38.5004 19.2L11.9004 28.7Z" fill="#2B2929"/>
<path d="M46.8008 18.2L74.8008 28.2L70.8008 35.2L42.8008 25.2L46.8008 18.2Z" fill="white"/>
<path d="M70.7993 35.9999C70.6993 35.9999 70.5993 35.9999 70.4993 35.9999L42.4993 25.9999C42.2993 25.8999 42.0993 25.7999 41.9993 25.5999C41.8993 25.3999 41.8993 25.1999 42.0993 24.9999L46.0993 17.9999C46.2993 17.6999 46.6993 17.4999 46.9993 17.6999L74.9993 27.6999C75.1993 27.7999 75.3993 27.8999 75.4993 28.0999C75.5993 28.2999 75.5993 28.4999 75.3993 28.6999L71.3993 35.6999C71.2993 35.8999 70.9993 35.9999 70.7993 35.9999ZM43.8993 24.7999L70.4993 34.2999L73.6993 28.5999L47.0993 19.0999L43.8993 24.7999Z" fill="#2B2929"/>
<path d="M42.8008 70.1999L14.8008 60.2V35.2L42.8008 45.2V70.1999Z" fill="white"/>
<path d="M36.4008 63.7999L14.8008 56V35.2L37.8008 43.4V62.7999C37.8008 63.4999 37.1008 63.9999 36.4008 63.7999Z" fill="white"/>
<path d="M42.8 71C42.7 71 42.6 71 42.5 71L14.5 61C14.2 60.9 14 60.6 14 60.3V35.3C14 35.1 14.1 34.8 14.3 34.7C14.5 34.6 14.8 34.5 15 34.6L43 44.6C43.3 44.7 43.5 45 43.5 45.3V70.3C43.5 70.5 43.4 70.8 43.2 70.9C43.1 71 42.9 71 42.8 71ZM15.5 59.7L42 69.2V45.8L15.5 36.3V59.7Z" fill="#2B2929"/>
<path d="M38.8008 52.2L10.8008 42.2L14.8008 35.2L42.8008 45.2L38.8008 52.2Z" fill="white"/>
<path d="M34.1992 47.7L12.1992 39.7999L14.7992 35.2L38.3992 43.5999L36.5992 46.7C36.0992 47.6 35.0992 48 34.1992 47.7Z" fill="white"/>
<path d="M38.8 53C38.7 53 38.6 53 38.5 53L10.5 43C10.3 42.9 10.1 42.8 10 42.6C10 42.3 10 42.1 10.1 41.9L14.1 34.9C14.3 34.6 14.7 34.4 15 34.6L43 44.6C43.2 44.7 43.4 44.8 43.5 45C43.6 45.2 43.6 45.4 43.4 45.6L39.4 52.6C39.3 52.9 39 53 38.8 53ZM11.9 41.8L38.5 51.3L41.7 45.6L15.1 36.1L11.9 41.8Z" fill="#2B2929"/>
<path d="M42.8008 70.1999L70.8008 60.2V35.2L42.8008 45.2V70.1999Z" fill="white"/>
<path d="M42.8008 65.7999L65.5008 57.7C66.3008 57.4 66.8008 56.6999 66.8008 55.7999V36.7L42.8008 45.2999V65.7999Z" fill="white"/>
<path d="M42.7996 71C42.5996 71 42.4996 71 42.3996 70.9C42.1996 70.8 42.0996 70.5 42.0996 70.3V45.3C42.0996 45 42.2996 44.7 42.5996 44.6L70.5996 34.6C70.7996 34.5 71.0996 34.6 71.2996 34.7C71.4996 34.8 71.5996 35.1 71.5996 35.3V60.3C71.5996 60.6 71.3996 60.9 71.0996 61L42.9996 71C42.8996 71 42.7996 71 42.7996 71ZM43.4996 45.8V69.2L69.9996 59.7V36.3L43.4996 45.8Z" fill="#2B2929"/>
<path d="M46.8008 52.2L74.8008 42.2L70.8008 35.2L42.8008 45.2L46.8008 52.2Z" fill="white"/>
<path d="M45.3008 49.6L66.5008 42C67.7008 41.6 68.2008 40.2 67.6008 39.1L66.3008 36.8L42.8008 45.2001L45.3008 49.6Z" fill="white"/>
<path d="M46.8004 53C46.5004 53 46.3004 52.9 46.1004 52.6L42.1004 45.6C42.0004 45.4 42.0004 45.2 42.1004 45C42.2004 44.8 42.3004 44.6 42.6004 44.6L70.6004 34.6C70.9004 34.5 71.3004 34.6 71.5004 34.9L75.5004 41.9C75.6004 42.1 75.6004 42.3 75.6004 42.5C75.5004 42.7 75.4004 42.9 75.1004 42.9L47.0004 53C46.9004 53 46.8004 53 46.8004 53ZM43.9004 45.7L47.1004 51.4L73.7004 41.9L70.5004 36.2L43.9004 45.7Z" fill="#2B2929"/>
<path d="M48.8008 19.5V39.7999H36.8008V19.5H28.8008L42.8008 5.19995L56.7008 19.5H48.8008Z" fill="white"/>
<path d="M43.3002 39H37.5002V19.5C37.5002 19.1 37.2002 18.7 36.7002 18.7H30.5002L42.8002 6.3L46.0002 9.6C46.1002 9.7 46.2002 9.7 46.3002 9.6L47.0002 8.8C47.1002 8.7 47.1002 8.6 47.0002 8.5L43.3002 4.7C43.2002 4.6 43.0002 4.5 42.8002 4.5C42.6002 4.5 42.4002 4.6 42.3002 4.7L28.2002 19C28.0002 19.2 27.9002 19.5 28.0002 19.8C28.1002 20.1 28.4002 20.3 28.7002 20.3H36.0002V39.8C36.0002 40.2 36.3002 40.6 36.8002 40.6H43.3002C43.4002 40.6 43.5002 40.5 43.5002 40.4V39.3C43.5002 39.1 43.4002 39 43.3002 39Z" fill="#FFBC57"/>
<path d="M48 9.89995L47.2 10.7C47.1 10.8 47.1 10.9 47.2 11L54.9 18.8H48.7C48.3 18.8 47.9 19.1 47.9 19.6V39H45.1C45 39 45 39.1 45 39.2V40.2999C45 40.3999 45.1 40.5 45.2 40.5H48.8C49.2 40.5 49.6 40.2 49.6 39.7V20.3H56.8C57.1 20.3 57.4 20.1 57.5 19.8C57.6 19.5 57.6 19.2 57.3 19L48.4 9.89995C48.3 9.79995 48.1 9.79995 48 9.89995Z" fill="#2B2929"/>
</svg>
