<svg width="80" height="80" viewBox="0 0 80 80" fill="none" xmlns="http://www.w3.org/2000/svg">
<path d="M62.3168 40.8467C70.4988 40.8467 77.1316 34.2139 77.1316 26.0319C77.1316 17.8499 70.4988 11.217 62.3168 11.217C54.1348 11.217 47.502 17.8499 47.502 26.0319C47.502 34.2139 54.1348 40.8467 62.3168 40.8467Z" fill="#FFBC57"/>
<path d="M21.6828 25.3968C28.6959 25.3968 34.3812 19.7116 34.3812 12.6984C34.3812 5.68527 28.6959 0 21.6828 0C14.6696 0 8.98438 5.68527 8.98438 12.6984C8.98438 19.7116 14.6696 25.3968 21.6828 25.3968Z" fill="#FFBC57"/>
<path d="M23.164 80.0002C34.8526 80.0002 44.328 70.5247 44.328 58.8361C44.328 47.1476 34.8526 37.6721 23.164 37.6721C11.4755 37.6721 2 47.1476 2 58.8361C2 70.5247 11.4755 80.0002 23.164 80.0002Z" fill="#FFBC57"/>
<path d="M39.3546 23.3865C32.3705 24.233 26.6562 29.8415 25.7038 36.7198C25.1747 40.4235 25.9155 43.9156 27.6086 46.8785L25.4922 55.0267L33.6403 53.0161C36.6033 54.7092 40.0954 55.45 43.7991 54.9209C50.7832 53.8627 56.2858 48.2542 57.1324 41.2701C58.4022 30.7939 49.725 22.1166 39.3546 23.3865Z" fill="white"/>
<path d="M41.3654 55.873C38.614 55.873 35.9685 55.238 33.5347 53.8624L25.704 55.7671C25.3865 55.873 25.1749 55.7671 24.9632 55.5555C24.7516 55.3439 24.6458 55.0264 24.7516 54.8148L26.6564 46.9841C24.9632 43.8095 24.3283 40.2116 24.8574 36.6137C25.9156 29.2063 31.8415 23.492 39.249 22.5396C44.4341 21.9047 49.5135 23.5978 53.1114 27.3015C56.8151 31.0052 58.5082 35.9788 57.8733 41.164C56.9209 48.5714 51.2066 54.4973 43.7992 55.5555C43.0585 55.7671 42.2119 55.873 41.3654 55.873ZM33.6405 52.1693C33.7463 52.1693 33.9579 52.1693 34.0638 52.2751C37.0267 53.9682 40.3072 54.4973 43.6934 54.074C50.3601 53.1216 55.5453 47.7248 56.3918 41.0581C56.9209 36.4021 55.4394 31.746 52.0532 28.4655C48.7728 25.1851 44.1167 23.5978 39.4606 24.1269C32.7939 24.9735 27.3971 30.1587 26.4447 36.8253C25.9156 40.2116 26.5505 43.492 28.2437 46.455C28.3495 46.6666 28.3495 46.8782 28.3495 46.9841L26.6564 53.9682L33.5347 52.2751C33.5347 52.1693 33.6405 52.1693 33.6405 52.1693Z" fill="#2B2929"/>
<path d="M41.3659 44.3389C40.9426 44.3389 40.5194 44.0214 40.5194 43.4923V42.8574C40.5194 40.3177 42.0008 39.1537 43.1649 38.3072C44.2231 37.5664 44.9638 36.9315 44.9638 35.45C44.9638 33.7569 43.9056 32.3812 42.4241 31.958C41.2601 31.6405 39.9903 31.8521 39.0379 32.4871C38.0855 33.2278 37.5564 34.286 37.5564 35.45C37.5564 35.8733 37.2389 36.2966 36.7098 36.2966C36.2866 36.2966 35.8633 35.9791 35.8633 35.45C35.8633 33.7569 36.7098 32.1696 37.9797 31.2172C39.3553 30.159 41.0485 29.9474 42.7416 30.3707C44.9638 31.0056 46.4453 33.0162 46.4453 35.45C46.4453 37.7781 45.0696 38.7304 43.9056 39.577C42.8474 40.4236 41.895 41.0585 41.895 42.8574V43.4923C42.2125 44.0214 41.895 44.3389 41.3659 44.3389Z" fill="#FFBC57"/>
<path d="M42.1056 47.4075C41.6823 46.9843 41.0474 46.9843 40.6241 47.4075C40.4125 47.6192 40.3066 47.8308 40.3066 48.1483C40.3066 48.4658 40.4125 48.6774 40.6241 48.889C40.8357 49.1007 41.0474 49.2065 41.3648 49.2065C41.6823 49.2065 41.8939 49.1007 42.1056 48.889C42.3172 48.6774 42.423 48.4658 42.423 48.1483C42.423 47.8308 42.3172 47.5134 42.1056 47.4075Z" fill="#FFBC57"/>
<path d="M41.3645 70.8996C40.9412 70.8996 40.5179 70.5821 40.5179 70.053C40.5179 69.6297 40.8354 69.2065 41.3645 69.2065C57.8724 69.2065 71.3116 55.7673 71.3116 39.2594C71.3116 22.9631 57.8724 9.52393 41.3645 9.52393C24.9624 9.52393 11.5232 22.9631 11.5232 39.3652C11.5232 39.8943 11.2057 40.2118 10.6766 40.2118C10.2534 40.2118 9.83008 39.8943 9.83008 39.3652C9.83008 22.0107 23.9042 7.83081 41.2586 7.83081C58.6131 7.83081 72.8989 22.0107 72.8989 39.3652C72.8989 56.7197 58.719 70.8996 41.3645 70.8996Z" fill="#2B2929"/>
<path d="M44.539 73.2281H38.1898C35.8618 73.2281 33.957 71.3233 33.957 68.9953C33.957 66.6672 35.8618 64.7625 38.1898 64.7625H44.539C46.8671 64.7625 48.7718 66.6672 48.7718 68.9953C48.7718 71.4291 46.9729 73.2281 44.539 73.2281Z" fill="white"/>
<path d="M44.5399 74.0743H38.1907C35.4394 74.0743 33.1113 71.852 33.1113 68.9949C33.1113 66.2436 35.3336 63.9155 38.1907 63.9155H44.5399C47.2912 63.9155 49.6193 66.1377 49.6193 68.9949C49.6193 71.852 47.397 74.0743 44.5399 74.0743ZM38.1907 65.6086C36.2859 65.6086 34.6986 67.196 34.6986 69.1007C34.6986 71.0055 36.2859 72.5928 38.1907 72.5928H44.5399C46.4447 72.5928 48.032 71.0055 48.032 69.1007C48.032 67.196 46.4447 65.6086 44.5399 65.6086H38.1907Z" fill="#2B2929"/>
<path d="M15.9676 51.0058C11.3115 51.0058 7.50195 47.1962 7.50195 42.5402V36.191C7.50195 31.5349 11.3115 27.7253 15.9676 27.7253C17.1316 27.7253 18.084 28.6777 18.084 29.8417V48.8894C18.084 50.1592 17.1316 51.0058 15.9676 51.0058Z" fill="white"/>
<path d="M15.9684 51.852C10.8891 51.852 6.65625 47.725 6.65625 42.5398V36.1906C6.65625 31.1112 10.7832 26.8784 15.9684 26.8784C17.5557 26.8784 18.9314 28.1483 18.9314 29.8414V48.889C18.9314 50.5821 17.6615 51.852 15.9684 51.852ZM15.9684 28.5715C11.7356 28.5715 8.24355 32.0636 8.24355 36.2964V42.6456C8.24355 46.8784 11.7356 50.3705 15.9684 50.3705C16.7092 50.3705 17.3441 49.7356 17.3441 48.9948V29.9472C17.3441 29.2065 16.7092 28.5715 15.9684 28.5715Z" fill="#2B2929"/>
<path d="M12.7938 46.561C12.3705 46.561 11.9473 46.2435 11.9473 45.7144V33.016C11.9473 32.5927 12.2647 32.1694 12.7938 32.1694C13.2171 32.1694 13.6404 32.4869 13.6404 33.016V45.7144C13.6404 46.2435 13.3229 46.561 12.7938 46.561Z" fill="#2B2929"/>
<path d="M66.7629 51.0058C65.5989 51.0058 64.6465 50.0534 64.6465 48.8894V29.8417C64.6465 28.6777 65.5989 27.7253 66.7629 27.7253C71.419 27.7253 75.2285 31.5349 75.2285 36.191V42.5402C75.2285 47.3021 71.5248 51.0058 66.7629 51.0058Z" fill="white"/>
<path d="M66.7614 51.852C65.1741 51.852 63.9043 50.5821 63.9043 48.889V29.8414C63.9043 28.2541 65.1741 26.8784 66.7614 26.8784C71.8408 26.8784 76.0736 31.0054 76.0736 36.1906V42.5398C76.0736 47.725 71.9466 51.852 66.7614 51.852ZM66.7614 28.5715C66.0207 28.5715 65.4916 29.2065 65.4916 29.9472V48.9948C65.4916 49.7356 66.1265 50.3705 66.7614 50.3705C70.9942 50.3705 74.4863 46.8784 74.4863 42.6456V36.2964C74.4863 31.9578 70.9942 28.5715 66.7614 28.5715Z" fill="#2B2929"/>
<path d="M69.9364 46.561C69.5131 46.561 69.0898 46.2435 69.0898 45.7144V33.016C69.0898 32.5927 69.4073 32.1694 69.9364 32.1694C70.3597 32.1694 70.783 32.4869 70.783 33.016V45.7144C70.783 46.2435 70.4655 46.561 69.9364 46.561Z" fill="#2B2929"/>
<path d="M23.4813 18.5187C23.5871 18.5187 23.5871 18.4129 23.4813 18.5187C23.2697 18.6245 22.9522 18.8362 22.6348 18.942C23.058 18.8362 23.2697 18.7304 23.4813 18.5187Z" fill="#FFBC57"/>
<path d="M41.3652 5.50317C32.8996 5.50317 25.1747 8.57196 19.2488 13.7571C18.1906 14.6037 18.1906 16.191 19.143 17.1434L20.4128 18.4132C21.2594 19.2598 22.635 19.2598 23.5874 18.519C28.3493 14.3921 34.5927 11.9582 41.471 11.9582C48.2435 11.9582 54.5927 14.3921 59.3546 18.519C60.307 19.2598 61.6827 19.2598 62.5292 18.4132L63.7991 17.1434C64.7515 16.191 64.7515 14.6037 63.6933 13.7571C57.6615 8.67778 49.8308 5.50317 41.3652 5.50317Z" fill="white"/>
<path d="M60.8371 19.8945C60.0963 19.8945 59.3556 19.6828 58.8265 19.1537C53.9588 14.9209 47.8212 12.6987 41.3662 12.6987C35.017 12.6987 28.8794 15.0268 24.0117 19.1537C22.7418 20.2119 20.9429 20.2119 19.7789 19.0479L18.509 17.7781C17.8741 17.1432 17.5566 16.2966 17.5566 15.45C17.5566 14.6035 17.9799 13.7569 18.6148 13.2278C24.8582 7.83099 32.9006 4.76221 41.2603 4.76221C49.6201 4.76221 57.6625 7.72517 63.9058 13.2278C64.5408 13.7569 64.964 14.6035 64.964 15.45C64.964 16.2966 64.6466 17.1432 64.0117 17.7781L62.7418 19.0479C62.4244 19.577 61.5778 19.8945 60.8371 19.8945ZM41.3662 11.1114C48.1387 11.1114 54.5937 13.5453 59.7789 17.8839C60.4138 18.413 61.2603 18.413 61.8953 17.7781L63.1651 16.5082C63.4826 16.1908 63.5884 15.7675 63.5884 15.3442C63.5884 14.9209 63.3767 14.4977 63.0593 14.286C57.0275 9.20665 49.3027 6.34951 41.3662 6.34951C33.4297 6.34951 25.7048 9.20665 19.7789 14.3918C19.4614 14.7093 19.2498 15.0268 19.2498 15.45C19.2498 15.8733 19.3556 16.2966 19.673 16.6141L20.9429 17.8839C21.472 18.413 22.4244 18.5188 23.0593 17.9897C28.1387 13.5453 34.6995 11.1114 41.3662 11.1114Z" fill="#2B2929"/>
</svg>
