<svg width="74" height="42" viewBox="0 0 74 42" fill="none" xmlns="http://www.w3.org/2000/svg">
<path d="M7.23477 14.4V40.8C7.23477 41.52 6.75246 42 6.02898 42H1.2058C0.482318 42 0 41.52 0 40.8V14.4C0 13.68 0.482318 13.2 1.2058 13.2H6.02898C6.75246 13.2 7.23477 13.8 7.23477 14.4ZM72.7942 13.2H67.971C67.2476 13.2 66.7652 13.68 66.7652 14.4V40.8C66.7652 41.52 67.2476 42 67.971 42H72.7942C73.5177 42 74 41.52 74 40.8V14.4C74 13.8 73.5177 13.2 72.7942 13.2Z" fill="#FFBC57"/>
<path d="M64.3538 21.6V28.8C64.3538 29.52 63.8714 30 63.148 30H10.8523C10.1288 30 9.64648 29.52 9.64648 28.8V21.6C9.64648 20.88 10.1288 20.4 10.8523 20.4H63.148C63.8714 20.4 64.3538 20.88 64.3538 21.6ZM10.8523 18H25.0687C25.7922 18 26.2745 17.52 26.2745 16.8V1.2C26.2745 0.48 25.7922 0 25.0687 0H10.8523C10.1288 0 9.64648 0.48 9.64648 1.2V16.8C9.64648 17.52 10.1288 18 10.8523 18ZM29.8919 18H44.1083C44.8318 18 45.3141 17.52 45.3141 16.8V1.2C45.3141 0.48 44.8318 0 44.1083 0H29.8919C29.1684 0 28.6861 0.48 28.6861 1.2V16.8C28.6861 17.52 29.1684 18 29.8919 18ZM63.148 0H48.9315C48.208 0 47.7257 0.48 47.7257 1.2V16.8C47.7257 17.52 48.208 18 48.9315 18H63.148C63.8714 18 64.3538 17.52 64.3538 16.8V1.2C64.3538 0.48 63.8714 0 63.148 0ZM63.148 32.4H10.8523C10.1288 32.4 9.64648 32.88 9.64648 33.6V40.8C9.64648 41.52 10.1288 42 10.8523 42H17.8339C18.5574 42 19.0397 41.52 19.0397 40.8V39.6H54.9605V40.8C54.9605 41.52 55.4428 42 56.1663 42H63.148C63.8714 42 64.3538 41.52 64.3538 40.8V33.6C64.3538 32.88 63.8714 32.4 63.148 32.4Z" fill="#FFBC57"/>
</svg>
