<svg width="168" height="42" viewBox="0 0 168 42" fill="none" xmlns="http://www.w3.org/2000/svg">
<path d="M16.5257 32.5284H12.8926V30.6589H22.0381V32.5284H18.405V41.7509H16.4004V32.5284H16.5257ZM31.0584 41.7509H24.4185V30.6589H30.8078V32.5284H26.2977V35.2702H30.3067V37.1397H26.2977V40.0061H30.9331V41.7509H31.0584ZM40.705 30.6589H42.9601L39.2017 36.018L43.0854 41.6263H40.8303L37.9488 37.5136L35.0674 41.6263H32.8123L36.696 36.018L32.9376 30.6589H35.1927L37.9488 34.6471L40.705 30.6589ZM54.486 41.7509H52.4815V37.015H47.4702V41.7509H45.4657V30.6589H47.4702V35.1456H52.6068V30.6589H54.486V41.7509ZM57.3674 36.2673C57.3674 34.6471 57.8686 33.2762 58.9961 32.1545C60.1236 31.0328 61.5017 30.5343 63.1304 30.5343C64.7591 30.5343 66.1372 31.0328 67.2647 32.1545C68.3922 33.2762 68.8933 34.6471 68.8933 36.2673C68.8933 37.8874 68.3922 39.2584 67.2647 40.38C66.1372 41.5017 64.7591 42.0002 63.1304 42.0002C61.5017 42.0002 60.1236 41.5017 58.9961 40.38C57.8686 39.2584 57.3674 37.8874 57.3674 36.2673ZM59.372 36.2673C59.372 37.3889 59.7478 38.2613 60.3742 39.0091C61.0006 39.7569 62.0029 40.1308 63.0051 40.1308C64.1326 40.1308 65.0096 39.7569 65.7613 39.0091C66.3877 38.2613 66.7635 37.3889 66.7635 36.2673C66.7635 35.1456 66.3877 34.1486 65.636 33.5254C64.8843 32.7776 64.0074 32.4038 63.0051 32.4038C61.8776 32.4038 61.0006 32.7776 60.3742 33.5254C59.7478 34.1486 59.372 35.1456 59.372 36.2673ZM79.9181 41.7509H78.0389V32.5284H74.7816L74.531 34.6471C74.4057 35.8934 74.2804 37.015 74.0299 37.8874C73.7793 38.7598 73.654 39.5076 73.4035 40.0061C73.1529 40.5046 72.9023 41.0032 72.5265 41.2524C72.1507 41.5017 71.9001 41.7509 71.5242 41.7509C71.1484 41.8756 70.7726 41.8756 70.2714 41.7509V39.8815C70.522 39.8815 70.6473 39.8815 70.8978 39.8815C71.0231 39.8815 71.2737 39.6322 71.399 39.383C71.6495 39.1337 71.7748 38.7598 71.9001 38.2613C72.2759 37.1397 72.5265 35.3949 72.7771 32.9023L72.9023 30.6589H79.9181V41.7509ZM82.7996 36.2673C82.7996 34.6471 83.3007 33.2762 84.4282 32.1545C85.5558 31.0328 86.9339 30.5343 88.5625 30.5343C90.1912 30.5343 91.5693 31.0328 92.6968 32.1545C93.8243 33.2762 94.3254 34.6471 94.3254 36.2673C94.3254 37.8874 93.8243 39.2584 92.6968 40.38C91.5693 41.5017 90.1912 42.0002 88.5625 42.0002C86.9339 42.0002 85.5558 41.5017 84.4282 40.38C83.3007 39.2584 82.7996 37.8874 82.7996 36.2673ZM84.9293 36.2673C84.9293 37.3889 85.3052 38.2613 85.9316 39.0091C86.558 39.7569 87.5603 40.1308 88.5625 40.1308C89.69 40.1308 90.567 39.7569 91.3187 39.0091C91.9451 38.2613 92.321 37.3889 92.321 36.2673C92.321 35.1456 91.9451 34.1486 91.1934 33.5254C90.4417 32.7776 89.5648 32.4038 88.5625 32.4038C87.435 32.4038 86.558 32.7776 85.9316 33.5254C85.1799 34.1486 84.9293 35.1456 84.9293 36.2673ZM99.2114 41.7509H97.2069V30.6589H103.471V32.5284H99.2114V41.7509ZM108.106 41.7509H106.102V30.6589H108.106V41.7509ZM110.988 28.7895C110.988 28.5403 111.113 28.291 111.238 28.0417C111.489 27.9171 111.74 27.7925 111.99 27.7925C112.241 27.7925 112.491 27.9171 112.742 28.0417C112.992 28.1664 112.992 28.4156 112.992 28.7895C112.992 29.1634 112.867 29.4127 112.742 29.5373C112.617 29.6619 112.366 29.7865 111.99 29.7865C111.74 29.7865 111.489 29.6619 111.238 29.5373C111.113 29.288 110.988 29.0388 110.988 28.7895ZM114.245 41.7509H112.241V30.6589H114.245V41.7509ZM113.619 28.7895C113.619 28.5403 113.744 28.291 113.869 28.0417C114.12 27.9171 114.37 27.7925 114.621 27.7925C114.872 27.7925 115.122 27.9171 115.373 28.0417C115.623 28.291 115.623 28.4156 115.623 28.7895C115.623 29.1634 115.498 29.4127 115.373 29.5373C115.247 29.7865 114.997 29.7865 114.621 29.7865C114.245 29.7865 113.995 29.6619 113.869 29.5373C113.744 29.288 113.619 29.0388 113.619 28.7895ZM129.905 39.2584L130.657 40.7539C130.281 41.1278 129.78 41.3771 129.154 41.6263C128.527 41.8756 127.776 42.0002 127.149 42.0002C125.395 42.0002 124.017 41.5017 123.015 40.38C122.013 39.383 121.386 38.0121 121.386 36.2673C121.386 34.6471 121.887 33.2762 122.89 32.1545C123.892 31.0328 125.27 30.5343 127.024 30.5343C128.402 30.5343 129.53 30.9082 130.406 31.656L129.53 33.1515C128.778 32.653 127.901 32.4038 127.024 32.4038C126.022 32.4038 125.145 32.7776 124.393 33.4008C123.767 34.1486 123.391 35.021 123.391 36.2673C123.391 37.3889 123.767 38.386 124.393 39.1337C125.145 39.8815 126.022 40.2554 127.149 40.2554C128.277 40.1308 129.154 39.8815 129.905 39.2584ZM142.183 41.7509H140.304V37.015H135.167V41.7509H133.163V30.6589H135.167V35.1456H140.304V30.6589H142.183V41.7509ZM153.082 30.6589H155.087L151.328 39.1337C150.953 40.0061 150.451 40.6293 150.076 41.1278C149.575 41.5017 149.073 41.7509 148.322 41.7509C147.57 41.7509 147.194 41.6263 146.818 41.2524L147.445 39.6322C147.695 39.7569 147.946 39.8815 148.322 39.8815C148.823 39.8815 149.199 39.6322 149.449 39.1337L149.575 38.7598L144.689 30.6589H146.944L150.577 36.8904L153.082 30.6589Z" fill="white"/>
<path d="M10.6439 11.715L21.4181 24.8011H14.5276L5.88319 13.9583V24.8011H0.496094V0.249141H5.88319V10.2195L14.1518 0.249141H20.7917L10.6439 11.715ZM120.516 5.35893H128.032V24.8011H133.42V5.35893H140.936V0.249141H120.39V5.35893H120.516ZM36.953 14.9554L44.5951 24.8011H38.0805L31.6911 16.077H29.6866V24.8011H24.2995V0.249141H24.926C26.0535 0.249141 27.3063 0.249141 28.6844 0.249141C30.0625 0.249141 31.19 0.249141 32.067 0.249141C39.5839 0.249141 41.2125 4.48653 41.2125 8.10077C41.2125 9.97021 40.7114 11.5904 39.7092 12.8367C38.8322 13.7091 37.9552 14.4569 36.953 14.9554ZM30.3131 5.35893C30.0625 5.35893 29.9372 5.35893 29.6866 5.35893V10.9672H31.6911C32.8187 10.9672 33.8209 10.718 34.5726 10.0948C35.199 9.59632 35.5749 8.84855 35.5749 7.97614C35.5749 6.72985 35.199 5.2343 31.8164 5.2343C31.6911 5.2343 31.5659 5.2343 31.3153 5.2343C31.0647 5.35893 30.6889 5.35893 30.3131 5.35893ZM111.871 0.249141L122.27 24.8011H116.507L114.126 18.8189H104.981L102.6 24.8011H97.088L107.361 0.249141H111.871ZM109.491 7.72689L106.985 13.7091H111.996L109.491 7.72689ZM167.496 12.5874C167.496 16.2017 166.243 19.3174 163.863 21.6853C161.483 24.0533 158.351 25.2996 154.717 25.2996C151.084 25.2996 147.952 24.1779 145.572 21.81C143.192 19.442 141.939 16.4509 141.939 12.7121C141.939 9.22244 143.192 6.10671 145.572 3.73876C147.952 1.3708 151.084 0.124512 154.717 0.124512C158.351 0.124512 161.483 1.24617 163.863 3.61413C166.243 5.73282 167.496 8.84855 167.496 12.5874ZM159.979 17.9465C161.357 16.4509 161.984 14.7061 161.984 12.4628C161.984 10.2195 161.357 8.47466 159.854 6.97911C158.476 5.60819 156.722 4.86042 154.717 4.86042C152.588 4.86042 150.959 5.60819 149.581 6.97911C148.203 8.35003 147.576 10.2195 147.576 12.4628C147.576 14.7061 148.203 16.4509 149.581 17.8218C150.959 19.3174 152.588 19.9405 154.717 19.9405C156.972 20.0652 158.601 19.442 159.979 17.9465ZM94.0812 0.249141L87.8172 16.4509L81.3025 0.249141H75.5396L85.6874 24.8011H89.6964L99.5936 0.249141H94.0812Z" fill="white"/>
<path d="M71.1011 2.49432C69.594 0.997728 67.5844 0.124716 65.4493 0.124716C63.3142 0.124716 61.3047 0.997728 59.7976 2.49432L59.4208 2.86847L58.9184 2.3696C57.4113 0.873012 55.4017 0 53.2666 0C51.1315 0 49.122 0.873012 47.6148 2.3696C46.1077 3.8662 45.2285 5.86165 45.2285 7.98182C45.2285 10.102 46.1077 12.0975 47.6148 13.594L58.5416 24.4443C58.7928 24.6938 59.044 24.8185 59.4208 24.8185C59.7975 24.8185 60.0487 24.6938 60.2999 24.4443L71.2267 13.594C72.7339 12.0975 73.613 10.102 73.613 7.98182C73.613 5.86165 72.7338 3.99091 71.1011 2.49432Z" fill="#00B5FF"/>
<mask id="mask0_155_9091" style="mask-type:alpha" maskUnits="userSpaceOnUse" x="45" y="0" width="29" height="25">
<path d="M71.1011 2.49432C69.594 0.997728 67.5844 0.124716 65.4493 0.124716C63.3142 0.124716 61.3047 0.997728 59.7976 2.49432L59.4208 2.86847L58.9184 2.3696C57.4113 0.873012 55.4017 0 53.2666 0C51.1315 0 49.122 0.873012 47.6148 2.3696C46.1077 3.8662 45.2285 5.86165 45.2285 7.98182C45.2285 10.102 46.1077 12.0975 47.6148 13.594L58.5416 24.4443C58.7928 24.6938 59.044 24.8185 59.4208 24.8185C59.7975 24.8185 60.0487 24.6938 60.2999 24.4443L71.2267 13.594C72.7339 12.0975 73.613 10.102 73.613 7.98182C73.613 5.86165 72.7338 3.99091 71.1011 2.49432Z" fill="#00B5FF"/>
</mask>
<g mask="url(#mask0_155_9091)">
<rect x="44.293" y="10.3228" width="30.0675" height="15.0844" fill="#FFBC00"/>
</g>
</svg>
