<svg width="80" height="80" viewBox="0 0 80 80" fill="none" xmlns="http://www.w3.org/2000/svg">
<path d="M13.9651 73.8179C21.6778 73.8179 27.9302 67.5655 27.9302 59.8528C27.9302 52.1401 21.6778 45.8877 13.9651 45.8877C6.25238 45.8877 0 52.1401 0 59.8528C0 67.5655 6.25238 73.8179 13.9651 73.8179Z" fill="#FFBC57"/>
<path d="M36.2103 24.9402C42.8212 24.9402 48.1804 19.581 48.1804 12.9701C48.1804 6.35919 42.8212 1 36.2103 1C29.5994 1 24.2402 6.35919 24.2402 12.9701C24.2402 19.581 29.5994 24.9402 36.2103 24.9402Z" fill="#FFBC57"/>
<path d="M60.0497 78.8055C71.0679 78.8055 79.9999 69.8735 79.9999 58.8554C79.9999 47.8372 71.0679 38.9053 60.0497 38.9053C49.0316 38.9053 40.0996 47.8372 40.0996 58.8554C40.0996 69.8735 49.0316 78.8055 60.0497 78.8055Z" fill="#FFBC57"/>
<path d="M41.1975 73.7178C58.8266 73.7178 73.1177 59.4267 73.1177 41.7976C73.1177 24.1686 58.8266 9.87744 41.1975 9.87744C23.5685 9.87744 9.27734 24.1686 9.27734 41.7976C9.27734 59.4267 23.5685 73.7178 41.1975 73.7178Z" fill="white"/>
<path d="M41.1967 74.4165C23.1419 74.4165 8.47852 59.7532 8.47852 41.6983C8.47852 23.6434 23.1419 9.07983 41.1967 9.07983C59.2516 9.07983 73.8152 23.7432 73.8152 41.798C73.8152 59.8529 59.1518 74.4165 41.1967 74.4165ZM41.1967 10.5761C23.9399 10.5761 9.97478 24.5412 9.97478 41.798C9.97478 58.9552 23.9399 73.02 41.1967 73.02C58.3538 73.02 72.4187 59.0549 72.4187 41.798C72.3189 24.5412 58.3538 10.5761 41.1967 10.5761Z" fill="#2B2929"/>
<path d="M40.5992 29.8276L34.3149 25.6381C30.2251 22.9449 24.8386 23.5434 21.5468 27.1344L16.26 32.8202C15.2625 33.9174 14.7638 35.3139 14.9633 36.8102L18.9533 68.2316C19.1528 69.8277 20.6491 71.0247 22.2451 70.8252L43.9907 68.1319C45.5867 67.9324 46.7837 66.4361 46.5842 64.8401L42.6939 33.4187C42.5942 31.9224 41.7962 30.6257 40.5992 29.8276Z" fill="white"/>
<path d="M21.9441 71.5238C21.1461 71.5238 20.3481 71.2245 19.6498 70.7258C18.8518 70.1273 18.3531 69.2295 18.2533 68.232L14.3631 36.9103C14.1636 35.2146 14.6623 33.5188 15.8593 32.3218L21.1461 26.636C24.7371 22.7457 30.5227 22.0475 34.9117 25.04L41.196 29.2295C42.5925 30.1273 43.4902 31.6235 43.6897 33.3193L47.58 64.7407C47.6798 65.7383 47.4803 66.7358 46.782 67.5338C46.1835 68.3318 45.2858 68.8305 44.2882 68.9303L22.5426 71.6235C22.2434 71.5238 22.0439 71.5238 21.9441 71.5238ZM28.8269 24.641C26.3331 24.641 23.9391 25.6385 22.1436 27.6335L16.8568 33.3193C16.0588 34.2171 15.6598 35.5138 15.7596 36.7108L19.6498 68.0325C19.7496 68.631 20.0488 69.1298 20.5476 69.5288C21.0464 69.9278 21.6449 70.0275 22.2434 70.0275L43.989 67.3343C44.5875 67.2345 45.0863 66.9353 45.4853 66.4365C45.8843 65.9378 45.984 65.3393 45.984 64.7407L42.0937 33.3193C41.8942 32.1223 41.2957 31.025 40.2982 30.3268L33.9142 26.237C32.4179 25.2395 30.6224 24.641 28.8269 24.641Z" fill="#2B2929"/>
<path d="M46.0843 20.0521L38.9023 17.7579C34.3137 16.2616 29.2265 18.3564 27.0319 22.7454L23.5407 29.6282C22.9422 30.9249 22.9422 32.5209 23.5407 33.8177L35.9098 62.9449C36.608 64.4411 38.3038 65.1394 39.8 64.5409L60.0494 55.8626C61.5457 55.2641 62.2439 53.4686 61.6454 51.9723L49.1766 22.8451C48.5781 21.5484 47.4808 20.5509 46.0843 20.0521Z" fill="white"/>
<path d="M38.6023 65.4391C37.1061 65.4391 35.8093 64.5413 35.111 63.1448L22.8417 34.1174C22.1435 32.5213 22.2432 30.8256 22.9415 29.3293L26.4327 22.4465C28.8268 17.7583 34.2133 15.464 39.2008 17.06L46.3829 19.3543C47.9789 19.853 49.2756 21.05 49.8741 22.5463L62.2432 51.6735C63.0412 53.5687 62.1435 55.7632 60.2482 56.5612L40.0986 65.1398C39.5998 65.3393 39.1011 65.4391 38.6023 65.4391ZM35.909 18.0575C32.5175 18.0575 29.4253 19.9528 27.8292 23.1448L24.338 30.0276C23.7395 31.1248 23.7395 32.4216 24.2382 33.6186L36.6073 62.646C37.1061 63.7433 38.4028 64.3418 39.5998 63.843L59.7494 55.2645C60.8467 54.7657 61.4452 53.469 60.9465 52.272L48.4776 23.1448C47.9789 22.0475 47.0811 21.1498 45.8841 20.7508L38.7021 18.4565C37.8043 18.1573 36.8068 18.0575 35.909 18.0575Z" fill="#2B2929"/>
<path d="M35.8093 32.4214C35.1111 32.4214 34.5126 32.3216 33.8143 32.0224C32.5175 31.5236 31.52 30.5261 30.9215 29.2294C30.323 27.9326 30.323 26.5361 30.9215 25.2394C31.4203 23.9426 32.4178 22.9451 33.7146 22.3466C35.0113 21.7481 36.4078 21.7481 37.7046 22.3466C39.0013 22.8453 39.9988 23.8428 40.5973 25.1396C41.1958 26.4364 41.1958 27.8329 40.5973 29.1296C40.0986 30.4264 39.1011 31.4239 37.8043 32.0224C37.2058 32.2219 36.5076 32.4214 35.8093 32.4214ZM35.8093 23.4438C35.3106 23.4438 34.8118 23.5436 34.3131 23.7431C33.4153 24.1421 32.717 24.8403 32.318 25.7381C31.919 26.6359 31.919 27.6334 32.318 28.6309C32.717 29.5286 33.4153 30.2269 34.3131 30.6259C35.2108 31.0249 36.2083 31.0249 37.2058 30.6259C38.1036 30.2269 38.8018 29.5286 39.2008 28.6309C39.5998 27.7331 39.5998 26.7356 39.2008 25.7381C38.8018 24.8403 38.1036 24.1421 37.1061 23.7431C36.8068 23.5436 36.3081 23.4438 35.8093 23.4438Z" fill="#2B2929"/>
<path d="M37.4066 28.4311C36.2096 28.4311 35.4116 27.8326 35.0126 27.3339C34.1148 26.2366 34.0151 24.5409 34.6136 22.4461C34.7133 22.0471 35.1123 21.8476 35.5113 21.9474C35.9103 22.0471 36.1098 22.4461 36.0101 22.8451C35.5113 24.3414 35.6111 25.7379 36.1098 26.3364C36.4091 26.7354 36.9078 26.8351 37.5063 26.8351C39.9004 26.6356 43.2919 23.5434 44.8879 20.0521C46.0849 17.5583 45.8854 15.8626 45.3866 15.1643C45.0874 14.7653 44.5886 14.5658 43.9901 14.5658C42.4939 14.6656 40.4989 15.9623 38.8031 17.9573C38.5038 18.2566 38.1048 18.3563 37.7058 18.0571C37.4066 17.7578 37.3068 17.3588 37.6061 16.9598C39.6011 14.6656 41.8954 13.1693 43.8904 12.9698C45.0874 12.87 46.0849 13.269 46.6834 14.1668C47.6809 15.5633 47.4814 17.9573 46.2844 20.5508C44.3891 24.6406 40.5986 28.0321 37.6061 28.2316C37.6061 28.4311 37.5063 28.4311 37.4066 28.4311Z" fill="#2B2929"/>
<path d="M39.7003 58.5562C39.6006 58.5562 39.5008 58.5562 39.4011 58.4565C39.0021 58.257 38.8026 57.858 39.0021 57.459L47.9796 35.2146C48.1792 34.8156 48.5782 34.6161 48.9772 34.8156C49.3762 35.0151 49.5757 35.4141 49.3762 35.8131L40.3986 58.0575C40.2989 58.3567 39.9996 58.5562 39.7003 58.5562Z" fill="#FFBC57"/>
<path d="M39.8006 42.6956C40.4989 44.1918 39.7009 45.9873 38.2046 46.6856C36.7084 47.3838 34.9128 46.5858 34.2146 45.0896C33.5163 43.5933 34.3143 41.7978 35.8106 41.0996C37.4066 40.4013 39.2021 41.0996 39.8006 42.6956Z" fill="white"/>
<path d="M37.0074 47.5835C36.5086 47.5835 36.0099 47.4838 35.6109 47.2843C34.7131 46.8853 33.9151 46.187 33.5161 45.2893C32.7181 43.394 33.6158 41.1995 35.5111 40.3017C37.4064 39.5037 39.6009 40.4015 40.4986 42.2967C40.8976 43.1945 40.8976 44.2918 40.4986 45.1895C40.0996 46.0873 39.4014 46.8853 38.5036 47.2843C38.0049 47.4838 37.5061 47.5835 37.0074 47.5835ZM37.0074 41.5985C36.7081 41.5985 36.4089 41.6982 36.1096 41.798C34.9126 42.2967 34.4138 43.5935 34.9126 44.7905C35.1121 45.389 35.6109 45.788 36.1096 45.9875C36.7081 46.187 37.3066 46.187 37.8054 45.9875C38.4039 45.788 38.8029 45.2893 39.0024 44.7905C39.2019 44.192 39.2019 43.5935 39.0024 43.0947C38.7031 42.0972 37.9051 41.5985 37.0074 41.5985Z" fill="#FFBC57"/>
<path d="M54.0643 48.3815C54.7626 49.8778 53.9646 51.6733 52.4683 52.3716C50.972 53.0698 49.1765 52.2718 48.4783 50.7756C47.78 49.2793 48.578 47.4838 50.0743 46.7855C51.6703 46.187 53.4658 46.8853 54.0643 48.3815Z" fill="white"/>
<path d="M51.271 53.3687C49.7748 53.3687 48.3783 52.4709 47.7798 51.0744C46.9818 49.1792 47.8795 46.9846 49.7748 46.0869C51.67 45.2889 53.8645 46.1866 54.7623 48.0819C55.5603 49.9772 54.6626 52.1717 52.7673 53.0694C52.2685 53.2689 51.7698 53.3687 51.271 53.3687ZM51.271 47.2839C50.9718 47.2839 50.6725 47.3836 50.3733 47.4834C49.1763 47.9821 48.6775 49.2789 49.1763 50.4759C49.675 51.6729 50.9718 52.1717 52.1688 51.6729C53.3658 51.1742 53.8645 49.8774 53.3658 48.6804C53.0665 47.8824 52.1688 47.2839 51.271 47.2839Z" fill="#FFBC57"/>
<path d="M22.343 54.9648C21.944 54.9648 21.6447 54.6656 21.6447 54.2666L19.8492 39.6032C19.7494 39.2042 20.0487 38.8052 20.5474 38.8052C20.9464 38.7055 21.3454 39.0047 21.3454 39.5035L23.141 54.1668C23.141 54.5658 22.8417 54.8651 22.343 54.9648C22.343 54.9648 22.4427 54.9648 22.343 54.9648Z" fill="#2B2929"/>
<path d="M23.4407 63.4438C23.0417 63.4438 22.7425 63.1446 22.7425 62.7456L22.2437 58.7555C22.144 58.3565 22.4432 57.9575 22.942 57.9575C23.341 57.9575 23.74 58.157 23.74 58.6558L24.2387 62.6458C24.139 62.9451 23.9395 63.3441 23.4407 63.4438Z" fill="#2B2929"/>
</svg>
