<svg width="80" height="80" viewBox="0 0 80 80" fill="none" xmlns="http://www.w3.org/2000/svg">
<path d="M66.1729 40.8023C73.8094 40.8023 80 34.6116 80 26.9751C80 19.3386 73.8094 13.1479 66.1729 13.1479C58.5363 13.1479 52.3457 19.3386 52.3457 26.9751C52.3457 34.6116 58.5363 40.8023 66.1729 40.8023Z" fill="#FFBC57"/>
<path d="M34.2718 24.7037C40.8174 24.7037 46.1236 19.3974 46.1236 12.8519C46.1236 6.30625 40.8174 1 34.2718 1C27.7262 1 22.4199 6.30625 22.4199 12.8519C22.4199 19.3974 27.7262 24.7037 34.2718 24.7037Z" fill="#FFBC57"/>
<path d="M19.7531 78.5308C30.6624 78.5308 39.5062 69.6871 39.5062 58.7777C39.5062 47.8684 30.6624 39.0247 19.7531 39.0247C8.84376 39.0247 0 47.8684 0 58.7777C0 69.6871 8.84376 78.5308 19.7531 78.5308Z" fill="#FFBC57"/>
<path d="M69.0361 41.6289L63.9003 39.4561H50.0732C47.9003 39.4561 46.1226 37.6783 46.1226 35.5055V20.6907H39.209V60.1968H66.6658C67.4559 60.1968 68.246 59.9006 68.7398 59.308L69.925 58.1228C70.5176 57.5302 70.8139 56.8388 70.8139 56.0487V44.2956C70.8139 43.1104 70.1226 42.024 69.0361 41.6289Z" fill="white"/>
<path d="M63.1102 41.6289L57.9744 39.4561H50.0732C47.9003 39.4561 46.1226 37.6783 46.1226 35.5055V20.6907H39.209V60.1968H60.7398C61.53 60.1968 62.3201 59.9006 62.8139 59.308L63.9991 58.1228C64.5917 57.5302 64.888 56.8388 64.888 56.0487V44.2956C64.888 43.1104 64.1966 42.024 63.1102 41.6289Z" fill="white"/>
<path d="M60.9375 47.3574L63.9005 53.2833H70.814V47.3574H60.9375Z" fill="white"/>
<path d="M60.9375 47.3574L62.9128 51.308H66.8634C67.456 51.308 67.8511 50.913 67.8511 50.3204V47.3574H60.9375Z" fill="white"/>
<path d="M70.8138 53.9748H63.9003C63.604 53.9748 63.4064 53.7773 63.2089 53.5797L60.2459 47.6538C60.1472 47.4563 60.1472 47.16 60.2459 46.9624C60.3447 46.7649 60.641 46.5674 60.8385 46.5674H70.7151C71.1101 46.5674 71.5052 46.8637 71.5052 47.3575V53.2834C71.604 53.6785 71.3077 53.9748 70.8138 53.9748ZM64.3941 52.4933H70.1225V48.0489H62.2213L64.3941 52.4933Z" fill="#2B2929"/>
<path d="M50.0737 39.4561H63.9008L56.2959 23.9499C55.3082 21.9746 53.2342 20.6907 50.9626 20.6907H46.123V35.5055C46.123 37.6783 47.9008 39.4561 50.0737 39.4561Z" fill="white"/>
<path d="M56.2959 23.9499C55.3082 21.9746 53.2342 20.6907 50.9626 20.6907H46.123C48.2959 20.6907 50.37 21.9746 51.3576 23.9499L58.9626 39.4561H63.9008L56.2959 23.9499Z" fill="white"/>
<path d="M63.8999 40.1478H50.0728C47.5049 40.1478 45.332 38.0737 45.332 35.5058V20.691C45.332 20.2959 45.6283 19.9009 46.1222 19.9009H50.9617C53.5296 19.9009 55.8012 21.2836 56.9864 23.654L64.5913 39.1601C64.6901 39.3577 64.6901 39.654 64.5913 39.8515C64.3938 40.049 64.1962 40.1478 63.8999 40.1478ZM46.9123 21.3824V35.5058C46.9123 37.2836 48.3938 38.6663 50.1715 38.6663H62.8135L55.7024 24.2466C54.8135 22.4688 53.0357 21.3824 51.0604 21.3824H46.9123V21.3824Z" fill="#2B2929"/>
<path d="M9.58078 12.7896C8.49436 12.7896 7.60547 13.6784 7.60547 14.7649V58.2216C7.60547 59.3081 8.49436 60.197 9.58078 60.197H39.2104V14.7649C39.2104 13.6784 38.3215 12.7896 37.2351 12.7896H9.58078V12.7896Z" fill="white"/>
<path d="M9.58078 12.7896C8.49436 12.7896 7.60547 13.6784 7.60547 14.7649V55.2587H31.3092C32.3956 55.2587 33.2845 54.3698 33.2845 53.2834V12.7896H9.58078V12.7896Z" fill="white"/>
<path d="M39.2095 60.8886H9.57988C8.0984 60.8886 6.81445 59.7035 6.81445 58.1232V14.6664C6.91322 13.1849 8.0984 11.9998 9.57988 11.9998H37.2342C38.7157 11.9998 39.9996 13.1849 39.9996 14.7652V60.1973C39.9996 60.5923 39.7033 60.8886 39.2095 60.8886ZM9.57988 13.4812C8.88853 13.4812 8.29593 14.0738 8.29593 14.7652V58.222C8.29593 58.9133 8.88853 59.5059 9.57988 59.5059H38.5182V14.7652C38.5182 14.0738 37.9256 13.4812 37.2342 13.4812H9.57988Z" fill="#2B2929"/>
<path d="M66.6668 60.8884H39.21C38.815 60.8884 38.4199 60.5921 38.4199 60.0983V20.5921C38.4199 20.1971 38.7162 19.802 39.21 19.802H46.1236C46.5187 19.802 46.9137 20.0983 46.9137 20.5921V35.4069C46.9137 37.1847 48.3952 38.5674 50.173 38.5674H64.0002C64.0989 38.5674 64.1977 38.5674 64.2965 38.6662L69.4323 40.839C70.815 41.4316 71.7039 42.7156 71.7039 44.1971V55.8514C71.7039 56.839 71.3088 57.7279 70.6175 58.518L69.4323 59.7032C68.5434 60.4934 67.6545 60.8884 66.6668 60.8884ZM40.0002 59.4069H66.6668C67.2594 59.4069 67.852 59.2094 68.2471 58.7156L69.4323 57.5304C69.8273 57.1353 70.1236 56.5427 70.1236 55.9501V44.2958C70.1236 43.4069 69.6298 42.6168 68.7409 42.2218L63.8026 40.0489H50.0742C47.5063 40.0489 45.3335 37.9748 45.3335 35.4069V21.3822H39.9014V59.4069H40.0002Z" fill="#2B2929"/>
<path d="M23.4064 66.1228C26.6792 66.1228 29.3323 63.4697 29.3323 60.1969C29.3323 56.9241 26.6792 54.271 23.4064 54.271C20.1336 54.271 17.4805 56.9241 17.4805 60.1969C17.4805 63.4697 20.1336 66.1228 23.4064 66.1228Z" fill="white"/>
<path d="M26.5675 55.0613C27.1601 55.9502 27.4564 57.0366 27.4564 58.123C27.4564 61.3823 24.7897 64.0489 21.5305 64.0489C20.4441 64.0489 19.3576 63.7526 18.4688 63.16C19.5552 64.8391 21.3329 66.0242 23.5058 66.0242C26.765 66.0242 29.4317 63.3576 29.4317 60.0983C29.3329 58.0242 28.2465 56.1477 26.5675 55.0613Z" fill="white"/>
<path d="M23.4075 66.8142C19.7531 66.8142 16.6914 63.8512 16.6914 60.0981C16.6914 56.4438 19.6544 53.3821 23.4075 53.3821C27.1605 53.3821 30.1235 56.345 30.1235 60.0981C30.1235 63.8512 27.1605 66.8142 23.4075 66.8142ZM23.4075 54.9623C20.5433 54.9623 18.1729 57.3327 18.1729 60.1969C18.1729 63.0611 20.5433 65.4315 23.4075 65.4315C26.2717 65.4315 28.642 63.0611 28.642 60.1969C28.642 57.3327 26.2717 54.9623 23.4075 54.9623Z" fill="#2B2929"/>
<path d="M23.4069 62.1723C24.4979 62.1723 25.3823 61.2879 25.3823 60.197C25.3823 59.1061 24.4979 58.2217 23.4069 58.2217C22.316 58.2217 21.4316 59.1061 21.4316 60.197C21.4316 61.2879 22.316 62.1723 23.4069 62.1723Z" fill="white"/>
<path d="M23.408 62.8636C21.9265 62.8636 20.6426 61.6784 20.6426 60.0982C20.6426 58.6167 21.8278 57.3328 23.408 57.3328C24.9883 57.3328 26.1734 58.5179 26.1734 60.0982C26.1734 61.6784 24.9883 62.8636 23.408 62.8636ZM23.408 58.913C22.7167 58.913 22.1241 59.5056 22.1241 60.197C22.1241 60.8883 22.7167 61.4809 23.408 61.4809C24.0994 61.4809 24.692 60.8883 24.692 60.197C24.692 59.5056 24.0994 58.913 23.408 58.913Z" fill="#2B2929"/>
<path d="M55.0119 66.1228C58.2847 66.1228 60.9378 63.4697 60.9378 60.1969C60.9378 56.9241 58.2847 54.271 55.0119 54.271C51.7391 54.271 49.0859 56.9241 49.0859 60.1969C49.0859 63.4697 51.7391 66.1228 55.0119 66.1228Z" fill="white"/>
<path d="M58.173 55.0613C58.7656 55.9502 59.0619 57.0366 59.0619 58.123C59.0619 61.3823 56.3952 64.0489 53.1359 64.0489C52.0495 64.0489 50.9631 63.7526 50.0742 63.16C51.1606 64.8391 52.9384 66.0242 55.1113 66.0242C58.3705 66.0242 61.0372 63.3576 61.0372 60.0983C60.9384 58.0242 59.852 56.1477 58.173 55.0613Z" fill="white"/>
<path d="M55.0129 66.8142C51.3586 66.8142 48.2969 63.8512 48.2969 60.0981C48.2969 56.4438 51.2598 53.3821 55.0129 53.3821C58.6672 53.3821 61.729 56.345 61.729 60.0981C61.729 63.8512 58.766 66.8142 55.0129 66.8142ZM55.0129 54.9623C52.1487 54.9623 49.7784 57.3327 49.7784 60.1969C49.7784 63.0611 52.1487 65.4315 55.0129 65.4315C57.8771 65.4315 60.2475 63.0611 60.2475 60.1969C60.2475 57.3327 57.8771 54.9623 55.0129 54.9623Z" fill="#2B2929"/>
<path d="M55.0124 62.1723C56.1034 62.1723 56.9877 61.2879 56.9877 60.197C56.9877 59.1061 56.1034 58.2217 55.0124 58.2217C53.9215 58.2217 53.0371 59.1061 53.0371 60.197C53.0371 61.2879 53.9215 62.1723 55.0124 62.1723Z" fill="white"/>
<path d="M55.0115 62.8636C53.53 62.8636 52.2461 61.6784 52.2461 60.0982C52.2461 58.6167 53.4313 57.3328 55.0115 57.3328C56.493 57.3328 57.777 58.5179 57.777 60.0982C57.777 61.6784 56.5918 62.8636 55.0115 62.8636ZM55.0115 58.913C54.3202 58.913 53.7276 59.5056 53.7276 60.197C53.7276 60.8883 54.3202 61.4809 55.0115 61.4809C55.7029 61.4809 56.2955 60.8883 56.2955 60.197C56.2955 59.5056 55.7029 58.913 55.0115 58.913Z" fill="#2B2929"/>
<path d="M51.0611 44.0983H47.1104C46.7154 44.0983 46.3203 43.802 46.3203 43.3082C46.3203 42.9131 46.6166 42.5181 47.1104 42.5181H51.0611C51.4561 42.5181 51.8512 42.8144 51.8512 43.3082C51.8512 43.802 51.5549 44.0983 51.0611 44.0983Z" fill="#2B2929"/>
<path d="M34.2705 38.1723H12.5421C12.147 38.1723 11.752 37.876 11.752 37.3822C11.752 36.9871 12.0482 36.592 12.5421 36.592H34.2705C34.6655 36.592 35.0606 36.8883 35.0606 37.3822C35.0606 37.876 34.7643 38.1723 34.2705 38.1723Z" fill="#FFBC57"/>
<path d="M34.2705 44.0983H12.5421C12.147 44.0983 11.752 43.802 11.752 43.3082C11.752 42.9131 12.0482 42.5181 12.5421 42.5181H34.2705C34.6655 42.5181 35.0606 42.8144 35.0606 43.3082C35.0606 43.802 34.7643 44.0983 34.2705 44.0983Z" fill="#FFBC57"/>
<path d="M34.2705 50.0241H12.5421C12.147 50.0241 11.752 49.7278 11.752 49.234C11.752 48.8389 12.0482 48.4438 12.5421 48.4438H34.2705C34.6655 48.4438 35.0606 48.7401 35.0606 49.234C35.0606 49.7278 34.7643 50.0241 34.2705 50.0241Z" fill="#FFBC57"/>
<path d="M34.2705 32.2463H12.5421C12.147 32.2463 11.752 31.95 11.752 31.4561C11.752 31.0611 12.0482 30.666 12.5421 30.666H34.2705C34.6655 30.666 35.0606 30.9623 35.0606 31.4561C35.0606 31.95 34.7643 32.2463 34.2705 32.2463Z" fill="#FFBC57"/>
<path d="M34.2705 26.3205H12.5421C12.147 26.3205 11.752 26.0242 11.752 25.5304C11.752 25.1353 12.0482 24.7402 12.5421 24.7402H34.2705C34.6655 24.7402 35.0606 25.0365 35.0606 25.5304C35.0606 26.0242 34.7643 26.3205 34.2705 26.3205Z" fill="#2B2929"/>
<path d="M34.2705 20.3945H12.5421C12.147 20.3945 11.752 20.0982 11.752 19.6043C11.752 19.2093 12.0482 18.8142 12.5421 18.8142H34.2705C34.6655 18.8142 35.0606 19.1105 35.0606 19.6043C35.0606 20.0982 34.7643 20.3945 34.2705 20.3945Z" fill="#2B2929"/>
</svg>
