<svg width="15" height="15" viewBox="0 0 15 15" fill="none" xmlns="http://www.w3.org/2000/svg">
<path d="M15 0.996875V14C15 14.55 14.5531 14.9969 14.0031 14.9969H9.54688L9.51562 9.39375H11.7312V6.97188H9.5L9.49063 5.55C9.49063 5.15 9.8125 4.82812 10.2125 4.82812H11.7281V2.21875H8.69687C7.69375 2.21875 6.88125 3.03125 6.88125 4.03125L6.89687 6.97188H4.75313V9.39375H6.90938L6.9375 15H1C0.446875 15 0 14.5531 0 14.0031V0.996875C0 0.446875 0.446875 0 0.996875 0H14C14.5531 0 15 0.446875 15 0.996875Z" fill="white"/>
</svg>
