<svg width="20" height="16" viewBox="0 0 20 16" fill="none" xmlns="http://www.w3.org/2000/svg">
<path d="M0 2.21627V1.69913C0 1.36491 0.131696 1.04438 0.366117 0.808058C0.600537 0.571732 0.918479 0.438965 1.25 0.438965L18.75 0.438965C19.0815 0.438965 19.3995 0.571732 19.6339 0.808058C19.8683 1.04438 20 1.36491 20 1.69913V2.21627L10 8.51708L0 2.21627ZM10.3313 9.79457C10.2319 9.85709 10.1171 9.89023 10 9.89023C9.88288 9.89023 9.76811 9.85709 9.66875 9.79457L0 3.70231V14.3008C0 14.635 0.131696 14.9555 0.366117 15.1918C0.600537 15.4281 0.918479 15.5609 1.25 15.5609H18.75C19.0815 15.5609 19.3995 15.4281 19.6339 15.1918C19.8683 14.9555 20 14.635 20 14.3008V3.70231L10.3313 9.79457Z" fill="#9700FF"/>
</svg>
