<svg width="14" height="18" viewBox="0 0 14 18" fill="none" xmlns="http://www.w3.org/2000/svg">
<path d="M7 0.869873C5.23249 0.87181 3.53795 1.55768 2.28814 2.77701C1.03833 3.99634 0.335313 5.64955 0.333328 7.37394C0.333328 10.0203 2.3025 12.2178 4.38833 14.5439C5.04833 15.2804 5.73166 16.0422 6.34 16.813C6.41784 16.9115 6.51783 16.9913 6.63225 17.0462C6.74667 17.1011 6.87248 17.1296 7 17.1296C7.12751 17.1296 7.25332 17.1011 7.36774 17.0462C7.48216 16.9913 7.58215 16.9115 7.66 16.813C8.26833 16.0422 8.95166 15.2804 9.61166 14.5439C11.6975 12.2178 13.6667 10.0203 13.6667 7.37394C13.6647 5.64955 12.9617 3.99634 11.7118 2.77701C10.462 1.55768 8.7675 0.87181 7 0.869873ZM7 9.81296C6.50554 9.81296 6.02219 9.66992 5.61107 9.40191C5.19995 9.13391 4.87952 8.75299 4.6903 8.30731C4.50108 7.86164 4.45157 7.37123 4.54803 6.89811C4.64449 6.42498 4.8826 5.99039 5.23223 5.64929C5.58186 5.30818 6.02732 5.07589 6.51227 4.98178C6.99722 4.88767 7.49989 4.93597 7.9567 5.12057C8.41352 5.30518 8.80397 5.61779 9.07867 6.01889C9.35337 6.41998 9.5 6.89154 9.5 7.37394C9.5 8.02081 9.2366 8.64118 8.76776 9.09859C8.29892 9.556 7.66304 9.81296 7 9.81296Z" fill="#9700FF"/>
</svg>
