<svg width="20" height="14" viewBox="0 0 20 14" fill="none" xmlns="http://www.w3.org/2000/svg">
<path d="M17.3398 0.445312C15.0742 0.296875 11.5352 0.164062 10 0.164062C8.46484 0.164062 4.92578 0.296875 2.66016 0.445312C1.51562 0.523437 0.625 1.47266 0.625 2.62109V11.3789C0.625 12.5273 1.51562 13.4766 2.66016 13.5547C4.92578 13.7031 8.46484 13.8359 10 13.8359C11.5352 13.8359 15.0742 13.7031 17.3398 13.5547C18.4844 13.4805 19.375 12.5273 19.375 11.3789V2.62109C19.375 1.47266 18.4844 0.523437 17.3398 0.445312ZM8.28516 9.9375V4.0625L13.3711 7L8.28516 9.9375Z" fill="white"/>
</svg>
