<svg width="250" height="42" viewBox="0 0 250 42" fill="none" xmlns="http://www.w3.org/2000/svg">
<path d="M98.5262 32.5282H94.8931V30.6588H104.039V32.5282H100.405V41.7507H98.4009V32.5282H98.5262ZM113.059 41.7507H106.419V30.6588H112.808V32.5282H108.298V35.27H112.307V37.1395H108.298V40.0059H112.934V41.7507H113.059ZM122.706 30.6588H124.961L121.202 36.0178L125.086 41.6261H122.831L119.949 37.5134L117.068 41.6261H114.813L118.697 36.0178L114.938 30.6588H117.193L119.949 34.6469L122.706 30.6588ZM136.486 41.7507H134.482V37.0148H129.471V41.7507H127.466V30.6588H129.471V35.1454H134.607V30.6588H136.486V41.7507ZM139.368 36.2671C139.368 34.6469 139.869 33.276 140.997 32.1543C142.124 31.0326 143.502 30.5341 145.131 30.5341C146.76 30.5341 148.138 31.0326 149.265 32.1543C150.393 33.276 150.894 34.6469 150.894 36.2671C150.894 37.8872 150.393 39.2582 149.265 40.3798C148.138 41.5015 146.76 42 145.131 42C143.502 42 142.124 41.5015 140.997 40.3798C139.869 39.2582 139.368 37.8872 139.368 36.2671ZM141.372 36.2671C141.372 37.3887 141.748 38.2611 142.375 39.0089C143.001 39.7567 144.003 40.1306 145.006 40.1306C146.133 40.1306 147.01 39.7567 147.762 39.0089C148.388 38.2611 148.764 37.3887 148.764 36.2671C148.764 35.1454 148.388 34.1484 147.637 33.5252C146.885 32.7774 146.008 32.4036 145.006 32.4036C143.878 32.4036 143.001 32.7774 142.375 33.5252C141.748 34.1484 141.372 35.1454 141.372 36.2671ZM161.919 41.7507H160.039V32.5282H156.782L156.531 34.6469C156.406 35.8932 156.281 37.0148 156.03 37.8872C155.78 38.7596 155.655 39.5074 155.404 40.0059C155.153 40.5045 154.903 41.003 154.527 41.2522C154.151 41.5015 153.901 41.7507 153.525 41.7507C153.149 41.8754 152.773 41.8754 152.272 41.7507V39.8813C152.522 39.8813 152.648 39.8813 152.898 39.8813C153.024 39.8813 153.274 39.632 153.399 39.3828C153.65 39.1335 153.775 38.7596 153.901 38.2611C154.276 37.1395 154.527 35.3947 154.778 32.9021L154.903 30.6588H161.919V41.7507ZM164.8 36.2671C164.8 34.6469 165.301 33.276 166.429 32.1543C167.556 31.0326 168.934 30.5341 170.563 30.5341C172.192 30.5341 173.57 31.0326 174.697 32.1543C175.825 33.276 176.326 34.6469 176.326 36.2671C176.326 37.8872 175.825 39.2582 174.697 40.3798C173.57 41.5015 172.192 42 170.563 42C168.934 42 167.556 41.5015 166.429 40.3798C165.301 39.2582 164.8 37.8872 164.8 36.2671ZM166.93 36.2671C166.93 37.3887 167.306 38.2611 167.932 39.0089C168.558 39.7567 169.561 40.1306 170.563 40.1306C171.691 40.1306 172.567 39.7567 173.319 39.0089C173.946 38.2611 174.321 37.3887 174.321 36.2671C174.321 35.1454 173.946 34.1484 173.194 33.5252C172.442 32.7774 171.565 32.4036 170.563 32.4036C169.435 32.4036 168.558 32.7774 167.932 33.5252C167.18 34.1484 166.93 35.1454 166.93 36.2671ZM181.212 41.7507H179.207V30.6588H185.471V32.5282H181.212V41.7507ZM190.107 41.7507H188.102V30.6588H190.107V41.7507ZM192.988 28.7893C192.988 28.5401 193.114 28.2908 193.239 28.0415C193.489 27.9169 193.74 27.7923 193.991 27.7923C194.241 27.7923 194.492 27.9169 194.742 28.0415C194.993 28.1662 194.993 28.4154 194.993 28.7893C194.993 29.1632 194.868 29.4125 194.742 29.5371C194.617 29.6617 194.366 29.7863 193.991 29.7863C193.74 29.7863 193.489 29.6617 193.239 29.5371C193.114 29.2878 192.988 29.0386 192.988 28.7893ZM196.246 41.7507H194.241V30.6588H196.246V41.7507ZM195.619 28.7893C195.619 28.5401 195.745 28.2908 195.87 28.0415C196.12 27.9169 196.371 27.7923 196.622 27.7923C196.872 27.7923 197.123 27.9169 197.373 28.0415C197.624 28.2908 197.624 28.4154 197.624 28.7893C197.624 29.1632 197.498 29.4125 197.373 29.5371C197.248 29.7863 196.997 29.7863 196.622 29.7863C196.246 29.7863 195.995 29.6617 195.87 29.5371C195.745 29.2878 195.619 29.0386 195.619 28.7893ZM211.906 39.2582L212.658 40.7537C212.282 41.1276 211.781 41.3769 211.154 41.6261C210.528 41.8754 209.776 42 209.15 42C207.396 42 206.018 41.5015 205.015 40.3798C204.013 39.3828 203.387 38.0119 203.387 36.2671C203.387 34.6469 203.888 33.276 204.89 32.1543C205.892 31.0326 207.27 30.5341 209.024 30.5341C210.402 30.5341 211.53 30.908 212.407 31.6558L211.53 33.1513C210.778 32.6528 209.901 32.4036 209.024 32.4036C208.022 32.4036 207.145 32.7774 206.393 33.4006C205.767 34.1484 205.391 35.0208 205.391 36.2671C205.391 37.3887 205.767 38.3858 206.393 39.1335C207.145 39.8813 208.022 40.2552 209.15 40.2552C210.277 40.1306 211.154 39.8813 211.906 39.2582ZM224.183 41.7507H222.304V37.0148H217.168V41.7507H215.163V30.6588H217.168V35.1454H222.304V30.6588H224.183V41.7507ZM235.083 30.6588H237.087L233.329 39.1335C232.953 40.0059 232.452 40.6291 232.076 41.1276C231.575 41.5015 231.074 41.7507 230.322 41.7507C229.571 41.7507 229.195 41.6261 228.819 41.2522L229.445 39.632C229.696 39.7567 229.946 39.8813 230.322 39.8813C230.823 39.8813 231.199 39.632 231.45 39.1335L231.575 38.7596L226.689 30.6588H228.944L232.577 36.8902L235.083 30.6588Z" fill="#535353"/>
<path d="M92.6449 11.7151L103.419 24.8012H96.5286L87.8842 13.9585V24.8012H82.4971V0.249263H87.8842V10.2196L96.1527 0.249263H102.793L92.6449 11.7151ZM202.517 5.35906H210.033V24.8012H215.421V5.35906H222.937V0.249263H202.391V5.35906H202.517ZM118.954 14.9555L126.596 24.8012H120.081L113.692 16.0772H111.688V24.8012H106.301V0.249263H106.927C108.054 0.249263 109.307 0.249263 110.685 0.249263C112.063 0.249263 113.191 0.249263 114.068 0.249263C121.585 0.249263 123.213 4.48665 123.213 8.1009C123.213 9.97033 122.712 11.5905 121.71 12.8368C120.833 13.7092 119.956 14.457 118.954 14.9555ZM112.314 5.35906C112.063 5.35906 111.938 5.35906 111.688 5.35906V10.9674H113.692C114.82 10.9674 115.822 10.7181 116.574 10.095C117.2 9.59644 117.576 8.84867 117.576 7.97627C117.576 6.72998 117.2 5.23443 113.817 5.23443C113.692 5.23443 113.567 5.23443 113.316 5.23443C113.066 5.35906 112.69 5.35906 112.314 5.35906ZM193.872 0.249263L204.271 24.8012H198.508L196.127 18.819H186.982L184.601 24.8012H179.089L189.362 0.249263H193.872ZM191.492 7.72701L188.986 13.7092H193.997L191.492 7.72701ZM249.497 12.5875C249.497 16.2018 248.244 19.3175 245.864 21.6855C243.484 24.0534 240.352 25.2997 236.718 25.2997C233.085 25.2997 229.953 24.178 227.573 21.8101C225.192 19.4421 223.94 16.451 223.94 12.7122C223.94 9.22256 225.192 6.10683 227.573 3.73888C229.953 1.37092 233.085 0.124634 236.718 0.124634C240.352 0.124634 243.484 1.2463 245.864 3.61425C248.244 5.73294 249.497 8.84867 249.497 12.5875ZM241.98 17.9466C243.358 16.451 243.985 14.7062 243.985 12.4629C243.985 10.2196 243.358 8.47478 241.855 6.97923C240.477 5.60831 238.723 4.86054 236.718 4.86054C234.589 4.86054 232.96 5.60831 231.582 6.97923C230.204 8.35015 229.577 10.2196 229.577 12.4629C229.577 14.7062 230.204 16.451 231.582 17.822C232.96 19.3175 234.589 19.9407 236.718 19.9407C238.973 20.0653 240.602 19.4421 241.98 17.9466ZM176.082 0.249263L169.818 16.451L163.304 0.249263H157.541L167.688 24.8012H171.697L181.595 0.249263H176.082V0.249263Z" fill="#535353"/>
<path d="M153.102 2.49432C151.595 0.997728 149.585 0.124716 147.45 0.124716C145.315 0.124716 143.306 0.997728 141.799 2.49432L141.422 2.86847L140.919 2.3696C139.412 0.873012 137.403 0 135.268 0C133.132 0 131.123 0.873012 129.616 2.3696C128.109 3.8662 127.229 5.86165 127.229 7.98182C127.229 10.102 128.109 12.0975 129.616 13.594L140.543 24.4443C140.794 24.6938 141.045 24.8185 141.422 24.8185C141.799 24.8185 142.05 24.6938 142.301 24.4443L153.228 13.594C154.735 12.0975 155.614 10.102 155.614 7.98182C155.614 5.86165 154.735 3.99091 153.102 2.49432Z" fill="#00B5FF"/>
<mask id="mask0_620_13714" style="mask-type:alpha" maskUnits="userSpaceOnUse" x="127" y="0" width="29" height="25">
<path d="M153.102 2.49432C151.595 0.997728 149.585 0.124716 147.45 0.124716C145.315 0.124716 143.306 0.997728 141.799 2.49432L141.422 2.86847L140.919 2.3696C139.412 0.873012 137.403 0 135.268 0C133.132 0 131.123 0.873012 129.616 2.3696C128.109 3.8662 127.229 5.86165 127.229 7.98182C127.229 10.102 128.109 12.0975 129.616 13.594L140.543 24.4443C140.794 24.6938 141.045 24.8185 141.422 24.8185C141.799 24.8185 142.05 24.6938 142.301 24.4443L153.228 13.594C154.735 12.0975 155.614 10.102 155.614 7.98182C155.614 5.86165 154.735 3.99091 153.102 2.49432Z" fill="#00B5FF"/>
</mask>
<g mask="url(#mask0_620_13714)">
<rect x="126.293" y="10.3227" width="30.0675" height="15.0844" fill="#FFBC00"/>
</g>
<path d="M7.23477 14.4V40.8C7.23477 41.52 6.75246 42 6.02898 42H1.2058C0.482318 42 0 41.52 0 40.8V14.4C0 13.68 0.482318 13.2 1.2058 13.2H6.02898C6.75246 13.2 7.23477 13.8 7.23477 14.4ZM72.7942 13.2H67.971C67.2476 13.2 66.7652 13.68 66.7652 14.4V40.8C66.7652 41.52 67.2476 42 67.971 42H72.7942C73.5177 42 74 41.52 74 40.8V14.4C74 13.8 73.5177 13.2 72.7942 13.2Z" fill="#FFBC57"/>
<path d="M64.3538 21.6V28.8C64.3538 29.52 63.8715 30 63.148 30H10.8523C10.1288 30 9.64648 29.52 9.64648 28.8V21.6C9.64648 20.88 10.1288 20.4 10.8523 20.4H63.148C63.8715 20.4 64.3538 20.88 64.3538 21.6ZM10.8523 18H25.0687C25.7922 18 26.2745 17.52 26.2745 16.8V1.2C26.2745 0.48 25.7922 0 25.0687 0H10.8523C10.1288 0 9.64648 0.48 9.64648 1.2V16.8C9.64648 17.52 10.1288 18 10.8523 18ZM29.8919 18H44.1083C44.8318 18 45.3141 17.52 45.3141 16.8V1.2C45.3141 0.48 44.8318 0 44.1083 0H29.8919C29.1684 0 28.6861 0.48 28.6861 1.2V16.8C28.6861 17.52 29.1684 18 29.8919 18ZM63.148 0H48.9315C48.2081 0 47.7257 0.48 47.7257 1.2V16.8C47.7257 17.52 48.2081 18 48.9315 18H63.148C63.8715 18 64.3538 17.52 64.3538 16.8V1.2C64.3538 0.48 63.8715 0 63.148 0ZM63.148 32.4H10.8523C10.1288 32.4 9.64648 32.88 9.64648 33.6V40.8C9.64648 41.52 10.1288 42 10.8523 42H17.8339C18.5574 42 19.0397 41.52 19.0397 40.8V39.6H54.9605V40.8C54.9605 41.52 55.4428 42 56.1663 42H63.148C63.8715 42 64.3538 41.52 64.3538 40.8V33.6C64.3538 32.88 63.8715 32.4 63.148 32.4Z" fill="#FFBC57"/>
</svg>
