<svg width="32" height="32" viewBox="0 0 32 32" fill="none" xmlns="http://www.w3.org/2000/svg">
<path d="M19.6241 11.72L13.9041 17.4533L11.7041 15.2533C11.5845 15.1137 11.4374 15.0004 11.272 14.9203C11.1066 14.8403 10.9264 14.7953 10.7428 14.7882C10.5592 14.7811 10.3761 14.8121 10.205 14.8791C10.0339 14.9461 9.87847 15.0478 9.74853 15.1778C9.6186 15.3077 9.51692 15.4631 9.44989 15.6342C9.38285 15.8053 9.35191 15.9884 9.359 16.172C9.3661 16.3557 9.41107 16.5358 9.4911 16.7013C9.57113 16.8667 9.68449 17.0138 9.82407 17.1333L12.9574 20.28C13.082 20.4035 13.2297 20.5013 13.3922 20.5677C13.5546 20.634 13.7286 20.6676 13.9041 20.6666C14.2539 20.6652 14.5891 20.5263 14.8374 20.28L21.5041 13.6133C21.629 13.4893 21.7282 13.3419 21.7959 13.1794C21.8636 13.0169 21.8985 12.8426 21.8985 12.6666C21.8985 12.4906 21.8636 12.3163 21.7959 12.1539C21.7282 11.9914 21.629 11.8439 21.5041 11.72C21.2543 11.4716 20.9163 11.3322 20.5641 11.3322C20.2118 11.3322 19.8739 11.4716 19.6241 11.72ZM15.9974 2.66663C13.3603 2.66663 10.7825 3.44861 8.5898 4.9137C6.39714 6.37878 4.68818 8.46116 3.67901 10.8975C2.66984 13.3339 2.4058 16.0147 2.92026 18.6012C3.43473 21.1876 4.70461 23.5633 6.56931 25.428C8.43401 27.2927 10.8098 28.5626 13.3962 29.0771C15.9826 29.5916 18.6635 29.3275 21.0998 28.3184C23.5362 27.3092 25.6186 25.6002 27.0837 23.4076C28.5487 21.2149 29.3307 18.637 29.3307 16C29.3307 14.249 28.9859 12.5152 28.3158 10.8975C27.6457 9.27984 26.6636 7.80998 25.4255 6.57187C24.1874 5.33375 22.7175 4.35163 21.0998 3.68157C19.4822 3.0115 17.7484 2.66663 15.9974 2.66663V2.66663ZM15.9974 26.6666C13.8877 26.6666 11.8254 26.041 10.0713 24.869C8.31719 23.6969 6.95002 22.031 6.14269 20.0819C5.33535 18.1328 5.12412 15.9881 5.53569 13.919C5.94727 11.8499 6.96317 9.94925 8.45493 8.45749C9.94669 6.96573 11.8473 5.94983 13.9164 5.53825C15.9856 5.12667 18.1303 5.33791 20.0794 6.14524C22.0284 6.95258 23.6943 8.31975 24.8664 10.0739C26.0385 11.828 26.6641 13.8903 26.6641 16C26.6641 18.8289 25.5403 21.542 23.5399 23.5424C21.5395 25.5428 18.8264 26.6666 15.9974 26.6666V26.6666Z" fill="#FFBC57"/>
</svg>
