<svg width="168" height="42" viewBox="0 0 168 42" fill="none" xmlns="http://www.w3.org/2000/svg">
<path d="M16.5259 32.5282H12.8927V30.6588H22.0382V32.5282H18.4051V41.7507H16.4006V32.5282H16.5259ZM31.0585 41.7507H24.4186V30.6588H30.8079V32.5282H26.2978V35.27H30.3068V37.1395H26.2978V40.0059H30.9332V41.7507H31.0585ZM40.7052 30.6588H42.9602L39.2018 36.0178L43.0855 41.6261H40.8304L37.949 37.5134L35.0675 41.6261H32.8124L36.6962 36.0178L32.9377 30.6588H35.1928L37.949 34.6469L40.7052 30.6588ZM54.4861 41.7507H52.4816V37.0148H47.4703V41.7507H45.4659V30.6588H47.4703V35.1454H52.6069V30.6588H54.4861V41.7507ZM57.3676 36.2671C57.3676 34.6469 57.8687 33.276 58.9962 32.1543C60.1238 31.0326 61.5019 30.5341 63.1305 30.5341C64.7592 30.5341 66.1373 31.0326 67.2648 32.1543C68.3923 33.276 68.8935 34.6469 68.8935 36.2671C68.8935 37.8872 68.3923 39.2582 67.2648 40.3798C66.1373 41.5015 64.7592 42 63.1305 42C61.5019 42 60.1238 41.5015 58.9962 40.3798C57.8687 39.2582 57.3676 37.8872 57.3676 36.2671ZM59.3721 36.2671C59.3721 37.3887 59.7479 38.2611 60.3743 39.0089C61.0007 39.7567 62.003 40.1306 63.0052 40.1306C64.1328 40.1306 65.0097 39.7567 65.7614 39.0089C66.3878 38.2611 66.7637 37.3887 66.7637 36.2671C66.7637 35.1454 66.3878 34.1484 65.6361 33.5252C64.8845 32.7774 64.0075 32.4036 63.0052 32.4036C61.8777 32.4036 61.0007 32.7774 60.3743 33.5252C59.7479 34.1484 59.3721 35.1454 59.3721 36.2671ZM79.9182 41.7507H78.039V32.5282H74.7817L74.5311 34.6469C74.4058 35.8932 74.2806 37.0148 74.03 37.8872C73.7794 38.7596 73.6541 39.5074 73.4036 40.0059C73.153 40.5045 72.9025 41.003 72.5266 41.2522C72.1508 41.5015 71.9002 41.7507 71.5244 41.7507C71.1485 41.8754 70.7727 41.8754 70.2715 41.7507V39.8813C70.5221 39.8813 70.6474 39.8813 70.898 39.8813C71.0232 39.8813 71.2738 39.632 71.3991 39.3828C71.6497 39.1335 71.7749 38.7596 71.9002 38.2611C72.2761 37.1395 72.5266 35.3947 72.7772 32.9021L72.9025 30.6588H79.9182V41.7507ZM82.7997 36.2671C82.7997 34.6469 83.3008 33.276 84.4283 32.1543C85.5559 31.0326 86.934 30.5341 88.5626 30.5341C90.1913 30.5341 91.5694 31.0326 92.6969 32.1543C93.8245 33.276 94.3256 34.6469 94.3256 36.2671C94.3256 37.8872 93.8245 39.2582 92.6969 40.3798C91.5694 41.5015 90.1913 42 88.5626 42C86.934 42 85.5559 41.5015 84.4283 40.3798C83.3008 39.2582 82.7997 37.8872 82.7997 36.2671ZM84.9295 36.2671C84.9295 37.3887 85.3053 38.2611 85.9317 39.0089C86.5581 39.7567 87.5604 40.1306 88.5626 40.1306C89.6902 40.1306 90.5671 39.7567 91.3188 39.0089C91.9452 38.2611 92.3211 37.3887 92.3211 36.2671C92.3211 35.1454 91.9452 34.1484 91.1935 33.5252C90.4418 32.7774 89.5649 32.4036 88.5626 32.4036C87.4351 32.4036 86.5581 32.7774 85.9317 33.5252C85.18 34.1484 84.9295 35.1454 84.9295 36.2671ZM99.2115 41.7507H97.207V30.6588H103.471V32.5282H99.2115V41.7507ZM108.107 41.7507H106.102V30.6588H108.107V41.7507ZM110.988 28.7893C110.988 28.5401 111.113 28.2908 111.239 28.0415C111.489 27.9169 111.74 27.7923 111.99 27.7923C112.241 27.7923 112.491 27.9169 112.742 28.0415C112.993 28.1662 112.993 28.4154 112.993 28.7893C112.993 29.1632 112.867 29.4125 112.742 29.5371C112.617 29.6617 112.366 29.7863 111.99 29.7863C111.74 29.7863 111.489 29.6617 111.239 29.5371C111.113 29.2878 110.988 29.0386 110.988 28.7893ZM114.245 41.7507H112.241V30.6588H114.245V41.7507ZM113.619 28.7893C113.619 28.5401 113.744 28.2908 113.869 28.0415C114.12 27.9169 114.371 27.7923 114.621 27.7923C114.872 27.7923 115.122 27.9169 115.373 28.0415C115.623 28.2908 115.623 28.4154 115.623 28.7893C115.623 29.1632 115.498 29.4125 115.373 29.5371C115.248 29.7863 114.997 29.7863 114.621 29.7863C114.245 29.7863 113.995 29.6617 113.869 29.5371C113.744 29.2878 113.619 29.0386 113.619 28.7893ZM129.905 39.2582L130.657 40.7537C130.281 41.1276 129.78 41.3769 129.154 41.6261C128.527 41.8754 127.776 42 127.149 42C125.395 42 124.017 41.5015 123.015 40.3798C122.013 39.3828 121.386 38.0119 121.386 36.2671C121.386 34.6469 121.887 33.276 122.89 32.1543C123.892 31.0326 125.27 30.5341 127.024 30.5341C128.402 30.5341 129.53 30.908 130.407 31.6558L129.53 33.1513C128.778 32.6528 127.901 32.4036 127.024 32.4036C126.022 32.4036 125.145 32.7774 124.393 33.4006C123.767 34.1484 123.391 35.0208 123.391 36.2671C123.391 37.3887 123.767 38.3858 124.393 39.1335C125.145 39.8813 126.022 40.2552 127.149 40.2552C128.277 40.1306 129.154 39.8813 129.905 39.2582ZM142.183 41.7507H140.304V37.0148H135.167V41.7507H133.163V30.6588H135.167V35.1454H140.304V30.6588H142.183V41.7507ZM153.083 30.6588H155.087L151.329 39.1335C150.953 40.0059 150.452 40.6291 150.076 41.1276C149.575 41.5015 149.074 41.7507 148.322 41.7507C147.57 41.7507 147.194 41.6261 146.818 41.2522L147.445 39.632C147.695 39.7567 147.946 39.8813 148.322 39.8813C148.823 39.8813 149.199 39.632 149.449 39.1335L149.575 38.7596L144.689 30.6588H146.944L150.577 36.8902L153.083 30.6588Z" fill="#535353"/>
<path d="M10.6447 11.7151L21.4189 24.8012H14.5285L5.88405 13.9585V24.8012H0.496948V0.249263H5.88405V10.2196L14.1526 0.249263H20.7925L10.6447 11.7151ZM120.516 5.35906H128.033V24.8012H133.42V5.35906H140.937V0.249263H120.391V5.35906H120.516ZM36.9538 14.9555L44.596 24.8012H38.0813L31.692 16.0772H29.6875V24.8012H24.3004V0.249263H24.9268C26.0543 0.249263 27.3072 0.249263 28.6852 0.249263C30.0633 0.249263 31.1909 0.249263 32.0678 0.249263C39.5847 0.249263 41.2134 4.48665 41.2134 8.1009C41.2134 9.97033 40.7123 11.5905 39.71 12.8368C38.833 13.7092 37.9561 14.457 36.9538 14.9555ZM30.3139 5.35906C30.0633 5.35906 29.9381 5.35906 29.6875 5.35906V10.9674H31.692C32.8195 10.9674 33.8218 10.7181 34.5735 10.095C35.1999 9.59645 35.5757 8.84867 35.5757 7.97627C35.5757 6.72998 35.1999 5.23443 31.8173 5.23443C31.692 5.23443 31.5667 5.23443 31.3162 5.23443C31.0656 5.35906 30.6898 5.35906 30.3139 5.35906ZM111.872 0.249263L122.27 24.8012H116.507L114.127 18.819H104.982L102.601 24.8012H97.0889L107.362 0.249263H111.872ZM109.492 7.72701L106.986 13.7092H111.997L109.492 7.72701ZM167.497 12.5875C167.497 16.2018 166.244 19.3175 163.864 21.6855C161.483 24.0534 158.351 25.2997 154.718 25.2997C151.085 25.2997 147.953 24.178 145.573 21.8101C143.192 19.4421 141.94 16.451 141.94 12.7122C141.94 9.22256 143.192 6.10683 145.573 3.73888C147.953 1.37092 151.085 0.124634 154.718 0.124634C158.351 0.124634 161.483 1.2463 163.864 3.61425C166.244 5.73294 167.497 8.84867 167.497 12.5875ZM159.98 17.9466C161.358 16.451 161.985 14.7062 161.985 12.4629C161.985 10.2196 161.358 8.47478 159.855 6.97923C158.477 5.60831 156.723 4.86054 154.718 4.86054C152.588 4.86054 150.96 5.60831 149.582 6.97923C148.204 8.35015 147.577 10.2196 147.577 12.4629C147.577 14.7062 148.204 16.451 149.582 17.822C150.96 19.3175 152.588 19.9407 154.718 19.9407C156.973 20.0653 158.602 19.4421 159.98 17.9466ZM94.0821 0.249263L87.818 16.451L81.3034 0.249263H75.5405L85.6882 24.8012H89.6972L99.5945 0.249263H94.0821Z" fill="#535353"/>
<path d="M71.1021 2.49432C69.5949 0.997728 67.5854 0.124716 65.4503 0.124716C63.3152 0.124716 61.3057 0.997728 59.7985 2.49432L59.4217 2.86847L58.9194 2.3696C57.4122 0.873012 55.4027 0 53.2676 0C51.1325 0 49.123 0.873012 47.6158 2.3696C46.1087 3.8662 45.2295 5.86165 45.2295 7.98182C45.2295 10.102 46.1087 12.0975 47.6158 13.594L58.5426 24.4443C58.7938 24.6938 59.045 24.8185 59.4217 24.8185C59.7985 24.8185 60.0497 24.6938 60.3009 24.4443L71.2277 13.594C72.7348 12.0975 73.614 10.102 73.614 7.98182C73.614 5.86165 72.7348 3.99091 71.1021 2.49432Z" fill="#00B5FF"/>
<mask id="mask0_42_166" style="mask-type:alpha" maskUnits="userSpaceOnUse" x="45" y="0" width="29" height="25">
<path d="M71.1021 2.49432C69.5949 0.997728 67.5854 0.124716 65.4503 0.124716C63.3152 0.124716 61.3057 0.997728 59.7985 2.49432L59.4217 2.86847L58.9194 2.3696C57.4122 0.873012 55.4027 0 53.2676 0C51.1325 0 49.123 0.873012 47.6158 2.3696C46.1087 3.8662 45.2295 5.86165 45.2295 7.98182C45.2295 10.102 46.1087 12.0975 47.6158 13.594L58.5426 24.4443C58.7938 24.6938 59.045 24.8185 59.4217 24.8185C59.7985 24.8185 60.0497 24.6938 60.3009 24.4443L71.2277 13.594C72.7348 12.0975 73.614 10.102 73.614 7.98182C73.614 5.86165 72.7348 3.99091 71.1021 2.49432Z" fill="#00B5FF"/>
</mask>
<g mask="url(#mask0_42_166)">
<rect x="44.2935" y="10.3227" width="30.0675" height="15.0844" fill="#FFBC00"/>
</g>
</svg>
