<svg width="74" height="42" viewBox="0 0 74 42" fill="none" xmlns="http://www.w3.org/2000/svg">
<path d="M7.23477 14.4V40.8C7.23477 41.52 6.75246 42 6.02898 42H1.2058C0.482318 42 0 41.52 0 40.8V14.4C0 13.68 0.482318 13.2 1.2058 13.2H6.02898C6.75246 13.2 7.23477 13.8 7.23477 14.4ZM72.7942 13.2H67.971C67.2476 13.2 66.7652 13.68 66.7652 14.4V40.8C66.7652 41.52 67.2476 42 67.971 42H72.7942C73.5177 42 74 41.52 74 40.8V14.4C74 13.8 73.5177 13.2 72.7942 13.2Z" fill="#FFBC57"/>
<path d="M64.3536 21.6V28.8C64.3536 29.52 63.8713 30 63.1479 30H10.8522C10.1287 30 9.64636 29.52 9.64636 28.8V21.6C9.64636 20.88 10.1287 20.4 10.8522 20.4H63.1479C63.8713 20.4 64.3536 20.88 64.3536 21.6ZM10.8522 18H25.0686C25.7921 18 26.2744 17.52 26.2744 16.8V1.2C26.2744 0.48 25.7921 0 25.0686 0H10.8522C10.1287 0 9.64636 0.48 9.64636 1.2V16.8C9.64636 17.52 10.1287 18 10.8522 18ZM29.8918 18H44.1082C44.8317 18 45.314 17.52 45.314 16.8V1.2C45.314 0.48 44.8317 0 44.1082 0H29.8918C29.1683 0 28.686 0.48 28.686 1.2V16.8C28.686 17.52 29.1683 18 29.8918 18ZM63.1479 0H48.9314C48.2079 0 47.7256 0.48 47.7256 1.2V16.8C47.7256 17.52 48.2079 18 48.9314 18H63.1479C63.8713 18 64.3536 17.52 64.3536 16.8V1.2C64.3536 0.48 63.8713 0 63.1479 0ZM63.1479 32.4H10.8522C10.1287 32.4 9.64636 32.88 9.64636 33.6V40.8C9.64636 41.52 10.1287 42 10.8522 42H17.8338C18.5573 42 19.0396 41.52 19.0396 40.8V39.6H54.9604V40.8C54.9604 41.52 55.4427 42 56.1662 42H63.1479C63.8713 42 64.3536 41.52 64.3536 40.8V33.6C64.3536 32.88 63.8713 32.4 63.1479 32.4Z" fill="#FFBC57"/>
</svg>
