<svg width="54" height="55" viewBox="0 0 54 55" fill="none" xmlns="http://www.w3.org/2000/svg">
<path d="M22.5562 0.556005C9.74767 2.74596 0 13.9019 0 27.3334C0 42.3377 12.1635 54.5 27.1666 54.5C40.5993 54.5 51.754 44.7512 53.944 31.9427C54.3748 29.4203 52.2601 27.3323 49.7007 27.3323H31.7989C29.2407 27.3323 27.1666 25.2581 27.1666 22.6999V4.79926C27.1666 2.24103 25.0785 0.125194 22.5562 0.556005Z" fill="white"/>
<path d="M31.6055 7.81599V19.7942C31.6055 21.5058 32.9929 22.8932 34.7045 22.8932H46.6827C48.3944 22.8932 49.8095 21.4954 49.5212 19.8081C48.2276 12.2411 42.2565 6.26878 34.6895 4.97519C33.0033 4.68914 31.6055 6.10433 31.6055 7.81599Z" fill="white"/>
</svg>
