<svg width="79" height="53" viewBox="0 0 79 53" fill="none" xmlns="http://www.w3.org/2000/svg">
<path d="M78.7692 18.9289L78.2009 17.5812L74.2665 15.2351L69.2757 15.2714L66.5505 12.0074L63.4105 13.2751L60.9111 12.3206L59.1772 12.9034L55.9203 7.21292L53.6105 7.01631L52.0514 0.947077L45.8145 0L44.5978 1.55908L39.3883 1.49354L37.7126 3.93446L37.5449 6.97262L35.9129 5.304L32.5831 5.87231L31.716 4.17477L25.6249 4.692L17.144 1.07108L12.3791 0.808615L8.80892 4.00708L10.2077 8.94708L3.00185 15.4317L3.512 18.98L2.14215 18.3898L0 21.3772L3.49723 25.756L10.1495 27.0237L11.592 28.6778L17.3262 27.3662L18.0329 25.9674L23.4828 24.6631L29.3043 28.1751L30.288 31.3298L32.1969 32.8163L32.0951 35.3225L33.6105 38.2225L30.2806 39.1551L29.0422 41.4575L25.676 44.4665L27.9492 46.5286L34.4631 42.9L37.6397 38.8419L39.4538 37.676L43.0095 37.1222L42.4775 38.4409L42.3098 38.696L44.3354 41.0785L50.6378 41.1077L50.9511 42.4994L45.5231 45.5302L50.3828 47.9492L50.4268 49.5523L49.5378 51.4683L51.2062 52.5612L54.0114 51.5557L60.1098 47.6142L63.9129 47.7889L64.4812 45.3698L62.3831 45.2317L59.352 46.4265L57.0425 43.6286L52.0508 40.4957L58.1643 40.0658L58.2298 40.1022L60.9988 37.3699L68.5034 34.0985L71.3738 33.8363L71.76 30.4483L74.6963 28.5683L77.9388 28.4591L78.7182 25.4428L77.312 21.4062L78.7692 18.9289Z" fill="white"/>
</svg>
