<svg width="12" height="8" viewBox="0 0 12 8" fill="none" xmlns="http://www.w3.org/2000/svg">
<path d="M6.71005 6.83L10.9501 2.59C11.0438 2.49704 11.1182 2.38644 11.1689 2.26458C11.2197 2.14272 11.2458 2.01201 11.2458 1.88C11.2458 1.74799 11.2197 1.61728 11.1689 1.49542C11.1182 1.37356 11.0438 1.26296 10.9501 1.17C10.7627 0.983749 10.5092 0.879208 10.2451 0.879208C9.98087 0.879208 9.72741 0.983749 9.54005 1.17L6.00005 4.71L2.46005 1.17C2.27269 0.983749 2.01924 0.879207 1.75505 0.879207C1.49086 0.879207 1.23741 0.983749 1.05005 1.17C0.95737 1.26344 0.884045 1.37426 0.83428 1.49609C0.784515 1.61793 0.759291 1.74839 0.760052 1.88C0.759291 2.01161 0.784515 2.14207 0.83428 2.26391C0.884045 2.38574 0.95737 2.49656 1.05005 2.59L5.29005 6.83C5.38301 6.92373 5.49362 6.99812 5.61547 7.04889C5.73733 7.09966 5.86804 7.1258 6.00005 7.1258C6.13206 7.1258 6.26277 7.09966 6.38463 7.04889C6.50649 6.99812 6.61709 6.92373 6.71005 6.83Z" fill="#535353"/>
</svg>
