<svg width="11" height="11" viewBox="0 0 11 11" fill="none" xmlns="http://www.w3.org/2000/svg">
<path d="M10.9338 0.839338C10.8432 0.621169 10.6698 0.447798 10.4517 0.357195C10.3443 0.311444 10.229 0.287177 10.1124 0.285767H1.1838C0.947 0.285767 0.719899 0.379835 0.552456 0.547279C0.385012 0.714722 0.290944 0.941823 0.290944 1.17862C0.290944 1.41542 0.385012 1.64253 0.552456 1.80997C0.719899 1.97741 0.947 2.07148 1.1838 2.07148H7.96059L0.549872 9.47327C0.466186 9.55627 0.399763 9.65502 0.354434 9.76382C0.309105 9.87263 0.285767 9.98933 0.285767 10.1072C0.285767 10.2251 0.309105 10.3418 0.354434 10.4506C0.399763 10.5594 0.466186 10.6581 0.549872 10.7411C0.632875 10.8248 0.731626 10.8912 0.840429 10.9366C0.949232 10.9819 1.06593 11.0052 1.1838 11.0052C1.30167 11.0052 1.41837 10.9819 1.52717 10.9366C1.63598 10.8912 1.73473 10.8248 1.81773 10.7411L9.21952 3.33041V10.1072C9.21952 10.344 9.31358 10.5711 9.48103 10.7385C9.64847 10.906 9.87557 11.0001 10.1124 11.0001C10.3492 11.0001 10.5763 10.906 10.7437 10.7385C10.9112 10.5711 11.0052 10.344 11.0052 10.1072V1.17862C11.0038 1.06195 10.9796 0.946679 10.9338 0.839338V0.839338Z" fill="#FFBC57"/>
</svg>
