<svg width="24" height="24" viewBox="0 0 24 24" fill="none" xmlns="http://www.w3.org/2000/svg">
<path d="M21 3.47517H15.8772C15.3249 3.47517 14.8772 3.92289 14.8772 4.47517V9.59794C14.8772 10.1502 15.3249 10.5979 15.8772 10.5979H21C21.5523 10.5979 22 10.1502 22 9.59794V4.47517C22 3.92289 21.5523 3.47517 21 3.47517Z" fill="white"/>
<path d="M11.366 6.32945L7.74361 2.70711C7.35308 2.31658 6.71992 2.31658 6.32939 2.70711L2.70705 6.32945C2.31652 6.71998 2.31652 7.35314 2.70705 7.74366L6.32939 11.366C6.71992 11.7565 7.35308 11.7565 7.74361 11.366L11.366 7.74366C11.7565 7.35314 11.7565 6.71998 11.366 6.32945Z" fill="white"/>
<path d="M9.59787 14.8772H4.4751C3.92281 14.8772 3.4751 15.3249 3.4751 15.8772V21C3.4751 21.5523 3.92281 22 4.4751 22H9.59787C10.1502 22 10.5979 21.5523 10.5979 21V15.8772C10.5979 15.3249 10.1502 14.8772 9.59787 14.8772Z" fill="white"/>
<path d="M21 14.8772H15.8772C15.3249 14.8772 14.8772 15.3249 14.8772 15.8772V21C14.8772 21.5523 15.3249 22 15.8772 22H21C21.5523 22 22 21.5523 22 21V15.8772C22 15.3249 21.5523 14.8772 21 14.8772Z" fill="white"/>
</svg>
