<svg width="50" height="50" viewBox="0 0 50 50" fill="none" xmlns="http://www.w3.org/2000/svg">
<path d="M23.225 34.275C23.4628 34.5026 23.7431 34.681 24.05 34.8C24.6587 35.0501 25.3413 35.0501 25.95 34.8C26.2569 34.681 26.5372 34.5026 26.775 34.275L34.275 26.775C34.7458 26.3043 35.0102 25.6658 35.0102 25C35.0102 24.3343 34.7458 23.6958 34.275 23.225C33.8042 22.7543 33.1658 22.4898 32.5 22.4898C31.8342 22.4898 31.1958 22.7543 30.725 23.225L27.5 26.475V17.5C27.5 16.837 27.2366 16.2011 26.7678 15.7322C26.2989 15.2634 25.663 15 25 15C24.337 15 23.7011 15.2634 23.2322 15.7322C22.7634 16.2011 22.5 16.837 22.5 17.5V26.475L19.275 23.225C19.0426 22.9907 18.7661 22.8047 18.4614 22.6778C18.1568 22.5509 17.83 22.4855 17.5 22.4855C17.17 22.4855 16.8432 22.5509 16.5386 22.6778C16.2339 22.8047 15.9574 22.9907 15.725 23.225C15.4907 23.4574 15.3047 23.7339 15.1778 24.0386C15.0508 24.3432 14.9855 24.67 14.9855 25C14.9855 25.33 15.0508 25.6568 15.1778 25.9615C15.3047 26.2661 15.4907 26.5426 15.725 26.775L23.225 34.275ZM25 50C29.9445 50 34.778 48.5338 38.8893 45.7867C43.0005 43.0397 46.2048 39.1353 48.097 34.5671C49.9892 29.9989 50.4843 24.9723 49.5196 20.1228C48.555 15.2732 46.174 10.8187 42.6777 7.32234C39.1814 3.82603 34.7268 1.44501 29.8773 0.480379C25.0277 -0.484251 20.0011 0.0108321 15.4329 1.90302C10.8648 3.79521 6.9603 6.99953 4.21326 11.1108C1.46622 15.222 0 20.0555 0 25C0 31.6304 2.63392 37.9893 7.32233 42.6777C9.6438 44.9991 12.3998 46.8406 15.4329 48.097C18.4661 49.3534 21.717 50 25 50ZM25 5.00001C28.9556 5.00001 32.8224 6.17299 36.1114 8.37062C39.4004 10.5682 41.9638 13.6918 43.4776 17.3463C44.9913 21.0009 45.3874 25.0222 44.6157 28.9018C43.844 32.7814 41.9392 36.3451 39.1421 39.1421C36.3451 41.9392 32.7814 43.844 28.9018 44.6157C25.0222 45.3874 21.0009 44.9914 17.3463 43.4776C13.6918 41.9638 10.5682 39.4004 8.37061 36.1114C6.17298 32.8224 5 28.9556 5 25C5 19.6957 7.10714 14.6086 10.8579 10.8579C14.6086 7.10715 19.6957 5.00001 25 5.00001Z" fill="#FFBC57"/>
</svg>
