<svg width="70" height="70" viewBox="0 0 70 70" fill="none" xmlns="http://www.w3.org/2000/svg">
<path d="M34.9986 0C15.7004 0 0 15.7004 0 34.9986C0 54.2981 15.7004 70 34.9986 70C54.2967 70 69.9972 54.2981 69.9972 34.9986C69.9986 15.7004 54.2981 0 34.9986 0ZM54.3362 32.4399V32.4413L44.2043 39.772L48.1065 51.6986C48.1685 51.8846 48.201 52.0834 48.201 52.2864C48.201 53.3282 47.3579 54.1741 46.3161 54.1741C45.9016 54.1741 45.521 54.0416 45.2109 53.8174L35 46.4317L24.7891 53.8174C24.479 54.0416 24.0984 54.1741 23.6853 54.1741C22.6421 54.1741 21.7976 53.3296 21.7976 52.2864C21.7976 52.082 21.8315 51.8846 21.8935 51.6986L25.7971 39.772L15.6652 32.4413V32.4399C15.1915 32.0987 14.8842 31.5419 14.8842 30.9131C14.8842 29.8713 15.7272 29.0283 16.7705 29.0283H29.313L33.1969 17.1567C33.4338 16.3856 34.1513 15.8245 35.0014 15.8245C35.8501 15.8245 36.5691 16.3856 36.8045 17.1567L40.6884 29.0283H53.231C54.2728 29.0283 55.1172 29.8713 55.1172 30.9131C55.1158 31.5419 54.8085 32.0987 54.3362 32.4399Z" fill="#FFBC57"/>
</svg>
