<svg width="176" height="22" viewBox="0 0 176 22" fill="none" xmlns="http://www.w3.org/2000/svg">
<path d="M17.76 0.299998L11.49 20.25C11.41 20.45 11.28 20.63 11.1 20.79C10.92 20.93 10.71 21 10.47 21H7.8C7.54 21 7.32 20.93 7.14 20.79C6.96 20.63 6.84 20.45 6.78 20.25L0.51 0.299998H3.24L8.13 16.71C8.23 17.09 8.33 17.47 8.43 17.85C8.55 18.21 8.65 18.58 8.73 18.96H9.54C9.64 18.58 9.74 18.2 9.84 17.82C9.94 17.44 10.05 17.06 10.17 16.68L15.03 0.299998H17.76ZM20.2613 6.39V21H17.7413V6.39H20.2613ZM19.6013 0.18C20.1213 0.18 20.3813 0.439999 20.3813 0.959999V2.67C20.3813 3.19 20.1213 3.45 19.6013 3.45H18.4013C17.8813 3.45 17.6213 3.19 17.6213 2.67V0.959999C17.6213 0.439999 17.8813 0.18 18.4013 0.18H19.6013ZM26.9227 6.03C27.8827 6.03 28.8327 6.16 29.7727 6.42C30.7127 6.66 31.6127 7.04 32.4727 7.56L32.3227 9.15C31.3827 8.87 30.5527 8.65 29.8327 8.49C29.1127 8.33 28.3427 8.25 27.5227 8.25C26.6827 8.25 26.0027 8.4 25.4827 8.7C24.9827 8.98 24.6127 9.51 24.3727 10.29C24.1327 11.07 24.0127 12.18 24.0127 13.62C24.0127 15.06 24.1227 16.18 24.3427 16.98C24.5827 17.78 24.9527 18.34 25.4527 18.66C25.9527 18.98 26.5927 19.14 27.3727 19.14C27.9527 19.14 28.4727 19.07 28.9327 18.93C29.4127 18.77 29.9127 18.52 30.4327 18.18C30.9727 17.84 31.6027 17.41 32.3227 16.89L32.5627 18.69C31.7627 19.43 30.8527 20.06 29.8327 20.58C28.8127 21.1 27.7127 21.36 26.5327 21.36C24.6927 21.36 23.3727 20.71 22.5727 19.41C21.7927 18.11 21.4027 16.19 21.4027 13.65C21.4027 11.75 21.6027 10.25 22.0027 9.15C22.4027 8.03 23.0127 7.23 23.8327 6.75C24.6527 6.27 25.6827 6.03 26.9227 6.03ZM34.5427 -1.43051e-06V21H32.5627L32.2627 18.45L31.9927 18.24V8.22L32.1727 7.77C32.0927 7.21 32.0427 6.67 32.0227 6.15C32.0027 5.63 31.9927 5.08 31.9927 4.5V-1.43051e-06H34.5427ZM42.2599 6.03C44.4599 6.03 46.0499 6.43 47.0299 7.23C48.0299 8.03 48.5299 9.22 48.5299 10.8C48.5499 12.1 48.2799 13.12 47.7199 13.86C47.1599 14.58 46.2699 14.94 45.0499 14.94H36.5299V12.96H44.3899C45.0499 12.96 45.4799 12.74 45.6799 12.3C45.8799 11.84 45.9799 11.34 45.9799 10.8C45.9599 9.86 45.6799 9.19 45.1399 8.79C44.5999 8.39 43.6799 8.19 42.3799 8.19C41.3199 8.19 40.4799 8.35 39.8599 8.67C39.2599 8.97 38.8299 9.51 38.5699 10.29C38.3299 11.05 38.2099 12.12 38.2099 13.5C38.2099 15.06 38.3599 16.25 38.6599 17.07C38.9799 17.89 39.4799 18.45 40.1599 18.75C40.8399 19.05 41.7399 19.2 42.8599 19.2C43.6399 19.2 44.4899 19.17 45.4099 19.11C46.3499 19.03 47.1899 18.94 47.9299 18.84L48.1999 20.55C47.7399 20.73 47.1699 20.88 46.4899 21C45.8299 21.12 45.1399 21.21 44.4199 21.27C43.7199 21.33 43.0899 21.36 42.5299 21.36C40.8499 21.36 39.4999 21.11 38.4799 20.61C37.4599 20.09 36.7099 19.27 36.2299 18.15C35.7699 17.01 35.5399 15.51 35.5399 13.65C35.5399 11.73 35.7699 10.22 36.2299 9.12C36.7099 8 37.4399 7.21 38.4199 6.75C39.4199 6.27 40.6999 6.03 42.2599 6.03ZM55.5532 6.03C57.2332 6.03 58.5732 6.28 59.5732 6.78C60.5932 7.28 61.3232 8.1 61.7632 9.24C62.2032 10.36 62.4232 11.85 62.4232 13.71C62.4232 15.57 62.2032 17.07 61.7632 18.21C61.3232 19.33 60.5932 20.14 59.5732 20.64C58.5732 21.14 57.2332 21.39 55.5532 21.39C53.8932 21.39 52.5532 21.14 51.5332 20.64C50.5332 20.14 49.8032 19.33 49.3432 18.21C48.9032 17.07 48.6832 15.57 48.6832 13.71C48.6832 11.85 48.9032 10.36 49.3432 9.24C49.8032 8.1 50.5332 7.28 51.5332 6.78C52.5532 6.28 53.8932 6.03 55.5532 6.03ZM55.5532 8.19C54.4932 8.19 53.6532 8.36 53.0332 8.7C52.4332 9.02 52.0032 9.58 51.7432 10.38C51.4832 11.18 51.3532 12.29 51.3532 13.71C51.3532 15.13 51.4832 16.24 51.7432 17.04C52.0032 17.84 52.4332 18.41 53.0332 18.75C53.6532 19.07 54.4932 19.23 55.5532 19.23C56.6132 19.23 57.4532 19.07 58.0732 18.75C58.6932 18.41 59.1332 17.84 59.3932 17.04C59.6532 16.24 59.7832 15.13 59.7832 13.71C59.7832 12.29 59.6532 11.18 59.3932 10.38C59.1332 9.58 58.6932 9.02 58.0732 8.7C57.4532 8.36 56.6132 8.19 55.5532 8.19ZM74.7413 0.299998C74.9813 0.299998 75.1913 0.369999 75.3713 0.509999C75.5513 0.629999 75.6713 0.799999 75.7313 1.02L82.3913 21H79.6613L74.2913 4.02C74.2113 3.74 74.1213 3.46 74.0213 3.18C73.9413 2.88 73.8613 2.6 73.7813 2.34H72.9413C72.8613 2.6 72.7813 2.88 72.7013 3.18C72.6213 3.46 72.5313 3.74 72.4313 4.02L67.0613 21H64.3313L70.9913 1.02C71.0513 0.799999 71.1713 0.629999 71.3513 0.509999C71.5313 0.369999 71.7413 0.299998 71.9813 0.299998H74.7413ZM78.5813 12.24V14.52H68.0813V12.24H78.5813ZM84.6134 -1.43051e-06L84.5834 16.98C84.5834 17.62 84.7534 18.11 85.0934 18.45C85.4534 18.77 85.9534 18.93 86.5934 18.93H88.0034L88.3034 20.88C88.1234 20.96 87.8634 21.03 87.5234 21.09C87.2034 21.15 86.8634 21.19 86.5034 21.21C86.1634 21.25 85.8734 21.27 85.6334 21.27C84.5534 21.27 83.6834 20.95 83.0234 20.31C82.3834 19.67 82.0634 18.75 82.0634 17.55V-1.43051e-06H84.6134ZM94.1796 6.03C94.6196 6.03 95.1096 6.05 95.6496 6.09C96.1896 6.13 96.7396 6.2 97.2996 6.3C97.8796 6.4 98.4096 6.54 98.8896 6.72L98.5596 8.37C97.8996 8.31 97.1996 8.27 96.4596 8.25C95.7396 8.21 95.1196 8.19 94.5996 8.19C93.4396 8.19 92.5196 8.35 91.8396 8.67C91.1596 8.99 90.6696 9.55 90.3696 10.35C90.0696 11.15 89.9196 12.26 89.9196 13.68C89.9196 15.1 90.0696 16.22 90.3696 17.04C90.6696 17.84 91.1596 18.4 91.8396 18.72C92.5196 19.04 93.4396 19.2 94.5996 19.2C94.8996 19.2 95.2896 19.19 95.7696 19.17C96.2496 19.15 96.7596 19.12 97.2996 19.08C97.8596 19.04 98.3896 18.98 98.8896 18.9L99.1596 20.61C98.4196 20.87 97.6096 21.06 96.7296 21.18C95.8696 21.3 95.0096 21.36 94.1496 21.36C92.4696 21.36 91.1196 21.11 90.0996 20.61C89.0796 20.11 88.3396 19.3 87.8796 18.18C87.4396 17.06 87.2196 15.56 87.2196 13.68C87.2196 11.8 87.4496 10.3 87.9096 9.18C88.3696 8.06 89.1096 7.26 90.1296 6.78C91.1496 6.28 92.4996 6.03 94.1796 6.03ZM108.497 6.03C111.137 6.03 112.457 7.37 112.457 10.05V21H109.877V10.77C109.877 9.79 109.717 9.12 109.397 8.76C109.097 8.38 108.567 8.19 107.807 8.19C106.907 8.19 106.007 8.4 105.107 8.82C104.207 9.24 103.137 9.85 101.897 10.65L101.777 8.82C102.917 7.96 104.047 7.28 105.167 6.78C106.287 6.28 107.397 6.03 108.497 6.03ZM102.167 -1.43051e-06L102.197 5.79C102.197 6.45 102.167 7.07 102.107 7.65C102.067 8.23 101.997 8.74 101.897 9.18L102.167 9.63V21H99.6173V-1.43051e-06H102.167ZM120.049 6.03C122.249 6.03 123.839 6.43 124.819 7.23C125.819 8.03 126.319 9.22 126.319 10.8C126.339 12.1 126.069 13.12 125.509 13.86C124.949 14.58 124.059 14.94 122.839 14.94H114.319V12.96H122.179C122.839 12.96 123.269 12.74 123.469 12.3C123.669 11.84 123.769 11.34 123.769 10.8C123.749 9.86 123.469 9.19 122.929 8.79C122.389 8.39 121.469 8.19 120.169 8.19C119.109 8.19 118.269 8.35 117.649 8.67C117.049 8.97 116.619 9.51 116.359 10.29C116.119 11.05 115.999 12.12 115.999 13.5C115.999 15.06 116.149 16.25 116.449 17.07C116.769 17.89 117.269 18.45 117.949 18.75C118.629 19.05 119.529 19.2 120.649 19.2C121.429 19.2 122.279 19.17 123.199 19.11C124.139 19.03 124.979 18.94 125.719 18.84L125.989 20.55C125.529 20.73 124.959 20.88 124.279 21C123.619 21.12 122.929 21.21 122.209 21.27C121.509 21.33 120.879 21.36 120.319 21.36C118.639 21.36 117.289 21.11 116.269 20.61C115.249 20.09 114.499 19.27 114.019 18.15C113.559 17.01 113.329 15.51 113.329 13.65C113.329 11.73 113.559 10.22 114.019 9.12C114.499 8 115.229 7.21 116.209 6.75C117.209 6.27 118.489 6.03 120.049 6.03ZM144.952 6.03C146.212 6.03 147.172 6.37 147.832 7.05C148.512 7.73 148.852 8.73 148.852 10.05V21H146.332V10.77C146.312 9.87 146.132 9.22 145.792 8.82C145.452 8.4 144.872 8.19 144.052 8.19C143.532 8.19 143.032 8.28 142.552 8.46C142.092 8.62 141.582 8.88 141.022 9.24C140.462 9.6 139.782 10.07 138.982 10.65L138.832 8.85C139.892 7.91 140.922 7.21 141.922 6.75C142.922 6.27 143.932 6.03 144.952 6.03ZM129.262 6.39L129.442 9.18L129.712 9.63V21H127.162V6.39H129.262ZM135.382 6.03C136.622 6.03 137.572 6.37 138.232 7.05C138.892 7.71 139.232 8.71 139.252 10.05V21H136.792V10.77C136.792 9.83 136.602 9.17 136.222 8.79C135.842 8.39 135.272 8.19 134.512 8.19C134.012 8.19 133.522 8.27 133.042 8.43C132.582 8.59 132.062 8.85 131.482 9.21C130.922 9.57 130.232 10.05 129.412 10.65L129.232 8.85C130.292 7.91 131.322 7.21 132.322 6.75C133.322 6.27 134.342 6.03 135.382 6.03ZM153.082 6.39V21H150.562V6.39H153.082ZM152.422 0.18C152.942 0.18 153.202 0.439999 153.202 0.959999V2.67C153.202 3.19 152.942 3.45 152.422 3.45H151.222C150.702 3.45 150.442 3.19 150.442 2.67V0.959999C150.442 0.439999 150.702 0.18 151.222 0.18H152.422ZM159.743 6.03C160.383 6.03 161.063 6.05 161.783 6.09C162.503 6.13 163.213 6.18 163.913 6.24C164.633 6.3 165.293 6.38 165.893 6.48L165.683 8.34C164.763 8.3 163.833 8.27 162.893 8.25C161.973 8.21 161.053 8.19 160.133 8.19C159.233 8.17 158.523 8.19 158.003 8.25C157.483 8.31 157.103 8.47 156.863 8.73C156.643 8.99 156.533 9.43 156.533 10.05C156.533 10.81 156.713 11.31 157.073 11.55C157.433 11.79 157.963 11.99 158.663 12.15L162.923 13.11C164.083 13.39 164.933 13.82 165.473 14.4C166.033 14.98 166.313 15.89 166.313 17.13C166.313 18.33 166.083 19.23 165.623 19.83C165.183 20.43 164.503 20.83 163.583 21.03C162.663 21.23 161.493 21.33 160.073 21.33C159.553 21.33 158.773 21.31 157.733 21.27C156.713 21.23 155.583 21.11 154.343 20.91L154.523 19.05C155.003 19.07 155.513 19.1 156.053 19.14C156.593 19.16 157.153 19.17 157.733 19.17C158.333 19.17 158.943 19.17 159.563 19.17C160.663 19.17 161.523 19.12 162.143 19.02C162.763 18.92 163.203 18.73 163.463 18.45C163.723 18.15 163.853 17.71 163.853 17.13C163.853 16.41 163.643 15.93 163.223 15.69C162.803 15.45 162.243 15.25 161.543 15.09L157.343 14.13C156.543 13.93 155.903 13.67 155.423 13.35C154.943 13.01 154.593 12.58 154.373 12.06C154.153 11.52 154.043 10.85 154.043 10.05C154.043 8.91 154.243 8.05 154.643 7.47C155.043 6.89 155.663 6.5 156.503 6.3C157.343 6.1 158.423 6.01 159.743 6.03ZM170.777 2.07V16.98C170.777 17.68 170.927 18.18 171.227 18.48C171.527 18.78 172.037 18.93 172.757 18.93H174.977L175.277 20.88C174.957 20.96 174.587 21.03 174.167 21.09C173.747 21.15 173.337 21.19 172.937 21.21C172.537 21.25 172.217 21.27 171.977 21.27C170.757 21.27 169.827 20.93 169.187 20.25C168.547 19.57 168.227 18.59 168.227 17.31V2.07H170.777ZM175.427 6.39V8.4H165.587V6.54L168.467 6.39H175.427Z" fill="white"/>
</svg>
