<svg width="43" height="43" viewBox="0 0 43 43" fill="none" xmlns="http://www.w3.org/2000/svg">
<path d="M22 10.2188C27.9062 10.2188 32.7812 15.0938 32.7812 21C32.7812 27 27.9062 31.7812 22 31.7812C16 31.7812 11.2188 27 11.2188 21C11.2188 15.0938 16 10.2188 22 10.2188ZM22 28.0312C25.8438 28.0312 28.9375 24.9375 28.9375 21C28.9375 17.1562 25.8438 14.0625 22 14.0625C18.0625 14.0625 14.9688 17.1562 14.9688 21C14.9688 24.9375 18.1562 28.0312 22 28.0312ZM35.6875 9.84375C35.6875 8.4375 34.5625 7.3125 33.1562 7.3125C31.75 7.3125 30.625 8.4375 30.625 9.84375C30.625 11.25 31.75 12.375 33.1562 12.375C34.5625 12.375 35.6875 11.25 35.6875 9.84375ZM42.8125 12.375C43 15.8438 43 26.25 42.8125 29.7188C42.625 33.0938 41.875 36 39.4375 38.5312C37 40.9688 34 41.7188 30.625 41.9062C27.1562 42.0938 16.75 42.0938 13.2812 41.9062C9.90625 41.7188 7 40.9688 4.46875 38.5312C2.03125 36 1.28125 33.0938 1.09375 29.7188C0.90625 26.25 0.90625 15.8438 1.09375 12.375C1.28125 9 2.03125 6 4.46875 3.5625C7 1.125 9.90625 0.375 13.2812 0.1875C16.75 0 27.1562 0 30.625 0.1875C34 0.375 37 1.125 39.4375 3.5625C41.875 6 42.625 9 42.8125 12.375ZM38.3125 33.375C39.4375 30.6562 39.1562 24.0938 39.1562 21C39.1562 18 39.4375 11.4375 38.3125 8.625C37.5625 6.84375 36.1562 5.34375 34.375 4.6875C31.5625 3.5625 25 3.84375 22 3.84375C18.9062 3.84375 12.3438 3.5625 9.625 4.6875C7.75 5.4375 6.34375 6.84375 5.59375 8.625C4.46875 11.4375 4.75 18 4.75 21C4.75 24.0938 4.46875 30.6562 5.59375 33.375C6.34375 35.25 7.75 36.6562 9.625 37.4062C12.3438 38.5312 18.9062 38.25 22 38.25C25 38.25 31.5625 38.5312 34.375 37.4062C36.1562 36.6562 37.6562 35.25 38.3125 33.375Z" fill="white"/>
</svg>
