<svg xmlns="http://www.w3.org/2000/svg" width="80" height="80" viewBox="0 0 80 80"><g><g><path fill="currentcolor" d="M80 40L40 80 0 40 40 0zM60.826 22.962l7.096 16.283h9.187zm-1.584.143c-1.018 2.603-2.89 7.012-5.312 11.06 4.869 1.218 9.515 3.142 11.986 4.247zm4.774 16.14c-4.048-1.718-11.342-4.452-17.185-4.661a8.67 8.67 0 0 1 1.86 4.66zm-15.326 1.51a8.703 8.703 0 0 1-1.777 4.562c5.715-.227 12.777-2.844 16.845-4.562zm3.69-6.942c2.194-3.585 3.953-7.534 5.046-10.229l-9.548 9.548c1.464.113 2.983.355 4.503.681zm3.977-11.285c-2.697 1.092-6.64 2.848-10.223 5.039.326 1.517.569 3.033.682 4.493zm-10.583 3.49c4.119-2.464 8.61-4.357 11.196-5.362l-15.45-6.64c1.103 2.47 3.033 7.128 4.254 12.002zm-5.019-13.973l16.053 6.898L40.755 2.891zm0 19.266c1.731.15 3.315.806 4.61 1.82-.202-5.769-2.887-12.984-4.61-17.061zM23.677 18.459l15.568-6.422V2.89zm-1.018 2.054c2.508.96 7.244 2.92 11.568 5.504 1.225-4.901 3.17-9.58 4.271-12.038zm16.586-4.447c-1.722 4.072-4.405 11.281-4.608 17.064a8.673 8.673 0 0 1 4.608-1.82zm-7.934 23.169a8.649 8.649 0 0 1 1.863-4.658c-5.877.206-13.168 2.943-17.201 4.658zm1.772 6.066a8.672 8.672 0 0 1-1.772-4.546H16.244c4.058 1.713 11.1 4.32 16.84 4.546zm.784-17.74c-3.582-2.189-7.524-3.944-10.217-5.035l9.536 9.526c.113-1.46.355-2.975.68-4.491zm-11.288-3.97c1.09 2.691 2.843 6.632 5.031 10.213 1.516-.324 3.032-.566 4.494-.678zm3.487 10.572c-2.549-4.263-4.484-8.921-5.458-11.453l-6.563 15.722c2.458-1.105 7.123-3.046 12.021-4.269zM2.891 39.235h9.179l6.576-15.746zM18.41 56.274l-6.298-15.52H2.89zm2.1 1.158c.94-2.466 2.924-7.303 5.558-11.71-4.918-1.226-9.596-3.176-12.047-4.28zm7.108-11.352c-2.19 3.58-3.946 7.521-5.038 10.214l9.538-9.537c-1.466-.112-2.984-.352-4.5-.677zm-3.974 11.285c2.694-1.09 6.636-2.847 10.219-5.04-.325-1.516-.566-3.035-.678-4.5zm10.577-3.49c-4.33 2.59-9.07 4.547-11.574 5.506l15.85 6.529c-1.105-2.455-3.05-7.127-4.276-12.035zm5.034 13.977l-15.752-6.485 15.752 15.742zm0-19.163a8.702 8.702 0 0 1-4.613-1.815c.232 5.794 2.899 12.924 4.613 16.959zm-6.472-8.684c0 3.982 3.238 7.222 7.217 7.222 3.754 0 6.845-2.883 7.184-6.552v-1.34c-.34-3.67-3.43-6.552-7.184-6.552-3.98 0-7.217 3.24-7.217 7.222zm14.032 7.822c-.112 1.46-.354 2.975-.68 4.491 3.582 2.189 7.523 3.944 10.217 5.035zm-1.455-.953a8.677 8.677 0 0 1-4.605 1.815v15.136c1.711-4.046 4.37-11.188 4.605-16.951zm11.392 14.228l-15.997 6.746v9.261zm.396-1.8c-2.554-.987-7.16-2.912-11.373-5.43-1.223 4.89-3.16 9.556-4.262 12.018zm.264-3.004c-1.09-2.692-2.844-6.635-5.033-10.217-1.516.326-3.033.568-4.493.68zm-3.48-10.576c2.471 4.131 4.367 8.635 5.368 11.215l6.632-15.471c-2.466 1.105-7.12 3.035-12 4.256zm23.177-4.967h-9.23l-6.923 16.163z"/></g></g></svg>