<svg width="40" height="40" viewBox="0 0 40 40" fill="none" xmlns="http://www.w3.org/2000/svg">
<path d="M19.9987 3.33331C10.832 3.33331 3.33203 10.8333 3.33203 20C3.33203 29.1666 10.832 36.6666 19.9987 36.6666C29.1654 36.6666 36.6654 29.1666 36.6654 20C36.6654 10.8333 29.1654 3.33331 19.9987 3.33331ZM26.9987 17.1666L18.9987 25.1666C18.332 25.8333 17.332 25.8333 16.6654 25.1666L12.9987 21.5C12.332 20.8333 12.332 19.8333 12.9987 19.1666C13.6654 18.5 14.6654 18.5 15.332 19.1666L17.832 21.6666L24.6654 14.8333C25.332 14.1666 26.332 14.1666 26.9987 14.8333C27.6654 15.5 27.6654 16.5 26.9987 17.1666Z" fill="#FFBC57"/>
</svg>
