<svg width="40" height="40" viewBox="0 0 40 40" fill="none" xmlns="http://www.w3.org/2000/svg">
<g id="shop">
<path id="Vector" d="M27.4795 22.2814C27.2878 22.2814 27.2878 22.0897 27.0962 22.0897C29.9712 19.9814 31.5045 16.723 31.5045 13.0813C31.5045 12.698 31.5045 12.3147 31.5045 11.9313V11.7397L32.0795 7.13963C32.4629 4.07294 30.3545 1.38959 27.4795 0.814588L25.7545 0.431253C21.9211 -0.143751 18.0878 -0.143751 14.2544 0.431253L12.7211 0.814588C9.6544 1.38959 7.54606 4.07294 7.92939 7.13963L8.5044 11.7397V11.9313C8.5044 12.3147 8.5044 12.698 8.5044 13.0813C8.5044 16.5313 10.0377 19.9814 12.9128 22.0897C12.7211 22.0897 12.7211 22.2814 12.5294 22.2814C6.20438 24.9647 1.79602 30.9064 1.02935 37.8065C0.837685 38.7648 1.60436 39.7231 2.75436 39.9148C3.90437 40.1065 36.2962 39.9148 37.2546 39.9148H37.4462C38.4046 39.7231 39.1712 38.7648 39.1712 37.8065C38.2129 30.9064 33.8045 24.9647 27.4795 22.2814ZM20.0045 28.2231L16.7461 24.9647C18.8545 24.5814 20.9628 24.5814 23.0711 24.9647L20.0045 28.2231ZM20.0045 20.748C15.7878 20.748 12.5294 17.4897 12.3378 13.273H27.6712C27.4795 17.4897 24.2212 20.748 20.0045 20.748Z" fill="#535353"/>
</g>
</svg>
