<svg width="30" height="34" viewBox="0 0 30 34" fill="none" xmlns="http://www.w3.org/2000/svg">
<path d="M29.0993 13.05C28.8653 10.6148 28.0047 8.28179 26.6013 6.27802C25.1979 4.27424 23.2995 2.66804 21.091 1.61581C18.8825 0.563578 16.4391 0.101187 13.9988 0.273658C11.5586 0.44613 9.20454 1.24759 7.16598 2.59999C5.41464 3.77106 3.9444 5.31548 2.86089 7.1223C1.77737 8.92912 1.10747 10.9535 0.899313 13.05C0.695117 15.1327 0.957103 17.2348 1.66626 19.2038C2.37542 21.1727 3.51397 22.9591 4.99931 24.4333L13.8326 33.2833C13.9876 33.4395 14.1719 33.5635 14.375 33.6481C14.5781 33.7328 14.796 33.7763 15.016 33.7763C15.236 33.7763 15.4538 33.7328 15.6569 33.6481C15.86 33.5635 16.0444 33.4395 16.1993 33.2833L24.9993 24.4333C26.4847 22.9591 27.6232 21.1727 28.3324 19.2038C29.0415 17.2348 29.3035 15.1327 29.0993 13.05ZM22.666 22.0833L14.9993 29.75L7.33265 22.0833C6.2028 20.9534 5.33732 19.5872 4.79843 18.0829C4.25954 16.5786 4.06062 14.9736 4.21598 13.3833C4.37234 11.7685 4.88559 10.2086 5.7186 8.81639C6.55161 7.42419 7.68357 6.2345 9.03265 5.33332C10.8009 4.15871 12.8765 3.53214 14.9993 3.53214C17.1221 3.53214 19.1977 4.15871 20.966 5.33332C22.311 6.23101 23.4404 7.41545 24.2732 8.80155C25.1061 10.1876 25.6215 11.741 25.7826 13.35C25.9431 14.9457 25.7467 16.5571 25.2076 18.0676C24.6686 19.578 23.8004 20.9497 22.666 22.0833ZM14.9993 6.99999C13.516 6.99999 12.0659 7.43985 10.8325 8.26396C9.59917 9.08807 8.63788 10.2594 8.07022 11.6299C7.50256 13.0003 7.35404 14.5083 7.64342 15.9632C7.93281 17.418 8.64712 18.7544 9.69601 19.8033C10.7449 20.8522 12.0813 21.5665 13.5361 21.8559C14.991 22.1453 16.499 21.9967 17.8694 21.4291C19.2399 20.8614 20.4112 19.9001 21.2353 18.6668C22.0594 17.4334 22.4993 15.9833 22.4993 14.5C22.4949 12.5122 21.7033 10.6071 20.2978 9.20155C18.8922 7.79598 16.9871 7.00439 14.9993 6.99999ZM14.9993 18.6667C14.1752 18.6667 13.3696 18.4223 12.6844 17.9644C11.9992 17.5066 11.4652 16.8559 11.1498 16.0945C10.8345 15.3331 10.7519 14.4954 10.9127 13.6871C11.0735 12.8789 11.4703 12.1364 12.053 11.5537C12.6358 10.971 13.3782 10.5742 14.1864 10.4134C14.9947 10.2526 15.8325 10.3351 16.5938 10.6505C17.3552 10.9659 18.0059 11.4999 18.4638 12.1851C18.9216 12.8703 19.166 13.6759 19.166 14.5C19.166 15.6051 18.727 16.6649 17.9456 17.4463C17.1642 18.2277 16.1044 18.6667 14.9993 18.6667Z" fill="#B1B1B1"/>
</svg>
