<svg width="48" height="32" viewBox="0 0 48 32" fill="none" xmlns="http://www.w3.org/2000/svg">
<g id="master-card-logo">
<g id="Group">
<path id="Vector" d="M13.2511 28.7832V27.1347C13.2511 26.5028 12.868 26.0906 12.2113 26.0906C11.8829 26.0906 11.5272 26.2005 11.2809 26.5577C11.0894 26.2555 10.8157 26.0906 10.4053 26.0906C10.1316 26.0906 9.85801 26.1731 9.6391 26.4753V26.1456H9.06445V28.7832H9.6391V27.327C9.6391 26.8599 9.88537 26.6401 10.2685 26.6401C10.6516 26.6401 10.8431 26.8874 10.8431 27.327V28.7832H11.4177V27.327C11.4177 26.8599 11.6914 26.6401 12.0471 26.6401C12.4302 26.6401 12.6218 26.8874 12.6218 27.327V28.7832H13.2511ZM21.7613 26.1456H20.8309V25.3488H20.2563V26.1456H19.7364V26.6676H20.2563V27.8765C20.2563 28.4809 20.5026 28.8381 21.1593 28.8381C21.4056 28.8381 21.6792 28.7557 21.8708 28.6458L21.7066 28.1512C21.5424 28.2611 21.3509 28.2886 21.214 28.2886C20.9404 28.2886 20.8309 28.1238 20.8309 27.849V26.6676H21.7613V26.1456ZM26.6321 26.0906C26.3037 26.0906 26.0848 26.2555 25.948 26.4753V26.1456H25.3734V28.7832H25.948V27.2995C25.948 26.8599 26.1395 26.6127 26.4953 26.6127C26.6047 26.6127 26.7415 26.6401 26.851 26.6676L27.0152 26.1181C26.9057 26.0906 26.7415 26.0906 26.6321 26.0906ZM19.2712 26.3654C18.9976 26.1731 18.6145 26.0906 18.204 26.0906C17.5473 26.0906 17.1094 26.4203 17.1094 26.9424C17.1094 27.382 17.4378 27.6292 18.0125 27.7117L18.2861 27.7391C18.5871 27.7941 18.7513 27.8765 18.7513 28.0139C18.7513 28.2062 18.5324 28.3436 18.1493 28.3436C17.7662 28.3436 17.4652 28.2062 17.2736 28.0688L17 28.5084C17.301 28.7282 17.7114 28.8381 18.1219 28.8381C18.8881 28.8381 19.3259 28.4809 19.3259 27.9864C19.3259 27.5193 18.9702 27.2721 18.4229 27.1896L18.1493 27.1622C17.903 27.1347 17.7114 27.0797 17.7114 26.9149C17.7114 26.7226 17.903 26.6127 18.204 26.6127C18.5324 26.6127 18.8607 26.75 19.0249 26.8325L19.2712 26.3654ZM34.5403 26.0906C34.2119 26.0906 33.993 26.2555 33.8562 26.4753V26.1456H33.2815V28.7832H33.8562V27.2995C33.8562 26.8599 34.0477 26.6127 34.4035 26.6127C34.5129 26.6127 34.6497 26.6401 34.7592 26.6676L34.9234 26.1181C34.8139 26.0906 34.6497 26.0906 34.5403 26.0906ZM27.2067 27.4644C27.2067 28.2611 27.754 28.8381 28.6023 28.8381C28.9854 28.8381 29.259 28.7557 29.5327 28.5359L29.259 28.0688C29.0401 28.2337 28.8212 28.3161 28.5749 28.3161C28.1097 28.3161 27.7814 27.9864 27.7814 27.4644C27.7814 26.9698 28.1097 26.6401 28.5749 26.6127C28.8212 26.6127 29.0401 26.6951 29.259 26.8599L29.5327 26.3929C29.259 26.1731 28.9854 26.0906 28.6023 26.0906C27.754 26.0906 27.2067 26.6676 27.2067 27.4644ZM32.5153 27.4644V26.1456H31.9407V26.4753C31.7491 26.228 31.4755 26.0906 31.1198 26.0906C30.381 26.0906 29.8063 26.6676 29.8063 27.4644C29.8063 28.2611 30.381 28.8381 31.1198 28.8381C31.5029 28.8381 31.7765 28.7007 31.9407 28.4535V28.7832H32.5153V27.4644ZM30.4083 27.4644C30.4083 26.9973 30.7093 26.6127 31.2019 26.6127C31.6671 26.6127 31.9954 26.9698 31.9954 27.4644C31.9954 27.9314 31.6671 28.3161 31.2019 28.3161C30.7093 28.2886 30.4083 27.9314 30.4083 27.4644ZM23.54 26.0906C22.7738 26.0906 22.2265 26.6401 22.2265 27.4644C22.2265 28.2886 22.7738 28.8381 23.5673 28.8381C23.9504 28.8381 24.3335 28.7282 24.6345 28.4809L24.3609 28.0688C24.142 28.2337 23.8683 28.3436 23.5947 28.3436C23.239 28.3436 22.8832 28.1787 22.8011 27.7117H24.744V27.4919C24.7713 26.6401 24.2788 26.0906 23.54 26.0906ZM23.54 26.5852C23.8957 26.5852 24.142 26.805 24.1967 27.2171H22.8285C22.8832 26.8599 23.1295 26.5852 23.54 26.5852ZM37.7966 27.4644V25.1016H37.2219V26.4753C37.0304 26.228 36.7568 26.0906 36.401 26.0906C35.6622 26.0906 35.0875 26.6676 35.0875 27.4644C35.0875 28.2611 35.6622 28.8381 36.401 28.8381C36.7841 28.8381 37.0578 28.7007 37.2219 28.4535V28.7832H37.7966V27.4644ZM35.6896 27.4644C35.6896 26.9973 35.9906 26.6127 36.4831 26.6127C36.9483 26.6127 37.2767 26.9698 37.2767 27.4644C37.2767 27.9314 36.9483 28.3161 36.4831 28.3161C35.9906 28.2886 35.6896 27.9314 35.6896 27.4644ZM16.4801 27.4644V26.1456H15.9054V26.4753C15.7139 26.228 15.4402 26.0906 15.0845 26.0906C14.3457 26.0906 13.771 26.6676 13.771 27.4644C13.771 28.2611 14.3457 28.8381 15.0845 28.8381C15.4676 28.8381 15.7412 28.7007 15.9054 28.4535V28.7832H16.4801V27.4644ZM14.3457 27.4644C14.3457 26.9973 14.6467 26.6127 15.1392 26.6127C15.6044 26.6127 15.9328 26.9698 15.9328 27.4644C15.9328 27.9314 15.6044 28.3161 15.1392 28.3161C14.6467 28.2886 14.3457 27.9314 14.3457 27.4644Z" fill="black"/>
<path id="Vector_2" d="M27.6196 6H19V21.5507H27.6196V6Z" fill="#FF5F00"/>
<path id="Vector_3" d="M19.6262 13.8909C19.6262 10.7313 21.1038 7.92887 23.375 6.11555C21.7058 4.79676 19.5988 4 17.3002 4C11.8548 4 7.44922 8.42341 7.44922 13.8909C7.44922 19.3583 11.8548 23.7817 17.3002 23.7817C19.5988 23.7817 21.7058 22.985 23.375 21.6662C21.1038 19.8803 19.6262 17.0504 19.6262 13.8909Z" fill="#EB001B"/>
<path id="Vector_4" d="M39.3281 13.8909C39.3281 19.3583 34.9225 23.7817 29.4771 23.7817C27.1785 23.7817 25.0715 22.985 23.4023 21.6662C25.7008 19.8529 27.1511 17.0504 27.1511 13.8909C27.1511 10.7313 25.6735 7.92887 23.4023 6.11555C25.0715 4.79676 27.1785 4 29.4771 4C34.9225 4 39.3281 8.45089 39.3281 13.8909Z" fill="#F79E1B"/>
</g>
</g>
</svg>
