<svg width="48" height="32" viewBox="0 0 48 32" fill="none" xmlns="http://www.w3.org/2000/svg">
<g id="mono-bank-logo">
<path id="Vector" d="M15.9917 25.5606C15.8933 25.5366 15.7945 25.5139 15.6965 25.4877C15.148 25.3394 14.6687 25.0714 14.2727 24.6685C13.5896 23.9732 13.222 23.1424 13.1902 22.1717C13.1787 21.807 13.2215 21.4483 13.3085 21.094C13.4097 20.678 13.5678 20.2849 13.7748 19.9096C14.1053 19.3106 14.5353 18.7896 15.0437 18.3288C15.4269 17.9814 15.8445 17.6791 16.2919 17.4168C16.7106 17.171 17.1017 16.8872 17.4755 16.5798C17.9459 16.1922 18.3843 15.7708 18.8188 15.3454C19.2029 14.9692 19.5824 14.5895 19.9829 14.2309C20.2842 13.9603 20.5968 13.7036 20.9345 13.4781C21.3568 13.1964 21.807 12.9739 22.3098 12.8662C22.6871 12.7852 23.0661 12.7734 23.4479 12.8315C23.8796 12.8963 24.2969 13.0119 24.697 13.1853C25.3093 13.4512 25.8087 13.8542 26.206 14.3837C26.4776 14.7472 26.6918 15.1424 26.8836 15.5503C27.087 15.9829 27.2658 16.4257 27.4533 16.8653C27.6648 17.3603 27.8869 17.8499 28.1487 18.3219C28.4093 18.7923 28.7102 19.2367 29.0509 19.6546C29.463 20.1602 29.8117 20.7038 30.0859 21.2939C30.3192 21.7997 30.4893 22.3241 30.5751 22.8737C30.6419 23.3018 30.6553 23.7302 30.601 24.161C30.519 24.8154 30.2943 25.4157 29.8913 25.9472C29.5182 26.4399 29.0406 26.8046 28.4766 27.0623C28.0621 27.2516 27.6294 27.3751 27.1717 27.4062C27.0096 27.4177 26.847 27.4179 26.6849 27.4054C26.6623 27.4037 26.6402 27.4041 26.6182 27.4036C26.5953 27.4116 26.5738 27.399 26.5514 27.3979C26.5329 27.3972 26.5151 27.3857 26.4958 27.3941C26.3598 27.3705 26.2232 27.3468 26.0872 27.3233C26.0731 27.3088 26.0533 27.3138 26.0364 27.3086C26.0205 27.3058 26.0054 27.3032 25.9898 27.3005C25.9769 27.2983 25.9629 27.2959 25.9503 27.2937C25.6037 27.2222 25.2782 27.0918 24.9547 26.9563C24.4068 26.7258 23.8775 26.4559 23.3346 26.2145C22.8948 26.0195 22.4474 25.8455 21.9844 25.7103C21.6636 25.6164 21.3361 25.5555 21.0067 25.5098C20.7432 25.473 20.4761 25.4677 20.2102 25.4704C19.6848 25.4766 19.1623 25.5251 18.6397 25.5728C18.0868 25.6242 17.534 25.6747 16.9784 25.6682C16.7525 25.665 16.5272 25.6568 16.3044 25.616C16.2587 25.6075 16.2119 25.6064 16.1658 25.5972C16.1074 25.5838 16.0474 25.584 15.9917 25.5606ZM29.5637 5.42758C30.283 5.64207 30.7783 6.10769 31.103 6.76287C31.3256 7.21215 31.4303 7.6909 31.4593 8.1883C31.4834 8.61656 31.4456 9.04048 31.3559 9.46042C31.1909 10.232 30.8739 10.9371 30.4068 11.5771C30.0833 12.0206 29.6994 12.4046 29.2424 12.7141C28.8354 12.9889 28.395 13.1886 27.9071 13.276C27.5645 13.3373 27.2234 13.3379 26.8842 13.2584C26.2968 13.1217 25.8347 12.8019 25.4842 12.3223C25.1854 11.9131 25.0146 11.4513 24.9275 10.9578C24.8667 10.6126 24.8524 10.2653 24.875 9.91651C24.8902 9.67741 24.9216 9.44085 24.9714 9.20747C25.0883 8.65646 25.2859 8.1345 25.5625 7.6424C25.8563 7.11845 26.2233 6.65205 26.6809 6.25741C27.0659 5.92546 27.4933 5.66249 27.9792 5.49776C28.3363 5.3765 28.7033 5.32163 29.0815 5.34454C29.2888 5.35903 29.3707 5.37481 29.5637 5.42758ZM12.1342 11.1433C12.1854 10.9242 12.2647 10.714 12.3619 10.5106C12.5505 10.1153 12.805 9.76941 13.1541 9.49591C13.5442 9.19078 13.9881 9.02658 14.4866 9.0157C14.8913 9.00725 15.2713 9.10686 15.6299 9.28781C16.0421 9.49617 16.3872 9.78881 16.6773 10.1422C17.1282 10.6896 17.4095 11.3158 17.5589 12.0025C17.637 12.362 17.6704 12.7261 17.6591 13.0935C17.6537 13.2719 17.6346 13.4489 17.6067 13.6253C17.5531 13.9601 17.4603 14.2825 17.3185 14.5908C17.1293 15.0021 16.8706 15.3615 16.5102 15.6451C16.0964 15.9703 15.6237 16.1354 15.0939 16.1286C14.7052 16.1236 14.3409 16.0184 13.9981 15.8396C13.5372 15.5983 13.1664 15.2569 12.8597 14.8448C12.5603 14.4439 12.3448 14.0011 12.2002 13.5252C12.0586 13.0585 11.9888 12.5802 12.0015 12.092C12.0039 12.0057 12.0086 11.9198 12.0121 11.834C12.0099 11.794 12.0205 11.7554 12.018 11.7157C12.0165 11.699 12.0217 11.6842 12.0238 11.6676C12.0245 11.6468 12.0377 11.6268 12.0287 11.6043C12.0471 11.5016 12.0655 11.3991 12.084 11.2961C12.1085 11.2713 12.1045 11.2383 12.1121 11.2086C12.1177 11.1865 12.1163 11.1617 12.1342 11.1433ZM17.8355 7.11686C17.9477 6.50537 18.135 5.96879 18.4378 5.47371C18.6664 5.09931 18.9472 4.76938 19.3034 4.5052C19.6871 4.21987 20.114 4.04157 20.5968 4.0065C21.0796 3.97088 21.5278 4.0826 21.9457 4.31928C22.3137 4.52807 22.617 4.80928 22.8715 5.14196C23.278 5.67247 23.5297 6.2715 23.6696 6.91834C23.7584 7.32965 23.7958 7.74542 23.7844 8.16529C23.7779 8.40338 23.7563 8.6408 23.719 8.87717C23.671 9.17444 23.5992 9.46643 23.4971 9.7504C23.2843 10.3439 22.9719 10.8769 22.5064 11.3154C22.217 11.5872 21.8875 11.7963 21.5064 11.9221C21.0806 12.0624 20.649 12.077 20.2149 11.9672C19.8223 11.8682 19.4784 11.6764 19.172 11.417C18.7723 11.0789 18.4739 10.6647 18.2473 10.1988C17.9786 9.64567 17.8309 9.05992 17.7804 8.44921C17.7526 8.11513 17.7566 7.78096 17.7909 7.44733C17.8032 7.32205 17.817 7.19619 17.8355 7.11686ZM35.3243 15.5318C35.3201 15.5553 35.3158 15.5791 35.3116 15.6029C35.1783 16.1882 34.9186 16.7158 34.565 17.2007C34.2871 17.5805 33.9595 17.9138 33.578 18.1933C33.0883 18.5529 32.5495 18.806 31.9443 18.9091C31.5817 18.9708 31.2201 18.9695 30.8608 18.8868C30.3306 18.7642 29.8973 18.4917 29.5687 18.0634C29.2974 17.7093 29.1489 17.3061 29.0878 16.8706C29.0326 16.4802 29.0518 16.0909 29.1336 15.7053C29.3131 14.8573 29.7255 14.1298 30.3263 13.5026C30.5292 13.2902 30.7525 13.1003 30.9945 12.9332C31.4922 12.5909 32.0332 12.3552 32.6386 12.2733C32.9827 12.2276 33.324 12.2385 33.6604 12.3239C34.1743 12.454 34.5939 12.7272 34.9115 13.1478C35.198 13.5273 35.3441 13.96 35.3956 14.4262C35.4241 14.6837 35.4214 14.9417 35.384 15.1987C35.3798 15.2225 35.3755 15.2465 35.3712 15.2703C35.3528 15.3569 35.3375 15.444 35.3243 15.5318Z" fill="#040404"/>
</g>
</svg>
