<svg width="40" height="40" viewBox="0 0 40 40" fill="none" xmlns="http://www.w3.org/2000/svg">
<g clip-path="url(#clip0_159_3344)">
<path fill-rule="evenodd" clip-rule="evenodd" d="M16.3843 12.1264C16.3843 11.2591 16.368 10.3918 16.3843 9.51801C16.3934 9.36864 16.3706 9.21902 16.3174 9.07916C16.2641 8.93929 16.1818 8.81238 16.0756 8.70686C15.9695 8.60135 15.8421 8.51966 15.702 8.46726C15.5619 8.41485 15.4121 8.39293 15.2629 8.40293C14.249 8.42901 13.2319 8.40293 12.2148 8.40293C12.1049 8.4034 11.9954 8.39026 11.8888 8.3638C11.8426 8.35769 11.7989 8.33979 11.7617 8.31184C11.7245 8.28387 11.6952 8.24681 11.6765 8.2042C11.6578 8.1616 11.6505 8.1149 11.6551 8.06861C11.6597 8.02232 11.6762 7.978 11.7029 7.93994C11.7498 7.86406 11.8068 7.79495 11.8724 7.73454L19.2694 0.320236C19.361 0.219372 19.4727 0.138783 19.5974 0.0836349C19.722 0.0284875 19.8569 0 19.9931 0C20.1294 0 20.2641 0.0284875 20.3888 0.0836349C20.5134 0.138783 20.6251 0.219372 20.7169 0.320236L28.1007 7.70519C28.2376 7.84213 28.3974 7.99537 28.3061 8.2073C28.2147 8.41924 27.9801 8.40619 27.8008 8.40945C26.8228 8.40945 25.8709 8.43227 24.9091 8.40945C24.7554 8.3976 24.6007 8.41929 24.4561 8.47304C24.3114 8.52678 24.1801 8.61129 24.0714 8.72073C23.9626 8.83016 23.8789 8.96191 23.8259 9.10689C23.773 9.25186 23.7521 9.40659 23.7649 9.5604C23.7649 11.3015 23.7649 13.0426 23.7649 14.7771C23.7739 14.9256 23.7514 15.0744 23.6987 15.2135C23.6461 15.3526 23.5645 15.4791 23.4595 15.5844C23.3545 15.6897 23.2284 15.7716 23.0894 15.8247C22.9504 15.8777 22.8018 15.9008 22.6533 15.8923C20.9189 15.8726 19.1846 15.8923 17.4373 15.8923C17.2922 15.9076 17.1455 15.8904 17.008 15.8418C16.8705 15.7931 16.7456 15.7144 16.6425 15.6112C16.5392 15.508 16.4605 15.3831 16.4119 15.2456C16.3633 15.108 16.346 14.9614 16.3615 14.8162V12.1264H16.3843ZM16.3843 27.8614V25.015C16.374 24.8746 16.3941 24.7337 16.4434 24.6019C16.4925 24.47 16.5695 24.3504 16.6693 24.251C16.7689 24.1516 16.8888 24.075 17.0208 24.0261C17.1528 23.9774 17.2937 23.9578 17.434 23.9684C19.2041 23.9684 20.9711 23.9684 22.7413 23.9684C22.877 23.9675 23.0115 23.9936 23.137 24.045C23.2626 24.0964 23.3766 24.1723 23.4727 24.268C23.5689 24.3639 23.645 24.4778 23.6969 24.6031C23.7486 24.7286 23.7751 24.863 23.7747 24.9988C23.7584 26.8703 23.7747 28.745 23.7747 30.6165C23.7618 30.7735 23.7819 30.9314 23.8335 31.0801C23.8851 31.2289 23.9673 31.3653 24.0746 31.4805C24.1676 31.5773 24.2796 31.6539 24.4036 31.7055C24.5276 31.7571 24.6609 31.7826 24.7951 31.7805H27.5856C27.7052 31.7789 27.8246 31.792 27.941 31.8196C27.9856 31.8256 28.028 31.843 28.064 31.87C28.1 31.897 28.1286 31.9329 28.1469 31.974C28.1651 32.0153 28.1726 32.0604 28.1685 32.1053C28.1645 32.1501 28.149 32.1932 28.1235 32.2304C28.0755 32.3208 28.014 32.4032 27.941 32.475L20.7102 39.6871C20.6224 39.7819 20.5166 39.8582 20.3991 39.9119C20.2816 39.9654 20.1545 39.9953 20.0254 39.9995C19.8962 40.0037 19.7676 39.9824 19.6467 39.9365C19.526 39.8908 19.4154 39.8215 19.3215 39.7327C19.2759 39.6904 19.2302 39.648 19.1846 39.6024L13.258 33.665C12.8515 33.2585 12.4462 32.8488 12.042 32.4359C11.9148 32.3054 11.7681 32.1652 11.8529 31.9598C11.9377 31.7544 12.143 31.7576 12.3256 31.7576H15.3215C15.4634 31.7682 15.6059 31.7482 15.7393 31.699C15.8728 31.6497 15.9941 31.5725 16.0951 31.4724C16.1962 31.3722 16.2746 31.2516 16.325 31.1185C16.3755 30.9855 16.3967 30.8433 16.3875 30.7013C16.3875 29.7525 16.3875 28.8036 16.3875 27.8581L16.3843 27.8614ZM8.31905 19.9874C8.31905 22.5392 8.31905 25.09 8.31905 27.6396C8.32141 27.7703 8.30716 27.9006 8.27667 28.0276C8.27052 28.0723 8.25298 28.1145 8.2257 28.1503C8.19844 28.186 8.16239 28.2141 8.12105 28.2319C8.07971 28.2495 8.03449 28.2563 7.98979 28.2514C7.94508 28.2464 7.90241 28.23 7.86591 28.2038C7.76114 28.1453 7.66556 28.0716 7.58229 27.9853L0.3451 20.7504C0.235163 20.6553 0.147324 20.5372 0.0877275 20.4047C0.0281318 20.2721 -0.00178111 20.1281 8.19808e-05 19.9829C0.00194509 19.8375 0.0355393 19.6943 0.0985136 19.5633C0.161488 19.4323 0.252321 19.3166 0.36466 19.2244L7.61815 11.9731C7.75833 11.8329 7.91481 11.6797 8.12345 11.771C8.33209 11.8623 8.31905 12.0742 8.31905 12.2633V19.9874ZM31.8465 19.9874C31.8465 17.5159 31.8465 15.0445 31.8465 12.5731C31.8422 12.4194 31.8587 12.2659 31.8954 12.1166C31.9031 12.0768 31.9206 12.0396 31.9462 12.0082C31.9717 11.9768 32.0046 11.9521 32.042 11.9363C32.0794 11.9205 32.12 11.9142 32.1603 11.9177C32.2006 11.9213 32.2395 11.9347 32.2735 11.9568C32.3704 12.0035 32.4586 12.0664 32.5342 12.1427C34.925 14.5338 37.3156 16.9193 39.7062 19.2994C39.886 19.4754 39.991 19.7138 39.9995 19.9651C40.008 20.2165 39.9193 20.4615 39.7519 20.6493C39.7062 20.7014 39.6606 20.7502 39.6117 20.7993L34.976 25.4225L32.5506 27.8419C32.4104 27.982 32.2637 28.1353 32.0485 28.0472C31.8334 27.9592 31.8627 27.757 31.8497 27.5745C31.8497 27.506 31.8497 27.4375 31.8497 27.369C31.8497 24.9085 31.8497 22.4479 31.8497 19.9874H31.8465Z" fill="#FF090B"/>
</g>
<defs>
<clipPath id="clip0_159_3344">
<rect width="40" height="40" fill="white"/>
</clipPath>
</defs>
</svg>
