<svg width="34" height="34" viewBox="0 0 34 34" fill="none" xmlns="http://www.w3.org/2000/svg">
<path d="M33.6654 10.0333C33.6734 9.92791 33.6734 9.82205 33.6654 9.71665L30.332 1.38331C30.2018 1.05391 29.9701 0.77454 29.6704 0.585739C29.3707 0.396938 29.0187 0.30852 28.6654 0.333313H5.33203C4.99823 0.332989 4.67203 0.432904 4.39567 0.620114C4.11931 0.807324 3.90554 1.0732 3.78203 1.38331L0.448698 9.71665C0.440664 9.82205 0.440664 9.92791 0.448698 10.0333C0.393316 10.1261 0.353881 10.2275 0.332031 10.3333C0.350582 11.4854 0.667408 12.613 1.25161 13.6061C1.8358 14.5992 2.66743 15.424 3.66536 16V32C3.66536 32.442 3.84096 32.8659 4.15352 33.1785C4.46608 33.4911 4.89 33.6666 5.33203 33.6666H28.6654C29.1074 33.6666 29.5313 33.4911 29.8439 33.1785C30.1564 32.8659 30.332 32.442 30.332 32V16.0666C31.3396 15.4849 32.1774 14.6497 32.7622 13.6439C33.347 12.6381 33.6583 11.4967 33.6654 10.3333C33.681 10.2339 33.681 10.1327 33.6654 10.0333ZM18.6654 30.3333H15.332V23.6666H18.6654V30.3333ZM26.9987 30.3333H21.9987V22C21.9987 21.558 21.8231 21.134 21.5105 20.8215C21.198 20.5089 20.7741 20.3333 20.332 20.3333H13.6654C13.2233 20.3333 12.7994 20.5089 12.4869 20.8215C12.1743 21.134 11.9987 21.558 11.9987 22V30.3333H6.9987V17C7.94781 16.9946 8.88484 16.7867 9.74712 16.39C10.6094 15.9934 11.377 15.4172 11.9987 14.7C12.6243 15.4094 13.3937 15.9775 14.2558 16.3666C15.1179 16.7558 16.0529 16.9571 16.9987 16.9571C17.9445 16.9571 18.8795 16.7558 19.7416 16.3666C20.6037 15.9775 21.3731 15.4094 21.9987 14.7C22.6204 15.4172 23.388 15.9934 24.2503 16.39C25.1126 16.7867 26.0496 16.9946 26.9987 17V30.3333ZM26.9987 13.6666C26.1146 13.6666 25.2668 13.3155 24.6417 12.6903C24.0166 12.0652 23.6654 11.2174 23.6654 10.3333C23.6654 9.89128 23.4898 9.46736 23.1772 9.1548C22.8646 8.84224 22.4407 8.66665 21.9987 8.66665C21.5567 8.66665 21.1327 8.84224 20.8202 9.1548C20.5076 9.46736 20.332 9.89128 20.332 10.3333C20.332 11.2174 19.9808 12.0652 19.3557 12.6903C18.7306 13.3155 17.8828 13.6666 16.9987 13.6666C16.1146 13.6666 15.2668 13.3155 14.6417 12.6903C14.0166 12.0652 13.6654 11.2174 13.6654 10.3333C13.6654 9.89128 13.4898 9.46736 13.1772 9.1548C12.8646 8.84224 12.4407 8.66665 11.9987 8.66665C11.5567 8.66665 11.1327 8.84224 10.8202 9.1548C10.5076 9.46736 10.332 9.89128 10.332 10.3333C10.3484 10.7711 10.2785 11.2077 10.1261 11.6184C9.97378 12.0291 9.74203 12.4058 9.44411 12.7269C9.14619 13.0481 8.78793 13.3074 8.38979 13.4901C7.99166 13.6728 7.56144 13.7752 7.1237 13.7916C6.23964 13.8248 5.37863 13.5054 4.73006 12.9037C4.40893 12.6058 4.14962 12.2475 3.96693 11.8494C3.78425 11.4513 3.68178 11.0211 3.66536 10.5833L6.46536 3.66665H27.532L30.332 10.5833C30.2689 11.4233 29.89 12.2083 29.2716 12.7803C28.6532 13.3523 27.8411 13.669 26.9987 13.6666Z" fill="#FFBC57"/>
</svg>
