<svg width="48" height="32" viewBox="0 0 48 32" fill="none" xmlns="http://www.w3.org/2000/svg">
<g id="privat-pay-logo">
<path id="Vector" d="M11.2408 6C5.58912 6 1 10.5826 1 16.2408C1 21.8989 5.5826 26.4815 11.2408 26.4815C16.8989 26.4815 21.4815 21.8989 21.4815 16.2408C21.4815 10.5826 16.8989 6 11.2408 6ZM11.2408 25.3538C6.20839 25.3538 2.12772 21.2732 2.12772 16.2408C2.12772 11.2084 6.20839 7.12772 11.2408 7.12772C16.2732 7.12772 20.3538 11.2084 20.3538 16.2408C20.3538 21.2732 16.2732 25.3538 11.2408 25.3538Z" fill="#8DC641"/>
<path id="Vector_2" d="M14.7743 13.8765L12.5217 17.3075H14.7743V13.8765ZM15.6238 12.4883V17.3141H16.6149V18.1867H15.6238V19.9914H14.7678V18.1867H11.5821V17.248L14.7936 12.4949L15.6238 12.4883ZM10.6425 19.1122V19.9848H5.86719V19.9584C5.91224 19.1386 6.11819 18.5371 6.51721 18.0413C6.83899 17.6314 7.23158 17.3273 8.03605 16.8117C8.03605 16.8117 8.31922 16.6266 8.40289 16.5737C8.83408 16.2894 9.11082 16.0647 9.33607 15.8068C9.61281 15.4763 9.7544 15.1193 9.7544 14.6963C9.7544 13.8765 9.18805 13.3146 8.37714 13.3146C7.43109 13.3146 6.9484 14.055 6.92266 15.159V15.1788H6.07314V15.159L6.0667 14.9607C6.0667 13.4799 7.00632 12.4883 8.42219 12.4883C9.80589 12.4883 10.7068 13.3477 10.7068 14.6764C10.7068 15.3573 10.4687 15.906 10.0118 16.3886C9.67073 16.7588 9.31677 17.0034 8.52517 17.4992C8.5123 17.5058 8.50586 17.5124 8.49299 17.519C8.45437 17.5389 8.28061 17.6446 8.23556 17.6777C7.85585 17.909 7.62416 18.0743 7.41821 18.2726C7.16722 18.5172 6.99989 18.7883 6.92266 19.1056H10.6425V19.1122Z" fill="black"/>
<path id="Vector_3" d="M25.9023 11.2109H30.0861C31.126 11.2109 31.9419 11.4589 32.5419 11.9469C33.1419 12.4429 33.4458 13.1708 33.4458 14.1467C33.4458 15.0667 33.1659 15.7946 32.6059 16.3306C32.0459 16.8666 31.286 17.1386 30.318 17.1386H27.5982V20.8503H25.9023V11.2109ZM27.5982 12.6268V15.7866H29.9581C31.19 15.7866 31.7979 15.2587 31.7979 14.2027C31.7979 13.1548 31.134 12.6348 29.8061 12.6348L27.5982 12.6268Z" fill="black"/>
<path id="Vector_4" d="M34.3001 16.028C34.4601 14.4441 35.484 13.6602 37.3639 13.6602C38.2358 13.6602 38.9398 13.8281 39.4598 14.1721C39.9797 14.5161 40.2357 15.0521 40.2357 15.772V19.3158C40.2357 19.5158 40.2597 19.6518 40.3077 19.7238C40.3557 19.7958 40.4517 19.8358 40.5957 19.8358C40.7077 19.8358 40.8197 19.8278 40.9477 19.8118V20.8997C40.5477 20.9957 40.2197 21.0517 39.9477 21.0517C39.2918 21.0517 38.9078 20.7717 38.8118 20.2117C38.2278 20.7717 37.4039 21.0517 36.356 21.0517C35.636 21.0517 35.06 20.8677 34.6361 20.4917C34.2121 20.1157 33.9961 19.6118 33.9961 18.9638C33.9961 18.7638 34.0201 18.5798 34.0601 18.4119C34.1081 18.2439 34.1561 18.0919 34.2201 17.9639C34.2761 17.8359 34.3721 17.7239 34.5081 17.6119C34.6361 17.4999 34.7481 17.4119 34.8361 17.3399C34.9241 17.2679 35.06 17.2039 35.26 17.1399C35.452 17.0759 35.596 17.0279 35.692 16.9959C35.788 16.9639 35.948 16.9319 36.188 16.8919C36.42 16.86 36.5799 16.828 36.6519 16.82C36.7319 16.804 36.8919 16.788 37.1319 16.756C37.6839 16.684 38.0599 16.62 38.2598 16.572C38.4598 16.524 38.5958 16.444 38.6678 16.348C38.7318 16.276 38.7638 16.108 38.7638 15.844C38.7638 15.1401 38.2838 14.7881 37.3239 14.7881C36.8199 14.7881 36.452 14.8841 36.212 15.0761C35.98 15.2681 35.828 15.588 35.764 16.036H34.3001V16.028ZM38.7398 17.3559C38.6198 17.4199 38.4838 17.4759 38.3318 17.5239C38.1798 17.5719 38.0519 17.6039 37.9559 17.6199C37.8599 17.6359 37.7159 17.6519 37.5079 17.6839C37.3079 17.7079 37.1719 17.7319 37.1079 17.7399C36.9159 17.7639 36.7719 17.7959 36.6599 17.8119C36.5479 17.8359 36.42 17.8759 36.26 17.9239C36.1 17.9799 35.98 18.0439 35.892 18.1239C35.804 18.2039 35.732 18.3079 35.668 18.4358C35.604 18.5638 35.572 18.7238 35.572 18.8998C35.572 19.2358 35.684 19.4918 35.9 19.6678C36.124 19.8518 36.428 19.9398 36.8279 19.9398C37.5159 19.9398 38.0439 19.7558 38.4118 19.3878C38.6198 19.1798 38.7238 18.7798 38.7238 18.1799V17.3559H38.7398Z" fill="black"/>
<path id="Vector_5" d="M41.5254 13.7051L44.1665 20.9113L43.9198 21.6901C43.8149 22.0302 43.3449 22.5573 42.7938 22.5814H42.0646V24.0472H42.9966C44.0642 24.0472 45.0072 23.3513 45.3219 22.3311L45.6879 21.1447L45.6884 21.1431L48.0001 13.7051H46.3013L44.8663 18.3222L43.2448 13.7051H41.5254Z" fill="black"/>
</g>
</svg>
