<svg width="48" height="32" viewBox="0 0 48 32" fill="none" xmlns="http://www.w3.org/2000/svg">
<g id="visa-card-logo">
<path id="Vector" d="M13.7721 10.3122L10.2943 19.3344L9.955 17.4649C9.10675 15.189 7.24061 12.8319 5.03516 11.9378L8.2585 23.561H11.9907L17.5892 10.3122H13.7721ZM16.7409 23.561L18.9464 10.3122H22.509L20.3036 23.561H16.7409ZM37.9471 18.8467C38.2016 18.1152 39.3891 15.1078 39.3891 15.1078C39.3891 15.1078 39.6436 14.3762 39.8981 13.8073L40.1525 14.9452L41.0008 18.7654H37.9471V18.8467ZM42.2732 10.3122H39.5588C38.7105 10.3122 38.0319 10.556 37.6926 11.4501L32.4335 23.561H36.1658C36.1658 23.561 36.7596 21.9354 36.9292 21.5289C37.3533 21.5289 41.0008 21.5289 41.5097 21.5289C41.5946 22.0166 41.9339 23.4797 41.9339 23.4797H45.242C45.1572 23.561 42.2732 10.3122 42.2732 10.3122ZM33.1969 10.6373C32.5183 10.3935 31.4156 10.0684 29.9736 10.0684C26.4958 10.0684 23.951 11.8565 23.951 14.4575C23.951 16.327 25.7323 17.4649 27.0895 18.0339C28.4467 18.6841 28.9557 19.0905 28.9557 19.6595C28.9557 20.5536 27.853 20.96 26.8351 20.96C25.393 20.96 24.6296 20.7974 23.5269 20.2285L23.018 20.0659L22.509 22.992C23.3573 23.3984 24.8841 23.6423 26.4958 23.7235C30.2281 23.7235 32.688 21.9354 32.688 19.1718C32.688 17.6275 31.7549 16.4895 29.7191 15.5955C28.4467 14.9452 27.6833 14.5388 27.7681 13.9698C27.7681 13.4009 28.4467 12.8319 29.8039 12.8319C30.737 12.8319 31.6701 12.9945 32.4335 13.3196L32.7728 13.4822C32.688 13.4822 33.1969 10.6373 33.1969 10.6373Z" fill="#1B548E"/>
<path id="Vector_2" d="M7.56322 10.0684H2V10.3241C6.33604 11.5174 9.11765 14.3303 10.3448 17.6546L9.11765 11.2617C8.87221 10.3241 8.29953 10.0684 7.56322 10.0684Z" fill="#E89F3E"/>
</g>
</svg>
