<?xml version="1.0" encoding="utf-8"?><svg xmlns="http://www.w3.org/2000/svg" xmlns:xlink="http://www.w3.org/1999/xlink"><symbol viewBox="0 0 19 21" id="icon-account" xmlns="http://www.w3.org/2000/svg"><path d="M9.5 10.5c-2.773 0-5-2.227-5-5 0-2.734 2.227-5 5-5 2.734 0 5 2.266 5 5 0 2.773-2.266 5-5 5Zm1.953 1.875a6.802 6.802 0 0 1 6.797 6.797c0 .742-.625 1.328-1.367 1.328H2.078A1.317 1.317 0 0 1 .75 19.172c0-3.75 3.008-6.797 6.758-6.797h3.945Z"/></symbol><symbol viewBox="0 0 12 13" id="icon-arrow" xmlns="http://www.w3.org/2000/svg"><path d="M10.977 6.504a.848.848 0 0 1-.602.246.866.866 0 0 1-.629-.246L6.875 3.633V12c0 .492-.41.875-.875.875-.438 0-.875-.383-.875-.875V3.633l-2.898 2.87a.843.843 0 0 1-1.23 0 .843.843 0 0 1 0-1.23L5.37.898a.843.843 0 0 1 1.23 0l4.376 4.375a.843.843 0 0 1 0 1.23Z"/></symbol><symbol viewBox="0 0 11 21" id="icon-facebook" xmlns="http://www.w3.org/2000/svg"><path d="M10.148 11.75h-2.93v8.75H3.314v-8.75H.108V8.156h3.204V5.383C3.313 2.258 5.187.5 8.038.5c1.367 0 2.813.273 2.813.273V3.86H9.25c-1.563 0-2.031.938-2.031 1.954v2.343h3.476l-.547 3.594Z"/></symbol><symbol viewBox="0 0 16 13" id="icon-filter" xmlns="http://www.w3.org/2000/svg"><path d="M1.082 1.254A1.125 1.125 0 0 1 2.094.625h11.812c.41 0 .793.246.985.629.164.383.109.848-.164 1.176L9.75 8.527V12a.852.852 0 0 1-.492.793.944.944 0 0 1-.93-.082l-1.75-1.313c-.219-.164-.328-.41-.328-.71v-2.16L1.246 2.43a1.148 1.148 0 0 1-.164-1.176Z"/></symbol><symbol viewBox="0 0 21 19" id="icon-heart" xmlns="http://www.w3.org/2000/svg"><path d="m10.031 2.781.43.469.469-.43c1.289-1.289 3.125-1.875 4.883-1.562A5.582 5.582 0 0 1 20.5 6.766v.195a5.91 5.91 0 0 1-1.875 4.297l-7.07 6.601c-.274.274-.664.391-1.055.391-.43 0-.82-.117-1.094-.39l-7.07-6.602C1.164 10.164.5 8.602.5 6.96v-.195c0-2.735 1.953-5.079 4.648-5.508 1.758-.313 3.594.273 4.883 1.523 0 .04-.039 0 0 0Zm.43 3.125L8.703 4.11a3.82 3.82 0 0 0-3.242-1.015 3.697 3.697 0 0 0-3.086 3.672v.195c0 1.133.43 2.187 1.25 2.93l6.875 6.406 6.836-6.406a3.93 3.93 0 0 0 1.289-2.93v-.195c0-1.836-1.328-3.36-3.125-3.672a3.82 3.82 0 0 0-3.242 1.015L10.46 5.906Z"/></symbol><symbol viewBox="0 0 19 19" id="icon-instagram" xmlns="http://www.w3.org/2000/svg"><path d="M9.5 5.008c2.46 0 4.492 2.031 4.492 4.492 0 2.5-2.031 4.492-4.492 4.492A4.468 4.468 0 0 1 5.008 9.5 4.493 4.493 0 0 1 9.5 5.008Zm0 7.422c1.602 0 2.89-1.29 2.89-2.93A2.884 2.884 0 0 0 9.5 6.61c-1.64 0-2.93 1.288-2.93 2.89 0 1.64 1.328 2.93 2.93 2.93Zm5.703-7.578a1.05 1.05 0 0 0-1.055-1.055 1.05 1.05 0 0 0-1.054 1.055 1.05 1.05 0 0 0 1.054 1.054 1.05 1.05 0 0 0 1.055-1.054Zm2.969 1.054c.078 1.446.078 5.782 0 7.227-.078 1.406-.39 2.617-1.406 3.672-1.016 1.015-2.266 1.328-3.672 1.406-1.446.078-5.781.078-7.227 0-1.406-.078-2.617-.39-3.672-1.406C1.18 15.75.867 14.539.79 13.133c-.078-1.445-.078-5.781 0-7.227.078-1.406.39-2.656 1.406-3.672C3.25 1.22 4.461.906 5.867.828c1.446-.078 5.781-.078 7.227 0 1.406.078 2.656.39 3.672 1.406C17.78 3.25 18.094 4.5 18.172 5.906Zm-1.875 8.75c.469-1.133.351-3.867.351-5.156 0-1.25.118-3.984-.351-5.156-.313-.742-.899-1.367-1.64-1.64-1.173-.47-3.907-.352-5.157-.352-1.29 0-4.023-.118-5.156.351a3.013 3.013 0 0 0-1.68 1.64C2.195 5.517 2.312 8.25 2.312 9.5c0 1.29-.117 4.023.352 5.156a2.962 2.962 0 0 0 1.68 1.68c1.133.469 3.867.352 5.156.352 1.25 0 3.984.117 5.156-.352.742-.313 1.367-.898 1.64-1.68Z"/></symbol><symbol viewBox="0 0 18 17" id="icon-kite" xmlns="http://www.w3.org/2000/svg"><path d="M16.656 1.156c.25.157.375.438.282.719l-2 13.5c-.032.219-.157.438-.376.531a.654.654 0 0 1-.343.125.927.927 0 0 1-.313-.062l-3.062-1.313-3.469 2.25a.96.96 0 0 1-.406.094 1.61 1.61 0 0 1-.344-.063.784.784 0 0 1-.375-.687v-3.531l-4.813-2c-.25-.125-.437-.375-.437-.656a.696.696 0 0 1 .375-.688l14.5-8.25a.709.709 0 0 1 .781.031ZM12.531 4.75 3.437 9.906l3.25 1.375 5.844-6.531ZM7.72 14.875l1.437-.906-1.437-.625v1.531Zm5.906-.688 1.5-10.093-7 7.781 5.5 2.313Z"/></symbol><symbol viewBox="0 0 19 18" id="icon-linkedin" xmlns="http://www.w3.org/2000/svg"><path d="M4.656 18H1.023V6.32h3.633V18ZM2.82 4.758C1.688 4.758.75 3.78.75 2.609.75 1.008 2.469-.008 3.875.813c.664.351 1.055 1.054 1.055 1.796 0 1.172-.938 2.149-2.11 2.149ZM18.21 18h-3.593v-5.664c0-1.367-.039-3.086-1.914-3.086s-2.148 1.445-2.148 2.969V18H6.922V6.32h3.476v1.602h.04c.507-.899 1.68-1.875 3.437-1.875 3.672 0 4.375 2.422 4.375 5.547V18h-.04Z"/></symbol><symbol viewBox="0 0 19 21" id="icon-shop" xmlns="http://www.w3.org/2000/svg"><path d="M5.125 4.875C5.125 2.492 7.078.5 9.5.5c2.383 0 4.375 1.992 4.375 4.375V6.75h2.5c1.016 0 1.875.86 1.875 1.875v8.125c0 2.07-1.68 3.75-3.75 3.75h-10c-2.11 0-3.75-1.68-3.75-3.75V8.625c0-1.016.82-1.875 1.875-1.875h2.5V4.875ZM7 6.75h5V4.875c0-1.367-1.133-2.5-2.5-2.5a2.492 2.492 0 0 0-2.5 2.5V6.75Zm-.938 3.75c.508 0 .938-.39.938-.938a.95.95 0 0 0-.938-.937.925.925 0 0 0-.937.938c0 .546.39.937.938.937Zm6.875-1.875a.925.925 0 0 0-.937.938c0 .546.39.937.938.937.507 0 .937-.39.937-.938a.95.95 0 0 0-.938-.937Z"/></symbol><symbol viewBox="0 0 18 29" id="icon-slide" xmlns="http://www.w3.org/2000/svg"><path d="M3 29c-.563 0-1.063-.188-1.438-.563a1.927 1.927 0 0 1 0-2.812L12.126 15 1.562 4.437a1.927 1.927 0 0 1 0-2.812 1.927 1.927 0 0 1 2.813 0l12 12c.813.75.813 2.063 0 2.813l-12 12A1.939 1.939 0 0 1 3 29Z"/></symbol><symbol viewBox="0 0 21 17" id="icon-twitter" xmlns="http://www.w3.org/2000/svg"><path d="M18.43 4.438v.546c0 5.43-4.102 11.641-11.64 11.641-2.345 0-4.493-.664-6.29-1.836.313.04.625.078.977.078a8.247 8.247 0 0 0 5.078-1.758c-1.797-.039-3.32-1.21-3.828-2.851.273.039.507.078.78.078.352 0 .743-.078 1.055-.156a4.107 4.107 0 0 1-3.28-4.024v-.039c.546.313 1.21.469 1.874.508A4.036 4.036 0 0 1 1.32 3.227c0-.782.196-1.485.547-2.07a11.9 11.9 0 0 0 8.477 4.296 3.849 3.849 0 0 1-.117-.937A4.101 4.101 0 0 1 14.328.414c1.172 0 2.227.469 3.008 1.29A8.663 8.663 0 0 0 19.914.687a4.007 4.007 0 0 1-1.797 2.265 7.687 7.687 0 0 0 2.344-.625c-.547.82-1.25 1.524-2.031 2.11Z"/></symbol><symbol viewBox="0 0 22 22" id="icon-zoom" xmlns="http://www.w3.org/2000/svg"><mask id="la"><path d="M21.031 18.844a1.63 1.63 0 0 1 0 2.226 1.63 1.63 0 0 1-2.226 0l-4.649-4.687c-1.601 1.055-3.554 1.601-5.664 1.328-3.594-.508-6.484-3.438-6.953-6.992-.664-5.313 3.828-9.805 9.14-9.14 3.555.468 6.485 3.359 6.993 6.952a8.111 8.111 0 0 1-1.328 5.625l4.687 4.688ZM4.586 9.625c0 2.773 2.226 5 5 5 2.734 0 5-2.227 5-5 0-2.734-2.266-5-5-5-2.774 0-5 2.266-5 5Z"/></mask><path d="M21.031 18.844a1.63 1.63 0 0 1 0 2.226 1.63 1.63 0 0 1-2.226 0l-4.649-4.687c-1.601 1.055-3.554 1.601-5.664 1.328-3.594-.508-6.484-3.438-6.953-6.992-.664-5.313 3.828-9.805 9.14-9.14 3.555.468 6.485 3.359 6.993 6.952a8.111 8.111 0 0 1-1.328 5.625l4.687 4.688ZM4.586 9.625c0 2.773 2.226 5 5 5 2.734 0 5-2.227 5-5 0-2.734-2.266-5-5-5-2.774 0-5 2.266-5 5Z"/><path d="m21.031 18.844.365-.342-.006-.006-.005-.006-.354.354Zm0 2.226.342.365.012-.011.011-.012-.365-.342Zm-2.226 0-.355.352.006.007.007.006.342-.365Zm-4.649-4.687.355-.352-.288-.29-.342.224.275.418ZM8.492 17.71l-.07.495h.006l.064-.495ZM1.54 10.719l-.496.062v.003l.496-.065Zm9.14-9.14.066-.497h-.003l-.062.496Zm6.993 6.952.496-.064-.001-.006-.495.07Zm-1.328 5.625-.415-.28-.23.342.291.292.354-.354Zm4.322 5.03a1.13 1.13 0 0 1 0 1.542l.73.684a2.13 2.13 0 0 0 0-2.91l-.73.684Zm.023 1.52a1.13 1.13 0 0 1-1.542 0l-.684.73a2.13 2.13 0 0 0 2.91 0l-.684-.73Zm-1.53.012-4.648-4.687-.71.704 4.649 4.687.71-.704Zm-5.278-4.753c-1.51.995-3.344 1.507-5.325 1.25l-.128.992c2.238.29 4.31-.292 6.003-1.407l-.55-.835Zm-5.319 1.25c-3.372-.476-6.088-3.23-6.527-6.562l-.992.131c.499 3.778 3.564 6.883 7.38 7.422l.14-.99Zm-6.527-6.558c-.623-4.99 3.594-9.206 8.583-8.583l.124-.992C5.106.377.338 5.145 1.042 10.781l.993-.124Zm8.58-8.583c3.33.44 6.085 3.155 6.562 6.527l.99-.14c-.54-3.815-3.644-6.88-7.422-7.379l-.13.992Zm6.561 6.522a7.61 7.61 0 0 1-1.247 5.28l.83.56a8.61 8.61 0 0 0 1.409-5.969l-.992.129ZM15.99 14.51l4.688 4.687.707-.707-4.688-4.687-.707.707ZM4.086 9.625c0 3.05 2.45 5.5 5.5 5.5v-1a4.485 4.485 0 0 1-4.5-4.5h-1Zm5.5 5.5c3.008 0 5.5-2.448 5.5-5.5h-1c0 2.495-2.04 4.5-4.5 4.5v1Zm5.5-5.5c0-3.01-2.49-5.5-5.5-5.5v1c2.458 0 4.5 2.042 4.5 4.5h1Zm-5.5-5.5c-3.052 0-5.5 2.492-5.5 5.5h1c0-2.46 2.005-4.5 4.5-4.5v-1Z" mask="url(#la)"/></symbol></svg>