<svg width="28" height="28" viewBox="0 0 28 28" fill="none" xmlns="http://www.w3.org/2000/svg">
<path d="M17.6241 9.71996L11.9041 15.4533L9.70407 13.2533C9.58454 13.1137 9.43745 13.0004 9.27203 12.9203C9.10661 12.8403 8.92643 12.7953 8.74281 12.7882C8.55918 12.7811 8.37607 12.8121 8.20497 12.8791C8.03387 12.9461 7.87847 13.0478 7.74853 13.1778C7.6186 13.3077 7.51692 13.4631 7.44989 13.6342C7.38285 13.8053 7.35191 13.9884 7.359 14.172C7.3661 14.3557 7.41107 14.5358 7.4911 14.7013C7.57113 14.8667 7.68449 15.0138 7.82407 15.1333L10.9574 18.28C11.082 18.4035 11.2297 18.5013 11.3922 18.5677C11.5546 18.634 11.7286 18.6676 11.9041 18.6666C12.2539 18.6652 12.5891 18.5263 12.8374 18.28L19.5041 11.6133C19.629 11.4893 19.7282 11.3419 19.7959 11.1794C19.8636 11.0169 19.8985 10.8426 19.8985 10.6666C19.8985 10.4906 19.8636 10.3163 19.7959 10.1539C19.7282 9.99138 19.629 9.84391 19.5041 9.71996C19.2543 9.47162 18.9163 9.33224 18.5641 9.33224C18.2118 9.33224 17.8739 9.47162 17.6241 9.71996ZM13.9974 0.666626C11.3603 0.666626 8.78245 1.44861 6.5898 2.9137C4.39714 4.37878 2.68818 6.46116 1.67901 8.89751C0.66984 11.3339 0.405795 14.0147 0.920265 16.6012C1.43473 19.1876 2.70461 21.5633 4.56931 23.428C6.43401 25.2927 8.80978 26.5626 11.3962 27.0771C13.9826 27.5916 16.6635 27.3275 19.0998 26.3184C21.5362 25.3092 23.6186 23.6002 25.0837 21.4076C26.5487 19.2149 27.3307 16.637 27.3307 14C27.3307 12.249 26.9859 10.5152 26.3158 8.89751C25.6457 7.27984 24.6636 5.80998 23.4255 4.57187C22.1874 3.33375 20.7175 2.35163 19.0998 1.68157C17.4822 1.0115 15.7484 0.666626 13.9974 0.666626ZM13.9974 24.6666C11.8877 24.6666 9.82544 24.041 8.07132 22.869C6.31719 21.6969 4.95002 20.031 4.14269 18.0819C3.33535 16.1328 3.12412 13.9881 3.53569 11.919C3.94727 9.84986 4.96317 7.94925 6.45493 6.45749C7.94669 4.96573 9.84731 3.94983 11.9164 3.53825C13.9856 3.12667 16.1303 3.33791 18.0794 4.14524C20.0284 4.95258 21.6943 6.31975 22.8664 8.07388C24.0385 9.828 24.6641 11.8903 24.6641 14C24.6641 16.8289 23.5403 19.542 21.5399 21.5424C19.5395 23.5428 16.8264 24.6666 13.9974 24.6666Z" fill="#FFBC57"/>
</svg>
