<svg width="26" height="23" viewBox="0 0 26 23" fill="none" xmlns="http://www.w3.org/2000/svg">
<path d="M23.5632 2.43654C22.1886 1.05845 20.3666 0.217338 18.4262 0.0651471C16.4857 -0.0870437 14.5549 0.45972 12.9823 1.60667C11.3325 0.379549 9.27898 -0.176889 7.23533 0.049415C5.19168 0.275719 3.30968 1.26795 1.96831 2.8263C0.626943 4.38466 -0.0741483 6.39337 0.00621808 8.44794C0.0865844 10.5025 0.942439 12.4503 2.40143 13.8991L10.4538 21.9645C11.1281 22.6281 12.0362 23 12.9823 23C13.9284 23 14.8365 22.6281 15.5108 21.9645L23.5632 13.8991C25.0771 12.3759 25.9269 10.3155 25.9269 8.16784C25.9269 6.0202 25.0771 3.95979 23.5632 2.43654ZM21.7348 12.1097L13.6825 20.1621C13.5909 20.2546 13.4818 20.3281 13.3616 20.3782C13.2414 20.4283 13.1125 20.4541 12.9823 20.4541C12.8521 20.4541 12.7232 20.4283 12.603 20.3782C12.4828 20.3281 12.3737 20.2546 12.2821 20.1621L4.22974 12.0708C3.21284 11.0313 2.64341 9.63499 2.64341 8.18081C2.64341 6.72664 3.21284 5.33027 4.22974 4.29079C5.26599 3.2677 6.66357 2.69402 8.11977 2.69402C9.57597 2.69402 10.9735 3.2677 12.0098 4.29079C12.1303 4.41232 12.2737 4.50879 12.4318 4.57462C12.5898 4.64045 12.7593 4.67434 12.9304 4.67434C13.1016 4.67434 13.2711 4.64045 13.4291 4.57462C13.5871 4.50879 13.7305 4.41232 13.8511 4.29079C14.8873 3.2677 16.2849 2.69402 17.7411 2.69402C19.1973 2.69402 20.5949 3.2677 21.6311 4.29079C22.662 5.31665 23.2501 6.70544 23.2695 8.15966C23.2889 9.61387 22.738 11.0178 21.7348 12.0708V12.1097Z" fill="#535353"/>
</svg>
