<svg width="24" height="23" viewBox="0 0 24 23" fill="none" xmlns="http://www.w3.org/2000/svg">
<path d="M20.0918 12.6961C19.8379 12.6961 19.5724 12.6153 19.3185 12.5576C18.8047 12.4427 18.2995 12.2923 17.8065 12.1074C17.2711 11.9126 16.6825 11.9228 16.1541 12.1358C15.6256 12.3489 15.1947 12.7499 14.9441 13.2616L14.6902 13.7925C13.5693 13.1568 12.5337 12.3811 11.6085 11.4842C10.7115 10.5589 9.93585 9.52341 9.30013 8.40248L9.83106 8.16011C10.3428 7.90955 10.7438 7.47859 10.9568 6.95016C11.1699 6.42173 11.18 5.83316 10.9852 5.29772C10.8019 4.8003 10.6516 4.29136 10.5351 3.77419C10.4774 3.52027 10.4312 3.25481 10.3966 3.00089C10.2564 2.1879 9.83062 1.45167 9.19582 0.92478C8.56101 0.397891 7.75894 0.114967 6.93405 0.126961H3.45994C2.97201 0.126321 2.48944 0.228815 2.04389 0.427723C1.59834 0.626631 1.19985 0.917461 0.874563 1.28115C0.542526 1.65471 0.295294 2.09572 0.149853 2.57388C0.00441115 3.05204 -0.0357916 3.55603 0.0320062 4.0512C0.659408 8.85509 2.85424 13.3178 6.27616 16.7473C9.70565 20.1692 14.1683 22.364 18.9722 22.9914C19.122 23.0029 19.2725 23.0029 19.4224 22.9914C20.2735 22.9927 21.0952 22.6804 21.7307 22.1142C22.0944 21.7889 22.3852 21.3905 22.5842 20.9449C22.7831 20.4994 22.8856 20.0168 22.8849 19.5289V16.0663C22.8787 15.2688 22.5974 14.4979 22.0885 13.8838C21.5795 13.2698 20.8743 12.8502 20.0918 12.6961ZM20.6573 19.6212C20.657 19.7822 20.6229 19.9414 20.5573 20.0885C20.4917 20.2356 20.396 20.3674 20.2765 20.4753C20.15 20.5905 19.9994 20.6762 19.8357 20.7261C19.672 20.776 19.4993 20.7889 19.33 20.7638C15.0229 20.2013 11.0202 18.2385 7.93819 15.1776C4.85359 12.093 2.87365 8.07627 2.30576 3.75111C2.28068 3.58183 2.29356 3.40909 2.34347 3.2454C2.39337 3.08172 2.47905 2.93117 2.5943 2.80468C2.70351 2.68366 2.83712 2.58715 2.98632 2.5215C3.13552 2.45585 3.29694 2.42255 3.45994 2.42379H6.92251C7.18931 2.41727 7.45013 2.50342 7.66057 2.66756C7.87101 2.8317 8.01806 3.0637 8.07669 3.32406C8.07669 3.63569 8.18057 3.95886 8.24982 4.27049C8.38322 4.87513 8.56067 5.4692 8.78075 6.04794L7.16489 6.80971C6.88715 6.9372 6.67131 7.16964 6.56471 7.45605C6.44927 7.73705 6.44927 8.05223 6.56471 8.33323C8.22581 11.8913 11.0859 14.7514 14.644 16.4125C14.925 16.528 15.2402 16.528 15.5212 16.4125C15.8076 16.3059 16.0401 16.0901 16.1675 15.8124L16.8947 14.1965C17.4901 14.4136 18.0993 14.591 18.7183 14.7274C19.0184 14.7967 19.3416 14.8544 19.6532 14.9006C19.9136 14.9592 20.1456 15.1062 20.3097 15.3167C20.4738 15.5271 20.56 15.7879 20.5535 16.0547L20.6573 19.6212ZM13.8476 0C13.5822 0 13.3052 0 13.0397 0C12.7336 0.0260193 12.4504 0.172575 12.2523 0.407425C12.0542 0.642276 11.9576 0.946184 11.9836 1.25229C12.0096 1.5584 12.1562 1.84164 12.391 2.03969C12.6259 2.23775 12.9298 2.33439 13.2359 2.30838H13.8476C15.6843 2.30838 17.4457 3.03798 18.7444 4.3367C20.0431 5.63541 20.7728 7.39684 20.7728 9.2335C20.7728 9.44125 20.7728 9.63747 20.7728 9.84522C20.7472 10.1497 20.8434 10.4519 21.0402 10.6856C21.2371 10.9193 21.5187 11.0653 21.8231 11.0917H21.9154C22.2043 11.0929 22.4832 10.9857 22.6969 10.7912C22.9106 10.5967 23.0436 10.3292 23.0696 10.0414C23.0696 9.77597 23.0696 9.49896 23.0696 9.2335C23.0696 6.78662 22.0984 4.43979 20.3692 2.70851C18.6401 0.977221 16.2945 0.0030586 13.8476 0ZM16.156 9.2335C16.156 9.53961 16.2776 9.83318 16.4941 10.0496C16.7105 10.2661 17.0041 10.3877 17.3102 10.3877C17.6163 10.3877 17.9099 10.2661 18.1263 10.0496C18.3428 9.83318 18.4644 9.53961 18.4644 9.2335C18.4644 8.00906 17.978 6.83477 17.1122 5.96897C16.2464 5.10316 15.0721 4.61675 13.8476 4.61675C13.5415 4.61675 13.2479 4.73835 13.0315 4.9548C12.815 5.17126 12.6934 5.46483 12.6934 5.77094C12.6934 6.07705 12.815 6.37062 13.0315 6.58707C13.2479 6.80352 13.5415 6.92513 13.8476 6.92513C14.4598 6.92513 15.047 7.16833 15.4799 7.60123C15.9128 8.03414 16.156 8.62128 16.156 9.2335Z" fill="#535353"/>
</svg>
