<svg width="24" height="24" viewBox="0 0 24 24" fill="none" xmlns="http://www.w3.org/2000/svg">
<path d="M20.4893 3.51083C15.808 -1.16999 8.19196 -1.16999 3.51062 3.51083C-1.17021 8.19166 -1.17021 15.8079 3.51062 20.489C5.85127 22.8294 8.92565 23.9998 12 23.9998C15.0743 23.9998 18.1487 22.8294 20.4893 20.489C25.1702 15.8082 25.1702 8.19194 20.4893 3.51083ZM7.72837 5.64734C8.17143 5.20376 8.76186 4.95926 9.38947 4.95926C10.0171 4.95926 10.6075 5.20376 11.0511 5.64781C11.4947 6.09138 11.7389 6.6813 11.7389 7.30868C11.7389 7.93628 11.4947 8.5262 11.0506 8.97001C10.607 9.41382 10.0171 9.65809 9.38947 9.65809C8.76186 9.65809 8.17194 9.41387 7.72837 8.97001C7.28428 8.52616 7.04006 7.93628 7.04006 7.30868C7.04006 6.68107 7.28428 6.0912 7.72837 5.64734ZM8.12352 16.9838C7.97057 17.1367 7.77018 17.2132 7.56984 17.2132C7.3695 17.2132 7.16906 17.1367 7.01615 16.9838C6.71015 16.6782 6.71015 16.182 7.01611 15.8764L15.8764 7.01608C16.1823 6.71018 16.6779 6.71018 16.9838 7.01608C17.2898 7.32171 17.2898 7.81783 16.9838 8.1235L8.12352 16.9838ZM16.7936 17.8381C16.3506 18.2816 15.7601 18.5261 15.1325 18.5261C14.5049 18.5261 13.9145 18.2816 13.4709 17.8376C13.0273 17.3943 12.7831 16.8044 12.7831 16.1767C12.7831 15.5491 13.0273 14.9592 13.4714 14.5154C13.9145 14.0718 14.5049 13.8273 15.1325 13.8273C15.7601 13.8273 16.3506 14.0718 16.7941 14.5159C17.2377 14.9594 17.4819 15.5494 17.4819 16.1767C17.4819 16.8043 17.2377 17.3942 16.7936 17.8381Z" fill="#FFBC57"/>
</svg>
