<svg width="18" height="15" viewBox="0 0 18 15" fill="none" xmlns="http://www.w3.org/2000/svg">
<path d="M17.2987 0.62861L14.6195 14.1365C14.6195 14.1365 14.2449 15.0733 13.2145 14.6236L7.03189 9.88361L4.78377 8.79705L0.999315 7.52299C0.999315 7.52299 0.418534 7.31697 0.362284 6.86732C0.306151 6.41767 1.01807 6.17416 1.01807 6.17416L16.0621 0.272595C16.0621 0.272595 17.2987 -0.270686 17.2987 0.62861Z" fill="white"/>
<path d="M6.55662 13.9848C6.55662 13.9848 6.37615 13.9679 6.15127 13.2559C5.9265 12.544 4.78369 8.79701 4.78369 8.79701L13.8701 3.0267C13.8701 3.0267 14.3947 2.70818 14.376 3.0267C14.376 3.0267 14.4696 3.08283 14.1886 3.3451C13.9076 3.60748 7.05057 9.77119 7.05057 9.77119" fill="#D2E5F1"/>
<path d="M9.40242 11.701L6.95695 13.9306C6.95695 13.9306 6.76582 14.0757 6.55664 13.9848L7.02492 9.84325" fill="#B5CFE4"/>
</svg>
